<svg xmlns="http://www.w3.org/2000/svg" width="319" height="309.939" viewBox="0 0 319 309.939">
  <g id="Grupo_8640" data-name="Grupo 8640" transform="translate(-801 -958.061)">
    <text id="Incrementar_las_ventas_en_el_mercado" data-name="Incrementar las ventas en el mercado" transform="translate(801 1197)" fill="#5f3bbf" font-size="18" font-family="OpenSans-Semibold, Open Sans" font-weight="600"><tspan x="36.466" y="19">Incrementar las ventas en el </tspan><tspan x="121.048" y="49">mercado</tspan></text>
    <g id="Grupo_8482" data-name="Grupo 8482" transform="translate(162.029 753.976)">
      <circle id="Elipse_560" data-name="Elipse 560" cx="32.141" cy="32.141" r="32.141" transform="translate(746.365 319.024) rotate(-85.018)" fill="#d9f0f8" opacity="0.49"/>
      <path id="Trazado_17455" data-name="Trazado 17455" d="M902.631,287.371l-3.9-3.852.025-.345c.01-.14.985-13.873,1.606-19.634l-1.171-2.515a.752.752,0,0,1,1.4-.554l1.307,2.861-.02.186c-.562,5.122-1.436,17.216-1.6,19.419l2.33,2.3,2.065-2.107L902.7,263.409l.059-.164c0-.012.591-1.547,1.134-2.853a.756.756,0,0,1,.975-.423.745.745,0,0,1,.423.974c-.464,1.1-.926,2.289-1.059,2.651l2.019,20.082Z" transform="translate(-99.975 -32.279)" fill="#1c428c"/>
      <path id="Trazado_17456" data-name="Trazado 17456" d="M991.224,395.324a1.924,1.924,0,1,1,1.925-1.924A1.926,1.926,0,0,1,991.224,395.324Zm0-3.1A1.173,1.173,0,1,0,992.4,393.4,1.174,1.174,0,0,0,991.224,392.227Z" transform="translate(-147.453 -97.786)" fill="#1c428c"/>
      <path id="Trazado_17457" data-name="Trazado 17457" d="M803.456,437.182a4.272,4.272,0,1,1,4.272-4.271A4.276,4.276,0,0,1,803.456,437.182Zm0-7.417a3.145,3.145,0,1,0,3.144,3.146A3.148,3.148,0,0,0,803.456,429.765Z" transform="translate(-48.116 -116.86)" fill="#1c428c"/>
      <path id="Trazado_17458" data-name="Trazado 17458" d="M767.861,349.837a.956.956,0,1,1-.955-.956A.956.956,0,0,1,767.861,349.837Z" transform="translate(-34.252 -75.641)" fill="#1c428c"/>
      <g id="Grupo_8480" data-name="Grupo 8480" transform="translate(719.221 248.419)">
        <g id="Grupo_8477" data-name="Grupo 8477" transform="translate(130.99 5.419)">
          <path id="Trazado_17459" data-name="Trazado 17459" d="M1002.328,321.326a.752.752,0,0,1-.388-1.4l21.282-12.392a.751.751,0,1,1,.756,1.3L1002.7,321.224A.748.748,0,0,1,1002.328,321.326Z" transform="translate(-1001.567 -306.564)" fill="#3bdcf0"/>
          <g id="Grupo_8476" data-name="Grupo 8476" transform="translate(18.588)">
            <path id="Trazado_17460" data-name="Trazado 17460" d="M1048.889,310.688l-.72-.218,1.076-3.545-3.615-.814.167-.734,4.4.993Z" transform="translate(-1045.63 -305.377)" fill="#3bdcf0"/>
          </g>
        </g>
        <g id="Grupo_8479" data-name="Grupo 8479" transform="translate(0)">
          <path id="Trazado_17461" data-name="Trazado 17461" d="M737.235,353.6a.9.9,0,0,1-.74-.364.7.7,0,0,1,.294-1.031l39.453-21.965,10.924,5.6,53.305-29.009,26.63,18.38,57.964-29.621a.934.934,0,0,1,1.177.278.7.7,0,0,1-.319,1.026l-58.977,30.127-26.592-18.354-53.16,28.931-10.94-5.609-38.574,21.5A.948.948,0,0,1,737.235,353.6Z" transform="translate(-736.372 -294.24)" fill="#3bdcf0"/>
          <g id="Grupo_8478" data-name="Grupo 8478" transform="translate(183.829)">
            <path id="Trazado_17462" data-name="Trazado 17462" d="M1118.861,300l-1.006-.312,1.54-4.953-5.053-1.174.24-1.026,6.153,1.432Z" transform="translate(-1114.342 -292.532)" fill="#3bdcf0"/>
          </g>
        </g>
        <path id="Trazado_17463" data-name="Trazado 17463" d="M898.666,356.642a.751.751,0,0,1-.4-1.386l17.512-11.083,7.826,6.187L938.961,341a.751.751,0,1,1,.774,1.288l-16.25,9.895-7.806-6.171-16.612,10.513A.747.747,0,0,1,898.666,356.642Z" transform="translate(-816.33 -320.492)" fill="#3bdcf0"/>
      </g>
      <path id="Trazado_17464" data-name="Trazado 17464" d="M860.733,319.889a.753.753,0,0,1-.727-.56l-1.054-4.009a.744.744,0,0,1-.009-.342l2.335-11.4a.754.754,0,0,1,.082-.219l7.528-13.333a.752.752,0,0,1,1.406.386l-.422,19.2a.751.751,0,0,1-1.5-.033l.356-16.207-6,10.623-2.277,11.117,1.01,3.839a.752.752,0,0,1-.727.943Z" transform="translate(-79.057 -43.872)" fill="#1c428c"/>
      <path id="Trazado_17465" data-name="Trazado 17465" d="M852.8,361.085a.759.759,0,0,1-.17-.019.751.751,0,0,1-.562-.9c.1-.445.44-1.56.5-1.746s.313-1.326.647-2.33a.751.751,0,0,1,1.426.475c-.336,1.009-.611,2.205-.614,2.217s-.008.035-.013.051c-.105.345-.4,1.319-.479,1.673A.751.751,0,0,1,852.8,361.085Z" transform="translate(-75.893 -78.976)" fill="#1c428c"/>
      <path id="Trazado_17466" data-name="Trazado 17466" d="M841.572,302.843a.752.752,0,0,1-.736-.6l-.422-2.11a.749.749,0,0,1,0-.291l.986-5.074,3.3-15.406a.761.761,0,0,1,.066-.185l10.536-20.6a.75.75,0,0,1,.226-.265,26.416,26.416,0,0,1,5.876-3.122.751.751,0,0,1,.508,1.414,25.231,25.231,0,0,0-5.357,2.822L846.147,279.77l-3.275,15.3-.955,4.914.393,1.965a.751.751,0,0,1-.589.884A.776.776,0,0,1,841.572,302.843Z" transform="translate(-68.926 -29.516)" fill="#1c428c"/>
      <path id="Trazado_17467" data-name="Trazado 17467" d="M946.326,283.24a.752.752,0,0,1-.311-.068l-11.153-5.084a.752.752,0,0,1-.388-.409l-7.089-18.048-3.516-1.562a.752.752,0,1,1,.61-1.374l3.8,1.688a.753.753,0,0,1,.394.412l7.091,18.052,10.877,4.958a.751.751,0,0,1-.312,1.435Z" transform="translate(-111.591 -30.379)" fill="#1c428c"/>
      <path id="Trazado_17468" data-name="Trazado 17468" d="M932.938,301.036a.751.751,0,0,1-.747-.68l-1.05-10.994a.751.751,0,0,1,1.5-.143l1.05,10.994a.752.752,0,0,1-.677.819A.7.7,0,0,1,932.938,301.036Z" transform="translate(-117.193 -43.845)" fill="#1c428c"/>
      <path id="Trazado_17469" data-name="Trazado 17469" d="M932.841,416.815,927.6,389.05l-5.613-11.939a.751.751,0,1,1,1.36-.639l5.695,12.113.017.094,5.024,26.84c1.762-.006,6.738-.024,8.32-.026a.664.664,0,0,0,.086-.362,1,1,0,0,0-.436-.8,4.487,4.487,0,0,0-1.123-.628c-.17-.078-.372-.17-.622-.287l-.363-.168-.062-.4c-.89-5.647-3.67-25.477-3.858-26.819l-6.166-18.219a.752.752,0,0,1,1.424-.482l6.211,18.352.01.07c.029.205,2.825,20.169,3.8,26.467l.249.114a5.938,5.938,0,0,1,1.4.793,2.487,2.487,0,0,1,.976,2.542,1.631,1.631,0,0,1-1.234,1.309l-.134.012c-1.669,0-9.1-.183-9.1-.183Z" transform="translate(-110.948 -81.987)" fill="#1c428c"/>
      <path id="Trazado_17470" data-name="Trazado 17470" d="M870.551,434.526c-2.667,0-6.185-.092-6.747-.107l-.9-.024,6.539-31.123c.066-.911.988-13.592,1.65-20.189a.751.751,0,1,1,1.5.15c-.682,6.789-1.64,20.064-1.65,20.2l-.014.1-6.179,29.408c2.653.062,7.515.143,8.486.01.073-.008.123-.112.146-.211a1.3,1.3,0,0,0-.287-.942,6.191,6.191,0,0,0-1.195-1.145l-.51-.286.153-.564c1.761-6.5,7.229-23.745,7.587-24.871.159-1.053,2.394-15.784,3.277-22.291.139-1.023.239-1.8.3-2.307a.751.751,0,1,1,1.493.169c-.059.526-.158,1.292-.3,2.341-.913,6.726-3.266,22.217-3.289,22.372l-.027.115c-.056.177-5.509,17.343-7.449,24.361.25.22.763.805.913.965a2.649,2.649,0,0,1,.8,2.426,1.656,1.656,0,0,1-1.434,1.362C872.951,434.5,871.852,434.526,870.551,434.526Z" transform="translate(-80.57 -88.017)" fill="#1c428c"/>
      <path id="Trazado_17471" data-name="Trazado 17471" d="M908.167,230.66a.752.752,0,0,1-.2-1.476l1.431-.4.058-2.71.459-.186c.818-.333,2.064-1.113,2.134-1.73a26.884,26.884,0,0,0-.47-9.882.751.751,0,0,1,1.436-.442,27.781,27.781,0,0,1,.527,10.494c-.157,1.382-1.746,2.332-2.6,2.748l-.062,2.855-2.506.7A.761.761,0,0,1,908.167,230.66Z" transform="translate(-104.569 -5.331)" fill="#1c428c"/>
      <path id="Trazado_17472" data-name="Trazado 17472" d="M889.474,213.292a.752.752,0,0,1-.737-.607,9.517,9.517,0,0,1,.668-5.027l.056-.111a7.981,7.981,0,0,1,8.5-3.213,6,6,0,0,1,4.441,4.284l.093.264-.1.26c-.831,2.119-2.6,3.252-5.9,3.792-.5.081-2.65.108-3.077.112a.759.759,0,0,1-.759-.744.752.752,0,0,1,.744-.759c1.2-.013,2.594-.05,2.85-.092,2.631-.43,3.963-1.17,4.632-2.6a4.427,4.427,0,0,0-3.3-3.058,6.42,6.42,0,0,0-6.818,2.5,8.014,8.014,0,0,0-.56,4.11.751.751,0,0,1-.594.882A.771.771,0,0,1,889.474,213.292Z" transform="translate(-94.337)" fill="#1c428c"/>
      <path id="Trazado_17473" data-name="Trazado 17473" d="M888.165,245.349a.752.752,0,0,1-.33-1.427l2.014-.98.052-7.07a.751.751,0,0,1,.751-.745h.005a.751.751,0,0,1,.746.757l-.06,8-2.85,1.388A.753.753,0,0,1,888.165,245.349Z" transform="translate(-94.281 -17.946)" fill="#1c428c"/>
      <path id="Trazado_17474" data-name="Trazado 17474" d="M891.867,230.772a.761.761,0,0,1-.133-.012,3.081,3.081,0,0,1-2.722-2.139,2.582,2.582,0,0,1,4.052-2.761.751.751,0,0,1-.913,1.194,1.079,1.079,0,0,0-1.694,1.153c.1.362.376.866,1.542,1.074a.752.752,0,0,1-.132,1.491Z" transform="translate(-95.038 -12.282)" fill="#1c428c"/>
      <path id="Trazado_17475" data-name="Trazado 17475" d="M882.059,289.455a.752.752,0,0,1-.685-1.061l1.266-2.812a.751.751,0,1,1,1.37.617l-1.266,2.813A.75.75,0,0,1,882.059,289.455Z" transform="translate(-91.162 -46.861)" fill="#1c428c"/>
      <g id="Grupo_8481" data-name="Grupo 8481" transform="translate(753.746 250.078)">
        <path id="Trazado_17476" data-name="Trazado 17476" d="M805.548,305.576a.564.564,0,0,1-.4-.962l4.26-4.272a.564.564,0,0,1,.8.8l-4.259,4.272A.562.562,0,0,1,805.548,305.576Z" transform="translate(-804.979 -300.177)" fill="#1c428c"/>
        <path id="Trazado_17477" data-name="Trazado 17477" d="M809.806,305.578a.563.563,0,0,1-.4-.164l-4.271-4.26a.564.564,0,0,1,.8-.8l4.271,4.26a.563.563,0,0,1-.4.962Z" transform="translate(-804.971 -300.185)" fill="#1c428c"/>
      </g>
      <path id="Trazado_17478" data-name="Trazado 17478" d="M945.181,663.735H707.672a.775.775,0,1,1,0-1.5H945.181a.775.775,0,1,1,0,1.5Z" transform="translate(-28.734 -239.389)" fill="#1c428c"/>
      <path id="Trazado_17479" data-name="Trazado 17479" d="M983.742,261.928l-4.361-2.631v-5.219l4.361-2.631,4.361,2.631V259.3Z" transform="translate(-141.855 -27.382)" fill="none" stroke="#5f3bbf" stroke-miterlimit="10" stroke-width="3" style="mix-blend-mode: multiply;isolation: isolate"/>
      <rect id="Rectángulo_2014" data-name="Rectángulo 2014" width="23.624" height="51.466" transform="translate(774.849 360.311)" fill="#bbe4f2" opacity="0.49"/>
      <rect id="Rectángulo_2015" data-name="Rectángulo 2015" width="26.155" height="74.667" transform="translate(858.594 337.11)" fill="#bbe4f2" opacity="0.49"/>
      <rect id="Rectángulo_2016" data-name="Rectángulo 2016" width="26.998" height="61.59" transform="translate(814.923 350.187)" fill="#bbe4f2" opacity="0.49"/>
      <rect id="Rectángulo_2017" data-name="Rectángulo 2017" width="24.889" height="37.545" transform="translate(733.908 374.233)" fill="#bbe4f2" opacity="0.49"/>
      <path id="Trazado_17480" data-name="Trazado 17480" d="M870.016,563.943a.752.752,0,0,1-.751-.751V511.2H848.4v51.991a.751.751,0,0,1-1.5,0V509.7h23.867v53.494A.752.752,0,0,1,870.016,563.943Z" transform="translate(-72.177 -151.201)" fill="#03abf2"/>
      <path id="Trazado_17481" data-name="Trazado 17481" d="M1044.594,534.293a.751.751,0,0,1-.751-.751V459.187h-23.393v74.355a.752.752,0,0,1-1.5,0V457.684h26.4v75.858A.751.751,0,0,1,1044.594,534.293Z" transform="translate(-160.439 -121.129)" fill="#03abf2"/>
      <path id="Trazado_17482" data-name="Trazado 17482" d="M955.414,550.486a.751.751,0,0,1-.751-.751v-62.54H930.426v62.54a.751.751,0,0,1-1.5,0V485.691h27.242v64.043A.751.751,0,0,1,955.414,550.486Z" transform="translate(-114.107 -137.322)" fill="#03abf2"/>
      <path id="Trazado_17483" data-name="Trazado 17483" d="M794.262,584.027a.751.751,0,0,1-.751-.751V545.21H771.383v38.066a.751.751,0,0,1-1.5,0V543.707h25.133v39.569A.751.751,0,0,1,794.262,584.027Z" transform="translate(-36.524 -170.864)" fill="#03abf2"/>
    </g>
  </g>
</svg>
