<svg xmlns="http://www.w3.org/2000/svg" xmlns:xlink="http://www.w3.org/1999/xlink" width="319" height="293.345" viewBox="0 0 319 293.345">
  <defs>
    <linearGradient id="linear-gradient" x1="-0.104" y1="1.391" x2="0.972" y2="0.086" gradientUnits="objectBoundingBox">
      <stop offset="0" stop-color="#fff"/>
      <stop offset="0.97" stop-color="#3bdcf0"/>
      <stop offset="1" stop-color="#3bdcf0"/>
    </linearGradient>
    <linearGradient id="linear-gradient-2" x1="0.181" y1="0.82" x2="0.918" y2="-0.084" gradientUnits="objectBoundingBox">
      <stop offset="0" stop-color="#fff"/>
      <stop offset="0.552" stop-color="#3bdcf0"/>
      <stop offset="1" stop-color="#fff"/>
    </linearGradient>
  </defs>
  <g id="Grupo_8642" data-name="Grupo 8642" transform="translate(-390 -1322.655)">
    <text id="Generar_mayores_utilidades" data-name="Generar mayores utilidades" transform="translate(390 1545)" fill="#5f3bbf" font-size="18" font-family="OpenSans-Semibold, Open Sans" font-weight="600"><tspan x="38.848" y="19">Generar mayores utilidades</tspan></text>
    <g id="Grupo_8510" data-name="Grupo 8510" transform="translate(294.096 1075.314)">
      <circle id="Elipse_562" data-name="Elipse 562" cx="51.505" cy="51.505" r="51.505" transform="translate(176.819 387.776) rotate(-86.203)" fill="#f1f7f8" opacity="0.85"/>
      <g id="Grupo_8499" data-name="Grupo 8499" transform="translate(323.2 307.21)">
        <path id="Trazado_17545" data-name="Trazado 17545" d="M446.175,417.809a.853.853,0,0,1-.854-.849V383.238l7.4-5.8v-23.73a.854.854,0,0,1,1.707,0v24.544l-7.4,5.8V416.96A.853.853,0,0,1,446.175,417.809Z" transform="translate(-445.321 -352.678)" fill="#243640"/>
        <g id="Grupo_8498" data-name="Grupo 8498" transform="translate(4.035)">
          <path id="Trazado_17546" data-name="Trazado 17546" d="M452.411,357.018l.746.7,3.42-3.68,3.42,3.68.746-.7-4.167-4.481Z" transform="translate(-452.411 -352.538)" fill="#243640"/>
        </g>
      </g>
      <path id="Trazado_17547" data-name="Trazado 17547" d="M430.175,471.258a.853.853,0,0,1-.854-.849V449.185a.854.854,0,0,1,1.707,0v21.224A.853.853,0,0,1,430.175,471.258Z" transform="translate(-115.227 -86.606)" fill="#243640"/>
      <path id="Trazado_17548" data-name="Trazado 17548" d="M476.451,447.939a4.395,4.395,0,1,1,4.394-4.394A4.4,4.4,0,0,1,476.451,447.939Zm0-7.092a2.7,2.7,0,1,0,2.7,2.7A2.7,2.7,0,0,0,476.451,440.848Z" transform="translate(-133.642 -82.648)" fill="#03abf2"/>
      <g id="Grupo_8501" data-name="Grupo 8501" transform="translate(161.904 326.39)">
        <path id="Trazado_17549" data-name="Trazado 17549" d="M167.175,430.575a.853.853,0,0,1-.854-.849V387.277a.854.854,0,0,1,1.707,0v42.449A.853.853,0,0,1,167.175,430.575Z" transform="translate(-163.807 -386.321)" fill="#03abf2"/>
        <g id="Grupo_8500" data-name="Grupo 8500">
          <path id="Trazado_17550" data-name="Trazado 17550" d="M161.9,389.973l.621.579,2.85-3.067,2.85,3.067.622-.579-3.472-3.734Z" transform="translate(-161.904 -386.239)" fill="#03abf2"/>
        </g>
      </g>
      <g id="Grupo_8502" data-name="Grupo 8502" transform="translate(234.931 275.307)">
        <path id="Trazado_17551" data-name="Trazado 17551" d="M290.859,304.956a.637.637,0,0,1,0-1.274l8.195-.011h0a.637.637,0,0,1,0,1.274l-8.2.011Z" transform="translate(-290.222 -299.579)" fill="#03abf2"/>
        <path id="Trazado_17552" data-name="Trazado 17552" d="M298.061,305.95a.636.636,0,0,1-.637-.636l-.008-8.2a.637.637,0,0,1,.636-.637h0a.637.637,0,0,1,.637.636l.009,8.2a.637.637,0,0,1-.636.637Z" transform="translate(-293.322 -296.48)" fill="#03abf2"/>
      </g>
      <g id="Grupo_8503" data-name="Grupo 8503" transform="translate(306.311 408.386)">
        <path id="Trazado_17553" data-name="Trazado 17553" d="M416.283,538.793a.637.637,0,0,1,0-1.274l8.2-.01a.643.643,0,0,1,.637.636.637.637,0,0,1-.636.637l-8.2.011Z" transform="translate(-415.646 -533.415)" fill="#5f3bbf"/>
        <path id="Trazado_17554" data-name="Trazado 17554" d="M423.485,539.786a.636.636,0,0,1-.636-.636l-.01-8.2a.638.638,0,0,1,.636-.639h0a.637.637,0,0,1,.637.637l.009,8.2a.637.637,0,0,1-.636.637Z" transform="translate(-418.745 -530.316)" fill="#5f3bbf"/>
      </g>
      <g id="Grupo_8505" data-name="Grupo 8505" transform="translate(204.662 264.527)">
        <path id="Trazado_17555" data-name="Trazado 17555" d="M251.142,318.177a.853.853,0,0,1-.854-.849V298.222l-7.968-5.9v-13.2a.854.854,0,0,1,1.707,0v12.367l7.968,5.9v19.941A.853.853,0,0,1,251.142,318.177Z" transform="translate(-239.313 -277.856)" fill="#03abf2"/>
        <g id="Grupo_8504" data-name="Grupo 8504" transform="translate(0 0)">
          <path id="Trazado_17556" data-name="Trazado 17556" d="M237.036,282.018l.746.7,3.419-3.679,3.421,3.679.746-.7-4.167-4.48Z" transform="translate(-237.036 -277.538)" fill="#03abf2"/>
        </g>
      </g>
      <path id="Trazado_17557" data-name="Trazado 17557" d="M227.234,361.443l-5.631-5.631,5.631-5.631,5.633,5.631Zm-3.83-5.631,3.83,3.83,3.832-3.83-3.832-3.83Z" transform="translate(-25.724 -44.312)" fill="#243640"/>
      <g id="Grupo_8507" data-name="Grupo 8507" transform="translate(181.047 354.202)">
        <path id="Trazado_17558" data-name="Trazado 17558" d="M265.007,469.832l0-33-67.731-.023-.035,21.208-1.7,0,.036-22.056a.849.849,0,0,1,.849-.847h0l69.427.022a.852.852,0,0,1,.849.852l0,33.849Z" transform="translate(-195.541 -435.109)" fill="#243640"/>
        <g id="Grupo_8506" data-name="Grupo 8506" transform="translate(26.972 6.669)">
          <path id="Trazado_17559" data-name="Trazado 17559" d="M246.923,463.562a3.728,3.728,0,0,1-2.728-.96c-1.11-1.081-1.26-2.869-1.26-4.477v-.4c.158-3.213,1.67-4.689,4.759-4.689h9.383a.849.849,0,0,1,0,1.7h-9.383c-1.889,0-2.936.484-3.062,3.034v.356c0,1.752.23,2.757.747,3.259a2.242,2.242,0,0,0,1.7.477h3.171a.849.849,0,1,1,0,1.7h-3.148C247.045,463.562,246.983,463.562,246.923,463.562Z" transform="translate(-242.935 -449.504)" fill="#5f3bbf"/>
          <path id="Trazado_17560" data-name="Trazado 17560" d="M254.4,479.065h-9.581a.849.849,0,1,1,0-1.7H254.4c1.941,0,3.1-1.041,3.1-2.787v-1.572c0-1.759-1.13-2.767-3.1-2.767h-3.7a.849.849,0,1,1,0-1.7h3.7c2.915,0,4.8,1.752,4.8,4.464v1.572C259.194,477.262,257.266,479.065,254.4,479.065Z" transform="translate(-243.379 -456.185)" fill="#5f3bbf"/>
          <rect id="Rectángulo_2018" data-name="Rectángulo 2018" width="1.698" height="4" transform="translate(7.255 22.196)" fill="#5f3bbf"/>
          <rect id="Rectángulo_2019" data-name="Rectángulo 2019" width="1.698" height="4.565" transform="translate(7.255)" fill="#5f3bbf"/>
        </g>
        <path id="Trazado_17561" data-name="Trazado 17561" d="M217.473,470.779a2.41,2.41,0,1,1-2.41-2.41A2.41,2.41,0,0,1,217.473,470.779Z" transform="translate(-202.915 -449.44)" fill="#243640"/>
        <path id="Trazado_17562" data-name="Trazado 17562" d="M295.792,471.865a2.41,2.41,0,1,1-2.41-2.41A2.41,2.41,0,0,1,295.792,471.865Z" transform="translate(-236.661 -449.908)" fill="#243640"/>
        <path id="Trazado_17563" data-name="Trazado 17563" d="M197.988,449.236l-.126-1.625c.439-.034,10.769-1.245,10.769-11.489h1.7C210.329,448.073,198.111,449.226,197.988,449.236Z" transform="translate(-196.541 -435.546)" fill="#243640"/>
        <rect id="Rectángulo_2020" data-name="Rectángulo 2020" width="45.529" height="1.698" transform="translate(17.517 46.745)" fill="#243640"/>
        <rect id="Rectángulo_2021" data-name="Rectángulo 2021" width="1.698" height="38.814" transform="translate(25.294 41.124) rotate(-89.875)" fill="#243640"/>
        <rect id="Rectángulo_2022" data-name="Rectángulo 2022" width="42.114" height="1.707" transform="translate(17.517 54.073)" fill="#243640"/>
        <rect id="Rectángulo_2023" data-name="Rectángulo 2023" width="38.635" height="1.698" transform="translate(14.469 62.089)" fill="#243640"/>
        <rect id="Rectángulo_2024" data-name="Rectángulo 2024" width="1.697" height="4.208" transform="translate(17.637 41.141) rotate(-89.289)" fill="#243640"/>
        <rect id="Rectángulo_2025" data-name="Rectángulo 2025" width="1.707" height="23.903" transform="translate(0.575 39.845)" fill="#243640"/>
        <path id="Trazado_17564" data-name="Trazado 17564" d="M309.926,452.228c-.123-.009-12.341-1.155-12.341-13.106h1.7c0,10.244,10.329,11.452,10.769,11.486Z" transform="translate(-239.511 -436.838)" fill="#243640"/>
      </g>
      <path id="Trazado_17565" data-name="Trazado 17565" d="M337.552,253.324l34-3.991.495,36.628-10.908-9.138-23.828,26.1L308,302.071,345.372,261.1Z" transform="translate(-62.951 -0.858)" opacity="0.58" fill="url(#linear-gradient)"/>
      <path id="Trazado_17566" data-name="Trazado 17566" d="M272.232,358.666c0,.285-.086,23.758-.086,23.758l61.511,50.436s-37.049,52.624-38.756,53.478S275.836,470.4,275.836,470.4l22.955-31.3-11-9.864-.759-26.559-35.665.379-7.443-9.168Z" transform="translate(-35.34 -47.968)" opacity="0.5" fill="url(#linear-gradient-2)"/>
      <path id="Trazado_17567" data-name="Trazado 17567" d="M323.187,292.971a.848.848,0,0,1-.635-1.412l27.56-31.069-8.946-8.047a.849.849,0,0,1,.484-1.476l36.331-3.621a.85.85,0,0,1,.933.849l-.186,36.136a.848.848,0,0,1-1.417.627l-10-8.992L354.1,291.08a.849.849,0,0,1-1.279-1.118L366.6,274.2a.849.849,0,0,1,1.207-.072l9.229,8.3.17-33.3-33.48,3.337,8.144,7.325a.85.85,0,0,1,.067,1.195l-28.119,31.7A.846.846,0,0,1,323.187,292.971Z" transform="translate(-69.129 0)" fill="#03abf2"/>
      <path id="Trazado_17568" data-name="Trazado 17568" d="M319.99,503.257l-1.4-.968,35.5-51.207-58.468-48.06,1.078-1.312,59.073,48.556a.849.849,0,0,1,.159,1.14Z" transform="translate(-57.62 -66.516)" fill="#03abf2"/>
      <path id="Trazado_17569" data-name="Trazado 17569" d="M245.681,410.853a.843.843,0,0,1-.52-.179l-4.545-3.534a.848.848,0,0,1-.128-1.217l15.231-18.052a.849.849,0,0,1,1.3,1.1l-14.661,17.376,3.847,2.991a.849.849,0,0,1-.521,1.52Z" transform="translate(-33.775 -60.423)" fill="#03abf2"/>
      <path id="Trazado_17570" data-name="Trazado 17570" d="M306.556,522.283a.848.848,0,0,1-.692-1.34L324.686,494.4l-3.869-3.5a.849.849,0,1,1,1.139-1.259l4.429,4.007a.848.848,0,0,1,.123,1.12l-19.258,27.158A.848.848,0,0,1,306.556,522.283Z" transform="translate(-61.963 -104.309)" fill="#03abf2"/>
      <g id="Grupo_8509" data-name="Grupo 8509" transform="translate(230.994 301.739)">
        <rect id="Rectángulo_2026" data-name="Rectángulo 2026" width="34.716" height="1.707" transform="translate(38.14 45.642)" fill="#243640"/>
        <rect id="Rectángulo_2027" data-name="Rectángulo 2027" width="29.594" height="1.707" transform="translate(43.262 51.902)" fill="#243640"/>
        <rect id="Rectángulo_2028" data-name="Rectángulo 2028" width="37.561" height="1.707" transform="translate(27.896 38.812)" fill="#243640"/>
        <path id="Trazado_17571" data-name="Trazado 17571" d="M363.137,381.167l0-36.628-67.731.032-.035,21.235-1.7.01.064-22.05a.809.809,0,0,1,.876-.843h0l69.4.022a.754.754,0,0,1,.836.743l-.011,37.477Z" transform="translate(-287.771 -342.924)" fill="#243640"/>
        <g id="Grupo_8508" data-name="Grupo 8508" transform="translate(32.872 6.671)">
          <path id="Trazado_17572" data-name="Trazado 17572" d="M345.052,371.38a3.726,3.726,0,0,1-2.728-.96c-1.111-1.081-1.261-2.869-1.261-4.476v-.4c.158-3.213,1.67-4.691,4.759-4.691h9.383a.849.849,0,0,1,0,1.7h-9.383c-1.889,0-2.936.483-3.063,3.034v.356c0,1.751.23,2.757.747,3.259a2.244,2.244,0,0,0,1.7.476h3.17a.849.849,0,1,1,0,1.7h-3.147Z" transform="translate(-341.064 -357.322)" fill="#5f3bbf"/>
          <path id="Trazado_17573" data-name="Trazado 17573" d="M352.526,386.882h-9.581a.849.849,0,0,1,0-1.7h9.581c1.942,0,3.1-1.041,3.1-2.786v-1.574c0-1.758-1.131-2.766-3.1-2.766h-3.7a.849.849,0,0,1,0-1.7h3.7c2.916,0,4.8,1.752,4.8,4.464V382.4C357.324,385.08,355.4,386.882,352.526,386.882Z" transform="translate(-341.509 -364.002)" fill="#5f3bbf"/>
          <rect id="Rectángulo_2029" data-name="Rectángulo 2029" width="1.698" height="4.001" transform="translate(7.255 22.196)" fill="#5f3bbf"/>
          <rect id="Rectángulo_2030" data-name="Rectángulo 2030" width="1.698" height="4.565" transform="translate(7.255)" fill="#5f3bbf"/>
        </g>
        <rect id="Rectángulo_2031" data-name="Rectángulo 2031" width="1.697" height="12.579" transform="translate(0 4.751)" fill="#243640"/>
        <path id="Trazado_17574" data-name="Trazado 17574" d="M315.6,378.6a2.41,2.41,0,1,1-2.41-2.41A2.409,2.409,0,0,1,315.6,378.6Z" transform="translate(-295.145 -357.257)" fill="#243640"/>
        <path id="Trazado_17575" data-name="Trazado 17575" d="M393.921,379.683a2.41,2.41,0,1,1-2.41-2.41A2.409,2.409,0,0,1,393.921,379.683Z" transform="translate(-328.891 -357.725)" fill="#243640"/>
        <path id="Trazado_17576" data-name="Trazado 17576" d="M296.117,356.469l-.125-1.741c.439-.033,10.769-.792,10.769-11.605h1.7C308.458,355.642,296.241,356.46,296.117,356.469Z" transform="translate(-288.771 -343.009)" fill="#243640"/>
        <path id="Trazado_17577" data-name="Trazado 17577" d="M408.055,359.461c-.123-.009-12.341-.818-12.341-13.339h1.7c0,10.813,10.328,11.568,10.768,11.6Z" transform="translate(-331.74 -344.302)" fill="#243640"/>
      </g>
    </g>
    <path id="Trazado_17578" data-name="Trazado 17578" d="M359.7,663.944H141.4a.856.856,0,0,1,0-1.712H359.7a.856.856,0,0,1,0,1.712Z" transform="translate(298.45 866.319)" fill="#1c428c"/>
  </g>
</svg>
