<svg xmlns="http://www.w3.org/2000/svg" width="118" height="118" viewBox="0 0 118 118">
  <g id="Grupo_8646" data-name="Grupo 8646" transform="translate(-396 -3017)">
    <g id="Elipse_564" data-name="Elipse 564" transform="translate(396 3017)" fill="#f0f0f0" stroke="#3bdcf0" stroke-width="2">
      <circle cx="59" cy="59" r="59" stroke="none"/>
      <circle cx="59" cy="59" r="58" fill="none"/>
    </g>
    <g id="Grupo_8627" data-name="Grupo 8627" transform="translate(-1132.184 2319.714)">
      <path id="Trazado_18000" data-name="Trazado 18000" d="M1620.58,734.918h-3.186V724.853a6.561,6.561,0,0,0-6.554-6.554h-46.563a6.561,6.561,0,0,0-6.553,6.554v10.065h-3.186a5.36,5.36,0,0,0-5.354,5.354v9.922h3.551v-9.922a1.805,1.805,0,0,1,1.8-1.8h3.186v43.473a4.648,4.648,0,0,0,3.205,4.412v2.741a4.648,4.648,0,0,0,4.643,4.643h7.645a4.648,4.648,0,0,0,4.642-4.643v-2.511h19.4v2.511a4.648,4.648,0,0,0,4.642,4.643h7.645a4.648,4.648,0,0,0,4.642-4.643v-2.741a4.649,4.649,0,0,0,3.206-4.412V738.469h3.186a1.8,1.8,0,0,1,1.8,1.8v9.922h3.551v-9.922A5.36,5.36,0,0,0,1620.58,734.918Zm-59.305-1.768h24.509v26.724h-24.509Zm13.034,55.945a1.093,1.093,0,0,1-1.091,1.092h-7.645a1.094,1.094,0,0,1-1.092-1.092v-2.511h9.829Zm36.329,0a1.093,1.093,0,0,1-1.092,1.092H1601.9a1.094,1.094,0,0,1-1.092-1.092v-2.511h9.828Zm3.206-7.153a1.093,1.093,0,0,1-1.091,1.092h-50.386a1.093,1.093,0,0,1-1.091-1.092V763.424h52.568Zm0-22.068h-24.509V733.15h24.509Zm0-30.274h-52.568v-4.746a3.006,3.006,0,0,1,3-3h46.563a3.006,3.006,0,0,1,3,3Z" transform="translate(0 0)" fill="#5f3bbf"/>
      <path id="Trazado_18001" data-name="Trazado 18001" d="M1623.152,936.3a6.215,6.215,0,1,0-6.215-6.215A6.222,6.222,0,0,0,1623.152,936.3Zm0-8.879a2.664,2.664,0,1,1-2.664,2.664A2.667,2.667,0,0,1,1623.152,927.423Z" transform="translate(-51.902 -157.478)" fill="#5f3bbf"/>
      <path id="Trazado_18002" data-name="Trazado 18002" d="M1762.574,936.3a6.215,6.215,0,1,0-6.215-6.215A6.222,6.222,0,0,0,1762.574,936.3Zm0-8.879a2.664,2.664,0,1,1-2.664,2.664A2.666,2.666,0,0,1,1762.574,927.423Z" transform="translate(-158.705 -157.478)" fill="#5f3bbf"/>
    </g>
  </g>
</svg>
