<svg xmlns="http://www.w3.org/2000/svg" width="846.265" height="174.465" viewBox="0 0 846.265 174.465">
  <g id="Grupo_8629" data-name="Grupo 8629" transform="translate(-531.105 -605.395)">
    <text id="Comerciantes_son_aquellas_personas_que_profesionalmente_se_ocupan_en_alguna_de_las_actividades_que_la_ley_considera_mercantiles._La_calidad_de_comerciante_se_adquiere_aunque_la_actividad_mercantil_se_ejerza_por_medio_de_apoderado_intermediario_o_interpue" data-name="Comerciantes son aquellas personas que profesionalmente se ocupan en alguna de las actividades que la ley considera mercantiles. La calidad de comerciante se adquiere, aunque la actividad mercantil se ejerza por medio de apoderado, intermediario o interpue" transform="translate(621 650)" fill="#5f3bbf" font-size="18" font-family="OpenSans, Open Sans"><tspan x="0" y="19">Comerciantes son aquellas personas que profesionalmente se ocupan en alguna </tspan><tspan x="0" y="49">de las actividades que la ley considera mercantiles. La calidad de comerciante se </tspan><tspan x="0" y="79">adquiere, aunque la actividad mercantil se ejerza por medio de apoderado, </tspan></text>
    <path id="Trazado_12472" data-name="Trazado 12472" d="M21.963-126.147v15.007H8.105v-11.847q0-9.621,2.3-13.93a19.316,19.316,0,0,1,9.55-8.688l3.159,5.026a11.56,11.56,0,0,0-5.816,4.918q-1.867,3.267-2.082,9.514Zm22.259,0v15.007H30.364v-11.847q0-9.621,2.3-13.93a19.316,19.316,0,0,1,9.55-8.688l3.159,5.026a11.56,11.56,0,0,0-5.816,4.918q-1.867,3.267-2.082,9.514Z" transform="translate(523 751)" fill="#603cbf"/>
    <path id="Trazado_12474" data-name="Trazado 12474" d="M31.513-130.6v-15.007H45.371v11.847q0,9.621-2.3,13.93a19.316,19.316,0,0,1-9.55,8.688l-3.159-5.026a11.56,11.56,0,0,0,5.816-4.918q1.867-3.267,2.082-9.514Zm-22.259,0v-15.007H23.112v11.847q0,9.621-2.3,13.93a19.316,19.316,0,0,1-9.55,8.688l-3.159-5.026a11.56,11.56,0,0,0,5.816-4.918Q15.788-124.352,16-130.6Z" transform="translate(1332 891)" fill="#603cbf"/>
  </g>
</svg>
