<svg xmlns="http://www.w3.org/2000/svg" width="319" height="297.5" viewBox="0 0 319 297.5">
  <g id="Grupo_8644" data-name="Grupo 8644" transform="translate(-1189 -1322.5)">
    <g id="Grupo_8529" data-name="Grupo 8529" transform="translate(-205.479 1102.143)">
      <path id="Trazado_17580" data-name="Trazado 17580" d="M1604.215,261.888c1.583-3.481,0-6.734,3.887-8.292s7.442,1.83,7.442,1.83l5.019-3.142,4.9,2.607s1.468,3.542,1.4,5.307c-3.218,2.466-9.437,4.021-11.251,4.021S1604.215,261.888,1604.215,261.888Z" transform="translate(-70.69 -15.381)" fill="#03abf2" opacity="0.43"/>
      <path id="Trazado_17581" data-name="Trazado 17581" d="M1743.489,259.556a.8.8,0,0,1-.583-.178l-6.48-5.272a.808.808,0,0,1-.116-1.138l5.271-6.478a.809.809,0,0,1,1.137-.117l6.48,5.272a.816.816,0,0,1,.294.544.806.806,0,0,1-.177.593l-5.272,6.48A.806.806,0,0,1,1743.489,259.556Zm-5.415-6.194,5.226,4.251,4.252-5.224-5.227-4.251Z" transform="translate(-134.238 -12.446)" fill="#03abf2"/>
      <path id="Trazado_17582" data-name="Trazado 17582" d="M1652.009,363.44a51.76,51.76,0,1,1-51.759-51.76A51.76,51.76,0,0,1,1652.009,363.44Z" transform="translate(-43.844 -43.995)" fill="#f1f7f8" opacity="0.85"/>
      <g id="Grupo_8513" data-name="Grupo 8513" transform="translate(1557.103 341.274)">
        <path id="Trazado_17583" data-name="Trazado 17583" d="M1704.378,499.422a.855.855,0,0,1-.356-.078l-21.893-10.094a.851.851,0,1,1,.713-1.546l21.893,10.1a.85.85,0,0,1-.356,1.623Z" transform="translate(-1665.089 -470.03)" fill="#03abf2"/>
        <path id="Trazado_17584" data-name="Trazado 17584" d="M1707.481,512.759a.861.861,0,0,1-.355-.078l-13.686-6.31a.851.851,0,0,1,.713-1.545l13.686,6.31a.851.851,0,0,1-.358,1.623Z" transform="translate(-1670.539 -478.279)" fill="#03abf2"/>
        <g id="Grupo_8512" data-name="Grupo 8512" transform="translate(0 5.377)">
          <path id="Trazado_17585" data-name="Trazado 17585" d="M1688.692,502.356a2.258,2.258,0,0,1-.946-.206l-24.414-11.259L1652.8,494.8a.85.85,0,0,1-1.082-1.12l2.811-6.852-3.469-1.6a2.3,2.3,0,0,1-1.236-1.439,2.658,2.658,0,0,1,.139-1.9l7.517-16.3a2.581,2.581,0,0,1,2.3-1.541,2.254,2.254,0,0,1,.948.207l36.686,16.916a2.5,2.5,0,0,1,1.1,3.341l-7.518,16.3A2.585,2.585,0,0,1,1688.692,502.356Zm-25.325-13.236a.858.858,0,0,1,.356.078l24.736,11.406a.816.816,0,0,0,1-.5l7.517-16.3a.8.8,0,0,0-.267-1.084L1660.021,465.8a.817.817,0,0,0-1,.5l-7.516,16.3a.97.97,0,0,0-.059.689.629.629,0,0,0,.324.394l4.208,1.942a.849.849,0,0,1,.431,1.094l-2.384,5.81,9.042-3.361A.855.855,0,0,1,1663.367,489.12Z" transform="translate(-1649.71 -464.05)" fill="#03abf2"/>
        </g>
        <path id="Trazado_17586" data-name="Trazado 17586" d="M1692.344,463.7a.843.843,0,0,1-.352-.077l-18.257-8.327a.851.851,0,0,1,.707-1.548l18.256,8.328a.85.85,0,0,1-.353,1.624Z" transform="translate(-1661.044 -453.674)" fill="#03abf2"/>
      </g>
      <g id="Grupo_8515" data-name="Grupo 8515" transform="translate(1557.035 346.023)" opacity="0.12">
        <g id="Grupo_8514" data-name="Grupo 8514" transform="translate(0)">
          <path id="Trazado_17587" data-name="Trazado 17587" d="M1688.561,501.143a2.243,2.243,0,0,1-.946-.207L1663.2,489.678l-10.531,3.913a.85.85,0,0,1-1.082-1.119l2.811-6.853-3.469-1.6a2.3,2.3,0,0,1-1.237-1.438,2.659,2.659,0,0,1,.139-1.9l7.517-16.3a2.581,2.581,0,0,1,2.305-1.541,2.255,2.255,0,0,1,.948.207l36.686,16.916a2.5,2.5,0,0,1,1.1,3.34l-7.518,16.3A2.585,2.585,0,0,1,1688.561,501.143Z" transform="translate(-1649.579 -462.837)" fill="#03abf2"/>
        </g>
      </g>
      <path id="Trazado_17588" data-name="Trazado 17588" d="M1757.551,417.66h-.041l-33.584-1.56a.851.851,0,0,1-.811-.889l1.17-25.188a.863.863,0,0,1,.889-.81l33.585,1.559a.85.85,0,0,1,.809.889l-1.169,25.188A.85.85,0,0,1,1757.551,417.66Zm-32.7-3.219,31.885,1.48,1.092-23.488-31.886-1.481Z" transform="translate(-127.969 -81.346)" fill="#03abf2"/>
      <path id="Trazado_17589" data-name="Trazado 17589" d="M1769.984,436.573l-.049,0-20.81-1.2-7.461-.352a.85.85,0,0,1-.81-.889.864.864,0,0,1,.889-.81l7.471.352,19.961,1.153.751-15.539a.85.85,0,0,1,1.7.082l-.792,16.4a.852.852,0,0,1-.85.81Z" transform="translate(-136.515 -95.443)" fill="#03abf2"/>
      <g id="Grupo_8516" data-name="Grupo 8516" transform="translate(1547.973 243.13)">
        <path id="Trazado_17590" data-name="Trazado 17590" d="M1651.866,315.178a.822.822,0,0,1-.147-.008.851.851,0,0,1-.56-.332l-18.9-25.258a.851.851,0,0,1,.173-1.19l31.972-23.92a.85.85,0,0,1,1.191.172l18.9,25.259a.85.85,0,0,1-.173,1.19l-31.972,23.92A.851.851,0,0,1,1651.866,315.178Zm-17.731-25.937,17.876,23.9,30.611-22.9-17.877-23.9Z" transform="translate(-1632.094 -264.299)" fill="#03abf2"/>
        <path id="Trazado_17591" data-name="Trazado 17591" d="M1676.775,317.334a.85.85,0,0,1-.707-.341l-9.192-12.288a.851.851,0,0,1,.609-1.357l14.62-1.247a.851.851,0,0,1,.862,1.163l-5.429,13.536a.85.85,0,0,1-.679.527C1676.831,317.331,1676.8,317.333,1676.775,317.334Z" transform="translate(-1648.769 -282.508)" fill="#03abf2" opacity="0.66"/>
      </g>
      <path id="Trazado_17592" data-name="Trazado 17592" d="M1676.729,409.392a5.49,5.49,0,0,1-1.328-.164,5.441,5.441,0,1,1,1.328.164Zm-.008-9.188a3.752,3.752,0,1,0,.914.113A3.736,3.736,0,0,0,1676.721,400.2Z" transform="translate(-102.998 -85.822)" fill="#1c428c"/>
      <g id="Grupo_8517" data-name="Grupo 8517" transform="translate(1537.501 287.608)">
        <path id="Trazado_17593" data-name="Trazado 17593" d="M1612.74,355.66a.638.638,0,0,1-.463-1.077l4.04-4.262a.638.638,0,1,1,.926.878l-4.039,4.262A.639.639,0,0,1,1612.74,355.66Z" transform="translate(-1611.991 -350.122)" fill="#1c428c"/>
        <path id="Trazado_17594" data-name="Trazado 17594" d="M1616.789,355.652a.636.636,0,0,1-.44-.175l-4.263-4.041a.638.638,0,0,1,.877-.926l4.264,4.041a.639.639,0,0,1-.439,1.1Z" transform="translate(-1611.887 -350.225)" fill="#1c428c"/>
      </g>
      <g id="Grupo_8519" data-name="Grupo 8519" transform="translate(1495.924 236.327)">
        <path id="Trazado_17595" data-name="Trazado 17595" d="M1542.23,269.627a.852.852,0,0,1-.785-.52l-6.539-15.505a.85.85,0,1,1,1.567-.661l6.539,15.505a.851.851,0,0,1-.782,1.182Z" transform="translate(-1533.191 -251.774)" fill="#1c428c"/>
        <g id="Grupo_8518" data-name="Grupo 8518" transform="translate(0 0)">
          <path id="Trazado_17596" data-name="Trazado 17596" d="M1531.66,255.97l.8.293,1.436-3.94,3.825,1.721.348-.777-4.658-2.095Z" transform="translate(-1531.66 -251.173)" fill="#1c428c"/>
        </g>
      </g>
      <g id="Grupo_8521" data-name="Grupo 8521" transform="translate(1629.627 353.302)">
        <path id="Trazado_17597" data-name="Trazado 17597" d="M1816.46,483.679a.845.845,0,0,1-.164-.016l-25.96-5.094a.851.851,0,0,1,.327-1.669l25.96,5.1a.85.85,0,0,1-.162,1.684Z" transform="translate(-1789.649 -476.883)" fill="#03abf2"/>
        <g id="Grupo_8520" data-name="Grupo 8520" transform="translate(23.92 2.163)">
          <path id="Trazado_17598" data-name="Trazado 17598" d="M1837.592,481.056l-.689.5,2.465,3.393-3.564,2.21.449.723,4.34-2.692Z" transform="translate(-1835.804 -481.056)" fill="#03abf2"/>
        </g>
      </g>
      <g id="Grupo_8522" data-name="Grupo 8522" transform="translate(1648.56 311.339)">
        <path id="Trazado_17599" data-name="Trazado 17599" d="M1831.685,407.071a.851.851,0,0,1-.728-.266l-4.549-4.914a.85.85,0,0,1,.046-1.2l4.913-4.55a.849.849,0,0,1,1.2.046l4.551,4.914a.848.848,0,0,1-.045,1.2l-4.913,4.549A.847.847,0,0,1,1831.685,407.071Zm-3.451-5.711,3.393,3.666,3.666-3.394-3.395-3.666Z" transform="translate(-1826.181 -395.913)" fill="#03abf2"/>
      </g>
      <g id="Grupo_8524" data-name="Grupo 8524" transform="translate(1532.656 220.357)">
        <path id="Trazado_17600" data-name="Trazado 17600" d="M1614.689,272.525c-.135,0-.27,0-.406,0a23.736,23.736,0,0,1-10.668-2.7.85.85,0,0,1,.787-1.508,22.063,22.063,0,0,0,9.911,2.512,21.816,21.816,0,0,0,12.045-3.384.85.85,0,1,1,.9,1.445A23.817,23.817,0,0,1,1614.689,272.525Z" transform="translate(-1602.837 -242.976)" fill="#03abf2"/>
        <path id="Trazado_17601" data-name="Trazado 17601" d="M1603.388,262.063a.851.851,0,0,1-.787-1.173,41.412,41.412,0,0,0,1.578-5.81.844.844,0,0,1,.282-.469,11.992,11.992,0,0,1,4.995-2.462.853.853,0,0,1,.568.091,12.949,12.949,0,0,0,4.8,1.413c1.337.074,4.016-1.019,4.934-1.443a.845.845,0,0,1,.5-.067,12.338,12.338,0,0,1,5.354,2.464.842.842,0,0,1,.282.467c.914,4.169,1.346,5.622,1.35,5.636a.85.85,0,0,1-1.628.49c-.017-.058-.43-1.441-1.319-5.471a10.764,10.764,0,0,0-4.076-1.861c-.906.4-3.726,1.572-5.477,1.483a14.322,14.322,0,0,1-5.232-1.467,10.592,10.592,0,0,0-3.727,1.848,40.237,40.237,0,0,1-1.6,5.8A.849.849,0,0,1,1603.388,262.063Z" transform="translate(-1602.538 -235.665)" fill="#03abf2"/>
        <g id="Grupo_8523" data-name="Grupo 8523" transform="translate(5.822)">
          <path id="Trazado_17602" data-name="Trazado 17602" d="M1620.218,235.92h-.07a6.31,6.31,0,0,1-6.376-6.219v-2.992a6.5,6.5,0,0,1,6.482-6.351,6.3,6.3,0,0,1,6.3,6.284l-.01,3.058a6.28,6.28,0,0,1-6.322,6.22Zm.044-13.862a4.842,4.842,0,0,0-4.789,4.65V229.7a4.667,4.667,0,0,0,4.689,4.518l.063,0a4.578,4.578,0,0,0,4.615-4.522l.011-3.058A4.592,4.592,0,0,0,1620.261,222.058Z" transform="translate(-1613.772 -220.357)" fill="#03abf2"/>
        </g>
      </g>
      <g id="Grupo_8525" data-name="Grupo 8525" transform="translate(1491.49 266.105)">
        <path id="Trazado_17603" data-name="Trazado 17603" d="M1541.612,326.624l-17.325-6.221a.85.85,0,1,1,.574-1.6l16.04,5.759,8.577-13.609a.851.851,0,0,1,1.439.907Z" transform="translate(-1523.403 -309.558)" fill="#5f3bbf"/>
        <path id="Trazado_17604" data-name="Trazado 17604" d="M1529.668,337.048,1523.1,318.23l27.525-9.6,6.562,18.818Zm-4.4-17.772,5.443,15.606,24.312-8.479-5.442-15.606Z" transform="translate(-1523.105 -308.631)" fill="#5f3bbf"/>
      </g>
      <path id="Trazado_17605" data-name="Trazado 17605" d="M1608.876,417.908a.883.883,0,0,1-.233-.033.85.85,0,0,1-.585-1.051,12.619,12.619,0,0,0-8.688-15.563.851.851,0,0,1,.464-1.637,14.321,14.321,0,0,1,9.86,17.664A.851.851,0,0,1,1608.876,417.908Z" transform="translate(-68.058 -86.347)" fill="#3bdcf0"/>
      <path id="Trazado_17606" data-name="Trazado 17606" d="M1619.663,411.338a.843.843,0,0,1-.233-.033.852.852,0,0,1-.586-1.051,19.7,19.7,0,0,0-13.574-24.326.85.85,0,0,1,.463-1.636,21.4,21.4,0,0,1,14.748,26.427A.851.851,0,0,1,1619.663,411.338Z" transform="translate(-70.9 -78.96)" fill="#3bdcf0"/>
      <path id="Trazado_17607" data-name="Trazado 17607" d="M1738.717,417.033a.848.848,0,0,1-.535-.19l-7.732-6.285a.851.851,0,0,1,1.073-1.32l7.119,5.786,12.739-13.508a.851.851,0,0,1,1.188-.049l6.417,5.778a.851.851,0,0,1-1.139,1.264l-5.8-5.222-12.711,13.479A.849.849,0,0,1,1738.717,417.033Z" transform="translate(-131.352 -87.144)" fill="#03abf2"/>
      <path id="Trazado_17608" data-name="Trazado 17608" d="M1742,408.216a3.6,3.6,0,1,1,3.473-2.67A3.6,3.6,0,0,1,1742,408.216Zm0-5.495a1.9,1.9,0,1,0,.491.065A1.9,1.9,0,0,0,1741.992,402.722Z" transform="translate(-135.331 -87.035)" fill="#03abf2"/>
      <g id="Grupo_8526" data-name="Grupo 8526" transform="translate(1457.479 302.644)">
        <path id="Trazado_17609" data-name="Trazado 17609" d="M1472,487.546a.832.832,0,0,1-.208-.025.847.847,0,0,1-.522-.388l-12.257-20.46a.848.848,0,0,1,.293-1.166l20.459-12.257a.851.851,0,0,1,1.166.293L1493.185,474a.85.85,0,0,1-.292,1.166l-20.458,12.257A.849.849,0,0,1,1472,487.546Zm-11.091-21.018,11.383,19,19-11.383-11.381-19Z" transform="translate(-1458.159 -414.782)" fill="#3bdcf0"/>
        <path id="Trazado_17610" data-name="Trazado 17610" d="M1578.631,433.4a.891.891,0,0,1-.206-.025.851.851,0,0,1-.524-.389L1548.375,383.7a.851.851,0,0,1,.293-1.167l5.463-3.272a.849.849,0,0,1,1.166.293l29.527,49.287a.851.851,0,0,1-.292,1.167l-5.463,3.273A.853.853,0,0,1,1578.631,433.4Zm-28.36-49.846,28.653,47.829,4-2.4-28.651-47.828Z" transform="translate(-1501.21 -379.135)" fill="#3bdcf0"/>
        <path id="Trazado_17611" data-name="Trazado 17611" d="M1499.219,424.936a.85.85,0,0,1-.645-1.4l27.665-32.159a.851.851,0,1,1,1.29,1.109l-27.665,32.159A.852.852,0,0,1,1499.219,424.936Z" transform="translate(-1477.178 -384.888)" fill="#3bdcf0"/>
        <path id="Trazado_17612" data-name="Trazado 17612" d="M1522.865,485.737a.851.851,0,0,1-.183-1.681l41.407-9.221a.851.851,0,0,1,.37,1.66l-41.407,9.221A.916.916,0,0,1,1522.865,485.737Z" transform="translate(-1488.57 -425.229)" fill="#3bdcf0"/>
        <path id="Trazado_17613" data-name="Trazado 17613" d="M1589.013,427.572a.851.851,0,0,1-.437-1.58,4.9,4.9,0,0,0-5.041-8.415.851.851,0,0,1-.874-1.459,6.606,6.606,0,0,1,6.789,11.334A.843.843,0,0,1,1589.013,427.572Z" transform="translate(-1517.586 -396.498)" fill="#3bdcf0"/>
        <path id="Trazado_17614" data-name="Trazado 17614" d="M1511.044,467.857a.85.85,0,0,1-.437-1.58l12.05-7.219a.851.851,0,0,1,.875,1.459l-12.052,7.219A.847.847,0,0,1,1511.044,467.857Z" transform="translate(-1482.874 -417.58)" fill="#3bdcf0"/>
        <path id="Trazado_17615" data-name="Trazado 17615" d="M1462.838,501.677a.919.919,0,0,1-.207-.025.849.849,0,0,1-.522-.389l-4.508-7.527a.851.851,0,0,1,.292-1.167l4.719-2.826a.851.851,0,0,1,1.167.293l4.507,7.525a.85.85,0,0,1-.292,1.166l-4.718,2.828A.852.852,0,0,1,1462.838,501.677Zm-3.342-8.086,3.634,6.068,3.26-1.953-3.634-6.066Z" transform="translate(-1457.479 -432.362)" fill="#3bdcf0"/>
        <path id="Trazado_17616" data-name="Trazado 17616" d="M1509.1,529.823a.85.85,0,0,1-.629-.277l-18.942-20.775a.849.849,0,0,1,.192-1.3l8.467-5.072a.848.848,0,0,1,1,.089L1521,521.539a.851.851,0,0,1-.122,1.371l-11.339,6.793A.852.852,0,0,1,1509.1,529.823Zm-17.613-21.43,17.774,19.492,9.738-5.834-20.467-17.879Z" transform="translate(-1472.811 -438.458)" fill="#3bdcf0"/>
        <path id="Trazado_17617" data-name="Trazado 17617" d="M1516.052,507.705a.85.85,0,0,1-.725-1.293l1.987-3.267-4.417-2.625a.85.85,0,1,1,.868-1.461l5.155,3.063a.851.851,0,0,1,.293,1.172l-2.434,4A.85.85,0,0,1,1516.052,507.705Z" transform="translate(-1483.976 -436.851)" fill="#3bdcf0"/>
      </g>
      <g id="Grupo_8528" data-name="Grupo 8528" transform="translate(1609.183 259.837)">
        <path id="Trazado_17618" data-name="Trazado 17618" d="M1754.494,328.58a.851.851,0,0,1-.748-1.052l1.328-5.362a14.665,14.665,0,1,1,5.735,3.191l-5.836,3.125A.85.85,0,0,1,1754.494,328.58Zm11.609-30.288a13,13,0,0,0-9.535,22.92.85.85,0,0,1,.281.858l-.991,4.01,4.459-2.388a.849.849,0,0,1,.658-.061,13,13,0,1,0,5.128-25.339Z" transform="translate(-1750.202 -296.537)" fill="#5f3bbf"/>
        <g id="Grupo_8527" data-name="Grupo 8527" transform="translate(7.566 11.948)">
          <path id="Trazado_17619" data-name="Trazado 17619" d="M1767.558,321.381a1.4,1.4,0,1,1-.965-1.737A1.406,1.406,0,0,1,1767.558,321.381Z" transform="translate(-1764.802 -319.591)" fill="#5f3bbf"/>
          <path id="Trazado_17620" data-name="Trazado 17620" d="M1778.556,324.523a1.405,1.405,0,1,1-.965-1.737A1.4,1.4,0,0,1,1778.556,324.523Z" transform="translate(-1770.1 -321.104)" fill="#5f3bbf"/>
          <path id="Trazado_17621" data-name="Trazado 17621" d="M1789.556,327.664a1.407,1.407,0,1,1-.968-1.737A1.406,1.406,0,0,1,1789.556,327.664Z" transform="translate(-1775.397 -322.617)" fill="#5f3bbf"/>
        </g>
        <path id="Trazado_17622" data-name="Trazado 17622" d="M1806.785,339.3a.84.84,0,0,1-.277-.1l-5.116-2.844a16.342,16.342,0,0,1-5.42.485,14.645,14.645,0,0,1-7.761-2.7.85.85,0,0,1,.987-1.385,12.963,12.963,0,0,0,6.862,2.384,14.284,14.284,0,0,0,5.156-.514.849.849,0,0,1,.683.063l4.083,2.269-.293-4.974a.853.853,0,0,1,.246-.65,12.983,12.983,0,0,0,3.774-8.507c.282-5.493-2.615-11.973-9.642-13.218a.851.851,0,0,1,.283-1.678l.013,0c7.686,1.361,11.375,8.567,11.045,14.981a14.676,14.676,0,0,1-4,9.344l.361,6.145a.851.851,0,0,1-.984.89Z" transform="translate(-1768.341 -302.025)" fill="#5f3bbf"/>
      </g>
      <path id="Trazado_17623" data-name="Trazado 17623" d="M1718.847,364.529a.851.851,0,0,1-.495-1.569l8.352-5.259a.851.851,0,1,1,.906,1.44l-8.352,5.259A.852.852,0,0,1,1718.847,364.529Z" transform="translate(-125.484 -66.102)" fill="#1c428c"/>
      <path id="Trazado_17624" data-name="Trazado 17624" d="M1568.346,272.147a.851.851,0,0,1-.834-.687l-2.116-10.8a.85.85,0,1,1,1.669-.326l2.116,10.8a.849.849,0,0,1-.835,1.014Z" transform="translate(-51.981 -18.925)" fill="#5f3bbf"/>
      <path id="Trazado_17625" data-name="Trazado 17625" d="M1781.892,522.065a.84.84,0,0,1-.314-.061l-11.9-4.758a.85.85,0,1,1,.632-1.579l11.9,4.758a.85.85,0,0,1-.316,1.64Z" transform="translate(-150.141 -142.236)" fill="#5f3bbf"/>
      <path id="Trazado_17626" data-name="Trazado 17626" d="M1626.424,230.521a5.442,5.442,0,0,1-5.442,5.442h0a5.442,5.442,0,0,1-5.442-5.442V227.93a5.442,5.442,0,0,1,5.442-5.442h0a5.442,5.442,0,0,1,5.442,5.442Z" transform="translate(-76.146 -1.027)" fill="#03abf2" opacity="0.07"/>
    </g>
    <path id="Trazado_17627" data-name="Trazado 17627" d="M359.7,663.944H141.4a.856.856,0,0,1,0-1.712H359.7a.856.856,0,0,1,0,1.712Z" transform="translate(1102.45 866.319)" fill="#1c428c"/>
    <text id="Crear_un_reconocimiento_de_la_marca_en_el_mercado" data-name="Crear un reconocimiento de la marca en el mercado" transform="translate(1189 1549)" fill="#5f3bbf" font-size="18" font-family="OpenSans-Semibold, Open Sans" font-weight="600"><tspan x="28.086" y="19">Crear un reconocimiento de la </tspan><tspan x="68.059" y="49">marca en el mercado</tspan></text>
  </g>
</svg>
