<svg xmlns="http://www.w3.org/2000/svg" width="319" height="282" viewBox="0 0 319 282">
  <g id="Grupo_8645" data-name="Grupo 8645" transform="translate(-801 -1670)">
    <text id="Aumentar_el_numero_de_trabajadores" data-name="Aumentar el numero de
trabajadores" transform="translate(801 1881)" fill="#5f3bbf" font-size="18" font-family="OpenSans-Semibold, Open Sans" font-weight="600"><tspan x="55.6" y="19">Aumentar el numero de</tspan><tspan x="103.751" y="49">trabajadores</tspan></text>
    <path id="Trazado_17687" data-name="Trazado 17687" d="M359.7,663.944H141.4a.856.856,0,0,1,0-1.712H359.7a.856.856,0,0,1,0,1.712Z" transform="translate(709.45 1202.319)" fill="#1c428c"/>
    <g id="Grupo_8554" data-name="Grupo 8554" transform="translate(140.774 1411.368)">
      <g id="Grupo_8540" data-name="Grupo 8540" transform="translate(704.656 339.08)">
        <path id="Trazado_17688" data-name="Trazado 17688" d="M739.659,476.728a.9.9,0,0,1-.9-.9v-33.79l-15.751-7.975V420.924a.9.9,0,1,1,1.8,0v12.031l15.751,7.976v34.9A.9.9,0,0,1,739.659,476.728Z" transform="translate(-720.218 -419.289)" fill="#5f3bbf"/>
        <g id="Grupo_8539" data-name="Grupo 8539" transform="translate(0 0)">
          <path id="Trazado_17689" data-name="Trazado 17689" d="M717.461,422.522l.659.614,3.021-3.251,3.022,3.251.659-.614-3.681-3.958Z" transform="translate(-717.461 -418.564)" fill="#5f3bbf"/>
        </g>
      </g>
      <g id="Grupo_8542" data-name="Grupo 8542" transform="translate(718.588 295.107)">
        <path id="Trazado_17690" data-name="Trazado 17690" d="M751.642,372.4a.9.9,0,0,1-.9-.9V333.248a.9.9,0,0,1,1.8,0V371.5A.9.9,0,0,1,751.642,372.4Z" transform="translate(-747.934 -331.743)" fill="#1a1a1a"/>
        <g id="Grupo_8541" data-name="Grupo 8541" transform="translate(0)">
          <path id="Trazado_17691" data-name="Trazado 17691" d="M745.159,335.1l.659.614,3.021-3.251,3.022,3.251.659-.614-3.681-3.958Z" transform="translate(-745.159 -331.145)" fill="#1a1a1a"/>
        </g>
      </g>
      <g id="Grupo_8544" data-name="Grupo 8544" transform="translate(787.766 261.902)">
        <path id="Trazado_17692" data-name="Trazado 17692" d="M889.42,288.644a.9.9,0,0,1-.9-.9v-20.7a.9.9,0,1,1,1.8,0v20.7A.9.9,0,0,1,889.42,288.644Z" transform="translate(-885.585 -265.635)" fill="#1a1a1a"/>
        <g id="Grupo_8543" data-name="Grupo 8543" transform="translate(0 0)">
          <path id="Trazado_17693" data-name="Trazado 17693" d="M882.685,269.092l.659.614,3.021-3.251,3.022,3.251.659-.614-3.681-3.958Z" transform="translate(-882.685 -265.133)" fill="#1a1a1a"/>
        </g>
      </g>
      <g id="Grupo_8546" data-name="Grupo 8546" transform="translate(822.983 258.632)">
        <path id="Trazado_17694" data-name="Trazado 17694" d="M959.2,275.181a.9.9,0,0,1-.9-.9v-13.5a.9.9,0,1,1,1.8,0v13.5A.9.9,0,0,1,959.2,275.181Z" transform="translate(-955.483 -259.252)" fill="#1a1a1a"/>
        <g id="Grupo_8545" data-name="Grupo 8545" transform="translate(0)">
          <path id="Trazado_17695" data-name="Trazado 17695" d="M952.7,262.59l.659.614,3.021-3.251L959.4,263.2l.659-.614-3.681-3.958Z" transform="translate(-952.697 -258.632)" fill="#1a1a1a"/>
        </g>
      </g>
      <path id="Trazado_17696" data-name="Trazado 17696" d="M1124.569,454.3a3.26,3.26,0,1,1,3.26-3.26A3.262,3.262,0,0,1,1124.569,454.3Zm0-5.423a2.163,2.163,0,1,0,2.163,2.163A2.165,2.165,0,0,0,1124.569,448.873Z" transform="translate(-213.513 -94.001)"/>
      <path id="Trazado_17697" data-name="Trazado 17697" d="M1128.294,544.067a.9.9,0,0,1-.9-.9V522.916a.9.9,0,0,1,1.8,0v20.251A.9.9,0,0,1,1128.294,544.067Z" transform="translate(-216.536 -130.898)"/>
      <path id="Trazado_17698" data-name="Trazado 17698" d="M925.876,292.6a.674.674,0,0,1-.675-.675v-9.451a.675.675,0,1,1,1.35,0v9.451A.675.675,0,0,1,925.876,292.6Z" transform="translate(-116.049 -11.514)"/>
      <path id="Trazado_17699" data-name="Trazado 17699" d="M731.96,541.849a.9.9,0,0,1-.9-.9v-23.4a.9.9,0,1,1,1.8,0v23.4A.9.9,0,0,1,731.96,541.849Z" transform="translate(-19.564 -128.23)"/>
      <g id="Grupo_8548" data-name="Grupo 8548" transform="translate(923.909 315.734)">
        <path id="Trazado_17700" data-name="Trazado 17700" d="M1154.239,452.712a.9.9,0,0,1-.9-.9V393.7l6.75-5.408V373.507a.9.9,0,1,1,1.8,0v15.653l-6.75,5.408v57.243A.9.9,0,0,1,1154.239,452.712Z" transform="translate(-1153.339 -372.378)" fill="#5f3bbf"/>
        <g id="Grupo_8547" data-name="Grupo 8547" transform="translate(3.047)">
          <path id="Trazado_17701" data-name="Trazado 17701" d="M1159.4,376.9l.791.737,3.625-3.9,3.626,3.9.791-.737-4.417-4.75Z" transform="translate(-1159.396 -372.151)" fill="#5f3bbf"/>
        </g>
      </g>
      <g id="Grupo_8550" data-name="Grupo 8550" transform="translate(907.002 290.076)">
        <path id="Trazado_17702" data-name="Trazado 17702" d="M1126.5,362.559a.9.9,0,0,1-.9-.9V323.407a.9.9,0,0,1,1.8,0v38.252A.9.9,0,0,1,1126.5,362.559Z" transform="translate(-1122.649 -321.821)" fill="#1a1a1a"/>
        <g id="Grupo_8549" data-name="Grupo 8549" transform="translate(0 0)">
          <path id="Trazado_17703" data-name="Trazado 17703" d="M1119.729,325.1l.659.614,3.021-3.251,3.022,3.251.659-.614-3.681-3.959Z" transform="translate(-1119.729 -321.143)" fill="#1a1a1a"/>
        </g>
      </g>
      <g id="Grupo_8551" data-name="Grupo 8551" transform="translate(936.536 348.364)">
        <path id="Trazado_17704" data-name="Trazado 17704" d="M1178.948,443.236a.507.507,0,0,1,0-1.013l5.234-.007h0a.506.506,0,0,1,0,1.013l-5.234.007Z" transform="translate(-1178.441 -439.602)"/>
        <path id="Trazado_17705" data-name="Trazado 17705" d="M1184.15,443.266a.506.506,0,0,1-.507-.5l-.006-5.234a.506.506,0,0,1,.506-.507h0a.507.507,0,0,1,.506.506l.006,5.233a.505.505,0,0,1-.505.507Z" transform="translate(-1181.024 -437.02)"/>
      </g>
      <path id="Trazado_17706" data-name="Trazado 17706" d="M909.991,408.325A38.323,38.323,0,1,1,871.668,370,38.323,38.323,0,0,1,909.991,408.325Z" transform="translate(-70.398 -55.349)" fill="#e6f4fa"/>
      <path id="Trazado_17707" data-name="Trazado 17707" d="M988.619,510.507a1.5,1.5,0,1,1-1.5-1.5A1.5,1.5,0,0,1,988.619,510.507Z" transform="translate(-146.074 -124.432)"/>
      <path id="Trazado_17708" data-name="Trazado 17708" d="M989.619,294.467a1.5,1.5,0,1,1-1.5-1.5A1.5,1.5,0,0,1,989.619,294.467Z" transform="translate(-146.571 -17.063)"/>
      <path id="Trazado_17709" data-name="Trazado 17709" d="M824.608,374.407h-8.55a.9.9,0,0,1,0-1.8h8.55a.9.9,0,1,1,0,1.8Z" transform="translate(-61.359 -56.644)"/>
      <path id="Trazado_17710" data-name="Trazado 17710" d="M832.183,362.777h-3.6a.9.9,0,0,1,0-1.8h3.6a.9.9,0,1,1,0,1.8Z" transform="translate(-67.584 -50.864)"/>
      <path id="Trazado_17711" data-name="Trazado 17711" d="M819.022,384.743a.865.865,0,0,1-.144-.012l-3.742-.606-28.354-5.808a.9.9,0,0,1-.694-.668,258.5,258.5,0,0,1-4.812-26.105c-.3-2.508,1.645-5,3.723-6.174a66.805,66.805,0,0,1,7.556-3.7.9.9,0,1,1,.632,1.686,65.712,65.712,0,0,0-7.3,3.587c-1.3.733-3.035,2.579-2.818,4.391a254.436,254.436,0,0,0,4.641,25.34l27.756,5.686,3.48.563,1.952-.684c.362-.743.961-2.03,1.295-2.943a9.164,9.164,0,0,0-1.329-.445.9.9,0,0,1,.437-1.746,6.758,6.758,0,0,1,2.6,1.159.9.9,0,0,1,.237.854,30.289,30.289,0,0,1-1.788,4.251.9.9,0,0,1-.508.447l-2.516.881A.9.9,0,0,1,819.022,384.743Z" transform="translate(-44.505 -41.238)"/>
      <path id="Trazado_17712" data-name="Trazado 17712" d="M833.553,341.768a.906.906,0,0,1-.3-.052l-6.226-2.2a.9.9,0,1,1,.6-1.7l6.226,2.2a.9.9,0,0,1-.3,1.749Z" transform="translate(-66.959 -39.329)"/>
      <path id="Trazado_17713" data-name="Trazado 17713" d="M1044.1,372.5a.925.925,0,0,1-.129-.01.9.9,0,0,1-.764-1.018l2.748-19.3c-.2-.4-.611-1.189-.917-1.712a.9.9,0,0,1,1.555-.907c.45.771,1.07,2.012,1.1,2.064l.126.251-2.828,19.858A.9.9,0,0,1,1044.1,372.5Z" transform="translate(-174.69 -44.967)"/>
      <path id="Trazado_17714" data-name="Trazado 17714" d="M1056.091,373.06a.861.861,0,0,1-.9-.851c0-.145-.041-14.577.088-19.766l.005-.2,1.419-2.7a.9.9,0,0,1,1.594.841l-1.223,2.33c-.121,5.335-.082,19.341-.082,19.484a.861.861,0,0,1-.9.856Z" transform="translate(-180.649 -44.946)"/>
      <path id="Trazado_17715" data-name="Trazado 17715" d="M827.561,518.065c-2.233,0-11.2-.082-11.286-.083l-.75-.007-.128-.739c-.083-.476-8.235-47.307-13.672-68.344l-.182,0c-1,7.861-5.33,28.96-8.828,46.007-1.331,6.489-2.593,12.635-3.468,17.075.212.111.41.209.6.305.415.207.808.4,1.217.657a2.987,2.987,0,0,1,1.194,3.16,2.085,2.085,0,0,1-1.8,1.714c-1.839.255-12.089-.016-12.526-.027l-.962-.026.09-.958c.04-.425,4.017-42.8,7.957-71.789l.082-2.137.083-11.3a.836.836,0,0,1,.9-.815h.007a.834.834,0,0,1,.893.829l-.083,11.365-.093,2.275c-3.606,26.521-7.247,64.308-7.863,70.788,3.411.081,10.006.19,11.305.01.176-.018.245-.285.258-.338a1.2,1.2,0,0,0-.39-1.223c-.339-.21-.678-.38-1.071-.576-.359-.179-.767-.382-1.254-.656l-.567-.319.126-.639c.879-4.487,2.2-10.924,3.6-17.74,3.593-17.51,8.064-39.3,8.882-46.5l.048-.422.357-.231a3.076,3.076,0,0,1,1.805-.279c.114,0,.211.011.278.007l.8-.116.176.781c5.083,19.352,12.668,62.251,13.748,68.415,2.162.019,8.383.073,10.386.076a1,1,0,0,0,.169-.582,1.426,1.426,0,0,0-.6-1.194,5.9,5.9,0,0,0-1.481-.829c-.221-.1-.485-.222-.812-.374l-.434-.2-.075-.473c-2.188-13.9-5.745-39.451-7.869-54.718-.62-4.453-1.118-8.035-1.426-10.2a.9.9,0,1,1,1.782-.253c.308,2.169.807,5.752,1.427,10.208,2.1,15.089,5.6,40.23,7.79,54.211l.365.168a7.571,7.571,0,0,1,1.813,1.026,3.234,3.234,0,0,1,1.234,3.32,2.079,2.079,0,0,1-1.549,1.681l-.161.014Z" transform="translate(-42.381 -85.545)"/>
      <path id="Trazado_17716" data-name="Trazado 17716" d="M821.2,318.823a.9.9,0,0,1-.275-1.758l2.314-.742L823,312.216l.655-.217c.022-.008,2.4-.832,2.461-2.55a46.084,46.084,0,0,0-1.533-12.56.9.9,0,0,1,1.729-.5,47.06,47.06,0,0,1,1.6,13.122c-.076,2.211-2,3.427-3.042,3.926l.242,4.177-3.642,1.168A.891.891,0,0,1,821.2,318.823Z" transform="translate(-63.914 -18.441)"/>
      <path id="Trazado_17717" data-name="Trazado 17717" d="M798.963,298.2a.9.9,0,0,1-.881-.717A11.569,11.569,0,0,1,799,290.7c1.623-3.224,5.66-5.041,9.825-4.432a7.823,7.823,0,0,1,6.3,5.094l.113.284-.083.294c-.8,2.833-4.846,3.754-8.571,4.394a1.671,1.671,0,0,0-1.21.725.9.9,0,0,1-1.779-.273,3.155,3.155,0,0,1,2.685-2.226c3.083-.53,6.293-1.283,7.042-2.844a6.043,6.043,0,0,0-4.757-3.667c-3.408-.5-6.678.918-7.951,3.447a9.762,9.762,0,0,0-.771,5.621.9.9,0,0,1-.7,1.064A.921.921,0,0,1,798.963,298.2Z" transform="translate(-52.794 -13.676)"/>
      <path id="Trazado_17719" data-name="Trazado 17719" d="M822.542,464.273a.9.9,0,0,1-.13-1.791l5.782-.85a.9.9,0,1,1,.262,1.781l-5.782.851A.843.843,0,0,1,822.542,464.273Z" transform="translate(-64.582 -100.883)"/>
      <path id="Trazado_17720" data-name="Trazado 17720" d="M1054.766,463.593a.947.947,0,0,1-.135-.01l-3.354-.5a.9.9,0,0,1,.267-1.781l3.354.5a.9.9,0,0,1-.132,1.791Z" transform="translate(-178.326 -100.717)"/>
      <path id="Trazado_17721" data-name="Trazado 17721" d="M802.251,333.647a.9.9,0,0,1-.387-1.713l1.809-.861-.282-8.429a.9.9,0,0,1,1.8-.06l.32,9.608-2.874,1.368A.9.9,0,0,1,802.251,333.647Z" transform="translate(-54.497 -31.351)"/>
      <path id="Trazado_17722" data-name="Trazado 17722" d="M803.109,317.76c-.023,0-.047,0-.071,0a4.357,4.357,0,0,1-3.913-2.537,3.29,3.29,0,0,1,4.794-4.005.9.9,0,0,1-.95,1.529,1.49,1.49,0,0,0-2.171,1.814,2.707,2.707,0,0,0,2.381,1.406.9.9,0,0,1-.07,1.8Z" transform="translate(-53.276 -25.888)"/>
      <path id="Trazado_17723" data-name="Trazado 17723" d="M808.532,443.3H795.481a.9.9,0,0,1,0-1.8h13.051a.9.9,0,1,1,0,1.8Z" transform="translate(-51.133 -90.881)"/>
      <path id="Trazado_17724" data-name="Trazado 17724" d="M1085.272,452.745a.9.9,0,0,1-.9-.854l-.5-9.893a.9.9,0,1,1,1.8-.092l.5,9.893a.9.9,0,0,1-.853.944Z" transform="translate(-194.905 -90.66)"/>
      <path id="Trazado_17725" data-name="Trazado 17725" d="M1008.391,388.307a.908.908,0,0,1-.38-.084l-1.886-.881a.9.9,0,1,1,.761-1.631l1.652.771,35.6-4.42c.805-3.3,4.679-19.36,5.873-27.736.312-2.189.117-4.6-5.858-7.832-.227-.123-.685-.383-1.238-.7-1.187-.675-2.981-1.695-3.59-1.972a.9.9,0,0,1,.745-1.638c.683.31,2.447,1.313,3.734,2.045.539.306.985.56,1.206.68,5.381,2.914,7.346,5.716,6.782,9.669-1.342,9.41-6.008,28.325-6.055,28.515a.9.9,0,0,1-.763.677L1008.5,388.3A.912.912,0,0,1,1008.391,388.307Z" transform="translate(-156.008 -41.485)"/>
      <path id="Trazado_17726" data-name="Trazado 17726" d="M1020.759,355.572a.912.912,0,0,1-.146-.012.9.9,0,0,1-.742-1.033c.214-1.31,1.411-7.917,3.967-9.359a78.687,78.687,0,0,1,9.532-4.089.9.9,0,0,1,.6,1.7,78.561,78.561,0,0,0-9.251,3.961c-1.331.751-2.6,5.178-3.076,8.081A.9.9,0,0,1,1020.759,355.572Z" transform="translate(-163.092 -40.949)"/>
      <path id="Trazado_17727" data-name="Trazado 17727" d="M1041.668,531.3c-1.593,0-3.417.083-4.024,0-.874-.083-1.669-.361-1.914-1.376a2.863,2.863,0,0,1,1.091-3.08,13.587,13.587,0,0,1,1.189-.659c.2-.1.407-.208.63-.328-1.036-9.077-2.4-19.558-3.978-31.652-1.262-9.69-2.691-20.649-4.073-31.916l-.156,0c-4.431,21.076-12.645,67.869-12.728,68.345l-.129.737-.749.007c-.091,0-9.165.086-11.324.083l-.16-.014a2.192,2.192,0,0,1-1.621-1.75,3.122,3.122,0,0,1,1.118-3.241,7.228,7.228,0,0,1,1.772-1.034l.328-.153c1.036-9.537,3.1-24.306,4.916-37.363,1.687-12.09,3.142-22.533,3.555-27.03a.9.9,0,1,1,1.792.164c-.416,4.54-1.874,15-3.563,27.115-1.851,13.275-3.949,28.321-4.964,37.807l-.053.5-.454.217c-.319.152-.578.273-.795.375a5.488,5.488,0,0,0-1.426.821,1.316,1.316,0,0,0-.514,1.164,1.033,1.033,0,0,0,.23.623c1.987,0,8.232-.057,10.4-.076,1.084-6.157,8.659-49.04,12.758-68.373l.175-.825.834.121c.045,0,.137-.006.25-.01a3.143,3.143,0,0,1,1.8.271l.364.228.052.426c1.406,11.487,2.8,22.193,4.15,32.547,1.612,12.368,3,23.049,4.05,32.277l.066.585-.51.3c-.474.275-.872.478-1.224.658-.381.195-.711.364-1.036.572a1.113,1.113,0,0,0-.313,1.142c.01.041.1.4.295.419,1.336.183,7.292.07,10.389-.01-.235-6.339-1.687-44.433-3.662-71.224a.9.9,0,1,1,1.795-.132c2.152,29.193,3.684,71.772,3.7,72.2l-.28.674-.755-.126C1048.694,531.31,1045.031,531.3,1041.668,531.3Z" transform="translate(-155.027 -98.944)"/>
      <path id="Trazado_17728" data-name="Trazado 17728" d="M1045.685,322.469a.9.9,0,0,1-.669-.3,6.168,6.168,0,0,0-2.157-1.518l-.676-.252.095-.716a24.645,24.645,0,0,0,.141-3.718c-1.97-1.339-3.1-4.056-3.372-8.088-.553-8.267.48-10.484.6-10.71a.9.9,0,1,1,1.59.843h0s-.906,2.077-.395,9.747c.242,3.621,1.239,6.007,2.886,6.9l.444.241.025.505a28.5,28.5,0,0,1-.064,3.856,8.014,8.014,0,0,1,2.221,1.705.9.9,0,0,1-.669,1.5Z" transform="translate(-172.548 -18.915)"/>
      <path id="Trazado_17729" data-name="Trazado 17729" d="M1051.3,297.988a.9.9,0,0,1-.9-.857c-.016-.128-.191-.9-1.868-.9-.456,0-.9.006-1.328.011-3.344.038-6.234.074-7.31-2.726l-.1-.248.054-.26a8.354,8.354,0,0,1,6.357-6.148c4.631-1.127,8.565,1.221,9.911,4a11.336,11.336,0,0,1,.961,5.88.9.9,0,0,1-1.784-.242,9.639,9.639,0,0,0-.8-4.855,6.844,6.844,0,0,0-7.865-3.039,6.685,6.685,0,0,0-4.956,4.5c.683,1.326,2.4,1.372,5.5,1.333.436-.005.886-.011,1.35-.011,2.8,0,3.623,1.713,3.666,2.618a.9.9,0,0,1-.856.942Z" transform="translate(-173.002 -13.883)"/>
      <path id="Trazado_17730" data-name="Trazado 17730" d="M1070.594,334.043a.9.9,0,0,1-.441-.116l-2.447-1.377-.191-9.536a.9.9,0,1,1,1.8-.036l.17,8.507,1.551.872a.9.9,0,0,1-.442,1.685Z" transform="translate(-186.777 -31.541)"/>
      <path id="Trazado_17731" data-name="Trazado 17731" d="M1065.393,318.111a.9.9,0,0,1-.111-1.793c1.541-.194,1.9-.84,2.039-1.308a1.608,1.608,0,0,0-1.061-1.931,1.439,1.439,0,0,0-1.306.171.9.9,0,1,1-1.041-1.468,3.265,3.265,0,0,1,2.924-.407,3.424,3.424,0,0,1,2.212,4.142c-.3,1.015-1.153,2.287-3.541,2.589A.961.961,0,0,1,1065.393,318.111Z" transform="translate(-184.798 -26.124)"/>
      <path id="Trazado_17732" data-name="Trazado 17732" d="M1014.685,391.538a.9.9,0,0,1-.741-.389l-1.429-2.073a.9.9,0,1,1,1.482-1.021l1.1,1.6,25.628-4.548,3.246-18.664a.9.9,0,0,1,1.774.308l-3.354,19.286a.9.9,0,0,1-.729.732l-26.819,4.76A.933.933,0,0,1,1014.685,391.538Z" transform="translate(-159.364 -53.207)"/>
      <path id="Trazado_17733" data-name="Trazado 17733" d="M1003.26,420.684a.9.9,0,0,1-.206-1.776l4.273-1.01a.9.9,0,0,1,.415,1.752l-4.273,1.009A.892.892,0,0,1,1003.26,420.684Z" transform="translate(-154.396 -79.141)"/>
      <path id="Trazado_17734" data-name="Trazado 17734" d="M1024.263,425.616a.9.9,0,0,1-.889-.769l-.506-3.441a.9.9,0,1,1,1.781-.262l.506,3.44a.9.9,0,0,1-.76,1.021A.839.839,0,0,1,1024.263,425.616Z" transform="translate(-164.583 -80.384)"/>
      <path id="Trazado_17735" data-name="Trazado 17735" d="M843.04,418.388a.9.9,0,0,1-.878-1.1l.587-2.557a.9.9,0,1,1,1.755.4l-.587,2.557A.9.9,0,0,1,843.04,418.388Z" transform="translate(-74.768 -77.231)"/>
      <path id="Trazado_17736" data-name="Trazado 17736" d="M1048.52,333.821a7.191,7.191,0,0,1-2.026-.281.9.9,0,1,1,.551-1.714,5.059,5.059,0,0,0,3.632-.34.9.9,0,0,1,.907,1.555A6.05,6.05,0,0,1,1048.52,333.821Z" transform="translate(-176.019 -36.147)"/>
      <path id="Trazado_17737" data-name="Trazado 17737" d="M826.866,389.825a.915.915,0,0,1-.2-.022l-22.389-5.073a.9.9,0,0,1-.685-.707l-2.754-14.246a.9.9,0,1,1,1.768-.342L805.25,383.1l21.542,4.882,2.674-1.07a.9.9,0,0,1,.669,1.671l-2.935,1.175A.9.9,0,0,1,826.866,389.825Z" transform="translate(-54.235 -54.705)"/>
      <g id="Grupo_8552" data-name="Grupo 8552" transform="translate(802.952 399.29)">
        <path id="Trazado_17738" data-name="Trazado 17738" d="M913.562,543.9a.675.675,0,0,1-.478-1.151l4.278-4.29a.675.675,0,1,1,.956.953L914.04,543.7A.671.671,0,0,1,913.562,543.9Z" transform="translate(-912.881 -538.262)" fill="#3bdcf0"/>
        <path id="Trazado_17739" data-name="Trazado 17739" d="M917.839,543.9a.674.674,0,0,1-.477-.2l-4.288-4.278a.675.675,0,0,1,.953-.955l4.288,4.277a.675.675,0,0,1-.476,1.153Z" transform="translate(-912.876 -538.268)" fill="#3bdcf0"/>
      </g>
      <g id="Grupo_8553" data-name="Grupo 8553" transform="translate(696.226 312.787)">
        <path id="Trazado_17740" data-name="Trazado 17740" d="M701.388,371.933a.674.674,0,0,1-.478-1.151l4.277-4.289a.675.675,0,0,1,.956.953l-4.278,4.29A.672.672,0,0,1,701.388,371.933Z" transform="translate(-700.708 -366.294)" fill="#3bdcf0"/>
        <path id="Trazado_17741" data-name="Trazado 17741" d="M705.666,371.934a.674.674,0,0,1-.477-.2l-4.288-4.278a.675.675,0,0,1,.954-.956l4.288,4.278a.675.675,0,0,1-.477,1.153Z" transform="translate(-700.703 -366.3)" fill="#3bdcf0"/>
      </g>
      <path id="Trazado_17742" data-name="Trazado 17742" d="M1144.994,367.322a.838.838,0,1,1-.838-.838A.837.837,0,0,1,1144.994,367.322Z" transform="translate(-224.45 -53.601)"/>
      <path id="Trazado_17743" data-name="Trazado 17743" d="M887.308,466.571a46.724,46.724,0,0,1-45.836-37.789.9.9,0,1,1,1.768-.341,44.9,44.9,0,0,0,87.292,3.581.9.9,0,1,1,1.733.485A46.829,46.829,0,0,1,887.308,466.571Z" transform="translate(-74.429 -84.03)"/>
      <path id="Trazado_17744" data-name="Trazado 17744" d="M932.526,364.041a.9.9,0,0,1-.9-.844,44.886,44.886,0,0,0-89.332-2.753.9.9,0,1,1-1.786-.222,46.686,46.686,0,0,1,92.915,2.863.9.9,0,0,1-.842.954Z" transform="translate(-73.955 -30.177)"/>
      <path id="Trazado_17745" data-name="Trazado 17745" d="M957.178,362.911a.9.9,0,0,1-.871-.675,38.891,38.891,0,0,0-50.492-26.9.9.9,0,1,1-.6-1.7,40.69,40.69,0,0,1,52.832,28.143.9.9,0,0,1-.872,1.126Z" transform="translate(-105.819 -36.141)"/>
      <path id="Trazado_17746" data-name="Trazado 17746" d="M873.661,350.22a.815.815,0,0,1-.621-1.343,40.586,40.586,0,0,1,11.818-9.538.815.815,0,1,1,.77,1.437,38.962,38.962,0,0,0-11.345,9.157A.815.815,0,0,1,873.661,350.22Z" transform="translate(-90.03 -40.062)"/>
      <path id="Trazado_17747" data-name="Trazado 17747" d="M899.841,473.869a40.678,40.678,0,0,1-33.015-16.993.816.816,0,1,1,1.326-.949,38.938,38.938,0,0,0,63.971-.854.815.815,0,1,1,1.351.912A40.544,40.544,0,0,1,899.841,473.869Z" transform="translate(-86.962 -97.45)"/>
      <g id="Grupo_8555" data-name="Grupo 8555" transform="translate(798.103 316.485)">
        <path id="Trazado_17553" data-name="Trazado 17553" d="M417.819,541.892a2.174,2.174,0,0,1,0-4.348l27.968-.035a2.2,2.2,0,0,1,2.175,2.17,2.173,2.173,0,0,1-2.171,2.175l-27.966.039Z" transform="translate(-415.646 -523.539)" fill="#5f3bbf"/>
        <path id="Trazado_17554" data-name="Trazado 17554" d="M425.043,562.632a2.172,2.172,0,0,1-2.171-2.171l-.033-27.966a2.178,2.178,0,0,1,2.171-2.179h0a2.175,2.175,0,0,1,2.175,2.173l.029,27.968a2.173,2.173,0,0,1-2.169,2.175Z" transform="translate(-408.87 -530.316)" fill="#5f3bbf"/>
      </g>
    </g>
  </g>
</svg>
