<svg xmlns="http://www.w3.org/2000/svg" width="742.993" height="422.757" viewBox="0 0 742.993 422.757">
  <g id="Grupo_8434" data-name="Grupo 8434" transform="translate(-621.61 -799)">
    <g id="Grupo_8412" data-name="Grupo 8412" transform="translate(610.809 577.374)">
      <path id="Trazado_12375" data-name="Trazado 12375" d="M260.173,573.705h-.047l-48.465-.115a7.582,7.582,0,0,1-7.6-7.608l.162-26.361a7.614,7.614,0,0,1,7.695-7.578l48.469.312a7.6,7.6,0,0,1,5.393,2.28,1.471,1.471,0,0,1-2.09,2.072,4.819,4.819,0,0,0-3.32-1.537l-48.47-.436h-.03a4.832,4.832,0,0,0-4.705,4.817L207,566.025a4.589,4.589,0,0,0,4.679,4.588l48.464.151h.029a4.559,4.559,0,0,0,4.708-4.493l.115-18.38a1.413,1.413,0,0,1,1.471-1.391h.01a1.485,1.485,0,0,1,1.461,1.5l-.116,18.279A7.512,7.512,0,0,1,260.173,573.705Z" fill="#243640"/>
      <path id="Trazado_12376" data-name="Trazado 12376" d="M233.19,551.381l-2.175-2.828-15.1-.321a1.471,1.471,0,1,1,.063-2.941l16.509.352,2.078,2.7,2.4-.158,1.585-1.92,14.874.578a1.471,1.471,0,1,1-.114,2.939l-13.418-.521-1.465,1.775Z" fill="#243640"/>
      <path id="Trazado_12377" data-name="Trazado 12377" d="M226.463,535.144a1.467,1.467,0,0,1-1.418-1.091c-.742-2.8-.545-8.588,5.511-10.5a1.47,1.47,0,0,1,.883,2.8c-4.792,1.51-3.691,6.393-3.549,6.944a1.472,1.472,0,0,1-1.427,1.839Z" fill="#243640"/>
      <path id="Trazado_12378" data-name="Trazado 12378" d="M247.343,535.242a1.67,1.67,0,0,1-.271-.023,1.47,1.47,0,0,1-1.178-1.709c.1-.571.816-5.514-4.073-6.651a1.471,1.471,0,0,1,.667-2.865c6.183,1.438,6.824,7.2,6.3,10.045A1.471,1.471,0,0,1,247.343,535.242Z" fill="#243640"/>
    </g>
    <g id="Grupo_8413" data-name="Grupo 8413" transform="translate(610.809 577.374)">
      <path id="Trazado_12379" data-name="Trazado 12379" d="M422.267,343.56H243.074a1.471,1.471,0,0,1,0-2.942H422.267a1.471,1.471,0,0,1,0,2.942Z" fill="#5f3bbf"/>
      <path id="Trazado_12380" data-name="Trazado 12380" d="M422.267,411.941H243.074a1.471,1.471,0,0,1,0-2.941H422.267a1.471,1.471,0,0,1,0,2.941Z" fill="#5f3bbf"/>
      <path id="Trazado_12381" data-name="Trazado 12381" d="M332.925,469.953a1.47,1.47,0,0,1-1.47-1.471V277.92a1.471,1.471,0,0,1,2.941,0V468.482A1.471,1.471,0,0,1,332.925,469.953Z" fill="#5f3bbf"/>
      <path id="Trazado_12382" data-name="Trazado 12382" d="M332.326,472.328a98.415,98.415,0,1,1,98.416-98.412A98.522,98.522,0,0,1,332.326,472.328Zm0-193.89A95.476,95.476,0,1,0,427.8,373.916,95.581,95.581,0,0,0,332.326,278.438Z" fill="#5f3bbf"/>
      <path id="Trazado_12383" data-name="Trazado 12383" d="M340.615,471.746a1.472,1.472,0,0,1-.775-2.723c31.157-19.282,50.514-55.468,50.514-94.435,0-40.827-21.458-77.779-56-96.436a1.471,1.471,0,0,1,1.4-2.589c35.492,19.172,57.541,57.116,57.541,99.025,0,39.978-19.89,77.121-51.906,96.937A1.468,1.468,0,0,1,340.615,471.746Z" fill="#5f3bbf"/>
      <path id="Trazado_12384" data-name="Trazado 12384" d="M326.536,471.746a1.45,1.45,0,0,1-.773-.221c-32.02-19.812-51.911-56.956-51.911-96.937,0-41.909,22.049-79.853,57.544-99.025a1.471,1.471,0,0,1,1.4,2.589c-34.542,18.657-56,55.609-56,96.436,0,38.971,19.356,75.157,50.517,94.435a1.472,1.472,0,0,1-.775,2.723Z" fill="#5f3bbf"/>
    </g>
    <path id="Trazado_12385" data-name="Trazado 12385" d="M246.354,443.837l5.776-16.376,13.149-6.551v-7.369s-3.831-15.662-2.324-22.445c1.825-8.207,10.921-14.591,21.9-12.764,12.462,2.072,13.627,14.588,13.627,14.588l1.82,24.624,7.461,8.279,7.094,1.911,19.105,1.638L355.8,428.28,363.444,425l2.457-1.637s3.275-13.92,4.093-22.927,6.552-24.566,13.921-24.566,27.021,4.914,27.021,4.914l2.458,27.022-.821,13.1,19.653,17.2-1.638,29.476-94.165,27.023Z" transform="translate(610.809 577.374)" fill="#f3f7fa"/>
    <path id="Trazado_12386" data-name="Trazado 12386" d="M227.186,582.4a27.021,27.021,0,1,1-27.022-27.021A27.022,27.022,0,0,1,227.186,582.4Z" transform="translate(610.809 577.374)" fill="#f3f7fa"/>
    <g id="Grupo_8414" data-name="Grupo 8414" transform="translate(1106.809 902.374)">
      <path id="Trazado_12387" data-name="Trazado 12387" d="M242.279,235.942a1.045,1.045,0,0,1-1.1-1.033,1.122,1.122,0,0,1,1.1-1.129l14.413-.043h0a1.152,1.152,0,0,1,1.1,1.159,1.07,1.07,0,0,1-1.1,1.066l-14.412-.02Z" fill="#5f3bbf"/>
      <path id="Trazado_12388" data-name="Trazado 12388" d="M249.494,243.295a1.113,1.113,0,0,1-1.1-1.112l-.017-14.553a1.23,1.23,0,0,1,1.1-1.246h0a1.23,1.23,0,0,1,1.1,1.238l.017,14.49a1.171,1.171,0,0,1-1.1,1.183Z" fill="#5f3bbf"/>
    </g>
    <path id="Trazado_12389" data-name="Trazado 12389" d="M261.9,340.618h-.028a23.917,23.917,0,0,0,1.6-8.254c0-12.712-10.638-23.017-23.752-23.017s-23.755,10.3-23.755,23.017a23.957,23.957,0,0,0,1.6,8.254h-.028l.134.277a22.579,22.579,0,0,0,1.338,2.727l20.713,36.633,20.715-36.642a22.269,22.269,0,0,0,1.329-2.708Z" transform="translate(610.809 577.374)" fill="#f3f7fa"/>
    <path id="Trazado_12390" data-name="Trazado 12390" d="M380.47,284h-.041a27.667,27.667,0,0,0,2.349-10.829c0-16.761-15.642-30.323-34.927-30.323s-34.935,13.547-34.935,30.307A27.734,27.734,0,0,0,315.269,284h-.044l.2.418a29.568,29.568,0,0,0,1.966,3.623l30.463,48.317,30.462-48.31a28.448,28.448,0,0,0,1.954-3.618Z" transform="translate(610.809 577.374)" fill="#f3f7fa"/>
    <g id="Grupo_8417" data-name="Grupo 8417" transform="translate(610.809 577.374)">
      <g id="Grupo_8415" data-name="Grupo 8415">
        <path id="Trazado_12391" data-name="Trazado 12391" d="M240.21,366.636a1.47,1.47,0,0,1-1.29-.763l-13.585-24.784a17.229,17.229,0,0,1-.925-1.934l-.056-.11a1.448,1.448,0,0,1-.146-.436,17.681,17.681,0,0,1-1.047-5.834,17.048,17.048,0,1,1,34.1,0,17.6,17.6,0,0,1-1.056,5.858,1.369,1.369,0,0,1-.127.393l-.064.131a16.41,16.41,0,0,1-.933,1.94L241.5,365.873A1.47,1.47,0,0,1,240.21,366.636Zm-13.132-28.723c.013.029.027.058.038.087a14.323,14.323,0,0,0,.793,1.667l12.3,22.439,12.3-22.442a13.377,13.377,0,0,0,.792-1.653c.012-.029.022-.057.036-.084l.012-.034a14.956,14.956,0,0,0,.969-5.121,14.106,14.106,0,1,0-28.213,0,15,15,0,0,0,.969,5.119Z" fill="#3bdcf0"/>
      </g>
      <g id="Grupo_8416" data-name="Grupo 8416">
        <path id="Trazado_12392" data-name="Trazado 12392" d="M240.165,339.935a7.408,7.408,0,1,1,7.406-7.411A7.417,7.417,0,0,1,240.165,339.935Zm0-11.874a4.467,4.467,0,1,0,4.464,4.463A4.469,4.469,0,0,0,240.165,328.061Z" fill="#3bdcf0"/>
      </g>
    </g>
    <path id="Trazado_12393" data-name="Trazado 12393" d="M233.389,529.1c-.04,0-.081,0-.122,0a1.472,1.472,0,0,1-1.346-1.586l.531-6.485a1.471,1.471,0,0,1,2.932.241l-.531,6.484A1.473,1.473,0,0,1,233.389,529.1Z" transform="translate(610.809 577.374)" fill="#243640"/>
    <path id="Trazado_12394" data-name="Trazado 12394" d="M227.927,528.146a1.475,1.475,0,0,1-.692-.173c-.174-.1-4.313-2.352-4.461-6.155-.138-3.636,2.536-12.566,2.915-13.808l7.478-32.567a1.5,1.5,0,0,1,.113-.32l20.447-41.62a1.466,1.466,0,0,1,.571-.617c.058-.034,5.868-3.468,11.908-6.714a1.471,1.471,0,0,1,1.393,2.591c-5.107,2.744-10.05,5.625-11.427,6.433l-20.177,41.072-7.451,32.449c-.008.035-.018.068-.027.1-.816,2.668-2.907,10.182-2.8,12.887.066,1.754,2.125,3.248,2.912,3.676a1.471,1.471,0,0,1-.7,2.765Z" transform="translate(610.809 577.374)" fill="#243640"/>
    <path id="Trazado_12395" data-name="Trazado 12395" d="M285.863,425.633a1.471,1.471,0,0,1-.583-2.821l.926-.4-.159-5.858.947-.382c1.585-.645,4-2.154,4.131-3.344,1.337-11.759-.33-18.651-.347-18.72a1.471,1.471,0,0,1,2.855-.711c.074.3,1.811,7.481.415,19.763-.3,2.658-3.329,4.493-5.007,5.314l.159,5.847-2.754,1.191A1.465,1.465,0,0,1,285.863,425.633Z" transform="translate(610.809 577.374)" fill="#243640"/>
    <path id="Trazado_12396" data-name="Trazado 12396" d="M268.391,402.091a1.465,1.465,0,0,1-1.412-1.069,14.719,14.719,0,0,1,1.322-9.988c2.343-4.6,8.534-8.541,16.59-6.339,4.341,1.187,7,3.752,8.6,8.316l.182.517-.2.51c-1.616,4.113-5.041,6.315-11.455,7.363-.922.151-3.715.485-3.834.5a1.47,1.47,0,1,1-.347-2.92c.027,0,2.848-.341,3.707-.481,5.1-.834,7.68-2.266,8.976-5.039a8.757,8.757,0,0,0-6.409-5.927c-7.433-2.034-11.79,2.083-13.193,4.837a11.955,11.955,0,0,0-1.108,7.862,1.477,1.477,0,0,1-1.028,1.806A1.494,1.494,0,0,1,268.391,402.091Z" transform="translate(610.809 577.374)" fill="#243640"/>
    <path id="Trazado_12397" data-name="Trazado 12397" d="M266.414,429.206a1.471,1.471,0,0,1-.592-2.818l4.72-2.072.05-13.176a1.421,1.421,0,0,1,1.471-1.405h.005a1.419,1.419,0,0,1,1.466,1.416l-.059,15.12-6.47,2.825A1.439,1.439,0,0,1,266.414,429.206Z" transform="translate(610.809 577.374)" fill="#243640"/>
    <path id="Trazado_12398" data-name="Trazado 12398" d="M272.736,412.181a1.528,1.528,0,0,1-.259-.023c-3.572-.639-4.849-2.615-5.292-4.159a5.021,5.021,0,0,1,3.444-6.211,5.043,5.043,0,0,1,4.436.838,1.471,1.471,0,1,1-1.786,2.337,2.082,2.082,0,0,0-3.268,2.225c.2.7.727,1.671,2.984,2.075a1.471,1.471,0,0,1-.259,2.918Z" transform="translate(610.809 577.374)" fill="#243640"/>
    <path id="Trazado_12399" data-name="Trazado 12399" d="M259.658,460.662a1.472,1.472,0,0,1-1.287-2.182l3.275-5.935a1.47,1.47,0,1,1,2.575,1.42l-3.274,5.935A1.47,1.47,0,0,1,259.658,460.662Z" transform="translate(610.809 577.374)" fill="#243640"/>
    <path id="Trazado_12400" data-name="Trazado 12400" d="M386.418,477.3c-.044,0-.087,0-.13-.006a1.473,1.473,0,0,1-1.337-1.594c.106-1.211,2.579-29.466,3.618-36.636a9.492,9.492,0,0,0-.52-1.488,13.426,13.426,0,0,1-.651-1.854,1.472,1.472,0,0,1,2.861-.691,10.765,10.765,0,0,0,.514,1.436,9.393,9.393,0,0,1,.745,2.432l.02.191-.028.189c-1.005,6.7-3.6,36.378-3.629,36.677A1.471,1.471,0,0,1,386.418,477.3Z" transform="translate(610.809 577.374)" fill="#243640"/>
    <path id="Trazado_12401" data-name="Trazado 12401" d="M395.835,474.441a1.6,1.6,0,0,1-1.47-1.6c0-.258-.218-26.053-.917-33.127l-.036-.4,1.563-3.8a1.468,1.468,0,1,1,2.718,1.109l-1.284,3.1c.684,7.652.889,32.047.9,33.092a1.591,1.591,0,0,1-1.458,1.621Z" transform="translate(610.809 577.374)" fill="#243640"/>
    <path id="Trazado_12402" data-name="Trazado 12402" d="M364.49,505.258c-4,0-6.145-2.43-7.612-4.75a1.47,1.47,0,0,1,2.486-1.57c1.44,2.277,3.254,4.371,8.151,2.859,13.927-4.3,38.445-12.358,48.34-15.987.978-4.777,2.416-10.7,3.933-16.949,1.981-8.154,4.028-16.586,5.016-22.442.331-10.093-5.611-12.68-13.127-15.953-.983-.427-1.978-.861-2.97-1.318a1.47,1.47,0,1,1,1.23-2.671c.973.448,1.949.873,2.914,1.293,7.539,3.282,15.333,6.675,14.888,18.852a1.737,1.737,0,0,1-.018.189c-1,5.964-3.072,14.494-5.074,22.744-1.6,6.576-3.106,12.787-4.071,17.636a1.466,1.466,0,0,1-.928,1.092c-9.377,3.494-34.927,11.9-49.266,16.324A13.2,13.2,0,0,1,364.49,505.258Z" transform="translate(610.809 577.374)" fill="#243640"/>
    <path id="Trazado_12403" data-name="Trazado 12403" d="M351.108,474.49a1.471,1.471,0,0,1-.978-2.57l10.781-9.582c1.064-2.848,8.436-22.582,11.2-29.487.89-2.222,8-4.918,13.812-6.79a1.471,1.471,0,1,1,.9,2.8c-5.154,1.66-11.165,4.111-12.009,5.151-2.975,7.446-11.191,29.474-11.274,29.7a1.469,1.469,0,0,1-.4.584l-11.055,9.826A1.469,1.469,0,0,1,351.108,474.49Z" transform="translate(610.809 577.374)" fill="#243640"/>
    <path id="Trazado_12404" data-name="Trazado 12404" d="M394.424,431.986a15.9,15.9,0,0,1-8.1-2.745l-.611-.431-.013-.747c0-.034-.059-3.3-.475-6.995-3.475-2.784-5.629-7.012-6.406-12.581-1.863-13.358-.444-17.08-.277-17.46a1.471,1.471,0,1,1,2.691,1.187h0s-1.229,3.478.5,15.867c.7,5.023,2.634,8.729,5.75,11.013l.512.376.078.632c.368,3.014.5,5.791.547,7.111,1.542.907,5.731,2.99,8.792.989a1.471,1.471,0,0,1,1.611,2.462A8.258,8.258,0,0,1,394.424,431.986Z" transform="translate(610.809 577.374)" fill="#243640"/>
    <path id="Trazado_12405" data-name="Trazado 12405" d="M398.179,399.984a1.472,1.472,0,0,1-1.459-1.3c-.041-.206-.415-1.435-3.131-1.244-5.721.411-12.838.922-15.223-4.16l-.184-.394.058-.431a12.4,12.4,0,0,1,8.522-10.168c8.89-2.472,14.757.494,17.282,4.1l.075.118a21.762,21.762,0,0,1,2.876,11.6,1.47,1.47,0,0,1-2.93-.245,19.157,19.157,0,0,0-2.467-9.841c-1.973-2.753-6.685-4.943-14.048-2.9a9.485,9.485,0,0,0-6.321,7.28c1.628,2.635,6.279,2.528,12.149,2.106,4.562-.327,6.086,2.361,6.263,3.827a1.473,1.473,0,0,1-1.285,1.636A1.763,1.763,0,0,1,398.179,399.984Z" transform="translate(610.809 577.374)" fill="#243640"/>
    <path id="Trazado_12406" data-name="Trazado 12406" d="M394.562,531.559c-.042,0-.083,0-.124-.006l-6.55-.545a1.471,1.471,0,1,1,.244-2.932l6.55.547a1.471,1.471,0,0,1-.12,2.936Z" transform="translate(610.809 577.374)" fill="#243640"/>
    <path id="Trazado_12407" data-name="Trazado 12407" d="M410.447,429.749a1.472,1.472,0,0,1-.692-.175l-6.069-3.248-2.105-15.444a1.471,1.471,0,0,1,2.914-.4l1.9,13.957,4.745,2.54a1.471,1.471,0,0,1-.7,2.768Z" transform="translate(610.809 577.374)" fill="#243640"/>
    <path id="Trazado_12408" data-name="Trazado 12408" d="M401.958,411.753a1.47,1.47,0,0,1-.287-2.912c2.475-.5,2.985-1.584,3.152-2.36a2.609,2.609,0,0,0-1.943-3,2.337,2.337,0,0,0-2.1.429,1.471,1.471,0,0,1-1.867-2.273,5.311,5.311,0,0,1,4.7-1A5.577,5.577,0,0,1,407.7,407.1c-.366,1.685-1.607,3.853-5.452,4.621A1.425,1.425,0,0,1,401.958,411.753Z" transform="translate(610.809 577.374)" fill="#243640"/>
    <path id="Trazado_12409" data-name="Trazado 12409" d="M417.52,513.412h0l-20.3.1a1.525,1.525,0,0,1,0-3.047h0l20.3.2a1.376,1.376,0,1,1,0,2.746Z" transform="translate(610.809 577.374)" fill="#243640"/>
    <path id="Trazado_12410" data-name="Trazado 12410" d="M368.843,491.045a1.468,1.468,0,0,1-.7-.18l-7.691-4.193a1.471,1.471,0,0,1,1.409-2.582l7.108,3.877,35.166-12.684,5.489-27.363a1.471,1.471,0,0,1,2.884.579l-5.652,28.177a1.47,1.47,0,0,1-.945,1.093l-36.566,13.188A1.449,1.449,0,0,1,368.843,491.045Z" transform="translate(610.809 577.374)" fill="#243640"/>
    <path id="Trazado_12411" data-name="Trazado 12411" d="M353.314,497.81a1.471,1.471,0,0,1-.655-2.789l5.813-2.88a1.47,1.47,0,1,1,1.305,2.634l-5.812,2.881A1.44,1.44,0,0,1,353.314,497.81Z" transform="translate(610.809 577.374)" fill="#243640"/>
    <path id="Trazado_12412" data-name="Trazado 12412" d="M377.091,500.426a1.473,1.473,0,0,1-1.383-.967l-2.182-5.99a1.47,1.47,0,0,1,2.763-1.006l2.183,5.99a1.471,1.471,0,0,1-.878,1.885A1.528,1.528,0,0,1,377.091,500.426Z" transform="translate(610.809 577.374)" fill="#243640"/>
    <path id="Trazado_12413" data-name="Trazado 12413" d="M232.229,510.814a1.445,1.445,0,0,1-.423-.062l-4.1-1.227a1.471,1.471,0,0,1,.844-2.818l4.094,1.228a1.47,1.47,0,0,1-.42,2.879Z" transform="translate(610.809 577.374)" fill="#243640"/>
    <path id="Trazado_12414" data-name="Trazado 12414" d="M388.709,421.959a11.138,11.138,0,0,1-2.444-.251,1.47,1.47,0,1,1,.7-2.857,8.231,8.231,0,0,0,5.852-.976,1.471,1.471,0,0,1,1.66,2.429A10.194,10.194,0,0,1,388.709,421.959Z" transform="translate(610.809 577.374)" fill="#243640"/>
    <g id="Grupo_8418" data-name="Grupo 8418" transform="translate(610.809 577.374)">
      <path id="Trazado_12415" data-name="Trazado 12415" d="M526.313,520.029a1.256,1.256,0,0,1-1.1-1.265,1.03,1.03,0,0,1,1.1-1.016l11.357.076h0c.609,0,1.1.32,1.1.93a1.172,1.172,0,0,1-1.1,1.181l-11.359.094Z" fill="#243640"/>
      <path id="Trazado_12416" data-name="Trazado 12416" d="M532,525.176a1.024,1.024,0,0,1-1.1-1l-.013-11.244a1.011,1.011,0,0,1,1.1-.989h0a1.047,1.047,0,0,1,1.1,1.036L533.1,524.2a1,1,0,0,1-1.1.973Z" fill="#243640"/>
    </g>
    <path id="Trazado_12417" data-name="Trazado 12417" d="M352.334,485.545a1.485,1.485,0,0,1-.612-.135l-26.967-12.4a1.468,1.468,0,0,1-.713-.7l-16.726-35.055c-.8-1.584-2.18-3.539-2.922-3.879-4.121-1.882-11.717-4.933-11.793-4.964a1.47,1.47,0,1,1,1.093-2.73c.078.031,7.739,3.108,11.92,5.019,2.081.949,3.982,4.545,4.342,5.256l16.512,34.6,26.481,12.172a1.472,1.472,0,0,1-.615,2.809Z" transform="translate(610.809 577.374)" fill="#243640"/>
    <path id="Trazado_12418" data-name="Trazado 12418" d="M259.825,530.322H259.8a1.371,1.371,0,0,1-1.441-1.392l.306-15.52V463.791L247.3,484.576l-7.606,31.4,1.953,7.42a1.471,1.471,0,0,1-2.844.75l-2.142-8.138,7.871-32.506L261.6,452.273v61.166l-.308,15.549A1.382,1.382,0,0,1,259.825,530.322Z" transform="translate(610.809 577.374)" fill="#243640"/>
    <path id="Trazado_12419" data-name="Trazado 12419" d="M282.106,532.1a1.47,1.47,0,0,1-.232-2.921l7.644-1.229a1.47,1.47,0,0,1,.465,2.9l-7.642,1.227A1.342,1.342,0,0,1,282.106,532.1Z" transform="translate(610.809 577.374)" fill="#243640"/>
    <path id="Trazado_12420" data-name="Trazado 12420" d="M280.72,514.146H260.867a1.469,1.469,0,1,1,0-2.939H280.72a1.469,1.469,0,1,1,0,2.939Z" transform="translate(610.809 577.374)" fill="#243640"/>
    <path id="Trazado_12421" data-name="Trazado 12421" d="M564.542,644.293H133.662a1.471,1.471,0,1,1,0-2.941h430.88a1.471,1.471,0,1,1,0,2.941Z" transform="translate(610.809 577.374)" fill="#243640"/>
    <path id="Trazado_12422" data-name="Trazado 12422" d="M325.9,644.383c-3.586,0-18.248-.135-18.4-.137a1.469,1.469,0,0,1-1.435-1.219c-.134-.773-13.4-76.986-22.252-111.226l-.276,0c-.873,7.84-2.15,20.957-3.75,37.373-1.831,18.8-4.1,42.137-6.531,65.242.377.2.725.371,1.068.541.676.336,1.314.656,1.98,1.068a4.874,4.874,0,0,1,1.943,5.153,3.4,3.4,0,0,1-2.937,2.791c-2.992.416-19.674-.024-20.384-.043a1.476,1.476,0,0,1-1.43-1.537c.014-.285,1.3-28.811,2.7-61.883a1.452,1.452,0,0,1,1.531-1.406,1.468,1.468,0,0,1,1.408,1.531c-1.217,28.764-2.352,54.09-2.636,60.391,5.531.132,16.346.32,18.467.027.285-.029.394-.457.416-.543a1.948,1.948,0,0,0-.632-1.981c-.549-.341-1.1-.617-1.739-.935-.586-.291-1.249-.621-2.044-1.07a1.473,1.473,0,0,1-.742-1.436c2.464-23.41,4.776-47.135,6.633-66.2,1.675-17.2,3-30.78,3.874-38.487a1.471,1.471,0,0,1,.663-1.068,5.023,5.023,0,0,1,2.94-.455c.186.008.345.018.452.012a1.421,1.421,0,0,1,1.589,1.086c8.268,31.494,20.611,101.3,22.374,111.343,3.522.032,13.635.122,16.9.125a1.628,1.628,0,0,0,.272-.945,2.32,2.32,0,0,0-.968-1.936,9.581,9.581,0,0,0-2.406-1.347c-.361-.166-.792-.363-1.325-.611a1.478,1.478,0,0,1-.831-1.1c-.648-4.115-15.509-120.6-16.141-125.559-.007-.056-.011-.111-.013-.168l-.68-55a1.471,1.471,0,1,1,2.941-.037l.681,54.914c.464,3.645,14.5,113.664,16.007,124.617.215.1.408.188.583.268a12.418,12.418,0,0,1,2.95,1.672,5.266,5.266,0,0,1,2.009,5.408,3.388,3.388,0,0,1-2.527,2.742A1.51,1.51,0,0,1,325.9,644.383Z" transform="translate(610.809 577.374)" fill="#243640"/>
    <path id="Trazado_12423" data-name="Trazado 12423" d="M351.835,644.371a1.827,1.827,0,0,1-.306-.021,3.416,3.416,0,0,1-2.538-2.76,5.26,5.26,0,0,1,2-5.4,13.858,13.858,0,0,1,3.292-1.865l.2-.09c1.49-10.767,15.148-116.746,15.638-120.552l-.037-11.86a1.47,1.47,0,0,1,1.466-1.474,1.488,1.488,0,0,1,1.476,1.465l.038,11.956a1.356,1.356,0,0,1-.013.192c-.617,4.791-15.126,117.383-15.773,121.5a1.471,1.471,0,0,1-.831,1.1l-.923.43a10.987,10.987,0,0,0-2.763,1.547,2.3,2.3,0,0,0-.957,1.93,1.678,1.678,0,0,0,.284.961c3.262,0,13.383-.09,16.908-.119,1.763-10.047,14.112-79.85,22.382-111.342a1.472,1.472,0,0,1,1.637-1.082c.068.005.221-.01.408-.016a5.026,5.026,0,0,1,2.94.455,1.466,1.466,0,0,1,.661,1.068c.875,7.694,2.2,21.243,3.866,38.4,1.859,19.086,4.174,42.84,6.642,66.287a1.468,1.468,0,0,1-.742,1.436c-.79.445-1.45.775-2.033,1.064-.642.32-1.2.6-1.747.939a1.946,1.946,0,0,0-.633,1.983c.02.086.131.514.354.537,2.176.3,12.986.111,18.52-.021-.543-11-3.894-79.307-5.218-115.145l-.746-12.346c0-.029,0-.06,0-.088v-26.5a1.471,1.471,0,0,1,2.943,0v26.452l.745,12.339c1.436,38.87,5.252,115.871,5.291,116.645a1.476,1.476,0,0,1-1.43,1.545c-.709.017-17.393.457-20.444.037a3.383,3.383,0,0,1-2.876-2.785,4.872,4.872,0,0,1,1.945-5.153c.666-.414,1.307-.734,1.986-1.072.338-.17.686-.342,1.06-.539-2.431-23.141-4.708-46.508-6.542-65.334-1.6-16.369-2.87-29.457-3.74-37.281-.092,0-.19,0-.281,0-8.85,34.24-22.123,110.451-22.258,111.224a1.47,1.47,0,0,1-1.436,1.219C370.092,644.244,355.427,644.371,351.835,644.371Z" transform="translate(610.809 577.374)" fill="#243640"/>
    <path id="Trazado_12424" data-name="Trazado 12424" d="M326.6,488.3a1.476,1.476,0,0,1-.557-.109l-9.008-3.684a1.5,1.5,0,0,1-.585-.436l-12.281-15.15a1.47,1.47,0,0,1,2.284-1.852l12.045,14.858,8.658,3.541a1.471,1.471,0,0,1-.556,2.832Z" transform="translate(610.809 577.374)" fill="#243640"/>
    <path id="Trazado_12425" data-name="Trazado 12425" d="M282.6,488.207l-7.565-7.479.039-.664c.021-.337,1.945-33.444,3.151-44.772l-1.895-4.774a1.471,1.471,0,1,1,2.734-1.084l2.164,5.452-.041.363c-1.1,10.039-2.855,39.519-3.138,44.323l4.517,4.465,4-4.086-4.256-45.644.113-.31c.009-.023.838-2.3,1.792-4.714a1.47,1.47,0,1,1,2.735,1.079c-.734,1.863-1.393,3.637-1.649,4.332l4.32,46.341Z" transform="translate(610.809 577.374)" fill="#243640"/>
    <path id="Trazado_12427" data-name="Trazado 12427" d="M201.112,600.816a20.371,20.371,0,1,1,20.373-20.371A20.4,20.4,0,0,1,201.112,600.816Zm0-37.8a17.432,17.432,0,1,0,17.431,17.431A17.451,17.451,0,0,0,201.112,563.014Z" transform="translate(610.809 577.374)" fill="#3bdcf0"/>
    <path id="Trazado_12428" data-name="Trazado 12428" d="M202.249,643.557a1.47,1.47,0,0,1-1.47-1.469V605.322a1.47,1.47,0,0,1,2.941,0v36.766A1.469,1.469,0,0,1,202.249,643.557Z" transform="translate(610.809 577.374)" fill="#3bdcf0"/>
    <path id="Trazado_12429" data-name="Trazado 12429" d="M197.1,628.455h0a16.657,16.657,0,0,1-7.934-2.1c-4.691-2.563-7.779-6.907-8.056-11.34l-.06-.924.81-.453a12.262,12.262,0,0,1,5.963-1.451,16.645,16.645,0,0,1,7.933,2.1c4.694,2.563,7.782,6.908,8.059,11.342l.057.924-.809.451A12.276,12.276,0,0,1,197.1,628.455Zm-12.934-12.666c.586,3.07,3.01,6.123,6.411,7.982a13.7,13.7,0,0,0,6.523,1.743h0a9.861,9.861,0,0,0,3.657-.662c-.584-3.073-3.008-6.125-6.412-7.983a13.693,13.693,0,0,0-6.522-1.746A9.825,9.825,0,0,0,184.162,615.789Z" transform="translate(610.809 577.374)" fill="#3bdcf0"/>
    <path id="Trazado_12430" data-name="Trazado 12430" d="M208.442,627.037h0a11.733,11.733,0,0,1-6.169-1.676l-.708-.437.009-.834a12.921,12.921,0,0,1,7.031-10.881,14.124,14.124,0,0,1,6.786-1.783,11.714,11.714,0,0,1,6.169,1.676l.709.437-.01.832a12.931,12.931,0,0,1-7.031,10.885A14.143,14.143,0,0,1,208.442,627.037Zm-3.866-3.769a9.03,9.03,0,0,0,3.866.828,11.21,11.21,0,0,0,5.369-1.418,10.376,10.376,0,0,0,5.446-7.485,9.062,9.062,0,0,0-3.866-.826,11.2,11.2,0,0,0-5.37,1.418A10.368,10.368,0,0,0,204.576,623.268Z" transform="translate(610.809 577.374)" fill="#3bdcf0"/>
    <path id="Trazado_12431" data-name="Trazado 12431" d="M151.823,526.674a2.9,2.9,0,1,1-2.9-2.9A2.9,2.9,0,0,1,151.823,526.674Z" transform="translate(610.809 577.374)" fill="#243640"/>
    <path id="Trazado_12432" data-name="Trazado 12432" d="M548.795,540.3a2.322,2.322,0,1,1-2.32-2.322A2.323,2.323,0,0,1,548.795,540.3Z" transform="translate(610.809 577.374)" fill="#243640"/>
    <path id="Trazado_12433" data-name="Trazado 12433" d="M482.189,474.441a1.47,1.47,0,0,1-1.47-1.47V446.5a1.471,1.471,0,0,1,2.941,0v26.471A1.47,1.47,0,0,1,482.189,474.441Z" transform="translate(610.809 577.374)" fill="#243640"/>
    <path id="Trazado_12434" data-name="Trazado 12434" d="M458.13,550.3A20.373,20.373,0,1,1,478.5,529.924,20.4,20.4,0,0,1,458.13,550.3Zm0-37.8a17.431,17.431,0,1,0,17.432,17.432A17.45,17.45,0,0,0,458.13,512.492Z" transform="translate(610.809 577.374)" fill="#3bdcf0"/>
    <path id="Trazado_12435" data-name="Trazado 12435" d="M458.66,644.293a1.449,1.449,0,0,1-1.471-1.425V552.425a1.472,1.472,0,0,1,2.942,0v90.443A1.449,1.449,0,0,1,458.66,644.293Z" transform="translate(610.809 577.374)" fill="#3bdcf0"/>
    <path id="Trazado_12436" data-name="Trazado 12436" d="M509.81,595.426a20.373,20.373,0,1,1,20.371-20.373A20.4,20.4,0,0,1,509.81,595.426Zm0-37.805a17.431,17.431,0,1,0,17.43,17.432A17.451,17.451,0,0,0,509.81,557.621Z" transform="translate(610.809 577.374)" fill="#3bdcf0"/>
    <path id="Trazado_12437" data-name="Trazado 12437" d="M510.131,642.088a1.352,1.352,0,0,1-1.472-1.187V601.746a1.505,1.505,0,0,1,2.942,0V640.9A1.352,1.352,0,0,1,510.131,642.088Z" transform="translate(610.809 577.374)" fill="#3bdcf0"/>
    <path id="Trazado_12438" data-name="Trazado 12438" d="M453.658,591.834h0a16.671,16.671,0,0,1-7.934-2.1c-4.694-2.564-7.782-6.91-8.057-11.341l-.059-.926.811-.449a12.249,12.249,0,0,1,5.962-1.454,16.643,16.643,0,0,1,7.933,2.106c4.7,2.564,7.783,6.91,8.058,11.34l.058.926-.81.451A12.269,12.269,0,0,1,453.658,591.834Zm-12.934-12.668c.585,3.07,3.007,6.125,6.41,7.982a13.714,13.714,0,0,0,6.524,1.745h0a9.8,9.8,0,0,0,3.657-.665c-.585-3.07-3.008-6.123-6.41-7.982a13.713,13.713,0,0,0-6.524-1.744A9.841,9.841,0,0,0,440.724,579.166Z" transform="translate(610.809 577.374)" fill="#3bdcf0"/>
    <path id="Trazado_12439" data-name="Trazado 12439" d="M465,591.234h0a11.743,11.743,0,0,1-6.168-1.674l-.71-.437.011-.834a12.933,12.933,0,0,1,7.03-10.885,14.152,14.152,0,0,1,6.787-1.783,11.707,11.707,0,0,1,6.169,1.678l.71.437-.011.832a12.924,12.924,0,0,1-7.03,10.883A14.148,14.148,0,0,1,465,591.234Zm-3.865-3.767a9.051,9.051,0,0,0,3.865.828h0a11.206,11.206,0,0,0,5.371-1.42,10.379,10.379,0,0,0,5.446-7.484,9.061,9.061,0,0,0-3.867-.828,11.209,11.209,0,0,0-5.369,1.417A10.385,10.385,0,0,0,461.137,587.467Z" transform="translate(610.809 577.374)" fill="#3bdcf0"/>
    <path id="Trazado_12440" data-name="Trazado 12440" d="M515.044,623.762h0a11.707,11.707,0,0,1-6.168-1.676l-.709-.438.011-.832a12.923,12.923,0,0,1,7.028-10.882,14.158,14.158,0,0,1,6.789-1.784,11.732,11.732,0,0,1,6.169,1.676l.71.438-.012.834a12.925,12.925,0,0,1-7.031,10.88A14.126,14.126,0,0,1,515.044,623.762Zm-3.865-3.768a9.045,9.045,0,0,0,3.865.826h0a11.2,11.2,0,0,0,5.37-1.418,10.377,10.377,0,0,0,5.446-7.482,9.052,9.052,0,0,0-3.865-.828,11.2,11.2,0,0,0-5.371,1.418A10.368,10.368,0,0,0,511.179,619.994Z" transform="translate(610.809 577.374)" fill="#3bdcf0"/>
    <path id="Trazado_12441" data-name="Trazado 12441" d="M504.8,623.762a14.132,14.132,0,0,1-6.787-1.784,12.922,12.922,0,0,1-7.03-10.88l-.01-.834.71-.438a11.723,11.723,0,0,1,6.168-1.676,14.161,14.161,0,0,1,6.786,1.782,12.931,12.931,0,0,1,7.031,10.884l.01.832-.709.438A11.711,11.711,0,0,1,504.8,623.762ZM493.982,611.92a10.382,10.382,0,0,0,5.447,7.482,11.2,11.2,0,0,0,5.37,1.418,9.062,9.062,0,0,0,3.866-.826,10.369,10.369,0,0,0-5.446-7.484,11.193,11.193,0,0,0-5.369-1.418A9.072,9.072,0,0,0,493.982,611.92Z" transform="translate(610.809 577.374)" fill="#3bdcf0"/>
    <g id="Grupo_8420" data-name="Grupo 8420" transform="translate(610.809 577.374)">
      <path id="Trazado_12442" data-name="Trazado 12442" d="M174.1,556.059a1.473,1.473,0,0,1-1.471-1.471V514.881a1.47,1.47,0,0,1,2.941,0v39.707A1.472,1.472,0,0,1,174.1,556.059Z" fill="#5f3bbf"/>
      <g id="Grupo_8419" data-name="Grupo 8419">
        <path id="Trazado_12443" data-name="Trazado 12443" d="M167.96,519.707l1.077,1,4.937-5.312,4.937,5.313,1.077-1-6.014-6.467Z" fill="#5f3bbf"/>
      </g>
    </g>
    <g id="Grupo_8422" data-name="Grupo 8422" transform="translate(610.809 577.374)">
      <path id="Trazado_12444" data-name="Trazado 12444" d="M203.514,503.852a1.469,1.469,0,0,1-1.47-1.469V466.592l-11.029-8.8V426.647a1.47,1.47,0,1,1,2.94,0v29.726l11.03,8.8v37.207A1.47,1.47,0,0,1,203.514,503.852Z" fill="#3a4a53"/>
      <g id="Grupo_8421" data-name="Grupo 8421">
        <path id="Trazado_12445" data-name="Trazado 12445" d="M185.382,432.5l1.291,1.2,5.923-6.374,5.925,6.374,1.293-1.2-7.218-7.762Z" fill="#3a4a53"/>
      </g>
    </g>
    <g id="Grupo_8424" data-name="Grupo 8424" transform="translate(610.809 577.374)">
      <path id="Trazado_12446" data-name="Trazado 12446" d="M496.16,528.853a1.472,1.472,0,0,1-1.471-1.472V508.039l11.03-8.8V469.3a1.47,1.47,0,1,1,2.94,0v31.357l-11.029,8.8v17.926A1.471,1.471,0,0,1,496.16,528.853Z" fill="#5f3bbf"/>
      <g id="Grupo_8423" data-name="Grupo 8423">
        <path id="Trazado_12447" data-name="Trazado 12447" d="M499.916,475.363l1.293,1.2,5.923-6.375,5.925,6.375,1.293-1.2-7.218-7.762Z" fill="#5f3bbf"/>
      </g>
    </g>
    <g id="Grupo_8425" data-name="Grupo 8425" transform="translate(472.809 577.374)">
      <path id="Trazado_12448" data-name="Trazado 12448" d="M149.9,389.883a1.257,1.257,0,0,1-1.1-1.268,1.026,1.026,0,0,1,1.1-1.011l14.456.073h0c.608,0,1.1.318,1.1.926a1.174,1.174,0,0,1-1.1,1.183l-14.456.1Z" fill="#5f3bbf"/>
      <path id="Trazado_12449" data-name="Trazado 12449" d="M157.14,396.5a1,1,0,0,1-1.1-.966l-.016-14.282c0-.609.491-.928,1.1-.928h0a1.016,1.016,0,0,1,1.1.993l.017,14.268c0,.609-.492.915-1.1.915Z" fill="#5f3bbf"/>
    </g>
    <path id="Trazado_12450" data-name="Trazado 12450" d="M547.609,455.16l-10.442-10.441,10.442-10.439,10.443,10.439Zm-7.322-10.441,7.322,7.322,7.323-7.322-7.323-7.32Z" transform="translate(610.809 577.374)" fill="#243640"/>
    <g id="Grupo_8428" data-name="Grupo 8428" transform="translate(610.809 577.374)">
      <g id="Grupo_8426" data-name="Grupo 8426">
        <path id="Trazado_12451" data-name="Trazado 12451" d="M442.237,319.484a1.471,1.471,0,0,1-1.289-.763l-11.611-21.182a15.079,15.079,0,0,1-.8-1.673l-.046-.092a1.5,1.5,0,0,1-.133-.39,15.362,15.362,0,0,1-.9-5.054,14.785,14.785,0,1,1,29.57,0,15.265,15.265,0,0,1-.907,5.056,1.423,1.423,0,0,1-.131.39l-.049.1a13.806,13.806,0,0,1-.808,1.675l-11.6,21.172A1.469,1.469,0,0,1,442.237,319.484Zm-10.783-24.845c0,.025-.1.05-.09.076a12.141,12.141,0,0,0,.608,1.4l10.3,18.837,10.3-18.839a10.789,10.789,0,0,0,.661-1.39c.011-.026.017-.051.029-.076l0-.015a12.56,12.56,0,0,0,.816-4.3,11.783,11.783,0,1,0-23.566,0,10.073,10.073,0,0,0,.938,4.307Z" fill="#3bdcf0"/>
      </g>
      <g id="Grupo_8427" data-name="Grupo 8427">
        <path id="Trazado_12452" data-name="Trazado 12452" d="M442.237,297.967a7.2,7.2,0,1,1,7.2-7.2A7.207,7.207,0,0,1,442.237,297.967Zm0-11.452a4.255,4.255,0,1,0,4.253,4.253A4.259,4.259,0,0,0,442.237,286.515Z" fill="#3bdcf0"/>
      </g>
    </g>
    <path id="Trazado_12454" data-name="Trazado 12454" d="M474.8,404.589h-1.471a1.471,1.471,0,0,1,0-2.942H474.8a1.471,1.471,0,1,1,0,2.942Zm-7.353,0h-1.471a1.471,1.471,0,0,1,0-2.942h1.471a1.471,1.471,0,1,1,0,2.942Zm-7.352,0h-1.36a1.471,1.471,0,1,1,0-2.942h1.36a1.471,1.471,0,0,1,0,2.942Zm20.564-.518a1.471,1.471,0,0,1-.23-2.923c.462-.073.92-.159,1.375-.255a1.471,1.471,0,0,1,.6,2.879q-.752.158-1.515.28A1.456,1.456,0,0,1,480.661,404.071Zm7.048-2.031a1.47,1.47,0,0,1-.577-2.823q.642-.275,1.27-.578a1.471,1.471,0,0,1,1.283,2.647q-.691.334-1.4.636A1.47,1.47,0,0,1,487.709,402.04Zm6.348-3.667a1.471,1.471,0,0,1-.887-2.646q.561-.421,1.1-.868a1.471,1.471,0,0,1,1.879,2.263q-.592.49-1.207.955A1.47,1.47,0,0,1,494.057,398.373Zm5.285-5.082a1.47,1.47,0,0,1-1.138-2.4c.295-.362.58-.73.859-1.105a1.47,1.47,0,1,1,2.365,1.748q-.459.621-.946,1.218A1.471,1.471,0,0,1,499.342,393.291Zm3.919-6.2a1.469,1.469,0,0,1-1.327-2.1q.3-.633.569-1.281a1.47,1.47,0,1,1,2.715,1.13q-.3.714-.627,1.409A1.469,1.469,0,0,1,503.261,387.092Zm2.313-6.962a1.522,1.522,0,0,1-.29-.028,1.472,1.472,0,0,1-1.152-1.732c.091-.456.173-.915.243-1.378a1.47,1.47,0,1,1,2.907.44q-.116.765-.266,1.517A1.472,1.472,0,0,1,505.574,380.13Zm.569-7.31a1.469,1.469,0,0,1-1.468-1.409c-.022-.468-.052-.934-.093-1.4a1.47,1.47,0,1,1,2.929-.264q.069.764.1,1.537a1.468,1.468,0,0,1-1.407,1.531Zm-1.189-7.236a1.471,1.471,0,0,1-1.411-1.057q-.2-.674-.425-1.333a1.471,1.471,0,0,1,2.78-.962q.25.726.468,1.469a1.47,1.47,0,0,1-1.412,1.883Zm-2.9-6.735a1.473,1.473,0,0,1-1.273-.729q-.351-.6-.732-1.19a1.471,1.471,0,1,1,2.467-1.6q.417.645.807,1.311a1.471,1.471,0,0,1-1.269,2.211Zm-4.433-5.842a1.465,1.465,0,0,1-1.056-.447c-.325-.334-.657-.663-1-.981a1.471,1.471,0,1,1,2.012-2.146c.375.352.74.711,1.1,1.08a1.471,1.471,0,0,1-1.057,2.494Zm-5.7-4.616a1.45,1.45,0,0,1-.779-.225q-.6-.37-1.206-.715a1.471,1.471,0,0,1,1.441-2.564q.672.378,1.326.787a1.471,1.471,0,0,1-.782,2.717Zm-6.64-3.115a1.466,1.466,0,0,1-.458-.073q-.662-.217-1.34-.4a1.471,1.471,0,0,1,.779-2.836c.5.137.989.285,1.477.445a1.47,1.47,0,0,1-.458,2.867Zm-7.192-1.42c-.037,0-.073,0-.11,0-.462-.034-.929-.057-1.4-.069a1.47,1.47,0,1,1,.075-2.94q.774.02,1.538.076a1.47,1.47,0,0,1-.106,2.937Zm-7.352-.3h-1.47a1.471,1.471,0,0,1,0-2.942h1.47a1.471,1.471,0,1,1,0,2.942Zm-7.352,0h-1.471a1.471,1.471,0,1,1,0-2.942h1.471a1.471,1.471,0,0,1,0,2.942Zm-7.354,0h-1.47a1.471,1.471,0,0,1,0-2.942h1.47a1.471,1.471,0,1,1,0,2.942Zm-7.352,0h-1.471a1.471,1.471,0,0,1,0-2.942h1.471a1.471,1.471,0,0,1,0,2.942Zm-7.353,0h-1.471a1.471,1.471,0,0,1,0-2.942h1.471a1.471,1.471,0,0,1,0,2.942Z" transform="translate(610.809 577.374)" fill="#3bdcf0"/>
    <path id="Trazado_12455" data-name="Trazado 12455" d="M386.336,431.129a89.561,89.561,0,1,1-89.559-89.56A89.56,89.56,0,0,1,386.336,431.129Z" transform="translate(610.809 577.374)" fill="#f5f5f5" style="mix-blend-mode: multiply;isolation: isolate"/>
    <g id="Grupo_8429" data-name="Grupo 8429" transform="translate(610.809 577.374)">
      <path id="Trazado_12456" data-name="Trazado 12456" d="M510.367,576.229h-1.8c-3.306,0-4.861-1.673-4.861-4.189,0-2.772.651-5.03,4.483-5.03h6.83a.895.895,0,1,1,0,1.784h-6.83c-2.657,0-2.542,1.555-2.542,3.245,0,1.72,1.318,2.4,2.92,2.4h1.8a.9.9,0,1,1,0,1.785Z" fill="#3bdcf0"/>
      <path id="Trazado_12457" data-name="Trazado 12457" d="M512.078,583.663h-7.3a.895.895,0,1,1,0-1.783h7.3c1.414,0,2.922-.662,2.922-2.38a1.2,1.2,0,0,1,.011-.17,2.54,2.54,0,0,0-.494-2.079,3.257,3.257,0,0,0-2.439-1.022h-2.642a.9.9,0,1,1,0-1.785h2.642a5.124,5.124,0,0,1,3.906,1.606,4.2,4.2,0,0,1,.956,3.47C516.9,582,514.914,583.663,512.078,583.663Z" fill="#3bdcf0"/>
      <path id="Trazado_12458" data-name="Trazado 12458" d="M509.9,568.365a.907.907,0,0,1-.893-.972v-4.031a.9.9,0,1,1,1.785,0v4.031A.909.909,0,0,1,509.9,568.365Z" fill="#3bdcf0"/>
      <path id="Trazado_12459" data-name="Trazado 12459" d="M510.351,588.22a1.033,1.033,0,0,1-1.041-.97v-4.031a1.043,1.043,0,0,1,2.082,0v4.031A1.035,1.035,0,0,1,510.351,588.22Z" fill="#3bdcf0"/>
    </g>
    <g id="Grupo_8430" data-name="Grupo 8430" transform="translate(610.809 577.374)">
      <path id="Trazado_12460" data-name="Trazado 12460" d="M201.428,581.709h-1.795c-3.306,0-4.861-1.674-4.861-4.19,0-2.771.65-5.03,4.482-5.03h6.831a.895.895,0,1,1,0,1.784h-6.831c-2.656,0-2.542,1.555-2.542,3.245,0,1.72,1.319,2.406,2.921,2.406h1.795a.9.9,0,1,1,0,1.785Z" fill="#3bdcf0"/>
      <path id="Trazado_12461" data-name="Trazado 12461" d="M203.139,589.143h-7.3a.895.895,0,1,1,0-1.784h7.3c1.413,0,2.922-.662,2.922-2.38a1.357,1.357,0,0,1,.01-.169,2.538,2.538,0,0,0-.494-2.08,3.252,3.252,0,0,0-2.438-1.021H200.5a.9.9,0,1,1,0-1.785h2.643a5.119,5.119,0,0,1,3.9,1.6A4.2,4.2,0,0,1,208,585C207.963,587.476,205.975,589.143,203.139,589.143Z" fill="#3bdcf0"/>
      <path id="Trazado_12462" data-name="Trazado 12462" d="M200.965,573.845a.908.908,0,0,1-.892-.972v-4.031a.9.9,0,1,1,1.784,0v4.031A.909.909,0,0,1,200.965,573.845Z" fill="#3bdcf0"/>
      <path id="Trazado_12463" data-name="Trazado 12463" d="M201.411,593.7a1.033,1.033,0,0,1-1.041-.97V588.7a1.043,1.043,0,0,1,2.082,0v4.031A1.033,1.033,0,0,1,201.411,593.7Z" fill="#3bdcf0"/>
    </g>
    <g id="Grupo_8431" data-name="Grupo 8431" transform="translate(610.809 577.374)">
      <path id="Trazado_12464" data-name="Trazado 12464" d="M458.367,530.729h-1.8c-3.306,0-4.861-1.673-4.861-4.189,0-2.772.651-5.03,4.483-5.03h6.83a.895.895,0,1,1,0,1.784h-6.83c-2.657,0-2.542,1.555-2.542,3.245,0,1.72,1.318,2.4,2.92,2.4h1.8a.9.9,0,1,1,0,1.785Z" fill="#3bdcf0"/>
      <path id="Trazado_12465" data-name="Trazado 12465" d="M460.078,538.163h-7.3a.895.895,0,1,1,0-1.783h7.3c1.414,0,2.922-.662,2.922-2.38a1.2,1.2,0,0,1,.011-.17,2.54,2.54,0,0,0-.494-2.079,3.257,3.257,0,0,0-2.439-1.022h-2.642a.9.9,0,1,1,0-1.785h2.642a5.124,5.124,0,0,1,3.906,1.606,4.2,4.2,0,0,1,.956,3.47C464.9,536.5,462.914,538.163,460.078,538.163Z" fill="#3bdcf0"/>
      <path id="Trazado_12466" data-name="Trazado 12466" d="M457.9,522.865a.907.907,0,0,1-.893-.972v-4.031a.9.9,0,1,1,1.785,0v4.031A.909.909,0,0,1,457.9,522.865Z" fill="#3bdcf0"/>
      <path id="Trazado_12467" data-name="Trazado 12467" d="M458.351,542.72a1.033,1.033,0,0,1-1.041-.97v-4.031a1.043,1.043,0,0,1,2.082,0v4.031A1.035,1.035,0,0,1,458.351,542.72Z" fill="#3bdcf0"/>
    </g>
    <g id="Grupo_8432" data-name="Grupo 8432" transform="translate(610.809 577.374)">
      <path id="Trazado_12468" data-name="Trazado 12468" d="M378.449,264.555h-.038a33.892,33.892,0,0,0,2.038-10.956,30.251,30.251,0,1,0-60.5.025,33.785,33.785,0,0,0,2.035,10.931h-.042l.177.253a30.108,30.108,0,0,0,1.7,3.526L350.2,316.441l26.379-48.163a27.251,27.251,0,0,0,1.692-3.448Z" fill="#3bdcf0" opacity="0.75"/>
      <path id="Trazado_12469" data-name="Trazado 12469" d="M350.2,318.048a1.633,1.633,0,0,1-1.429-.846l-26.383-48.129a32.705,32.705,0,0,1-1.754-3.677l-.141-.272a1.65,1.65,0,0,1-.171-.572,32.739,32.739,0,0,1-2-11.037,31.879,31.879,0,1,1,63.758,0,33.211,33.211,0,0,1-2.018,11.081,1.545,1.545,0,0,1-.156.52l-.147.292A29.935,29.935,0,0,1,378,269.07L351.629,317.2A1.63,1.63,0,0,1,350.2,318.048Zm-26.641-54.086.008.015c.024.046.044.094.064.142a29.272,29.272,0,0,0,1.61,3.38L350.2,313.03l24.953-45.546a26.339,26.339,0,0,0,1.6-3.346c.019-.045.038-.09.061-.134l.023-.047c.009-.036.021-.071.031-.106a30.08,30.08,0,0,0,1.95-10.339,28.621,28.621,0,1,0-57.241,0,30.2,30.2,0,0,0,1.947,10.337C323.538,263.889,323.549,263.925,323.559,263.962Z" fill="#3bdcf0"/>
    </g>
    <g id="Grupo_8433" data-name="Grupo 8433" transform="translate(610.809 577.374)">
      <path id="Trazado_12470" data-name="Trazado 12470" d="M361.693,253.035a11.48,11.48,0,1,1-11.478-11.479A11.487,11.487,0,0,1,361.693,253.035Z" fill="#fff"/>
      <path id="Trazado_12471" data-name="Trazado 12471" d="M350.215,266.153a13.113,13.113,0,1,1,13.107-13.118A13.129,13.129,0,0,1,350.215,266.153Zm0-22.968a9.855,9.855,0,1,0,9.85,9.85A9.865,9.865,0,0,0,350.215,243.185Z" fill="#03abf2"/>
    </g>
  </g>
</svg>
