<svg xmlns="http://www.w3.org/2000/svg" width="278.086" height="254.678" viewBox="0 0 278.086 254.678">
  <g id="Grupo_8662" data-name="Grupo 8662" transform="translate(-432 -1091.322)">
    <text id="Trabajo_en_Equipo" data-name="Trabajo en Equipo" transform="translate(571 1340)" fill="#5f3bbf" font-size="22" font-family="OpenSans-Bold, Open Sans" font-weight="700"><tspan x="-98.705" y="0">Trabajo en Equipo</tspan></text>
    <g id="Grupo_8596" data-name="Grupo 8596" transform="translate(328.204 869.564)">
      <circle id="Elipse_565" data-name="Elipse 565" cx="55.926" cy="55.926" r="55.926" transform="translate(175.619 347.415) rotate(-80.28)" fill="#f1f7f8" opacity="0.85"/>
      <path id="Trazado_17826" data-name="Trazado 17826" d="M300.519,233.895l-.185,14.934,4.259.987-.37,5.03,8.332-5.54,23.515-.54.185-14.872Z" transform="translate(-71.145 -5.395)" fill="#03abf2" opacity="0.29"/>
      <g id="Grupo_8588" data-name="Grupo 8588" transform="translate(317.507 372.386)">
        <path id="Trazado_17827" data-name="Trazado 17827" d="M460.272,501.237a.945.945,0,0,1,0-1.889l7.132-.009h0a.944.944,0,0,1,0,1.889l-7.132.01Z" transform="translate(-459.328 -495.776)" fill="#03abf2"/>
        <path id="Trazado_17828" data-name="Trazado 17828" d="M466.692,501.947a.945.945,0,0,1-.945-.943l-.008-7.132a.945.945,0,0,1,.943-.946h0a.944.944,0,0,1,.944.944l.009,7.132a.943.943,0,0,1-.943.945Z" transform="translate(-462.178 -492.926)" fill="#03abf2"/>
      </g>
      <g id="Grupo_8589" data-name="Grupo 8589" transform="translate(307.154 239.449)">
        <path id="Trazado_17829" data-name="Trazado 17829" d="M441.634,261.916a.944.944,0,0,1,0-1.889l7.132-.009h0a.944.944,0,0,1,0,1.889l-7.132.009Z" transform="translate(-440.69 -256.456)" fill="#3a4a53"/>
        <path id="Trazado_17830" data-name="Trazado 17830" d="M448.054,262.627a.945.945,0,0,1-.944-.943l-.008-7.132a.944.944,0,0,1,.943-.945h0a.944.944,0,0,1,.945.943l.009,7.132a.945.945,0,0,1-.944.945Z" transform="translate(-443.54 -253.606)" fill="#3a4a53"/>
      </g>
      <g id="Grupo_8590" data-name="Grupo 8590" transform="translate(158.07 299.135)">
        <path id="Trazado_17831" data-name="Trazado 17831" d="M173.247,369.365a.944.944,0,0,1,0-1.889l7.132-.009h0a.945.945,0,0,1,0,1.889l-7.132.009Z" transform="translate(-172.302 -363.905)" fill="#03abf2"/>
        <path id="Trazado_17832" data-name="Trazado 17832" d="M179.667,370.076a.944.944,0,0,1-.944-.943L178.714,362a.945.945,0,0,1,.944-.945h0a.945.945,0,0,1,.945.943l.008,7.132a.944.944,0,0,1-.943.945Z" transform="translate(-175.152 -361.055)" fill="#03abf2"/>
      </g>
      <path id="Trazado_17833" data-name="Trazado 17833" d="M386.6,348.621c-.028,0-.056,0-.083,0a.944.944,0,0,1-.858-1.023c.072-.822,1.753-20.011,2.455-24.859a6.317,6.317,0,0,0-.358-1.028,8.988,8.988,0,0,1-.438-1.251.944.944,0,1,1,1.836-.444,7.531,7.531,0,0,0,.352.982,6.324,6.324,0,0,1,.5,1.635l.014.123-.018.122c-.681,4.547-2.445,24.682-2.462,24.885A.945.945,0,0,1,386.6,348.621Z" transform="translate(-109.07 -43.355)" fill="#3a4a53"/>
      <path id="Trazado_17834" data-name="Trazado 17834" d="M397.583,346.9a.96.96,0,0,1-.944-.955c0-.176-.149-17.637-.623-22.439l-.023-.239,1.056-2.556a.944.944,0,1,1,1.745.72l-.876,2.118c.464,5.175.6,21.67.609,22.38a.957.957,0,0,1-.937.97Z" transform="translate(-113.667 -43.726)" fill="#3a4a53"/>
      <path id="Trazado_17835" data-name="Trazado 17835" d="M356.374,363.475a5.814,5.814,0,0,1-5.132-3.192.944.944,0,1,1,1.6-1.008c.986,1.561,2.23,3,5.589,1.962,9.458-2.921,26.124-8.4,32.824-10.856.663-3.246,1.641-7.273,2.674-11.525,1.344-5.535,2.734-11.258,3.4-15.232.227-6.887-3.818-8.649-8.937-10.877-.667-.291-1.342-.584-2.014-.894a.944.944,0,1,1,.79-1.715c.66.3,1.323.592,1.978.878,5.1,2.219,10.368,4.514,10.068,12.738a.988.988,0,0,1-.012.121c-.677,4.044-2.083,9.831-3.442,15.427-1.083,4.461-2.106,8.675-2.761,11.966a.945.945,0,0,1-.6.7c-6.366,2.371-23.7,8.07-33.418,11.072A8.854,8.854,0,0,1,356.374,363.475Z" transform="translate(-93.71 -39.248)" fill="#3a4a53"/>
      <path id="Trazado_17836" data-name="Trazado 17836" d="M359.291,347.631a.925.925,0,0,1-.186-.018.944.944,0,0,1-.742-1.11l1.243-6.232c.151-1.138,2.553-19.192,4.192-24.944.357-1.255,3.819-3.153,10.29-5.64a.944.944,0,0,1,.677,1.763c-3.966,1.524-8.558,3.646-9.169,4.458-1.619,5.758-4.1,24.452-4.121,24.641,0,.021-.006.041-.01.061l-1.249,6.263A.944.944,0,0,1,359.291,347.631Z" transform="translate(-96.932 -39.058)" fill="#3a4a53"/>
      <path id="Trazado_17837" data-name="Trazado 17837" d="M388.184,294.127a10.73,10.73,0,0,1-5.463-1.853l-.393-.276-.008-.48c0-.023-.04-2.253-.326-4.772-2.356-1.88-3.816-4.742-4.342-8.514-1.262-9.047-.306-11.56-.192-11.817a.944.944,0,0,1,1.728.762h0s-.842,2.357.334,10.794c.477,3.423,1.8,5.948,3.922,7.506l.329.242.049.405c.253,2.065.342,3.967.372,4.849,1.034.612,3.928,2.069,6.046.684a.944.944,0,1,1,1.033,1.581A5.544,5.544,0,0,1,388.184,294.127Z" transform="translate(-105.228 -19.601)" fill="#3a4a53"/>
      <path id="Trazado_17838" data-name="Trazado 17838" d="M390.9,267.657a.945.945,0,0,1-.937-.832c-.016-.082-.25-1.032-2.181-.89-3.863.278-8.671.624-10.274-2.792l-.118-.253.038-.276a8.352,8.352,0,0,1,5.741-6.855c6-1.67,9.963.33,11.667,2.757l.048.077a14.72,14.72,0,0,1,1.945,7.84.944.944,0,0,1-1.882-.158h0a13.05,13.05,0,0,0-1.682-6.71c-1.349-1.883-4.565-3.384-9.59-1.987a6.49,6.49,0,0,0-4.329,5c1.11,1.833,4.288,1.761,8.3,1.472,3.047-.215,4.075,1.571,4.192,2.549a.944.944,0,0,1-.825,1.05A.874.874,0,0,1,390.9,267.657Z" transform="translate(-105.4 -14.841)" fill="#3a4a53"/>
      <path id="Trazado_17839" data-name="Trazado 17839" d="M392.985,436.549l-.079,0-4.444-.371a.945.945,0,0,1,.157-1.883l4.444.371a.944.944,0,0,1-.078,1.885Z" transform="translate(-109.935 -94.475)" fill="#3a4a53"/>
      <path id="Trazado_17840" data-name="Trazado 17840" d="M411.921,302.958a.936.936,0,0,1-.444-.112l-4.093-2.191-1.424-10.45a.945.945,0,0,1,1.872-.255l1.294,9.495,3.243,1.736a.944.944,0,0,1-.447,1.777Z" transform="translate(-118.094 -29.95)" fill="#3a4a53"/>
      <path id="Trazado_17841" data-name="Trazado 17841" d="M404.432,286a.944.944,0,0,1-.184-1.87c1.709-.342,2.063-1.1,2.18-1.641a1.823,1.823,0,0,0-1.357-2.1,1.63,1.63,0,0,0-1.469.3.944.944,0,0,1-1.2-1.458,3.548,3.548,0,0,1,3.143-.67,3.73,3.73,0,0,1,2.729,4.328c-.244,1.127-1.077,2.578-3.656,3.093A.935.935,0,0,1,404.432,286Z" transform="translate(-116.363 -25.196)" fill="#3a4a53"/>
      <path id="Trazado_17842" data-name="Trazado 17842" d="M413.561,414.978h0l-13.77.036a.856.856,0,1,1,0-1.7h0l13.77-.015a.846.846,0,1,1,0,1.681Z" transform="translate(-114.936 -85.143)" fill="#3a4a53"/>
      <path id="Trazado_17843" data-name="Trazado 17843" d="M360.959,364.913a.943.943,0,0,1-.452-.115l-5.217-2.845a.945.945,0,1,1,.9-1.659l4.844,2.642,23.906-8.622,3.731-18.592a.944.944,0,0,1,1.852.372l-3.836,19.114a.944.944,0,0,1-.605.7l-24.806,8.946A.936.936,0,0,1,360.959,364.913Z" transform="translate(-95.355 -50.322)" fill="#3a4a53"/>
      <path id="Trazado_17844" data-name="Trazado 17844" d="M346.167,394.065a.944.944,0,0,1-.42-1.791l3.943-1.954a.945.945,0,1,1,.839,1.693l-3.944,1.954A.94.94,0,0,1,346.167,394.065Z" transform="translate(-91.098 -74.886)" fill="#3a4a53"/>
      <path id="Trazado_17845" data-name="Trazado 17845" d="M374.021,395.574a.946.946,0,0,1-.888-.622l-1.48-4.062a.944.944,0,0,1,1.775-.647l1.48,4.062a.944.944,0,0,1-.564,1.21A.932.932,0,0,1,374.021,395.574Z" transform="translate(-102.822 -74.62)" fill="#3a4a53"/>
      <path id="Trazado_17846" data-name="Trazado 17846" d="M388.259,302.238a7.526,7.526,0,0,1-1.647-.169.944.944,0,1,1,.447-1.835,5.637,5.637,0,0,0,4.012-.669.944.944,0,1,1,1.066,1.559A6.853,6.853,0,0,1,388.259,302.238Z" transform="translate(-109.177 -34.514)" fill="#3a4a53"/>
      <path id="Trazado_17848" data-name="Trazado 17848" d="M343.643,490.1a.929.929,0,0,1-.17-.014,2.145,2.145,0,0,1-1.588-1.741,3.406,3.406,0,0,1,1.3-3.493,8.445,8.445,0,0,1,2.022-1.147l.408-.189c.952-6.822,10.349-79.522,10.651-81.859l.03-8.144a.96.96,0,0,1,.833-.966h0a.959.959,0,0,1,.83.972l-.031,8.128c0,.035,0,.1-.007.138-.42,3.25-10.288,79.621-10.727,82.41a.848.848,0,0,1-.471.635l-.825.385a6.9,6.9,0,0,0-1.718.967,1.735,1.735,0,0,0-.7,1.659.974.974,0,0,0,.267.592c2.179,0,9.4-.065,11.673-.086,1.1-6.3,9.554-54.149,15.2-75.654a.834.834,0,0,1,.927-.613c.055,0,.171,0,.306-.009a3.3,3.3,0,0,1,1.9.283.829.829,0,0,1,.374.6c.595,5.229,1.493,14.449,2.63,26.122,1.259,12.928,2.827,29.016,4.5,44.892a.832.832,0,0,1-.42.814c-.534.3-.982.524-1.376.72-.438.218-.815.407-1.195.642a1.494,1.494,0,0,0-.5,1.522c.041.173.144.467.385.489,1.5.207,9.052.073,12.753-.016-.326-6.893-2.533-53.775-3.438-78.279l-.4-8.391V383.657a.833.833,0,1,1,1.666,0v17.775l.4,8.361c.973,26.357,3.453,78.595,3.478,79.12a.834.834,0,0,1-.81.873c-.48.013-11.784.311-13.843.028a2.138,2.138,0,0,1-1.814-1.766,3.136,3.136,0,0,1,1.246-3.317c.445-.277.875-.491,1.33-.717.262-.131.529-.264.825-.421-1.65-15.7-3.2-31.572-4.441-44.352-1.1-11.247-1.97-20.214-2.562-25.519-.15,0-.324,0-.464.007-6.005,23.177-15.04,75.061-15.131,75.587a.834.834,0,0,1-.814.691C356.032,490.008,346.064,490.1,343.643,490.1Z" transform="translate(-89.578 -71.597)" fill="#3a4a53"/>
      <path id="Trazado_17849" data-name="Trazado 17849" d="M319.166,371.768a.944.944,0,0,1-.536-.167l-17.4-12.036a.94.94,0,0,1-.313-.364l-4.722-9.721a.944.944,0,0,1,1.7-.825l4.613,9.5,17.2,11.894a.944.944,0,0,1-.538,1.721Z" transform="translate(-69.261 -56.172)" fill="#3a4a53"/>
      <path id="Trazado_17850" data-name="Trazado 17850" d="M321.76,351.729a.94.94,0,0,1-.642-.252l-2.462-2.286-3.353-1.324a.944.944,0,0,1-.249-.146l-12.406-10.091a.946.946,0,0,1-.278-.375c-4.223-10.337-9.5-21.5-11.009-22.278l-4.718-2.221a.944.944,0,0,1,.8-1.708l4.719,2.221c2.767,1.3,9.66,17.675,11.861,23.049l12.106,9.847,3.382,1.335a.936.936,0,0,1,.3.186l2.592,2.407a.944.944,0,0,1-.643,1.636Z" transform="translate(-64.818 -39.651)" fill="#3a4a53"/>
      <path id="Trazado_17851" data-name="Trazado 17851" d="M346.9,424.952a.944.944,0,0,1-.94-.865c-.17-2.056.637-6.063,4.909-6.51l.518-.051a.944.944,0,1,1,.186,1.879l-.507.05c-3.438.36-3.256,4.058-3.225,4.478a.946.946,0,0,1-.867,1.015C346.949,424.95,346.923,424.952,346.9,424.952Z" transform="translate(-91.417 -87.021)" fill="#3a4a53"/>
      <path id="Trazado_17852" data-name="Trazado 17852" d="M330.431,452.152a4.376,4.376,0,0,1-4.331-3.837l-1.88-15.12a4.374,4.374,0,0,1,3.8-4.88l12.814-1.7a.944.944,0,1,1,.248,1.871l-12.823,1.7a2.485,2.485,0,0,0-2.167,2.774l1.88,15.121a2.485,2.485,0,0,0,2.773,2.16l8.654-1.052a.944.944,0,1,1,.228,1.875l-8.65,1.052A4.435,4.435,0,0,1,330.431,452.152Z" transform="translate(-81.748 -91.061)" fill="#3a4a53"/>
      <path id="Trazado_17853" data-name="Trazado 17853" d="M355.771,418.515c-.155,0-.253-.006-.276-.007l.117-1.885c.023,0,2.361.1,3.062-1.145l1.084-5.119,0-1.034,1.889,0,0,1.133a.951.951,0,0,1-.021.2l-1.132,5.342a.956.956,0,0,1-.072.212C359.4,418.337,356.658,418.515,355.771,418.515Z" transform="translate(-95.665 -83.376)" fill="#3a4a53"/>
      <path id="Trazado_17854" data-name="Trazado 17854" d="M371.143,351.611l-.063,0a.944.944,0,0,1-.88-1l.777-11.748a.944.944,0,1,1,1.885.125l-.778,11.748A.944.944,0,0,1,371.143,351.611Z" transform="translate(-102.201 -51.66)" fill="#3a4a53"/>
      <path id="Trazado_17855" data-name="Trazado 17855" d="M347.461,413.759a.944.944,0,0,1-.659-1.62l3.224-3.147a.945.945,0,0,1,1.319,1.352l-3.224,3.147A.943.943,0,0,1,347.461,413.759Z" transform="translate(-91.674 -83.11)" fill="#3a4a53"/>
      <path id="Trazado_17856" data-name="Trazado 17856" d="M484.257,335.255l-4.669-4.668,4.669-4.669,4.668,4.669Zm-2-4.668,2,2,2-2-2-2Z" transform="translate(-150.827 -46.302)" fill="#3a4a53"/>
      <path id="Trazado_17857" data-name="Trazado 17857" d="M236.3,232.533l-4.668-4.668L236.3,223.2l4.668,4.669Zm-2-4.668,2,2,2-2-2-2Z" transform="translate(-40.604 -0.639)" fill="#03abf2"/>
      <g id="Grupo_8592" data-name="Grupo 8592" transform="translate(152.994 250.924)">
        <g id="Grupo_8591" data-name="Grupo 8591" transform="translate(0 3.196)">
          <path id="Trazado_17858" data-name="Trazado 17858" d="M174.557,302.8a11.392,11.392,0,1,1,11.392-11.392A11.406,11.406,0,0,1,174.557,302.8Zm0-20.9a9.5,9.5,0,1,0,9.5,9.5A9.514,9.514,0,0,0,174.557,281.906Z" transform="translate(-163.164 -280.017)" fill="#03abf2"/>
        </g>
        <path id="Trazado_17859" data-name="Trazado 17859" d="M178.252,299.275l-5.169-4.182a.944.944,0,1,1,1.188-1.468l3.681,2.98,5.13-6.5a.944.944,0,0,1,1.483,1.17Z" transform="translate(-167.418 -281.143)" fill="#03abf2"/>
        <path id="Trazado_17860" data-name="Trazado 17860" d="M182.225,275.93h-3.888a.833.833,0,0,1,0-1.666h3.888a.833.833,0,0,1,0,1.666Z" transform="translate(-169.538 -274.264)" fill="#03abf2"/>
      </g>
      <g id="Grupo_8594" data-name="Grupo 8594" transform="translate(228.308 221.758)">
        <path id="Trazado_17861" data-name="Trazado 17861" d="M339.182,244.99H318.629a.833.833,0,1,1,0-1.666h20.553a.833.833,0,1,1,0,1.666Z" transform="translate(-307.215 -231.345)" fill="#03abf2"/>
        <path id="Trazado_17862" data-name="Trazado 17862" d="M345.405,252.99H332.629a.833.833,0,0,1,0-1.666h12.776a.833.833,0,0,1,0,1.666Z" transform="translate(-313.439 -234.901)" fill="#03abf2"/>
        <g id="Grupo_8593" data-name="Grupo 8593" transform="translate(0 5.47)">
          <path id="Trazado_17863" data-name="Trazado 17863" d="M303.806,255.567a.945.945,0,0,1-.932-1.1l.842-5.023h-2.738a2.232,2.232,0,0,1-2.23-2.229V233.836a2.232,2.232,0,0,1,2.23-2.23h33.592a2.233,2.233,0,0,1,2.23,2.23v13.379a2.232,2.232,0,0,1-2.23,2.229H312.236l-7.861,5.933A.942.942,0,0,1,303.806,255.567ZM300.978,233.5a.341.341,0,0,0-.341.34v13.379a.341.341,0,0,0,.341.34h3.854a.944.944,0,0,1,.932,1.1l-.634,3.786,6.222-4.7a.942.942,0,0,1,.569-.191h22.649a.341.341,0,0,0,.341-.34V233.836a.341.341,0,0,0-.341-.34Z" transform="translate(-298.748 -231.606)" fill="#03abf2"/>
        </g>
        <path id="Trazado_17864" data-name="Trazado 17864" d="M335.638,223.649h0l-35.447,0a.945.945,0,0,1,0-1.889h0l35.447,0a.944.944,0,0,1,0,1.889Z" transform="translate(-298.969 -221.758)" fill="#03abf2"/>
      </g>
      <g id="Grupo_8595" data-name="Grupo 8595" transform="translate(315.034 308.472)">
        <path id="Trazado_17865" data-name="Trazado 17865" d="M474.031,432.451h-.13a14.717,14.717,0,0,1,.126-29.434h.13a14.717,14.717,0,0,1-.126,29.434Zm0-27.546a12.828,12.828,0,0,0-.109,25.656h.113a12.829,12.829,0,0,0,.109-25.657Z" transform="translate(-456.848 -389.045)" fill="#03abf2"/>
        <path id="Trazado_17866" data-name="Trazado 17866" d="M516.447,388.3H516.4a5.238,5.238,0,1,1,.046,0Zm.028-8.544a3.345,3.345,0,0,0-3.357,3.3,3.329,3.329,0,0,0,3.3,3.356l.03.944v-.944a3.328,3.328,0,0,0,.028-6.655Z" transform="translate(-479.927 -377.865)" fill="#03abf2"/>
        <path id="Trazado_17867" data-name="Trazado 17867" d="M460.093,394.467h-.046a5.239,5.239,0,1,1,.046,0Zm.028-8.544a3.328,3.328,0,0,0-.058,6.656l.03.944v-.944a3.328,3.328,0,0,0,.028-6.656Z" transform="translate(-454.877 -380.607)" fill="#03abf2"/>
        <path id="Trazado_17868" data-name="Trazado 17868" d="M519.464,451.664c-.131,0-.263,0-.4-.016a5.216,5.216,0,0,1-4.812-5.591,5.217,5.217,0,1,1,5.208,5.607Zm-.009-8.544a3.34,3.34,0,0,0-3.315,3.079,3.328,3.328,0,1,0,3.568-3.071C519.623,443.123,519.538,443.121,519.454,443.121Z" transform="translate(-481.265 -406.032)" fill="#03abf2"/>
        <path id="Trazado_17869" data-name="Trazado 17869" d="M511.35,444.94a.942.942,0,0,1-.361-.073l-5.33-2.208a.944.944,0,1,1,.723-1.744l5.33,2.207a.945.945,0,0,1-.362,1.818Z" transform="translate(-477.191 -405.86)" fill="#03abf2"/>
        <path id="Trazado_17870" data-name="Trazado 17870" d="M470.079,404.045a.944.944,0,0,1-.78-.411l-2.521-3.681a.944.944,0,0,1,1.558-1.068l2.521,3.681a.945.945,0,0,1-.778,1.479Z" transform="translate(-460.093 -387.027)" fill="#03abf2"/>
        <path id="Trazado_17871" data-name="Trazado 17871" d="M501.741,403.131a.945.945,0,0,1-.756-1.51l7.3-9.774a.944.944,0,0,1,1.514,1.13l-7.3,9.775A.943.943,0,0,1,501.741,403.131Z" transform="translate(-475.289 -383.911)" fill="#03abf2"/>
        <path id="Trazado_17872" data-name="Trazado 17872" d="M481.75,425.419H481.7a5.759,5.759,0,1,1,.052,0Zm.033-9.837a3.974,3.974,0,1,0-.069,7.948l.036.944v-.944a3.974,3.974,0,0,0,2.834-6.76A3.943,3.943,0,0,0,481.783,415.582Z" transform="translate(-464.216 -393.791)" fill="#03abf2"/>
        <path id="Trazado_17873" data-name="Trazado 17873" d="M486.915,438.889a.944.944,0,0,1-.875-.59,6.887,6.887,0,0,0-12.827-.083.944.944,0,0,1-1.751-.707,8.769,8.769,0,0,1,8.175-5.517h.078a8.829,8.829,0,0,1,8.075,5.6.945.945,0,0,1-.874,1.3Z" transform="translate(-462.218 -401.926)" fill="#03abf2"/>
      </g>
      <path id="Trazado_17874" data-name="Trazado 17874" d="M223.493,342.4a.945.945,0,0,1-.88-1.286l9.322-23.991a.948.948,0,0,1,.25-.361,55.56,55.56,0,0,1,6.923-5.044.944.944,0,1,1,1.007,1.6,56.958,56.958,0,0,0-6.5,4.708L224.374,341.8A.944.944,0,0,1,223.493,342.4Z" transform="translate(-36.568 -39.926)" fill="#3a4a53"/>
      <path id="Trazado_17875" data-name="Trazado 17875" d="M272.978,378.786h-.163a.944.944,0,0,1-.928-.882l-.563-8.512a.944.944,0,1,1,1.884-.125l.5,7.615c1.984-.071,6.9-.447,9.8-2.425l-.158-.474c-1.113-3.33-1.726-5.164-2.556-11.932-.492-4.024.058-13.352.082-13.747a.934.934,0,0,1,1-.887.945.945,0,0,1,.886,1c-.006.1-.564,9.551-.093,13.4.806,6.58,1.4,8.349,2.472,11.563l.374,1.123a.944.944,0,0,1-.295,1.024C281.447,378.651,274.193,378.786,272.978,378.786Z" transform="translate(-58.248 -55.857)" fill="#3a4a53"/>
      <path id="Trazado_17876" data-name="Trazado 17876" d="M223.173,376.114a1.073,1.073,0,0,1-.126-.008.944.944,0,0,1-.812-1.06l.5-3.767a.92.92,0,0,1,.056-.218l6.149-15.8L237,337.616a.944.944,0,0,1,1.79.237c.089.535,2.174,13.153,1.645,18.154a116.7,116.7,0,0,1-3,14.228,44.041,44.041,0,0,0,6.676,1.5.945.945,0,1,1-.262,1.871,43.74,43.74,0,0,1-7.877-1.858.944.944,0,0,1-.592-1.14c.026-.1,2.624-9.564,3.175-14.794.347-3.286-.557-10.413-1.153-14.534L230.679,356l-6.086,15.641-.484,3.655A.945.945,0,0,1,223.173,376.114Z" transform="translate(-36.425 -51.256)" fill="#3a4a53"/>
      <path id="Trazado_17877" data-name="Trazado 17877" d="M300.546,568.118c-2.509,0-8.261-.427-12.637-3.964a.94.94,0,0,1-.351-.712l-.047-1.99a.945.945,0,0,1,.922-.965.965.965,0,0,1,.967.922l.036,1.542c3.943,2.971,9.087,3.28,11.195,3.281-.034-.259-.071-.5-.116-.723-1.344-.569-2.666-1.6-4.575-4.221l-.1.052c-.277.149-.565.3-.788.407a.944.944,0,1,1-.8-1.712c.2-.091.449-.228.691-.358.845-.455,1.574-.847,2.09-.1,2.115,3.029,3.283,3.884,4.586,4.338a.944.944,0,0,1,.592.613,14.539,14.539,0,0,1,.409,2.509.949.949,0,0,1-.819,1.043C301.787,568.077,301.321,568.118,300.546,568.118Z" transform="translate(-65.445 -149.981)" fill="#3a4a53"/>
      <path id="Trazado_17878" data-name="Trazado 17878" d="M243.572,568.12c-2.509,0-8.262-.427-12.638-3.964a.94.94,0,0,1-.351-.712l-.046-1.99a.943.943,0,0,1,.922-.965.954.954,0,0,1,.966.922l.036,1.661c3.9,2.941,9.005,3.4,11.132,3.4h.063a3.989,3.989,0,0,0-.116-.844c-1.344-.568-2.666-1.662-4.575-4.28-.034.018-.067.005-.1.023-.276.148-.564.287-.788.392a.95.95,0,0,1-.8-1.724c.2-.091.448-.229.69-.359.844-.454,1.572-.848,2.089-.106,2.117,3.03,3.285,3.885,4.587,4.338a.942.942,0,0,1,.593.614,14.607,14.607,0,0,1,.409,2.512.945.945,0,0,1-.819,1.038C244.813,568.078,244.348,568.12,243.572,568.12Z" transform="translate(-40.119 -149.982)" fill="#3a4a53"/>
      <path id="Trazado_17879" data-name="Trazado 17879" d="M267.478,295.385a.944.944,0,0,1-.193-1.869l2.81-.59-.2-5.3.744-.186a3.276,3.276,0,0,0,2.325-2.695,48.71,48.71,0,0,0,.34-7.785.944.944,0,1,1,1.885-.1,49.787,49.787,0,0,1-.352,8.126,5.021,5.021,0,0,1-3,4.016l.208,5.449-4.37.917A.94.94,0,0,1,267.478,295.385Z" transform="translate(-56.12 -24.096)" fill="#3a4a53"/>
      <path id="Trazado_17880" data-name="Trazado 17880" d="M237.32,292.8c-.028,0-.056,0-.085,0a.944.944,0,0,1-.857-1.024c.4-4.483,2.309-5.49,3.994-6.379a5.956,5.956,0,0,0,3.352-3.567,36.068,36.068,0,0,0-.528-5.474,18.088,18.088,0,0,1,.078-8.187,10,10,0,0,1,11.857-8.194,7.586,7.586,0,0,1,6.059,4.512l.17.374-.158.379c-2.281,5.493-8.419,6.012-8.679,6.032a.944.944,0,0,1-.141-1.884c.2-.016,4.954-.441,6.906-4.493a5.782,5.782,0,0,0-4.5-3.062,8.164,8.164,0,0,0-9.666,6.724l-.019.081c-.759,2.717-.345,4.9.041,7.435a36.672,36.672,0,0,1,.63,5.93v.168l-.139.158a7.863,7.863,0,0,1-4.341,4.739c-1.559.822-2.706,1.416-3.014,4.875A.964.964,0,0,1,237.32,292.8Z" transform="translate(-42.713 -16.903)" fill="#3a4a53"/>
      <path id="Trazado_17881" data-name="Trazado 17881" d="M252.511,304.018a.944.944,0,0,1-.514-1.736l3.415-2.212.1-8.887a.882.882,0,0,1,.944-.859h.01a.878.878,0,0,1,.934.879l-.109,9.938-4.266,2.745A.92.92,0,0,1,252.511,304.018Z" transform="translate(-49.466 -30.479)" fill="#3a4a53"/>
      <path id="Trazado_17882" data-name="Trazado 17882" d="M257.78,287.938c-.028,0-.057,0-.085,0a3.673,3.673,0,0,1-3.454-2.256,3.09,3.09,0,0,1,4.54-3.72.945.945,0,0,1-1.013,1.595,1.19,1.19,0,0,0-1.075-.107A1.2,1.2,0,0,0,256,285c.152.394.51.933,1.86,1.053a.945.945,0,0,1-.083,1.885Z" transform="translate(-50.564 -26.547)" fill="#3a4a53"/>
      <path id="Trazado_17883" data-name="Trazado 17883" d="M286.1,341.361a.944.944,0,0,1-.248-1.855,4.276,4.276,0,0,0,3.025-3.543c.334-3.515-1.458-4.68-1.476-4.691a.944.944,0,0,1,.963-1.625c.116.069,2.845,1.744,2.394,6.494a6.16,6.16,0,0,1-4.409,5.186A.94.94,0,0,1,286.1,341.361Z" transform="translate(-64.399 -47.901)" fill="#3a4a53"/>
      <path id="Trazado_17884" data-name="Trazado 17884" d="M265.4,332.464a.944.944,0,0,1-.942-.9l-.39-8.541-7.663-12.039A.945.945,0,1,1,258,309.968l7.8,12.252a.94.94,0,0,1,.147.464l.4,8.793a.944.944,0,0,1-.9.986Z" transform="translate(-51.553 -39.017)" fill="#3a4a53"/>
      <path id="Trazado_17885" data-name="Trazado 17885" d="M271.244,323.664a.946.946,0,0,1-.872-1.308l5.107-12.263a.944.944,0,0,1,1.744.726l-5.108,12.263A.945.945,0,0,1,271.244,323.664Z" transform="translate(-57.794 -39.009)" fill="#3a4a53"/>
      <path id="Trazado_17886" data-name="Trazado 17886" d="M273.062,443.617H245.729l-.077-.86a52.962,52.962,0,0,0-.946-5.292c-1.552-7.435-4.15-19.88-.057-33.8a.944.944,0,1,1,1.812.533c-3.959,13.461-1.52,25.146.093,32.878.37,1.773.7,3.35.879,4.649h23.881l.232-2.96c1.475-18.761,1.783-22.666.056-32.949a.944.944,0,1,1,1.862-.312c1.766,10.511,1.456,14.456-.035,33.409Z" transform="translate(-45.416 -80.561)" fill="#3a4a53"/>
      <path id="Trazado_17887" data-name="Trazado 17887" d="M298.271,526.858a.943.943,0,0,1-.856-.545l-.981-2.1-2.792-36.531a.944.944,0,0,1,1.883-.144l2.766,36.188.835,1.79a.944.944,0,0,1-.457,1.255A.931.931,0,0,1,298.271,526.858Z" transform="translate(-68.169 -117.756)" fill="#3a4a53"/>
      <path id="Trazado_17888" data-name="Trazado 17888" d="M294.448,482.555a.942.942,0,0,1-.786-.418c-.219-.328-.293-.438.284-4.047a7.741,7.741,0,0,0-.042-1.658c-.064-.765-.143-1.718-.143-2.992a.945.945,0,0,1,1.889,0c0,1.2.076,2.1.136,2.835a8.9,8.9,0,0,1,.024,2.114c-.377,2.357-.421,2.989-.425,3.125a.941.941,0,0,1-.414.883A.932.932,0,0,1,294.448,482.555Z" transform="translate(-68.107 -111.458)" fill="#3a4a53"/>
      <path id="Trazado_17889" data-name="Trazado 17889" d="M244.947,524.115c-.029,0-.057,0-.087,0a.945.945,0,0,1-.855-1.027l.3-3.053,11.13-35.2.508-3.81a.944.944,0,0,1,1.872.249l-.554,4.051L246.137,520.5l-.251,2.752A.944.944,0,0,1,244.947,524.115Z" transform="translate(-46.104 -114.883)" fill="#3a4a53"/>
      <path id="Trazado_17890" data-name="Trazado 17890" d="M230.745,521.731a.945.945,0,0,1-.843-1.369l.751-1.493c.4-1.433.891-3.1,1.411-4.866,1.459-4.952,3.276-11.114,3.332-13.315.309-11.964,3.292-17.065,4.373-18.527l.056-.182a18.237,18.237,0,0,0,.981-6.832.944.944,0,1,1,1.883-.146,20.244,20.244,0,0,1-1.059,7.533l-.153.5-.109.14c-.627.8-3.771,5.434-4.084,17.559-.063,2.449-1.764,8.219-3.409,13.8-.529,1.794-1.028,3.488-1.427,4.927l-.067.172-.792,1.575A.946.946,0,0,1,230.745,521.731Z" transform="translate(-39.791 -112.185)" fill="#3a4a53"/>
      <path id="Trazado_17891" data-name="Trazado 17891" d="M285.153,522.91a.931.931,0,0,1-.1,0,.943.943,0,0,1-.844-1.035l.164-1.61c-.5-2.449-.959-4.929-1.363-7.124-.585-3.175-1.09-5.918-1.553-7.639-3.083-11.478-2.03-20.209-1.355-22.676a13.933,13.933,0,0,0-.246-1.388,11.8,11.8,0,0,1-.334-2.468.945.945,0,1,1,1.889,0,10.2,10.2,0,0,0,.293,2.079,13.752,13.752,0,0,1,.3,1.8l.013.177-.052.17c-.51,1.67-1.783,10.266,1.32,21.818.482,1.794.994,4.572,1.586,7.787.41,2.227.875,4.752,1.385,7.227l.029.142-.193,1.9A.944.944,0,0,1,285.153,522.91Z" transform="translate(-61.827 -113.915)" fill="#3a4a53"/>
      <path id="Trazado_17892" data-name="Trazado 17892" d="M230.268,569.248a.945.945,0,0,1-.944-.945v-5.966a.945.945,0,1,1,1.889,0V568.3A.945.945,0,0,1,230.268,569.248Z" transform="translate(-39.579 -150.974)" fill="#3a4a53"/>
      <path id="Trazado_17893" data-name="Trazado 17893" d="M288.488,569.446a.944.944,0,0,1-.944-.945v-5.915a.944.944,0,0,1,1.889,0V568.5A.944.944,0,0,1,288.488,569.446Z" transform="translate(-65.459 -151.086)" fill="#3a4a53"/>
      <path id="Trazado_17894" data-name="Trazado 17894" d="M199.87,410.484a.928.928,0,0,1-.293-.048.941.941,0,0,1-.606-1.181,4.707,4.707,0,0,1,5.646-3.1l1.481.308a.944.944,0,1,1-.384,1.849L204.232,408a2.841,2.841,0,0,0-3.465,1.833A.949.949,0,0,1,199.87,410.484Z" transform="translate(-26.067 -81.911)" fill="#3a4a53"/>
      <path id="Trazado_17895" data-name="Trazado 17895" d="M203.088,438.483a4.45,4.45,0,0,1-.907-.093l-26.745-5.564A4.437,4.437,0,0,1,172,427.578l3.158-15.186a4.454,4.454,0,0,1,4.341-3.535,4.5,4.5,0,0,1,.908.093l26.745,5.564a4.436,4.436,0,0,1,3.44,5.248l-3.159,15.187A4.451,4.451,0,0,1,203.088,438.483Zm-23.593-27.737a2.557,2.557,0,0,0-2.491,2.03l-3.158,15.187a2.548,2.548,0,0,0,1.976,3.014l26.745,5.563a2.543,2.543,0,0,0,3.013-1.975l3.159-15.188a2.548,2.548,0,0,0-1.975-3.014L180.017,410.8A2.594,2.594,0,0,0,179.495,410.746Z" transform="translate(-14.054 -83.169)" fill="#3a4a53"/>
      <path id="Trazado_17896" data-name="Trazado 17896" d="M200.236,430.623l-4.367-.908-.846-2.444-7.383-1.535a.944.944,0,1,1,.385-1.849l8.432,1.753.846,2.444,2.269.471,1.75-1.9,8.432,1.753a.945.945,0,1,1-.384,1.85l-7.383-1.536Z" transform="translate(-20.716 -89.842)" fill="#3a4a53"/>
      <path id="Trazado_17897" data-name="Trazado 17897" d="M214.916,392.7c-1.457-.11-4-.925-4.312-3.286a.951.951,0,0,1,0-.225l.678-6.195a.977.977,0,0,1,.042-.194l6.007-18.145,1.793.593-5.975,18.05-.654,5.968c.277,1.34,2.541,1.548,2.565,1.549Z" transform="translate(-31.255 -63.52)" fill="#3a4a53"/>
      <path id="Trazado_17898" data-name="Trazado 17898" d="M216.517,397.573a.957.957,0,0,1-.219-.026l-2.854-.677a.944.944,0,1,1,.436-1.837l2.854.677a.944.944,0,0,1-.217,1.863Z" transform="translate(-32.198 -77.013)" fill="#3a4a53"/>
      <path id="Trazado_17899" data-name="Trazado 17899" d="M333.54,375.9a.944.944,0,0,1-.737-1.534l1.111-1.389a.944.944,0,1,1,1.475,1.18l-1.111,1.389A.944.944,0,0,1,333.54,375.9Z" transform="translate(-85.486 -67.063)" fill="#3a4a53"/>
      <circle id="Elipse_566" data-name="Elipse 566" cx="10.415" cy="10.415" r="10.415" transform="translate(152.553 274.58) rotate(-80.783)" fill="#03abf2" opacity="0.19"/>
      <path id="Trazado_17900" data-name="Trazado 17900" d="M522.48,384.273a4.675,4.675,0,1,1-4.674-4.675A4.674,4.674,0,0,1,522.48,384.273Z" transform="translate(-165.738 -70.163)" fill="#03abf2" opacity="0.19"/>
      <path id="Trazado_17901" data-name="Trazado 17901" d="M465.48,389.273a4.675,4.675,0,1,1-4.674-4.675A4.674,4.674,0,0,1,465.48,389.273Z" transform="translate(-140.4 -72.386)" fill="#03abf2" opacity="0.19"/>
      <path id="Trazado_17902" data-name="Trazado 17902" d="M524.48,448.273a4.675,4.675,0,1,1-4.674-4.675A4.675,4.675,0,0,1,524.48,448.273Z" transform="translate(-166.627 -98.613)" fill="#03abf2" opacity="0.19"/>
    </g>
    <path id="Trazado_17953" data-name="Trazado 17953" d="M412.936,577.216H136.742a.946.946,0,1,1,0-1.892H412.936a.946.946,0,1,1,0,1.892Z" transform="translate(296.204 726.35)" fill="#3a4a53"/>
  </g>
</svg>
