<svg xmlns="http://www.w3.org/2000/svg" width="278.086" height="290.076" viewBox="0 0 278.086 290.076">
  <g id="Grupo_8663" data-name="Grupo 8663" transform="translate(-821 -1417.924)">
    <text id="Cumplimiento_y_Amabilidad" data-name="Cumplimiento y
Amabilidad" transform="translate(960 1672)" fill="#5f3bbf" font-size="22" font-family="OpenSans-Bold, Open Sans" font-weight="700"><tspan x="-87.302" y="0">Cumplimiento y</tspan><tspan x="-62.632" y="30">Amabilidad</tspan></text>
    <path id="Trazado_17955" data-name="Trazado 17955" d="M412.936,577.216H136.742a.946.946,0,1,1,0-1.892H412.936a.946.946,0,1,1,0,1.892Z" transform="translate(685.204 1058.35)" fill="#3a4a53"/>
    <g id="Grupo_8624" data-name="Grupo 8624" transform="translate(687.291 1165.683)">
      <path id="Trazado_17956" data-name="Trazado 17956" d="M279.24,321.6a41.982,41.982,0,1,1-41.982-41.982A41.982,41.982,0,0,1,279.24,321.6Z" transform="translate(-30.566 -12.15)" fill="#e6f4fa"/>
      <g id="Grupo_8614" data-name="Grupo 8614" transform="translate(274.355 349.981)">
        <g id="Grupo_8613" data-name="Grupo 8613" transform="translate(0 13.115)">
          <path id="Trazado_17957" data-name="Trazado 17957" d="M433.943,534.618a41.536,41.536,0,1,1,41.535-41.535A41.584,41.584,0,0,1,433.943,534.618Zm0-81.336a39.8,39.8,0,1,0,39.8,39.8A39.846,39.846,0,0,0,433.943,453.282Z" transform="translate(-392.405 -451.545)" fill="#1cabf2"/>
        </g>
        <path id="Trazado_17958" data-name="Trazado 17958" d="M451.377,518.531l-18.446-13.32a.868.868,0,1,1,1.017-1.408l17.106,12.353,21.208-26.491a.868.868,0,1,1,1.355,1.085Z" transform="translate(-410.23 -455.204)" fill="#1cabf2"/>
        <path id="Trazado_17959" data-name="Trazado 17959" d="M468.134,437.083H443.388a.868.868,0,0,1-.868-.868v-7.38a.868.868,0,0,1,.868-.868h24.746a.869.869,0,0,1,.869.868v7.38A.868.868,0,0,1,468.134,437.083Zm-23.878-1.736h23.01V429.7h-23.01Z" transform="translate(-414.646 -427.966)" fill="#1cabf2"/>
      </g>
      <path id="Trazado_17960" data-name="Trazado 17960" d="M262.224,370.9a.856.856,0,0,1-.205-.025.867.867,0,0,1-.569-.451l-6.8-13.412a.87.87,0,0,1-.016-.752l.918-2.021a.868.868,0,1,1,1.581.719l-.745,1.64,6.151,12.136L282.2,354.6a.868.868,0,1,1,1.013,1.411l-20.479,14.723A.874.874,0,0,1,262.224,370.9Z" transform="translate(-56.875 -45.04)"/>
      <path id="Trazado_17961" data-name="Trazado 17961" d="M250.445,384.333a5.286,5.286,0,0,1-4.742-3.291c-2.891-6.037-8.834-19.532-9.654-21.4l-4.589-3.353a.868.868,0,0,1,1.025-1.4l4.778,3.491a.874.874,0,0,1,.283.352c.066.151,6.643,15.127,9.724,21.56a3.467,3.467,0,0,0,3.364,2.292l22.381-14.767a.868.868,0,0,1,.956,1.45l-22.551,14.879a.871.871,0,0,1-.311.127A3.471,3.471,0,0,1,250.445,384.333Z" transform="translate(-46.467 -45.48)"/>
      <g id="Grupo_8616" data-name="Grupo 8616" transform="translate(214.103 252.242)">
        <path id="Trazado_17962" data-name="Trazado 17962" d="M289.622,268.408a.869.869,0,0,1-.869-.868V253.213a.869.869,0,0,1,1.737,0V267.54A.868.868,0,0,1,289.622,268.408Z" transform="translate(-286.154 -252.288)" fill="#1a1a1a"/>
        <g id="Grupo_8615" data-name="Grupo 8615">
          <path id="Trazado_17963" data-name="Trazado 17963" d="M284.08,256.06l.636.592,2.914-3.136,2.915,3.136.636-.592-3.551-3.818Z" transform="translate(-284.08 -252.242)" fill="#1a1a1a"/>
        </g>
      </g>
      <path id="Trazado_17964" data-name="Trazado 17964" d="M384.557,472.891a1.563,1.563,0,1,1-1.562-1.563A1.562,1.562,0,0,1,384.557,472.891Z" transform="translate(-113.181 -97.229)"/>
      <path id="Trazado_17965" data-name="Trazado 17965" d="M320.286,414.48H308.279a.868.868,0,0,1-.868-.859l-.432-40.6a.868.868,0,1,1,1.736-.019l.423,39.742h11.148a.868.868,0,1,1,0,1.737Z" transform="translate(-80.139 -53.211)"/>
      <path id="Trazado_17966" data-name="Trazado 17966" d="M389.914,406.424l-.058,0-4.134-.275a.872.872,0,0,1-.6-.294L369.419,387.94a.865.865,0,0,1-.145-.231l-12.542-29.38-8.084-3.614a.868.868,0,0,1,.709-1.585l8.394,3.752a.872.872,0,0,1,.444.452L370.816,386.9l15.38,17.538,3.775.251a.868.868,0,0,1-.057,1.735Z" transform="translate(-98.403 -44.739)"/>
      <path id="Trazado_17967" data-name="Trazado 17967" d="M360.1,416.646a.861.861,0,0,1-.868-.847l-.47-32.992a.873.873,0,0,1,.856-.892h.012a.882.882,0,0,1,.868.872l.47,32.979a.863.863,0,0,1-.856.88Z" transform="translate(-103.122 -57.548)"/>
      <path id="Trazado_17968" data-name="Trazado 17968" d="M350.467,529.865c-2.193,0-12.391-.317-12.824-.331l-.827-.025-.527-29.981-1.468-28.722a.868.868,0,1,1,1.734-.088l1.47,28.751.5,28.356c2.478.076,9.8.3,11.812.305a.915.915,0,0,0,.158-.491,1.411,1.411,0,0,0-.612-1.223,5.9,5.9,0,0,0-1.489-.834c-.221-.1-.484-.221-.81-.373l-.481-.224-.02-.53c-.306-8.037.914-46.221.967-47.842l.653-38.292a.852.852,0,0,1,.883-.853.868.868,0,0,1,.853.883l-.654,38.3c-.013.4-1.22,38.159-.984,47.2l.314.144a7.571,7.571,0,0,1,1.809,1.025,3.134,3.134,0,0,1,1.233,3.2,2.018,2.018,0,0,1-1.522,1.623l-.155.013Z" transform="translate(-92.495 -82.201)"/>
      <path id="Trazado_17969" data-name="Trazado 17969" d="M331.664,332.428a.869.869,0,0,1-.181-1.718l3.055-.652.173-3.555.515-.208c1.127-.458,2.759-1.49,2.857-2.351.9-7.928-.231-12.267-.243-12.31a.869.869,0,0,1,1.678-.451c.05.188,1.229,4.7.29,12.957-.2,1.782-2.374,3.032-3.416,3.535l-.186,3.8-4.36.932A.9.9,0,0,1,331.664,332.428Z" transform="translate(-90.709 -25.872)"/>
      <path id="Trazado_17970" data-name="Trazado 17970" d="M315.4,311.994a.869.869,0,0,1-.852-.7,12.3,12.3,0,0,1,.866-6.5l.066-.128a10.3,10.3,0,0,1,10.977-4.145c2.869.731,4.634,2.435,5.722,5.524l.107.3-.118.3c-1.07,2.724-3.347,4.184-7.615,4.882-.641.1-3.447.139-4,.145a.868.868,0,1,1-.018-1.736c1.328-.014,3.367-.061,3.742-.122,3.458-.565,5.272-1.592,6.153-3.509a5.9,5.9,0,0,0-4.4-4.107,8.5,8.5,0,0,0-9.035,3.317,10.6,10.6,0,0,0-.741,5.441.868.868,0,0,1-.685,1.019A.908.908,0,0,1,315.4,311.994Z" transform="translate(-83.443 -21.281)"/>
      <path id="Trazado_17971" data-name="Trazado 17971" d="M305.136,345.665a.868.868,0,0,1-.333-1.67l7.383-3.063-.064-9.635a.886.886,0,0,1,.863-.9h.006a.888.888,0,0,1,.868.885l.073,10.792-8.462,3.516A.876.876,0,0,1,305.136,345.665Z" transform="translate(-78.935 -34.686)"/>
      <path id="Trazado_17972" data-name="Trazado 17972" d="M318.437,328.123a.849.849,0,0,1-.154-.014c-1.881-.336-3.047-1.249-3.467-2.713a3.26,3.26,0,0,1,5.114-3.486.868.868,0,0,1-1.055,1.38,1.507,1.507,0,0,0-1.346-.255,1.523,1.523,0,0,0-1.044,1.882c.143.5.517,1.2,2.1,1.482a.868.868,0,0,1-.152,1.723Z" transform="translate(-83.561 -30.621)"/>
      <path id="Trazado_17973" data-name="Trazado 17973" d="M291.569,532.313c-3.865,0-10.12-.042-10.457-.045l-1.058-.007,9.913-48.271c.043-.273,4.976-31.107,5.865-39.963a.868.868,0,1,1,1.728.173c-.894,8.907-5.836,39.791-5.885,40.1l-9.494,46.236c2.724.016,9.9.057,11.849.026.256-.045.378-.393.41-.5a.992.992,0,0,0-.123-.944c-.4-.321-1.417-1.135-2.218-1.88l-.384-.357,10.665-39.361,7.734-30.287.431-.157a44.312,44.312,0,0,0,4.134-1.8.868.868,0,0,1,.776,1.553c-1.641.819-3.164,1.434-3.885,1.713l-7.512,29.416-10.392,38.354c.673.6,1.407,1.185,1.716,1.432a2.623,2.623,0,0,1,.721,2.809,2.3,2.3,0,0,1-1.931,1.738l-.07,0C293.585,532.31,292.674,532.313,291.569,532.313Z" transform="translate(-68.19 -84.767)"/>
      <path id="Trazado_17974" data-name="Trazado 17974" d="M385.757,432.417a.868.868,0,0,1-.828-.607l-.76-2.406L367.8,413.712a.86.86,0,0,1-.2-.293l-8.267-19.841a.869.869,0,1,1,1.6-.668l8.2,19.674,16.4,15.72a.869.869,0,0,1,.227.365l.827,2.618a.868.868,0,0,1-.829,1.13Z" transform="translate(-103.341 -62.19)"/>
      <path id="Trazado_17975" data-name="Trazado 17975" d="M330.619,389.441l-5.019-4.866.024-.4c.012-.182,1.121-18.087,1.857-25.659l-1.774-2.616a.868.868,0,0,1,1.437-.974l2.127,3.136-.031.313c-.672,6.741-1.686,22.774-1.857,25.509l3.192,3.1,2.785-2.9-3.133-25.817.117-.234c.034-.068.848-1.69,1.744-3.213a.868.868,0,1,1,1.5.882c-.674,1.143-1.314,2.376-1.57,2.877l3.169,26.114Z" transform="translate(-88.384 -45.332)"/>
      <g id="Grupo_8618" data-name="Grupo 8618" transform="translate(172.871 334.86)">
        <path id="Trazado_17976" data-name="Trazado 17976" d="M224.413,465.681a.868.868,0,0,1-.868-.868V429.18l-7.38-5.925V402.3a.868.868,0,0,1,1.736,0v20.125l7.38,5.925v36.466A.869.869,0,0,1,224.413,465.681Z" transform="translate(-212.707 -401.068)" fill="#85d4f7"/>
        <g id="Grupo_8617" data-name="Grupo 8617" transform="translate(0 0)">
          <path id="Trazado_17977" data-name="Trazado 17977" d="M209.949,405.363l.763.711,3.5-3.763,3.5,3.763.763-.711-4.261-4.582Z" transform="translate(-209.949 -400.781)" fill="#85d4f7"/>
        </g>
      </g>
      <g id="Grupo_8620" data-name="Grupo 8620" transform="translate(342.798 304.273)">
        <path id="Trazado_17978" data-name="Trazado 17978" d="M521.442,394.634a.869.869,0,0,1-.869-.868V346.878a.869.869,0,0,1,1.737,0v46.887A.868.868,0,0,1,521.442,394.634Z" transform="translate(-517.728 -345.887)" fill="#1a1a1a"/>
        <g id="Grupo_8619" data-name="Grupo 8619" transform="translate(0 0)">
          <path id="Trazado_17979" data-name="Trazado 17979" d="M515.458,349.607l.636.592,2.915-3.136,2.915,3.136.636-.592-3.551-3.819Z" transform="translate(-515.458 -345.788)" fill="#1a1a1a"/>
        </g>
      </g>
      <path id="Trazado_17980" data-name="Trazado 17980" d="M540.175,444.126a.868.868,0,0,1-.868-.868v-23.01a.868.868,0,1,1,1.737,0v23.01A.868.868,0,0,1,540.175,444.126Z" transform="translate(-183.244 -74.175)"/>
      <path id="Trazado_17981" data-name="Trazado 17981" d="M251.375,517.331a.868.868,0,0,1-.868-.869V487.375a.868.868,0,0,1,1.736,0v29.087A.868.868,0,0,1,251.375,517.331Z" transform="translate(-55.077 -103.965)"/>
      <g id="Grupo_8622" data-name="Grupo 8622" transform="translate(167.527 262.072)">
        <path id="Trazado_17982" data-name="Trazado 17982" d="M220.727,310.69A20.387,20.387,0,1,1,241.115,290.3,20.409,20.409,0,0,1,220.727,310.69Zm0-39.038A18.651,18.651,0,1,0,239.378,290.3,18.672,18.672,0,0,0,220.727,271.652Z" transform="translate(-200.34 -269.916)" fill="#1cabf2"/>
        <g id="Grupo_8621" data-name="Grupo 8621" transform="translate(13.664 7.822)">
          <path id="Trazado_17983" data-name="Trazado 17983" d="M231.46,301.269h-1.767c-2.813,0-4.786-1.668-4.786-4.144a4.926,4.926,0,0,1,4.786-4.973h6.351a.872.872,0,1,1,0,1.736h-6.351a3.2,3.2,0,0,0-2.874,3.236c0,1.693,1.486,2.408,2.874,2.408h1.767a.872.872,0,1,1,0,1.736Z" transform="translate(-224.907 -287.606)" fill="#1cabf2"/>
          <path id="Trazado_17984" data-name="Trazado 17984" d="M233.225,314.538h-7.182a1.095,1.095,0,0,1,0-2.171h7.182c1.392,0,2.877-.5,2.877-2.188a.449.449,0,0,1,.009-.089,2.362,2.362,0,0,0-.487-1.987,3.163,3.163,0,0,0-2.4-.946h-2.6a.872.872,0,1,1,0-1.736h2.6a5.018,5.018,0,0,1,3.845,1.551,4.216,4.216,0,0,1,.942,3.452C237.974,312.861,236.017,314.538,233.225,314.538Z" transform="translate(-224.988 -293.495)" fill="#1cabf2"/>
          <path id="Trazado_17985" data-name="Trazado 17985" d="M234.985,289.86a.884.884,0,0,1-.869-.956v-3.969a.872.872,0,1,1,1.736,0V288.9A.885.885,0,0,1,234.985,289.86Z" transform="translate(-228.994 -283.979)" fill="#1cabf2"/>
          <path id="Trazado_17986" data-name="Trazado 17986" d="M234.985,325a.884.884,0,0,1-.869-.955v-3.969a.872.872,0,1,1,1.736,0v3.969A.885.885,0,0,1,234.985,325Z" transform="translate(-228.994 -299.576)" fill="#1cabf2"/>
        </g>
      </g>
      <g id="Grupo_8623" data-name="Grupo 8623" transform="translate(294.927 320.025)">
        <path id="Trazado_17987" data-name="Trazado 17987" d="M430.042,381.656a.638.638,0,0,1-.65-.635.654.654,0,0,1,.65-.656l7.077-.012h0a.661.661,0,0,1,.651.661.643.643,0,0,1-.651.642h-7.078Z" transform="translate(-429.392 -376.88)"/>
        <path id="Trazado_17988" data-name="Trazado 17988" d="M436.405,382.358a.614.614,0,0,1-.651-.6l-.009-7.034a.616.616,0,0,1,.65-.61h0a.635.635,0,0,1,.651.631l.008,7.021a.606.606,0,0,1-.65.6Z" transform="translate(-432.211 -374.109)"/>
      </g>
      <path id="Trazado_17989" data-name="Trazado 17989" d="M397.727,335.789l-6.9-6.9,6.9-6.9,6.9,6.9Zm-5.057-6.9,5.057,5.058,5.058-5.058-5.058-5.055Z" transform="translate(-117.35 -30.955)"/>
      <path id="Trazado_17990" data-name="Trazado 17990" d="M569.125,558.635l-5.691-5.691,5.691-5.69,5.691,5.69Zm-3.85-5.691,3.85,3.849,3.85-3.849-3.85-3.848Z" transform="translate(-193.951 -130.924)"/>
      <path id="Trazado_17992" data-name="Trazado 17992" d="M453.535,449.221a.869.869,0,0,1-.868-.869v-3.907a.868.868,0,1,1,1.737,0v3.907A.869.869,0,0,1,453.535,449.221Z" transform="translate(-144.794 -84.913)" fill="#1cabf2"/>
      <path id="Trazado_17993" data-name="Trazado 17993" d="M477.732,451.475a.869.869,0,0,1-.869-.868v-3.04a.868.868,0,1,1,1.736,0v3.04A.868.868,0,0,1,477.732,451.475Z" transform="translate(-155.532 -86.298)" fill="#1cabf2"/>
      <path id="Trazado_17994" data-name="Trazado 17994" d="M442.113,533.039a.651.651,0,0,1-.03-1.3c.277-.014.554-.031.829-.051a.651.651,0,1,1,.1,1.3q-.431.033-.864.053Zm-9.266-.8a.649.649,0,0,1-.145-.016q-.422-.1-.842-.2a.651.651,0,1,1,.321-1.263q.4.1.808.194a.652.652,0,0,1-.143,1.287Zm19.208-1.206a.652.652,0,0,1-.223-1.264q.391-.142.778-.294a.652.652,0,1,1,.477,1.213c-.268.105-.538.208-.809.307A.669.669,0,0,1,452.054,531.034ZM423.4,528.54a.645.645,0,0,1-.325-.088q-.375-.216-.744-.442a.651.651,0,1,1,.679-1.111q.355.217.717.426a.651.651,0,0,1-.327,1.215Zm37.554-2.365a.651.651,0,0,1-.394-1.17q.331-.251.655-.51a.651.651,0,1,1,.814,1.017q-.337.27-.682.531A.644.644,0,0,1,460.956,526.175Zm-45.486-3.96a.647.647,0,0,1-.477-.208q-.295-.316-.581-.639a.651.651,0,0,1,.976-.864q.275.311.558.617a.65.65,0,0,1-.477,1.094Zm52.567-3.3a.651.651,0,0,1-.528-1.031c.162-.226.322-.453.478-.683a.651.651,0,0,1,1.076.735q-.244.357-.5.709A.652.652,0,0,1,468.036,518.914Zm-58.292-5.069a.653.653,0,0,1-.587-.369q-.187-.387-.365-.78a.651.651,0,1,1,1.186-.538q.172.379.352.752a.653.653,0,0,1-.586.935Zm62.925-3.956a.65.65,0,0,1-.617-.858q.133-.4.256-.795a.651.651,0,1,1,1.244.383q-.129.415-.266.826A.651.651,0,0,1,472.67,509.889Zm-65.921-5.731a.651.651,0,0,1-.643-.555q-.064-.426-.118-.856a.651.651,0,0,1,1.292-.162c.035.275.073.551.114.824a.652.652,0,0,1-.645.748Zm67.673-4.282h-.016a.705.705,0,0,1-.713-.656c.007-.277-.067-.543-.067-.822v-.069a.651.651,0,1,1,1.3,0v.069c0,.289.074.566.067.853A.578.578,0,0,1,474.422,499.876Zm-67.683-5.86a.723.723,0,0,1-.1-.007.651.651,0,0,1-.548-.74q.063-.428.137-.854a.651.651,0,1,1,1.283.224q-.071.41-.132.822A.651.651,0,0,1,406.739,494.016Zm66.411-4.249a.651.651,0,0,1-.626-.474q-.114-.4-.236-.8a.651.651,0,1,1,1.244-.385q.128.412.246.828a.652.652,0,0,1-.45.8A.664.664,0,0,1,473.15,489.767Zm-63.437-5.448a.652.652,0,0,1-.586-.933c.125-.261.254-.519.384-.776a.651.651,0,0,1,1.16.594q-.189.37-.371.746A.651.651,0,0,1,409.713,484.319Zm59.245-3.787a.651.651,0,0,1-.546-.3q-.227-.349-.461-.692a.651.651,0,1,1,1.074-.736q.244.355.479.718a.652.652,0,0,1-.191.9A.66.66,0,0,1,468.958,480.533Zm-53.533-4.6a.65.65,0,0,1-.478-1.093c.2-.211.394-.42.6-.627a.651.651,0,1,1,.933.908q-.29.3-.573.6A.647.647,0,0,1,415.425,475.933Zm46.807-2.991a.647.647,0,0,1-.418-.152q-.32-.267-.645-.526a.652.652,0,1,1,.811-1.02q.338.27.67.547a.651.651,0,0,1-.418,1.15ZM423.343,469.6a.652.652,0,0,1-.328-1.215q.374-.216.753-.423a.651.651,0,1,1,.625,1.143q-.364.2-.723.408A.651.651,0,0,1,423.343,469.6Zm30.228-1.935a.658.658,0,0,1-.251-.05q-.385-.163-.774-.314a.652.652,0,0,1,.475-1.214q.4.159.8.326a.651.651,0,0,1-.253,1.252Zm-20.8-1.785a.651.651,0,0,1-.145-1.286q.42-.1.845-.182a.652.652,0,0,1,.259,1.277c-.272.055-.544.113-.814.175A.658.658,0,0,1,432.775,465.876Zm10.959-.7-.064,0q-.413-.04-.829-.07a.651.651,0,1,1,.093-1.3q.432.031.862.073a.651.651,0,0,1-.062,1.3Z" transform="translate(-124.076 -93.891)" fill="#1cabf2"/>
    </g>
  </g>
</svg>
