<svg xmlns="http://www.w3.org/2000/svg" width="1140" height="527" viewBox="0 0 1140 527">
  <g id="Grupo_8659" data-name="Grupo 8659" transform="translate(-390 -1849)">
    <rect id="Rectángulo_2068" data-name="Rectángulo 2068" width="570" height="475" transform="translate(960 1901)" fill="#d9fbff"/>
    <rect id="Rectángulo_2069" data-name="Rectángulo 2069" width="570" height="475" transform="translate(390 1901)" fill="#e2dcf4"/>
    <path id="Rectángulo_2070" data-name="Rectángulo 2070" d="M13,0H570a0,0,0,0,1,0,0V104a0,0,0,0,1,0,0H13A13,13,0,0,1,0,91V13A13,13,0,0,1,13,0Z" transform="translate(390 1849)" fill="#5f3bbf"/>
    <path id="Rectángulo_2071" data-name="Rectángulo 2071" d="M0,0H557a13,13,0,0,1,13,13V91a13,13,0,0,1-13,13H0a0,0,0,0,1,0,0V0A0,0,0,0,1,0,0Z" transform="translate(960 1849)" fill="#3bdcf0"/>
    <text id="VENTAJAS" transform="translate(609 1910)" fill="#fff" font-size="24" font-family="Montserrat-Bold, Montserrat" font-weight="700"><tspan x="0" y="0">VENTAJAS</tspan></text>
    <text id="DESVENTAJAS" transform="translate(1160 1910)" fill="#fff" font-size="24" font-family="Montserrat-Bold, Montserrat" font-weight="700"><tspan x="0" y="0">DESVENTAJAS</tspan></text>
    <text id="Puede_ser_conformada_por_varios_socios" data-name="Puede ser conformada por varios socios" transform="translate(455 2007)" fill="#00223d" font-size="18" font-family="OpenSans, Open Sans"><tspan x="0" y="19">Puede ser conformada por varios socios</tspan></text>
    <text id="Requiere_mayor_inversión_económica." data-name="Requiere mayor inversión económica." transform="translate(1032 2007)" fill="#00223d" font-size="18" font-family="OpenSans, Open Sans"><tspan x="0" y="19">Requiere mayor inversión económica.</tspan></text>
    <text id="Mayor_minucia_en_la_elaboración_de_trámites_y_documentos." data-name="Mayor minucia en la elaboración de trámites y documentos." transform="translate(1032 2053)" fill="#00223d" font-size="18" font-family="OpenSans, Open Sans"><tspan x="0" y="19">Mayor minucia en la elaboración de trámites y </tspan><tspan x="0" y="49">documentos.</tspan></text>
    <text id="Mayor_restricciones_al_ampliar_o_reducir_patrimonio." data-name="Mayor restricciones al ampliar o reducir patrimonio." transform="translate(1032 2132)" fill="#00223d" font-size="18" font-family="OpenSans, Open Sans"><tspan x="0" y="19">Mayor restricciones al ampliar o reducir patrimonio.</tspan></text>
    <g id="Grupo_8572" data-name="Grupo 8572" transform="translate(482 538)">
      <rect id="rectangle" width="30" height="30" transform="translate(504 1466)" fill="none"/>
      <path id="path" d="M8.6,7.75,10.35,6l7.5,7.5L10.35,21,8.6,19.25l5.75-5.75Z" transform="translate(506.15 1467.5)" fill="#002b45" fill-rule="evenodd"/>
    </g>
    <g id="Grupo_8573" data-name="Grupo 8573" transform="translate(482 585)">
      <rect id="rectangle-2" data-name="rectangle" width="30" height="30" transform="translate(504 1466)" fill="none"/>
      <path id="path-2" data-name="path" d="M8.6,7.75,10.35,6l7.5,7.5L10.35,21,8.6,19.25l5.75-5.75Z" transform="translate(506.15 1467.5)" fill="#002b45" fill-rule="evenodd"/>
    </g>
    <g id="Grupo_8574" data-name="Grupo 8574" transform="translate(482 663)">
      <rect id="rectangle-3" data-name="rectangle" width="30" height="30" transform="translate(504 1466)" fill="none"/>
      <path id="path-3" data-name="path" d="M8.6,7.75,10.35,6l7.5,7.5L10.35,21,8.6,19.25l5.75-5.75Z" transform="translate(506.15 1467.5)" fill="#002b45" fill-rule="evenodd"/>
    </g>
    <text id="Mayor_disponibilidad_de_capital_ya_que_cada_socio_puede_aportar." data-name="Mayor disponibilidad de capital, ya que cada socio puede aportar." transform="translate(455 2051)" fill="#00223d" font-size="18" font-family="OpenSans, Open Sans"><tspan x="0" y="19">Mayor disponibilidad de capital, ya que cada socio </tspan><tspan x="0" y="49">puede aportar.</tspan></text>
    <text id="Podrá_licitar_y_participar_en_concursos_públicos._" data-name="Podrá licitar y participar en concursos públicos. " transform="translate(455 2130)" fill="#00223d" font-size="18" font-family="OpenSans, Open Sans"><tspan x="0" y="19">Podrá licitar y participar en concursos públicos. </tspan></text>
    <text id="Mayores_posibilidades_de_acceso_a_créditos_y_financiamientos." data-name="Mayores posibilidades de acceso a créditos y financiamientos." transform="translate(455 2179)" fill="#00223d" font-size="18" font-family="OpenSans, Open Sans"><tspan x="0" y="19">Mayores posibilidades de acceso a créditos y </tspan><tspan x="0" y="49">financiamientos.</tspan></text>
    <text id="Es_la_manera_recomendada_para_iniciar_un_proyecto_bajo_el_modelo_de_franquicias._" data-name="Es la manera recomendada para iniciar un proyecto bajo el modelo de franquicias.  " transform="translate(455 2262)" fill="#00223d" font-size="18" font-family="OpenSans, Open Sans"><tspan x="0" y="19">Es la manera recomendada para iniciar un proyecto </tspan><tspan x="0" y="49" xml:space="preserve">bajo el modelo de franquicias.  </tspan></text>
    <text id="Mayor_dificultad_al_querer_vender." data-name="Mayor dificultad al querer vender." transform="translate(1032 2179)" fill="#00223d" font-size="18" font-family="OpenSans, Open Sans"><tspan x="0" y="19">Mayor dificultad al querer vender.</tspan></text>
    <g id="Grupo_8576" data-name="Grupo 8576" transform="translate(482 710)">
      <rect id="rectangle-4" data-name="rectangle" width="30" height="30" transform="translate(504 1466)" fill="none"/>
      <path id="path-4" data-name="path" d="M8.6,7.75,10.35,6l7.5,7.5L10.35,21,8.6,19.25l5.75-5.75Z" transform="translate(506.15 1467.5)" fill="#002b45" fill-rule="evenodd"/>
    </g>
  </g>
</svg>
