<svg xmlns="http://www.w3.org/2000/svg" width="278.086" height="262.939" viewBox="0 0 278.086 262.939">
  <g id="Grupo_8660" data-name="Grupo 8660" transform="translate(-1173 -1083.061)">
    <g id="Grupo_8612" data-name="Grupo 8612" transform="translate(-6.228)">
      <path id="Trazado_17410" data-name="Trazado 17410" d="M327.778,240.975h0a24,24,0,0,1-6.344-.94c-5.6-1.666-8.518-5.782-9.446-13.344L309.4,204.642a.857.857,0,0,1,.214-.673.937.937,0,0,1,.646-.283l34.483.394a.856.856,0,0,1,.842.939l-2.108,21.58c-1.333,10.715-10.4,13.525-13.145,14.131A11.955,11.955,0,0,1,327.778,240.975Z" transform="translate(995.934 879.375)" fill="#85d4f7"/>
      <circle id="Elipse_559" data-name="Elipse 559" cx="36.611" cy="36.611" r="36.611" transform="translate(1271.719 1233.419) rotate(-89.132)" fill="#d9f0f8" opacity="0.49"/>
      <path id="Trazado_17411" data-name="Trazado 17411" d="M341.86,436.726l-4.436-4.386.026-.391c.011-.162,1.087-15.979,1.793-22.6l-1.279-1.989a.856.856,0,1,1,1.44-.926l1.606,2.5-.033.3c-.641,5.84-1.619,19.916-1.793,22.443l2.656,2.626,2.354-2.4-2.288-23.081.1-.216c0-.008.358-.759.9-2.134a.856.856,0,0,1,1.592.629c-.4,1.009-.7,1.69-.844,2.016l2.322,23.411Z" transform="translate(981.358 773.377)" fill="#243640"/>
      <path id="Trazado_17412" data-name="Trazado 17412" d="M369.635,629.2a1.384,1.384,0,1,1-1.383-1.383A1.383,1.383,0,0,1,369.635,629.2Z" transform="translate(965.965 657.199)" fill="#1c428c"/>
      <path id="Trazado_17413" data-name="Trazado 17413" d="M410.17,462.867a2.191,2.191,0,1,1,2.192-2.191A2.193,2.193,0,0,1,410.17,462.867Zm0-3.526a1.335,1.335,0,1,0,1.335,1.336A1.337,1.337,0,0,0,410.17,459.34Z" transform="translate(944.434 745.972)" fill="#03abf2"/>
      <path id="Trazado_17414" data-name="Trazado 17414" d="M200.245,432.2a3.032,3.032,0,1,1,3.031-3.032A3.035,3.035,0,0,1,200.245,432.2Zm0-5.208a2.176,2.176,0,1,0,2.175,2.176A2.178,2.178,0,0,0,200.245,427Z" transform="translate(1055.015 762.899)" fill="#1c428c"/>
      <path id="Trazado_17415" data-name="Trazado 17415" d="M236.43,531.44a.856.856,0,0,1-.856-.856V519.048a.856.856,0,1,1,1.712,0v11.535A.856.856,0,0,1,236.43,531.44Z" transform="translate(1034.703 714.657)" fill="#1c428c"/>
      <path id="Trazado_17416" data-name="Trazado 17416" d="M434.482,485.791a.856.856,0,0,1-.856-.856v-14.9a.856.856,0,0,1,1.712,0v14.9A.856.856,0,0,1,434.482,485.791Z" transform="translate(931.021 740.308)" fill="#03abf2"/>
      <g id="Grupo_8462" data-name="Grupo 8462" transform="translate(1262.379 1264.727)">
        <path id="Trazado_17417" data-name="Trazado 17417" d="M219.115,591.985a.763.763,0,0,1-.54-1.3l4.853-4.865a.762.762,0,0,1,1.079,1.077l-4.853,4.865A.76.76,0,0,1,219.115,591.985Z" transform="translate(-218.346 -585.595)" fill="#1c428c"/>
        <path id="Trazado_17418" data-name="Trazado 17418" d="M223.966,591.983a.758.758,0,0,1-.538-.223l-4.865-4.853a.762.762,0,1,1,1.076-1.079l4.865,4.853a.762.762,0,0,1-.539,1.3Z" transform="translate(-218.339 -585.6)" fill="#1c428c"/>
      </g>
      <g id="Grupo_8463" data-name="Grupo 8463" transform="translate(1379.746 1182.899)">
        <path id="Trazado_17419" data-name="Trazado 17419" d="M466.015,418.627a.642.642,0,0,1-.455-1.1l4.086-4.1a.642.642,0,0,1,.909.906l-4.086,4.1A.64.64,0,0,1,466.015,418.627Z" transform="translate(-465.368 -413.246)" fill="#1c428c"/>
        <path id="Trazado_17420" data-name="Trazado 17420" d="M470.1,418.627a.638.638,0,0,1-.453-.187l-4.1-4.086a.642.642,0,1,1,.907-.909l4.1,4.086a.642.642,0,0,1-.453,1.1Z" transform="translate(-465.362 -413.251)" fill="#1c428c"/>
      </g>
      <path id="Trazado_17421" data-name="Trazado 17421" d="M307.7,390.046a.856.856,0,0,1-.855-.844l-.367-24.705-2.371-10.588-7.293-26.056a.851.851,0,0,1,.021-.527l8.419-22.817,1.325-4.561a.858.858,0,0,1,.352-.477l3.723-2.448a.856.856,0,1,1,.941,1.43l-3.459,2.276-1.246,4.287c-.006.02-.012.038-.019.058l-8.333,22.585,7.224,25.81c0,.014.008.029.011.044l2.395,10.7a.918.918,0,0,1,.021.174l.368,24.794a.857.857,0,0,1-.843.869Z" transform="translate(1002.62 830.319)" fill="#243640"/>
      <path id="Trazado_17422" data-name="Trazado 17422" d="M324.4,391.04a.851.851,0,0,1-.482-.15c-.795-.543-1.8-1.428-1.844-1.466a.856.856,0,0,1-.253-.392l-2.684-8.771a.856.856,0,1,1,1.637-.5l2.612,8.535c.314.269.976.824,1.5,1.182a.856.856,0,0,1-.484,1.562Z" transform="translate(990.965 787.48)" fill="#243640"/>
      <path id="Trazado_17423" data-name="Trazado 17423" d="M370.679,349.984a.857.857,0,0,1-.815-1.119l6.834-21.171-7.107-21.074a.864.864,0,0,1-.043-.212,54.246,54.246,0,0,0-.759-6.625c-.343-.986-1.941-2.008-2.473-2.287a.856.856,0,1,1,.8-1.516c.271.143,2.671,1.445,3.294,3.241a52.134,52.134,0,0,1,.842,6.956l7.162,21.238a.853.853,0,0,1,0,.536l-6.921,21.439A.855.855,0,0,1,370.679,349.984Z" transform="translate(966.451 830.994)" fill="#243640"/>
      <path id="Trazado_17424" data-name="Trazado 17424" d="M317.155,509.195a2.385,2.385,0,0,1-1.761-.676.856.856,0,0,1,1.267-1.152,1.188,1.188,0,0,0,.942.036,1.058,1.058,0,0,0,.648-.933c.11-.74.194-1.647.321-3.464l.025-.358.273-.233c5.474-4.669,21.776-16.427,24.4-18.316l-.02-32.661.16-45.424a.856.856,0,0,1,.856-.853h0a.855.855,0,0,1,.853.859l-.161,45.421.021,33.537-.358.256c-.184.132-18.216,13.075-24.373,18.253-.118,1.631-.2,2.5-.31,3.236a2.741,2.741,0,0,1-1.924,2.346A3.017,3.017,0,0,1,317.155,509.195Z" transform="translate(992.927 772.865)" fill="#243640"/>
      <path id="Trazado_17425" data-name="Trazado 17425" d="M344.645,547.431l-1.242-1.177,2.024-2.135-.485-12.478,1.711-.067.513,13.2Z" transform="translate(978.246 707.631)" fill="#243640"/>
      <path id="Trazado_17426" data-name="Trazado 17426" d="M283.579,568.711l-.323-.3c-2.451-2.273-7.765-8.482-7.99-8.746l-.381-.445,16.539-30.735,3.991-29.89a.856.856,0,0,1,1.7.227l-4.033,30.2L276.949,559c1.216,1.409,5.04,5.81,7.145,7.849a1.866,1.866,0,0,0,1.433-1.1,4.67,4.67,0,0,0,.292-2.591c-.013-.419-.029-.908-.037-1.492l0-.228.111-.2c4.849-8.721,14.536-24.546,15.489-26.1l7.668-34.686a.856.856,0,1,1,1.671.37l-7.729,34.967-.075.122c-.1.169-10.317,16.816-15.416,25.961.009.474.022.879.033,1.234a6.2,6.2,0,0,1-.467,3.4,3.8,3.8,0,0,1-3.054,2.12Z" transform="translate(1014.024 724.712)" fill="#243640"/>
      <path id="Trazado_17427" data-name="Trazado 17427" d="M345.883,380.757c-.8.191-1.4-1.131-.381-1.669a12.359,12.359,0,0,1,1.9-.543l.35-3.222.467-.255c.844-.464,2.126-1.485,2.194-2.2a25.342,25.342,0,0,0-1.471-11.21l1.573-.674a26.716,26.716,0,0,1,1.6,12.046c-.142,1.5-1.773,2.726-2.612,3.265l-.334,3.607S346.8,380.538,345.883,380.757Z" transform="translate(977.414 796.973)" fill="#243640"/>
      <path id="Trazado_17428" data-name="Trazado 17428" d="M332.217,363a.856.856,0,0,1-.086-1.707c.765-.078,1.982-.224,2.287-.3,2.864-.753,4.26-1.71,4.848-3.361A4.911,4.911,0,0,0,335.3,354.6c-3.717-.577-6.379,1.193-7,3.154a8.4,8.4,0,0,0-.3,3.74.856.856,0,0,1-1.677.342,9.985,9.985,0,0,1,.342-4.594c.83-2.642,4.229-5.059,8.892-4.332a6.7,6.7,0,0,1,5.4,4.294l.134.289-.087.306c-.7,2.446-2.539,3.9-6.154,4.845-.545.144-2.22.318-2.55.352C332.275,363,332.246,363,332.217,363Z" transform="translate(987.207 801.3)" fill="#243640"/>
      <path id="Trazado_17429" data-name="Trazado 17429" d="M341.785,502.144a.856.856,0,0,1-.225-1.682l5.481-1.495a.856.856,0,0,1,.451,1.652l-5.481,1.495A.854.854,0,0,1,341.785,502.144Z" transform="translate(979.528 724.799)" fill="#243640"/>
      <path id="Trazado_17430" data-name="Trazado 17430" d="M329.149,394.313l-.294-1.657,1.07-.1.135-7.077,1.711.032-.164,8.6Z" transform="translate(985.865 784.182)" fill="#243640"/>
      <path id="Trazado_17431" data-name="Trazado 17431" d="M330.383,380.656a.692.692,0,0,1-.071,0,3.451,3.451,0,0,1-3.263-2.1,2.9,2.9,0,0,1,4.23-3.517.856.856,0,1,1-.9,1.454,1.185,1.185,0,0,0-1.732,1.438c.151.384.5.908,1.809,1.015a.856.856,0,0,1-.068,1.709Z" transform="translate(986.909 789.884)" fill="#243640"/>
      <g id="Grupo_8465" data-name="Grupo 8465" transform="translate(1269.723 1121.394)">
        <path id="Trazado_17433" data-name="Trazado 17433" d="M253.325,404.12a.856.856,0,0,1-.856-.856v-54.4l-12.5-10.574V286.917a.856.856,0,1,1,1.712,0V337.5l12.5,10.574v55.189A.856.856,0,0,1,253.325,404.12Z" transform="translate(-237.327 -285.508)" fill="#3a4a53"/>
        <g id="Grupo_8464" data-name="Grupo 8464">
          <path id="Trazado_17434" data-name="Trazado 17434" d="M234.468,288.675l.627.584,2.873-3.092,2.874,3.092.627-.584-3.5-3.764Z" transform="translate(-234.468 -284.911)" fill="#5f3bbf"/>
        </g>
      </g>
      <g id="Grupo_8467" data-name="Grupo 8467" transform="translate(1373.779 1213.981)">
        <path id="Trazado_17435" data-name="Trazado 17435" d="M453.761,521.791a.856.856,0,0,1-.856-.856V501.421l6.368-5.167V481.97a.856.856,0,1,1,1.712,0v15.1l-6.369,5.167v18.7A.856.856,0,0,1,453.761,521.791Z" transform="translate(-452.905 -480.081)" fill="#1c428c"/>
        <g id="Grupo_8466" data-name="Grupo 8466" transform="translate(3.724)">
          <path id="Trazado_17436" data-name="Trazado 17436" d="M460.654,482.729l.627.583,2.873-3.091,2.874,3.091.627-.583-3.5-3.765Z" transform="translate(-460.654 -478.964)" fill="#1c428c"/>
        </g>
      </g>
      <g id="Grupo_8469" data-name="Grupo 8469" transform="translate(1349.996 1138.792)">
        <path id="Trazado_17437" data-name="Trazado 17437" d="M403.871,370.919a.856.856,0,0,1-.539-1.521l9.776-7.914V322.927a.856.856,0,0,1,1.712,0V362.3l-10.411,8.428A.853.853,0,0,1,403.871,370.919Z" transform="translate(-403.015 -321.518)" fill="#03abf2"/>
        <g id="Grupo_8468" data-name="Grupo 8468" transform="translate(7.449 0)">
          <path id="Trazado_17438" data-name="Trazado 17438" d="M418.517,324.685l.627.584,2.873-3.091,2.874,3.091.627-.584-3.5-3.764Z" transform="translate(-418.517 -320.921)" fill="#03abf2"/>
        </g>
      </g>
      <g id="Grupo_8471" data-name="Grupo 8471" transform="translate(1295.949 1195.963)">
        <path id="Trazado_17439" data-name="Trazado 17439" d="M295.843,474.167a.856.856,0,0,1-.856-.856V443.96a.856.856,0,0,1,1.712,0v29.352A.856.856,0,0,1,295.843,474.167Z" transform="translate(-292.342 -442.071)" fill="#03abf2"/>
        <g id="Grupo_8470" data-name="Grupo 8470">
          <path id="Trazado_17440" data-name="Trazado 17440" d="M289.483,444.718l.627.584,2.873-3.092,2.874,3.092.627-.584-3.5-3.764Z" transform="translate(-289.483 -440.954)" fill="#03abf2"/>
        </g>
      </g>
      <g id="Grupo_8473" data-name="Grupo 8473" transform="translate(1347.413 1221.419)">
        <path id="Trazado_17441" data-name="Trazado 17441" d="M403.872,564.229a.856.856,0,0,1-.856-.856v-65.4a.856.856,0,0,1,1.712,0v65.4A.856.856,0,0,1,403.872,564.229Z" transform="translate(-400.371 -496.324)" fill="#2c2c2c"/>
        <g id="Grupo_8472" data-name="Grupo 8472" transform="translate(0)">
          <path id="Trazado_17442" data-name="Trazado 17442" d="M397.512,499.231l.627.584,2.873-3.092,2.874,3.092.627-.584-3.5-3.764Z" transform="translate(-397.512 -495.467)" fill="#2c2c2c"/>
        </g>
      </g>
      <path id="Trazado_17443" data-name="Trazado 17443" d="M327.882,483.2h0l-7.931-.024a.856.856,0,0,1,0-1.712h0l7.931.024a.856.856,0,0,1,0,1.712Z" transform="translate(990.952 733.953)" fill="#243640"/>
      <path id="Trazado_17444" data-name="Trazado 17444" d="M355.43,215.038h-.01l-21.966-.253a.857.857,0,0,1-.846-.866.847.847,0,0,1,.866-.846l21.966.253a.856.856,0,0,1-.01,1.712Z" transform="translate(983.819 874.499)" fill="#fff"/>
      <path id="Trazado_17445" data-name="Trazado 17445" d="M305.177,236.642c-5.388,0-7.3-4.78-7.552-7.4l-1.376-11.833a.856.856,0,0,1,.213-.67.823.823,0,0,1,.643-.284l6.557.044a.856.856,0,0,1-.006,1.712h-.006l-5.589-.038,1.265,10.888c.027.267.695,6.209,6.338,5.852a.856.856,0,1,1,.107,1.709Q305.467,236.642,305.177,236.642Z" transform="translate(1002.917 872.742)" fill="#85d4f7"/>
      <path id="Trazado_17446" data-name="Trazado 17446" d="M379.425,237.831a8.527,8.527,0,0,1-1.029-.064.856.856,0,0,1,.206-1.7,4.952,4.952,0,0,0,3.787-.924,8.135,8.135,0,0,0,2.5-4.835l1.414-10.879-5.408-.037a.856.856,0,0,1,.006-1.712h.006l6.375.044a.856.856,0,0,1,.843.966l-1.538,11.83c-.018.149-.492,3.89-3.141,5.97A6.337,6.337,0,0,1,379.425,237.831Z" transform="translate(960.289 872.106)" fill="#85d4f7"/>
      <path id="Trazado_17447" data-name="Trazado 17447" d="M324.371,214.942h-.006l-1.094-.008a.856.856,0,0,1,.006-1.712h.006l1.093.007a.856.856,0,0,1-.005,1.712Z" transform="translate(989.234 874.421)" fill="#fff"/>
      <path id="Trazado_17448" data-name="Trazado 17448" d="M343.185,242.9a.853.853,0,0,1-.4-.1l-3.577-1.911-3.6,1.862a.856.856,0,0,1-1.235-.911l.712-3.993L332.194,235a.856.856,0,0,1,.484-1.457l4.018-.555,1.82-3.625a.869.869,0,0,1,.77-.472.857.857,0,0,1,.765.482l1.771,3.649,4.01.61a.856.856,0,0,1,.464,1.463l-2.924,2.811.659,4a.857.857,0,0,1-.845,1Zm-3.974-3.835a.858.858,0,0,1,.4.1l2.444,1.306-.45-2.735a.857.857,0,0,1,.251-.756l2-1.922-2.74-.417a.854.854,0,0,1-.641-.473l-1.211-2.494-1.244,2.478a.855.855,0,0,1-.648.464l-2.745.38,1.972,1.948a.856.856,0,0,1,.241.759l-.487,2.729,2.462-1.273A.861.861,0,0,1,339.211,239.068Z" transform="translate(984.207 866.282)" fill="#fff"/>
      <path id="Trazado_17449" data-name="Trazado 17449" d="M337.589,289.892l9.912-.48a6,6,0,0,1,.8.056,21.8,21.8,0,0,1-2.235-4.126,17.605,17.605,0,0,1-1.144-4.671.855.855,0,0,0-.919-.789c-.471.037-3.25-.553-3.214-.082,0,.026-2.34,3.546-1.282,6.087C340.068,287.225,337.013,288.951,337.589,289.892Z" transform="translate(981.302 839.611)" fill="#85d4f7"/>
      <path id="Trazado_17450" data-name="Trazado 17450" d="M335.132,288.565l1.122.008c1.382-1.734,2.4-5.48,2.588-9.551a.856.856,0,1,0-1.71-.08c-.2,4.229-1.29,7.407-2.221,8.57-.306.382-.647.786-.989,1.181A4.967,4.967,0,0,1,335.132,288.565Z" transform="translate(983.205 840.392)" fill="#85d4f7"/>
      <path id="Trazado_17451" data-name="Trazado 17451" d="M345.748,305.651h-.006l-19.225-.13a.856.856,0,0,1-.846-.945c.042-.4.185-1.735.274-2.1.5-2.053,1.51-4.41,4.855-4.41h.049l10.5.071c2.672.018,4.178,1.322,4.883,4.227.005.023.01.047.014.07l.327,2.106a.857.857,0,0,1-.819,1.107Z" transform="translate(987.468 829.953)" fill="#85d4f7"/>
      <path id="Trazado_17452" data-name="Trazado 17452" d="M364.7,336.163a.856.856,0,0,1-.823-.62L359.306,319.6l-1.413-.566a.856.856,0,1,1,.635-1.589l1.8.721a.858.858,0,0,1,.505.559l4.686,16.342a.858.858,0,0,1-.823,1.092Z" transform="translate(970.923 819.812)" fill="#243640"/>
      <path id="Trazado_17453" data-name="Trazado 17453" d="M355.24,399.65a.855.855,0,0,1-.337-.07l-2.831-1.213a.856.856,0,0,1,.674-1.574l2.831,1.213a.856.856,0,0,1-.337,1.643Z" transform="translate(973.976 778.312)" fill="#1c428c"/>
      <path id="Trazado_17454" data-name="Trazado 17454" d="M315.564,336.381a.858.858,0,0,1-.817-1.112l5.393-17.181a.855.855,0,0,1,.669-.587l3.444-.6a.856.856,0,0,1,.294,1.686l-2.931.511-5.237,16.683A.856.856,0,0,1,315.564,336.381Z" transform="translate(993.246 820.072)" fill="#243640"/>
    </g>
    <path id="Trazado_17954" data-name="Trazado 17954" d="M412.936,577.216H136.742a.946.946,0,1,1,0-1.892H412.936a.946.946,0,1,1,0,1.892Z" transform="translate(1037.204 726.35)" fill="#3a4a53"/>
    <text id="Liderazgo" transform="translate(1312 1340)" fill="#5f3bbf" font-size="22" font-family="OpenSans-Bold, Open Sans" font-weight="700"><tspan x="-53.061" y="0">Liderazgo</tspan></text>
  </g>
</svg>
