<svg xmlns="http://www.w3.org/2000/svg" width="118" height="118" viewBox="0 0 118 118">
  <g id="Grupo_8633" data-name="Grupo 8633" transform="translate(-396 -2814)">
    <g id="Elipse_555" data-name="Elipse 555" transform="translate(396 2814)" fill="#f0f0f0" stroke="#3bdcf0" stroke-width="2">
      <circle cx="59" cy="59" r="59" stroke="none"/>
      <circle cx="59" cy="59" r="58" fill="none"/>
    </g>
    <path id="Trazado_17275" data-name="Trazado 17275" d="M3340.488,921.426h-40.544V900.965h40.544Zm-39.028-1.516h37.512V902.481H3301.46Z" transform="translate(-2888.574 1978.285)" fill="#5f3bbf"/>
    <path id="Trazado_17276" data-name="Trazado 17276" d="M3340.488,842.591h-40.544V821.75h40.544Zm-39.028-1.516h37.512V823.266H3301.46Z" transform="translate(-2888.574 2038.175)" fill="#5f3bbf"/>
    <path id="Trazado_17277" data-name="Trazado 17277" d="M3500.468,842.591h-40.543V821.75h40.543Zm-39.027-1.516h37.512V823.266h-37.512Z" transform="translate(-3009.527 2038.175)" fill="#5f3bbf"/>
    <path id="Trazado_17278" data-name="Trazado 17278" d="M3500.468,764.553h-40.543V744.092h40.543Zm-39.027-1.516h37.512V745.608h-37.512Z" transform="translate(-3009.527 2096.888)" fill="#5f3bbf"/>
    <path id="Trazado_17281" data-name="Trazado 17281" d="M3411.1,868.576h-11.746v-6.441H3411.1Zm-10.988-.758h10.231v-4.926h-10.231Z" transform="translate(-2963.729 2007.642)" fill="#5f3bbf"/>
    <rect id="Rectángulo_1973" data-name="Rectángulo 1973" width="0.757" height="2.652" transform="translate(437.515 2871.672)" fill="#5f3bbf"/>
    <rect id="Rectángulo_1974" data-name="Rectángulo 1974" width="0.379" height="2.652" transform="translate(440.168 2871.672)" fill="#5f3bbf"/>
    <rect id="Rectángulo_1975" data-name="Rectángulo 1975" width="0.379" height="2.652" transform="translate(444.715 2871.672)" fill="#5f3bbf"/>
    <rect id="Rectángulo_1976" data-name="Rectángulo 1976" width="0.379" height="2.652" transform="translate(439.031 2871.672)" fill="#5f3bbf"/>
    <rect id="Rectángulo_1977" data-name="Rectángulo 1977" width="0.758" height="2.652" transform="translate(441.304 2871.672)" fill="#5f3bbf"/>
    <rect id="Rectángulo_1978" data-name="Rectángulo 1978" width="1.137" height="2.652" transform="translate(442.82 2871.672)" fill="#5f3bbf"/>
    <path id="Trazado_17282" data-name="Trazado 17282" d="M3411.1,946.235h-11.746v-6.441H3411.1Zm-10.988-.758h10.231v-4.926h-10.231Z" transform="translate(-2963.729 1948.929)" fill="#5f3bbf"/>
    <rect id="Rectángulo_1979" data-name="Rectángulo 1979" width="0.757" height="2.652" transform="translate(437.515 2890.617)" fill="#5f3bbf"/>
    <rect id="Rectángulo_1980" data-name="Rectángulo 1980" width="0.379" height="2.652" transform="translate(440.168 2890.617)" fill="#5f3bbf"/>
    <rect id="Rectángulo_1981" data-name="Rectángulo 1981" width="0.379" height="2.652" transform="translate(444.715 2890.617)" fill="#5f3bbf"/>
    <rect id="Rectángulo_1982" data-name="Rectángulo 1982" width="0.379" height="2.652" transform="translate(439.031 2890.617)" fill="#5f3bbf"/>
    <rect id="Rectángulo_1983" data-name="Rectángulo 1983" width="0.758" height="2.652" transform="translate(441.304 2890.617)" fill="#5f3bbf"/>
    <rect id="Rectángulo_1984" data-name="Rectángulo 1984" width="1.137" height="2.652" transform="translate(442.82 2890.617)" fill="#5f3bbf"/>
    <path id="Trazado_17287" data-name="Trazado 17287" d="M3571.076,789.741H3559.33v-6.82h11.746Zm-10.988-.758h10.23v-5.3h-10.23Z" transform="translate(-3084.681 2067.532)" fill="#5f3bbf"/>
    <rect id="Rectángulo_1995" data-name="Rectángulo 1995" width="0.758" height="2.273" transform="translate(476.543 2852.726)" fill="#5f3bbf"/>
    <rect id="Rectángulo_1996" data-name="Rectángulo 1996" width="0.378" height="2.273" transform="translate(479.196 2852.726)" fill="#5f3bbf"/>
    <rect id="Rectángulo_1997" data-name="Rectángulo 1997" width="0.379" height="2.273" transform="translate(483.742 2852.726)" fill="#5f3bbf"/>
    <rect id="Rectángulo_1998" data-name="Rectángulo 1998" width="0.379" height="2.273" transform="translate(478.058 2852.726)" fill="#5f3bbf"/>
    <rect id="Rectángulo_1999" data-name="Rectángulo 1999" width="0.757" height="2.273" transform="translate(480.333 2852.726)" fill="#5f3bbf"/>
    <rect id="Rectángulo_2000" data-name="Rectángulo 2000" width="1.137" height="2.273" transform="translate(481.848 2852.726)" fill="#5f3bbf"/>
    <path id="Trazado_17288" data-name="Trazado 17288" d="M3571.076,868.576H3559.33v-6.441h11.746Zm-10.988-.758h10.23v-4.926h-10.23Z" transform="translate(-3084.681 2007.642)" fill="#5f3bbf"/>
    <rect id="Rectángulo_2001" data-name="Rectángulo 2001" width="0.758" height="2.652" transform="translate(476.543 2871.672)" fill="#5f3bbf"/>
    <rect id="Rectángulo_2002" data-name="Rectángulo 2002" width="0.378" height="2.652" transform="translate(479.196 2871.672)" fill="#5f3bbf"/>
    <rect id="Rectángulo_2003" data-name="Rectángulo 2003" width="0.379" height="2.652" transform="translate(483.742 2871.672)" fill="#5f3bbf"/>
    <rect id="Rectángulo_2004" data-name="Rectángulo 2004" width="0.379" height="2.652" transform="translate(478.058 2871.672)" fill="#5f3bbf"/>
    <rect id="Rectángulo_2005" data-name="Rectángulo 2005" width="0.757" height="2.652" transform="translate(480.333 2871.672)" fill="#5f3bbf"/>
    <rect id="Rectángulo_2006" data-name="Rectángulo 2006" width="1.137" height="2.652" transform="translate(481.848 2871.672)" fill="#5f3bbf"/>
    <path id="Trazado_17289" data-name="Trazado 17289" d="M3571.076,946.235H3559.33v-6.441h11.746Zm-10.988-.758h10.23v-4.926h-10.23Z" transform="translate(-3084.681 1948.929)" fill="#5f3bbf"/>
    <rect id="Rectángulo_2007" data-name="Rectángulo 2007" width="0.758" height="2.652" transform="translate(476.543 2890.617)" fill="#5f3bbf"/>
    <rect id="Rectángulo_2008" data-name="Rectángulo 2008" width="0.378" height="2.652" transform="translate(479.196 2890.617)" fill="#5f3bbf"/>
    <rect id="Rectángulo_2009" data-name="Rectángulo 2009" width="0.379" height="2.652" transform="translate(483.742 2890.617)" fill="#5f3bbf"/>
    <rect id="Rectángulo_2010" data-name="Rectángulo 2010" width="0.379" height="2.652" transform="translate(478.058 2890.617)" fill="#5f3bbf"/>
    <rect id="Rectángulo_2011" data-name="Rectángulo 2011" width="0.757" height="2.652" transform="translate(480.333 2890.617)" fill="#5f3bbf"/>
    <rect id="Rectángulo_2012" data-name="Rectángulo 2012" width="1.137" height="2.652" transform="translate(481.848 2890.617)" fill="#5f3bbf"/>
    <path id="Trazado_17322" data-name="Trazado 17322" d="M3500.468,921.426h-40.543V900.965h40.543Zm-39.027-1.516h37.512V902.481h-37.512Z" transform="translate(-3009.527 1978.285)" fill="#5f3bbf"/>
  </g>
</svg>
