<svg xmlns="http://www.w3.org/2000/svg" width="118" height="118" viewBox="0 0 118 118">
  <g id="Grupo_8636" data-name="Grupo 8636" transform="translate(-396 -3403)">
    <g id="Elipse_558" data-name="Elipse 558" transform="translate(396 3403)" fill="#f0f0f0" stroke="#3bdcf0" stroke-width="2">
      <circle cx="59" cy="59" r="59" stroke="none"/>
      <circle cx="59" cy="59" r="58" fill="none"/>
    </g>
    <g id="Grupo_8444" data-name="Grupo 8444" transform="translate(124 -281.155)">
      <path id="Trazado_17235" data-name="Trazado 17235" d="M1536.509,412.867a2.271,2.271,0,1,1,2.271-2.27A2.273,2.273,0,0,1,1536.509,412.867Zm0-2.814a.543.543,0,1,0,.542.544A.544.544,0,0,0,1536.509,410.053Z" transform="translate(-1238.366 3335.073)" fill="#5f3bbf"/>
      <path id="Trazado_17236" data-name="Trazado 17236" d="M1673.835,413.435a2.27,2.27,0,1,1,2.271-2.27A2.272,2.272,0,0,1,1673.835,413.435Zm0-2.812a.542.542,0,1,0,.542.542A.542.542,0,0,0,1673.835,410.624Z" transform="translate(-1311.52 3334.769)" fill="#5f3bbf"/>
      <path id="Trazado_17237" data-name="Trazado 17237" d="M1588.338,402.257a5.267,5.267,0,0,1-3.157-1.373c-.017-.015-.033-.03-.049-.047l-1.879-1.934a.865.865,0,1,1,1.241-1.2l1.852,1.908c.537.46,1.8,1.233,2.439.795a5.02,5.02,0,0,1,5.06-.435.864.864,0,0,1-.773,1.546,3.248,3.248,0,0,0-3.308.315A2.471,2.471,0,0,1,1588.338,402.257Z" transform="translate(-1264.346 3340.873)" fill="#5f3bbf"/>
      <path id="Trazado_17238" data-name="Trazado 17238" d="M1557.637,440.305a.86.86,0,0,1-.589-.232l-7.336-6.831a.864.864,0,1,1,1.178-1.265l7.335,6.831a.865.865,0,0,1-.589,1.5Z" transform="translate(-1246.462 3322.596)" fill="#5f3bbf"/>
      <path id="Trazado_17239" data-name="Trazado 17239" d="M1588.467,418.218a5.25,5.25,0,0,1-3.572-1.324c-.065-.065-.152-.143-.251-.234-.787-.717-1.974-1.8-1.531-2.942a.826.826,0,0,1,.108-.2l3.49-4.762a.856.856,0,0,1,.077-.091c.291-.3,7.131-7.351,7.609-7.837a.889.889,0,0,1,.11-.094c3.062-2.2,5.129-3.03,9.941-2.447a3.4,3.4,0,0,0,1.551-.457c.027-.025.112-.11.213-.21.717-.707,1.458-1.437,2.164-.74a.865.865,0,0,1-.4,1.455c-.159.132-.423.393-.549.517a3.985,3.985,0,0,1-.413.379,5.152,5.152,0,0,1-2.57.789.8.8,0,0,1-.133-.007c-4.23-.524-5.91.061-8.734,2.083-.757.772-6.937,7.144-7.507,7.731l-3.277,4.472a6.619,6.619,0,0,0,1.015,1.082c.118.107.221.2.3.279a3.671,3.671,0,0,0,3.419.646c.656-.263,2.28-1.165,5.785-4.247l.069-.06c1.334-1.344,2.529-1.56,3.651-.663l.042.033a.865.865,0,0,1-1.066,1.362l-.056-.044c-.215-.172-.458-.37-1.361.548l-.047.045-.09.078c-1.939,1.7-4.6,3.879-6.283,4.552A4.6,4.6,0,0,1,1588.467,418.218Z" transform="translate(-1264.35 3341.317)" fill="#5f3bbf"/>
      <path id="Trazado_17240" data-name="Trazado 17240" d="M1647.086,444.951a.865.865,0,0,1-.616-1.472c.652-.663,4.958-5.6,7.145-8.116a.864.864,0,0,1,1.305,1.134c-.26.3-6.365,7.328-7.218,8.2A.86.86,0,0,1,1647.086,444.951Z" transform="translate(-1298.019 3320.827)" fill="#5f3bbf"/>
      <path id="Trazado_17241" data-name="Trazado 17241" d="M1578.6,466.068h0a3.935,3.935,0,0,1-2.73-1.147,4.077,4.077,0,0,1-1.155-2.924,3.945,3.945,0,0,1-2.977-1.138,4.053,4.053,0,0,1-1.189-2.923,3.946,3.946,0,0,1-2.943-1.14,4.055,4.055,0,0,1-1.19-2.924,3.928,3.928,0,0,1-2.942-1.14,3.708,3.708,0,0,1-.251-5.11l1.964-2a.866.866,0,0,1,.28-.452c.351-.3.678-.628,1.023-.977s.717-.727,1.121-1.071a.891.891,0,0,1,.141-.1,3.516,3.516,0,0,1,1.707-.433,3.935,3.935,0,0,1,2.734,1.132,4.105,4.105,0,0,1,1.191,2.923,3.925,3.925,0,0,1,2.941,1.142,4.073,4.073,0,0,1,1.156,2.924,3.951,3.951,0,0,1,2.975,1.137,4.013,4.013,0,0,1,1.162,2.925,3.954,3.954,0,0,1,2.972,1.139,3.773,3.773,0,0,1,.742,4.444.872.872,0,0,1-.106.148c-.195.221-.393.437-.6.651-.015.016-.031.032-.048.047-.089.081-.18.16-.271.241a2.968,2.968,0,0,0-.92,1.08.858.858,0,0,1-.2.309l-2.212,2.25A3.312,3.312,0,0,1,1578.6,466.068Zm-2.365-6.515a.864.864,0,0,1,.616,1.47,1.972,1.972,0,0,0,.249,2.683,2.183,2.183,0,0,0,1.5.632h0a1.582,1.582,0,0,0,1.151-.464l2.093-2.129a4.68,4.68,0,0,1,1.328-1.6c.075-.066.151-.132.225-.2q.237-.252.467-.509a2.106,2.106,0,0,0-.508-2.312,2.188,2.188,0,0,0-1.5-.629,1.582,1.582,0,0,0-1.15.465.865.865,0,0,1-1.254-1.191,1.976,1.976,0,0,0-.229-2.705,2.189,2.189,0,0,0-1.5-.632,1.581,1.581,0,0,0-1.147.463l0,0a.864.864,0,1,1-1.232-1.213h0a1.969,1.969,0,0,0-.249-2.683,2.181,2.181,0,0,0-1.5-.633,1.59,1.59,0,0,0-1.112.428l-.059.058a.865.865,0,0,1-1.212-1.233l.078-.078a1.949,1.949,0,0,0-.326-2.606,2.141,2.141,0,0,0-2.3-.439c-.321.28-.623.586-.943.908-.252.255-.51.516-.784.77a.86.86,0,0,1-.207.343l-2.271,2.311a1.973,1.973,0,0,0,.249,2.684,2.186,2.186,0,0,0,1.5.632,1.578,1.578,0,0,0,1.15-.465.865.865,0,0,1,1.233,1.212,1.9,1.9,0,0,0,.25,2.685,2.184,2.184,0,0,0,1.5.632,1.583,1.583,0,0,0,1.15-.465.864.864,0,1,1,1.233,1.212,1.9,1.9,0,0,0,.25,2.685,2.186,2.186,0,0,0,1.5.632,1.584,1.584,0,0,0,1.149-.464h0A.861.861,0,0,1,1576.231,459.554Z" transform="translate(-1253.321 3316.817)" fill="#5f3bbf"/>
      <path id="Trazado_17242" data-name="Trazado 17242" d="M1622.021,431.719a14.466,14.466,0,0,1-7.022-2.142.865.865,0,0,1,.936-1.454h0c.058.037,5.846,3.684,10,.636a.864.864,0,1,1,1.023,1.393A8.161,8.161,0,0,1,1622.021,431.719Z" transform="translate(-1281.176 3324.599)" fill="#5f3bbf"/>
      <path id="Trazado_17243" data-name="Trazado 17243" d="M1612.908,485.276a5.038,5.038,0,0,1-3.434-1.7.865.865,0,1,1,1.339-1.094c.177.218,1.783,1.62,2.836.8a1.848,1.848,0,0,0,.752-1.264,2.575,2.575,0,0,0-.687-1.877c-.536-.645-.819-.979-.967-1.149a.866.866,0,0,1-.211-.2.887.887,0,0,1,.1-1.288c.657-.516,1.211.124,1.42.365.178.205.481.563.984,1.169a4.271,4.271,0,0,1,1.077,3.171,3.586,3.586,0,0,1-1.413,2.443A2.879,2.879,0,0,1,1612.908,485.276Z" transform="translate(-1278.34 3298.323)" fill="#5f3bbf"/>
      <path id="Trazado_17244" data-name="Trazado 17244" d="M1620.836,476.739a4.182,4.182,0,0,1-2.594-.951c-1.759-1.571-2.125-1.9-1.761-2.58a.874.874,0,0,1,.984-.433.86.86,0,0,1,.551.436c.115.122.45.46,1.377,1.287a2.046,2.046,0,0,0,2.366.2,2.161,2.161,0,0,0,.851-1.468,2.4,2.4,0,0,0-.611-1.8c-.975-1.174-1.3-1.533-1.4-1.638a.867.867,0,0,1,.09-1.451c.618-.347,1.07.153,1.313.422.271.3.717.826,1.328,1.562a4.138,4.138,0,0,1,1,3.095,3.873,3.873,0,0,1-1.511,2.647A3.173,3.173,0,0,1,1620.836,476.739Z" transform="translate(-1282.109 3303.167)" fill="#5f3bbf"/>
      <path id="Trazado_17245" data-name="Trazado 17245" d="M1630.17,468.721a4.183,4.183,0,0,1-2.592-.95,12.839,12.839,0,0,1-2.193-2.264.864.864,0,0,1,1.508-.844,14.028,14.028,0,0,0,1.836,1.818,2,2,0,0,0,2.366.194,2.151,2.151,0,0,0,.85-1.464,2.4,2.4,0,0,0-.61-1.806c-.948-1.14-1.3-1.505-1.409-1.612a.865.865,0,0,1,.23-1.579c.616-.16.849.091,2.509,2.086a4.139,4.139,0,0,1,1,3.1,3.865,3.865,0,0,1-1.51,2.643A3.179,3.179,0,0,1,1630.17,468.721Z" transform="translate(-1286.867 3307.452)" fill="#5f3bbf"/>
      <path id="Trazado_17246" data-name="Trazado 17246" d="M1639.607,458.586a3.48,3.48,0,0,1-2.274-.8c-.847-.779-1.466-1.464-1.492-1.493a.864.864,0,0,1,1.284-1.158c.006.006.594.657,1.379,1.38a1.946,1.946,0,0,0,2.292-.073,2.241,2.241,0,0,0,.921-1.538,1.962,1.962,0,0,0-.6-1.513c-1.761-1.89-2.739-2.825-2.749-2.834a.865.865,0,0,1,1.194-1.251c.041.038,1.018.974,2.819,2.906a3.663,3.663,0,0,1,1.063,2.831,3.968,3.968,0,0,1-1.586,2.766A3.625,3.625,0,0,1,1639.607,458.586Z" transform="translate(-1292.371 3313.368)" fill="#5f3bbf"/>
      <path id="Trazado_17247" data-name="Trazado 17247" d="M1581.361,467.194a.864.864,0,0,1-.624-1.463l4.3-4.483a.865.865,0,1,1,1.248,1.2l-4.3,4.483A.861.861,0,0,1,1581.361,467.194Z" transform="translate(-1263.007 3307.021)" fill="#5f3bbf"/>
      <path id="Trazado_17248" data-name="Trazado 17248" d="M1572.152,459.136a.865.865,0,0,1-.624-1.463l4.3-4.485a.865.865,0,0,1,1.248,1.2l-4.3,4.485A.866.866,0,0,1,1572.152,459.136Z" transform="translate(-1258.102 3311.315)" fill="#5f3bbf"/>
      <path id="Trazado_17249" data-name="Trazado 17249" d="M1590.572,476.4a.864.864,0,0,1-.624-1.463l4.3-4.483a.865.865,0,1,1,1.248,1.2l-4.3,4.483A.861.861,0,0,1,1590.572,476.4Z" transform="translate(-1267.914 3302.116)" fill="#5f3bbf"/>
      <path id="Trazado_17250" data-name="Trazado 17250" d="M1638.195,447.22a.861.861,0,0,1-.6-.243l-5.351-5.173a.865.865,0,0,1,1.2-1.243l5.351,5.173a.865.865,0,0,1-.6,1.486Z" transform="translate(-1290.432 3318.029)" fill="#5f3bbf"/>
      <path id="Trazado_17251" data-name="Trazado 17251" d="M1536.223,384.38a.865.865,0,0,1-.633-1.453l16.193-17.407-21.643-21.391a.864.864,0,1,1,1.215-1.229l22.239,21.981a.864.864,0,0,1,.025,1.2L1536.856,384.1A.864.864,0,0,1,1536.223,384.38Z" transform="translate(-1236.046 3370.058)" fill="#5f3bbf"/>
      <path id="Trazado_17252" data-name="Trazado 17252" d="M1654.084,381.334a.861.861,0,0,1-.606-.247l-17.824-17.5a.866.866,0,0,1-.006-1.229l25.17-25.17a.865.865,0,0,1,1.223,1.222l-24.554,24.553,17.2,16.892a.864.864,0,0,1-.606,1.481Z" transform="translate(-1292.252 3373.103)" fill="#5f3bbf"/>
      <path id="Trazado_17253" data-name="Trazado 17253" d="M1675.614,416.8a.864.864,0,0,1-.611-1.476l12.354-12.347a.864.864,0,0,1,1.222,1.223l-12.354,12.347A.861.861,0,0,1,1675.614,416.8Z" transform="translate(-1313.215 3338.057)" fill="#5f3bbf"/>
      <path id="Trazado_17254" data-name="Trazado 17254" d="M1526.724,415.457a.861.861,0,0,1-.595-.237l-13.684-12.973a.865.865,0,0,1,1.189-1.255l13.684,12.973a.865.865,0,0,1-.594,1.492Z" transform="translate(-1226.613 3339.105)" fill="#5f3bbf"/>
      <path id="Trazado_17264" data-name="Trazado 17264" d="M1523.586,344.667s-5.14,4.517-3.583,11.06c1.066,4.477,2.083,7.568,2.181,9.034.467,7.009-4.517,9.19-4.517,9.19l11.983,11.628,16.835-19.1Z" transform="translate(-1229.538 3368.983)" fill="#5f3bbf" opacity="0.65"/>
      <path id="Trazado_17265" data-name="Trazado 17265" d="M1662.144,340.334s-3.973,6.152-1.947,12.227c1.455,4.366,4.769,6.267,5.841,8.411a12.167,12.167,0,0,1,.234,10.982l-10.658,10.382L1638,364.945Z" transform="translate(-1293.639 3371.291)" fill="#5f3bbf" opacity="0.62"/>
    </g>
  </g>
</svg>
