<svg xmlns="http://www.w3.org/2000/svg" width="770.094" height="382.516" viewBox="0 0 770.094 382.516">
  <g id="Grupo_8636" data-name="Grupo 8636" transform="translate(-575 -3821.484)">
    <g id="Grupo_8461" data-name="Grupo 8461" transform="translate(185)">
      <g id="Trazado_17339" data-name="Trazado 17339" transform="translate(390 3821.484)" fill="#fff">
        <path d="M 769.59375 255.0156097412109 L 0.4999749958515167 255.0156097412109 L 0.4999749958515167 0.5000048875808716 L 769.59375 0.5000048875808716 L 769.59375 255.0156097412109 Z" stroke="none"/>
        <path d="M 1 1 L 1 254.5156097412109 L 769.09375 254.5156097412109 L 769.09375 1 L 1 1 M 0 0 L 770.09375 0 L 770.09375 255.5156097412109 L 0 255.5156097412109 L 0 0 Z" stroke="none" fill="#3a1b8d"/>
      </g>
      <g id="Trazado_17340" data-name="Trazado 17340" transform="translate(390 3821.484)" fill="#5f3bbf">
        <path d="M 769.59375 63.0156135559082 L 0.4999749958515167 63.0156135559082 L 0.4999749958515167 0.5000144243240356 L 769.59375 0.5000144243240356 L 769.59375 63.0156135559082 Z" stroke="none"/>
        <path d="M 1 1.000015258789063 L 1 62.5156135559082 L 769.09375 62.5156135559082 L 769.09375 1.000015258789063 L 1 1.000015258789063 M 0 1.52587890625e-05 L 770.09375 1.52587890625e-05 L 770.09375 63.5156135559082 L 0 63.5156135559082 L 0 1.52587890625e-05 Z" stroke="none" fill="#3a1b8d"/>
      </g>
      <g id="Trazado_17341" data-name="Trazado 17341" transform="translate(390 3884)" fill="#e2daf5">
        <path d="M 769.59375 64.5 L 0.4999749958515167 64.5 L 0.4999749958515167 0.5 L 769.59375 0.5 L 769.59375 64.5 Z" stroke="none"/>
        <path d="M 1 1 L 1 64 L 769.09375 64 L 769.09375 1 L 1 1 M 0 0 L 770.09375 0 L 770.09375 65 L 0 65 L 0 0 Z" stroke="none" fill="#3a1b8d"/>
      </g>
      <g id="Trazado_17342" data-name="Trazado 17342" transform="translate(390 3948)" fill="#d0c5ef">
        <path d="M 769.59375 64.5 L 0.4999749958515167 64.5 L 0.4999749958515167 0.5 L 769.59375 0.5 L 769.59375 64.5 Z" stroke="none"/>
        <path d="M 1 1 L 1 64 L 769.09375 64 L 769.09375 1 L 1 1 M 0 0 L 770.09375 0 L 770.09375 65 L 0 65 L 0 0 Z" stroke="none" fill="#3a1b8d"/>
      </g>
      <g id="Trazado_17343" data-name="Trazado 17343" transform="translate(390 4012)" fill="#e2daf5">
        <path d="M 769.59375 64.5 L 0.4999749958515167 64.5 L 0.4999749958515167 0.5 L 769.59375 0.5 L 769.59375 64.5 Z" stroke="none"/>
        <path d="M 1 1 L 1 64 L 769.09375 64 L 769.09375 1 L 1 1 M 0 0 L 770.09375 0 L 770.09375 65 L 0 65 L 0 0 Z" stroke="none" fill="#3a1b8d"/>
      </g>
      <text id="Artículo" transform="translate(410 3860)" fill="#fff" font-size="21" font-family="OpenSans-Bold, Open Sans" font-weight="700"><tspan x="0" y="0">Artículo</tspan></text>
      <text id="Descripción" transform="translate(547 3860)" fill="#fff" font-size="21" font-family="OpenSans-Bold, Open Sans" font-weight="700"><tspan x="0" y="0">Descripción</tspan></text>
      <text id="Actos_operaciones_y_empresas_mercantiles._Concepto" data-name="Actos, operaciones y empresas mercantiles. Concepto" transform="translate(547 3924)" fill="#3a1b8d" font-size="19" font-family="OpenSans-Bold, Open Sans" font-weight="700"><tspan x="0" y="0">Actos, operaciones y empresas mercantiles. Concepto</tspan></text>
      <text id="_20" data-name="20" transform="translate(432 3924)" fill="#3a1b8d" font-size="21" font-family="OpenSans-Bold, Open Sans" font-weight="700"><tspan x="0" y="0">20</tspan></text>
      <text id="Otros_actos_mercantiles" data-name="Otros actos mercantiles" transform="translate(547 3989)" fill="#3a1b8d" font-size="19" font-family="OpenSans-Bold, Open Sans" font-weight="700"><tspan x="0" y="0">Otros actos mercantiles</tspan></text>
      <text id="_21" data-name="21" transform="translate(432 3989)" fill="#3a1b8d" font-size="21" font-family="OpenSans-Bold, Open Sans" font-weight="700"><tspan x="0" y="0">21</tspan></text>
      <text id="Aplicación_de_la_ley_comercial_a_los_actos_mercantiles" data-name="Aplicación de la ley comercial a los actos mercantiles" transform="translate(547 4051)" fill="#3a1b8d" font-size="19" font-family="OpenSans-Bold, Open Sans" font-weight="700"><tspan x="0" y="0">Aplicación de la ley comercial a los actos mercantiles</tspan></text>
      <text id="_22" data-name="22" transform="translate(432 4053)" fill="#3a1b8d" font-size="21" font-family="OpenSans-Bold, Open Sans" font-weight="700"><tspan x="0" y="0">22</tspan></text>
      <g id="Trazado_17344" data-name="Trazado 17344" transform="translate(390 4076)" fill="#d0c5ef">
        <path d="M 769.59375 64.5 L 0.4999749958515167 64.5 L 0.4999749958515167 0.5 L 769.59375 0.5 L 769.59375 64.5 Z" stroke="none"/>
        <path d="M 1 1 L 1 64 L 769.09375 64 L 769.09375 1 L 1 1 M 0 0 L 770.09375 0 L 770.09375 65 L 0 65 L 0 0 Z" stroke="none" fill="#3a1b8d"/>
      </g>
      <text id="Actos_que_no_son_mercantiles." data-name="Actos que no son mercantiles." transform="translate(547 4114)" fill="#3a1b8d" font-size="19" font-family="OpenSans-Bold, Open Sans" font-weight="700"><tspan x="0" y="0">Actos que no son mercantiles.</tspan></text>
      <text id="_23" data-name="23" transform="translate(432 4116)" fill="#3a1b8d" font-size="21" font-family="OpenSans-Bold, Open Sans" font-weight="700"><tspan x="0" y="0">23</tspan></text>
      <g id="Trazado_17348" data-name="Trazado 17348" transform="translate(390 4139)" fill="#e2daf5">
        <path d="M 769.59375 64.5 L 0.4999749958515167 64.5 L 0.4999749958515167 0.5 L 769.59375 0.5 L 769.59375 64.5 Z" stroke="none"/>
        <path d="M 1 1 L 1 64 L 769.09375 64 L 769.09375 1 L 1 1 M 0 0 L 770.09375 0 L 770.09375 65 L 0 65 L 0 0 Z" stroke="none" fill="#3a1b8d"/>
      </g>
      <path id="Trazado_17347" data-name="Trazado 17347" d="M4152.938,699v382.516" transform="translate(-3640 3122.484)" fill="#fff" stroke="#3a1b8d" stroke-width="1"/>
      <text id="Alcance_declarativo" data-name="Alcance declarativo" transform="translate(547 4179)" fill="#3a1b8d" font-size="19" font-family="OpenSans-Bold, Open Sans" font-weight="700"><tspan x="0" y="0">Alcance declarativo</tspan></text>
      <text id="_24" data-name="24" transform="translate(432 4179)" fill="#3a1b8d" font-size="21" font-family="OpenSans-Bold, Open Sans" font-weight="700"><tspan x="0" y="0">24</tspan></text>
    </g>
  </g>
</svg>
