<svg xmlns="http://www.w3.org/2000/svg" width="429.983" height="314.114" viewBox="0 0 429.983 314.114">
  <g id="Grupo_8638" data-name="Grupo 8638" transform="translate(-745 -4489.618)">
    <g id="Grupo_8460" data-name="Grupo 8460" transform="translate(645.727 4247.631)">
      <g id="Grupo_8446" data-name="Grupo 8446" transform="translate(268.982 249.735)">
        <path id="Trazado_17349" data-name="Trazado 17349" d="M296.411,261.306a1.231,1.231,0,0,1-1.161-1.239,1.121,1.121,0,0,1,1.16-1.115l13.687.03h0a1.091,1.091,0,0,1,1.162,1.073,1.192,1.192,0,0,1-1.161,1.2l-13.687.053Z" transform="translate(-295.25 -252.009)"/>
        <path id="Trazado_17350" data-name="Trazado 17350" d="M304.321,267.2a1.3,1.3,0,0,1-1.162-1.308l-.017-13.743a1.211,1.211,0,0,1,1.16-1.218h0a1.146,1.146,0,0,1,1.162,1.142l.017,13.825a1.288,1.288,0,0,1-1.16,1.3Z" transform="translate(-296.308 -250.934)"/>
      </g>
      <path id="Trazado_17351" data-name="Trazado 17351" d="M126.736,428.995a5.612,5.612,0,1,1,5.612-5.611A5.616,5.616,0,0,1,126.736,428.995Zm0-9.336a3.724,3.724,0,1,0,3.724,3.725A3.726,3.726,0,0,0,126.736,419.659Z" transform="translate(-2.929 -23.561)"/>
      <path id="Trazado_17352" data-name="Trazado 17352" d="M489.3,354.808a8.937,8.937,0,1,1,8.938-8.936A8.943,8.943,0,0,1,489.3,354.808Zm0-15.277a6.34,6.34,0,1,0,6.341,6.341A6.345,6.345,0,0,0,489.3,339.531Z" transform="translate(-51.08 -12.726)"/>
      <g id="Grupo_8447" data-name="Grupo 8447" transform="translate(144.282 441.871)">
        <path id="Trazado_17353" data-name="Trazado 17353" d="M152.119,479.711a.892.892,0,0,1-.871-.895.78.78,0,0,1,.87-.758l9.01.1h0a.772.772,0,0,1,.872.744.838.838,0,0,1-.87.832l-9.01-.027Z" transform="translate(-151.248 -473.513)"/>
        <path id="Trazado_17354" data-name="Trazado 17354" d="M157.326,483.655a.961.961,0,0,1-.871-.968l-.01-9.008a.869.869,0,0,1,.87-.87h0a.83.83,0,0,1,.872.818l.01,9.082a.935.935,0,0,1-.87.946Z" transform="translate(-151.944 -472.809)"/>
      </g>
      <g id="Grupo_8448" data-name="Grupo 8448" transform="translate(467.208 356.65)">
        <path id="Trazado_17355" data-name="Trazado 17355" d="M525.029,381.311c-.482,0-.871-.248-.872-.728a.846.846,0,0,1,.871-.841l9.01.02h0a.906.906,0,0,1,.872.909.776.776,0,0,1-.871.751l-9.01-.111Z" transform="translate(-524.157 -375.113)" fill="#5f3bbf"/>
        <path id="Trazado_17356" data-name="Trazado 17356" d="M530.236,385.243a.817.817,0,0,1-.872-.8l-.01-9.09a.943.943,0,0,1,.87-.953h0a.976.976,0,0,1,.872.985l.009,9a.862.862,0,0,1-.87.863Z" transform="translate(-524.854 -374.397)" fill="#5f3bbf"/>
      </g>
      <g id="Grupo_8449" data-name="Grupo 8449" transform="translate(371.844 478.137)">
        <path id="Trazado_17357" data-name="Trazado 17357" d="M432.979,558.473c-.256,0-.513-.005-.771-.016a18.941,18.941,0,1,1,9.278-35.849,1.55,1.55,0,0,1-1.394,2.768,15.843,15.843,0,1,0-7.759,29.985,15.854,15.854,0,0,0,15.474-21.4,1.549,1.549,0,0,1,2.9-1.091,18.952,18.952,0,0,1-17.728,25.6Z" transform="translate(-414.032 -515.48)" fill="#3bdcf0"/>
        <path id="Trazado_17358" data-name="Trazado 17358" d="M435,545.052l-9.022-10.289a1.549,1.549,0,0,1,2.33-2.042l6.57,7.492,19.754-24.938a1.55,1.55,0,0,1,2.429,1.925Z" transform="translate(-415.582 -514.689)" fill="#3bdcf0"/>
      </g>
      <path id="Trazado_17359" data-name="Trazado 17359" d="M352.184,416.974A65.975,65.975,0,1,1,286.208,351,65.975,65.975,0,0,1,352.184,416.974Z" transform="translate(-16.213 -14.611)" fill="#3bdcf0"/>
      <path id="Trazado_17360" data-name="Trazado 17360" d="M408.678,494.586A2.584,2.584,0,1,1,406.095,492,2.584,2.584,0,0,1,408.678,494.586Z" transform="translate(-40.778 -33.51)"/>
      <path id="Trazado_17361" data-name="Trazado 17361" d="M527.706,604.239H100.822a1.549,1.549,0,1,1,0-3.1H527.706a1.549,1.549,0,0,1,0,3.1Z" transform="translate(0 -48.139)"/>
      <path id="Trazado_17362" data-name="Trazado 17362" d="M356.153,388.382a1.549,1.549,0,0,1-1.532-1.331l-4.868-34.186.216-.433c.045-.09,1.114-2.226,1.889-3.552a1.549,1.549,0,1,1,2.676,1.562c-.526.9-1.227,2.261-1.576,2.947l4.732,33.225a1.55,1.55,0,0,1-1.316,1.752A1.568,1.568,0,0,1,356.153,388.382Z" transform="translate(-33.573 -14.224)"/>
      <path id="Trazado_17363" data-name="Trazado 17363" d="M344.529,389.462h0a1.519,1.519,0,0,1-1.545-1.52c0-.246.068-24.421-.142-33.606l-2.105-4a1.548,1.548,0,1,1,2.744-1.434l2.442,4.652.009.363c.22,8.934.152,33.784.152,34.034A1.521,1.521,0,0,1,344.529,389.462Z" transform="translate(-32.34 -14.219)"/>
      <path id="Trazado_17364" data-name="Trazado 17364" d="M342.922,464.255a1.55,1.55,0,0,1-.228-3.083l5.773-.866a1.549,1.549,0,1,1,.46,3.065l-5.773.867A1.619,1.619,0,0,1,342.922,464.255Z" transform="translate(-32.45 -29.26)"/>
      <path id="Trazado_17365" data-name="Trazado 17365" d="M315.233,460.182l-.08,0a1.548,1.548,0,0,1-1.469-1.625l.866-17.033a1.549,1.549,0,0,1,3.095.158l-.866,17.033A1.55,1.55,0,0,1,315.233,460.182Z" transform="translate(-28.738 -26.547)"/>
      <path id="Trazado_17366" data-name="Trazado 17366" d="M375.931,420.645a1.445,1.445,0,0,1-.2-.014l-59.33-7.795a1.549,1.549,0,0,1-1.3-1.165c-.081-.326-8.112-32.891-10.423-49.09-.972-6.807,2.411-11.629,11.675-16.646.38-.206,1.144-.641,2.069-1.167,2.22-1.261,5.261-2.989,6.437-3.524a1.549,1.549,0,1,1,1.283,2.82c-1.049.477-4.141,2.235-6.188,3.4-.949.539-1.734.985-2.124,1.2-10.285,5.57-10.621,9.714-10.082,13.482,2.058,14.43,8.729,42.093,10.112,47.758l57.454,7.549,5.106-5.872a1.549,1.549,0,0,1,1.016-.525l1.315-.132,1.011-2.021-4.226-1.565a1.55,1.55,0,0,1,1.076-2.906l5.846,2.165a1.549,1.549,0,0,1,.848,2.146l-2.166,4.331a1.547,1.547,0,0,1-1.232.85l-1.553.155-5.249,6.037A1.554,1.554,0,0,1,375.931,420.645Z" transform="translate(-27.509 -13.285)"/>
      <path id="Trazado_17367" data-name="Trazado 17367" d="M383.321,382.17a1.542,1.542,0,0,1-1.019-.384l-3.465-3.032a1.541,1.541,0,0,1-.463-.716c-.061-.2-6.194-20.451-6.932-22.965-1.027-3.5-1.816-4.44-3.195-5.217-5.49-3.1-14.2-6.817-14.283-6.854a1.549,1.549,0,0,1,1.215-2.851c.363.154,8.95,3.822,14.59,7,2.6,1.465,3.639,3.606,4.647,7.045.674,2.3,5.9,19.569,6.8,22.513l3.131,2.74a1.55,1.55,0,0,1-1.021,2.716Z" transform="translate(-34.011 -13.141)"/>
      <path id="Trazado_17368" data-name="Trazado 17368" d="M321.642,584.288c-5.782,0-13.36-.221-13.823-.234l-1.558-.047.055-1.558c.026-.733,2.662-74.037,6.367-124.294a1.55,1.55,0,0,1,3.091.228c-3.4,46.122-5.9,111.7-6.305,122.616,5.332.139,15.58.333,17.822.025.394-.039.552-.656.57-.727a1.919,1.919,0,0,0-.538-1.966c-.56-.359-1.128-.649-1.786-.985-.6-.309-1.289-.659-2.105-1.132l-.878-.507.114-1.008c1.8-15.891,4.2-34.284,6.974-55.581,2.322-17.82,4.723-36.247,7.142-56.017l.09-.733.626-.392a5.435,5.435,0,0,1,3.1-.467c.2.007.366.018.479.012l1.438-.21.254,1.426c7.058,33.283,20.1,107.109,21.964,117.709,3.739.034,14.533.127,17.926.132a1.988,1.988,0,0,0,.371-1.071,2.268,2.268,0,0,0-.884-2.006,9.531,9.531,0,0,0-2.458-1.415c-.371-.173-.817-.382-1.366-.644l-.781-.372-.092-.861c-1.746-16.332-5.359-42.237-8.545-65.091-2.908-20.852-5.419-38.859-6.134-46.675a1.55,1.55,0,1,1,3.086-.282c.708,7.742,3.214,25.716,6.117,46.527,3.135,22.48,6.681,47.909,8.465,64.327.205.1.392.184.564.263a12.444,12.444,0,0,1,3.051,1.78,5.372,5.372,0,0,1,1.924,5.579,3.831,3.831,0,0,1-2.789,3.059l-.275.069h-.059c-3.819,0-19.281-.188-19.437-.189l-1.289-.035-.223-1.281c-.144-.818-14.283-81.378-21.912-117.667-.087,0-.182,0-.268,0-2.379,19.391-4.836,38.251-7.01,54.929-2.714,20.826-5.066,38.873-6.85,54.5.382.2.737.385,1.083.563A23.249,23.249,0,0,1,329,575.722a4.927,4.927,0,0,1,1.878,5.3,3.761,3.761,0,0,1-3.223,3.078C326.639,584.24,324.335,584.288,321.642,584.288Z" transform="translate(-27.744 -28.782)"/>
      <path id="Trazado_17369" data-name="Trazado 17369" d="M349.488,340.068a1.55,1.55,0,0,1-1.152-2.586,13.823,13.823,0,0,1,3.824-2.936,49.176,49.176,0,0,1-.112-6.638l.043-.869.765-.416c2.833-1.536,4.551-5.644,4.967-11.878.882-13.216-.684-16.787-.7-16.821a1.532,1.532,0,0,1,.654-2.076,1.57,1.57,0,0,1,2.105.664c.206.388,1.984,4.207,1.033,18.439-.462,6.94-2.413,11.618-5.8,13.924a42.426,42.426,0,0,0,.243,6.4l.17,1.239-1.176.429a10.628,10.628,0,0,0-3.708,2.612A1.546,1.546,0,0,1,349.488,340.068Z" transform="translate(-33.33 -7.196)"/>
      <path id="Trazado_17370" data-name="Trazado 17370" d="M337.913,305.228c-.025,0-.05,0-.075,0a1.549,1.549,0,0,1-1.474-1.621c.074-1.559,1.489-4.507,6.311-4.507.8,0,1.574.01,2.325.018,5.333.067,8.3-.012,9.471-2.3a11.505,11.505,0,0,0-8.531-7.745c-7.174-1.744-12.113,2.284-13.54,5.232a16.588,16.588,0,0,0-1.374,8.357,1.55,1.55,0,0,1-3.072.416,19.531,19.531,0,0,1,1.656-10.123c2.318-4.79,9.087-8.834,17.063-6.893,5.58,1.357,9.875,5.511,10.943,10.583l.094.448-.164.427c-1.852,4.822-6.827,4.762-12.584,4.694-.739-.009-1.5-.018-2.288-.018-3.056,0-3.215,1.541-3.216,1.555A1.548,1.548,0,0,1,337.913,305.228Z" transform="translate(-30.637 -5.841)"/>
      <path id="Trazado_17371" data-name="Trazado 17371" d="M328.256,341.663a1.55,1.55,0,0,1-.762-2.9l2.669-1.5.294-14.646a1.52,1.52,0,0,1,1.58-1.518,1.55,1.55,0,0,1,1.518,1.58l-.33,16.416-4.212,2.37A1.541,1.541,0,0,1,328.256,341.663Z" transform="translate(-30.483 -10.603)"/>
      <path id="Trazado_17372" data-name="Trazado 17372" d="M333.891,322.1a1.656,1.656,0,0,1-.2-.012c-4.112-.519-5.585-2.71-6.1-4.457a5.893,5.893,0,0,1,3.807-7.13,5.619,5.619,0,0,1,5.035.7,1.549,1.549,0,0,1-1.793,2.528,2.48,2.48,0,0,0-2.25-.294,2.766,2.766,0,0,0-1.825,3.324c.237.807.858,1.919,3.511,2.253a1.55,1.55,0,0,1-.192,3.087Z" transform="translate(-30.574 -9.142)"/>
      <path id="Trazado_17373" data-name="Trazado 17373" d="M372.275,409.078a1.538,1.538,0,0,1-.3-.029L330.4,400.967a1.55,1.55,0,0,1-1.231-1.257l-5.773-33.2a1.549,1.549,0,0,1,3.053-.531l5.591,32.151,39.978,7.772,3.4-1.891a1.55,1.55,0,0,1,1.505,2.71l-3.9,2.165A1.547,1.547,0,0,1,372.275,409.078Z" transform="translate(-30.037 -16.447)"/>
      <path id="Trazado_17374" data-name="Trazado 17374" d="M372.238,428.4a1.465,1.465,0,0,1-.229-.017,1.549,1.549,0,0,1-1.307-1.758l.872-5.923a1.55,1.55,0,0,1,3.066.452l-.873,5.922A1.55,1.55,0,0,1,372.238,428.4Z" transform="translate(-36.378 -23.776)"/>
      <path id="Trazado_17375" data-name="Trazado 17375" d="M350.057,334.594a10.42,10.42,0,0,1-5.275-1.342,1.55,1.55,0,0,1,1.562-2.678,8.737,8.737,0,0,0,6.252.586,1.55,1.55,0,0,1,.948,2.95A12.39,12.39,0,0,1,350.057,334.594Z" transform="translate(-32.804 -11.845)"/>
      <path id="Trazado_17376" data-name="Trazado 17376" d="M390.483,404.4a1.6,1.6,0,0,1-.336-.037,1.549,1.549,0,0,1-1.179-1.847l5-22.6a8.892,8.892,0,0,1,10.605-6.763l3.868.856a1.549,1.549,0,0,1-.669,3.026l-3.869-.856a5.794,5.794,0,0,0-6.91,4.406l-5,22.6A1.55,1.55,0,0,1,390.483,404.4Z" transform="translate(-38.824 -17.551)"/>
      <path id="Trazado_17377" data-name="Trazado 17377" d="M424.2,457.437a9.018,9.018,0,0,1-1.94-.213l-35.52-7.856a8.893,8.893,0,0,1-6.764-10.606l1.794-8.11a1.55,1.55,0,0,1,3.026.67l-1.794,8.109a5.8,5.8,0,0,0,4.408,6.911l35.52,7.856a5.8,5.8,0,0,0,6.91-4.408L442.6,392.108a5.794,5.794,0,0,0-4.407-6.91l-2.213-.49a1.55,1.55,0,1,1,.67-3.026l2.213.49a8.893,8.893,0,0,1,6.763,10.6L432.871,450.46a8.9,8.9,0,0,1-8.666,6.977Z" transform="translate(-37.596 -18.719)"/>
      <path id="Trazado_17378" data-name="Trazado 17378" d="M198.256,308.524H167.267v-32.54H190.51a1.55,1.55,0,0,1,0,3.1H170.365v26.341h24.792v-13.17a1.55,1.55,0,0,1,3.1,0Z" transform="translate(-9.113 -4.557)" fill="#5f3bbf"/>
      <path id="Trazado_17379" data-name="Trazado 17379" d="M227.587,423.621H178V371.713h49.583Zm-46.485-3.1h43.386v-45.71H181.1Z" transform="translate(-10.552 -17.388)"/>
      <path id="Trazado_17380" data-name="Trazado 17380" d="M453.409,281.5H417.771V241.987h35.638Zm-32.539-3.1h29.44V245.086H420.87Z" transform="translate(-42.69 0)"/>
      <path id="Trazado_17381" data-name="Trazado 17381" d="M465.344,292H439a1.549,1.549,0,1,1,0-3.1h23.242V264.114a1.549,1.549,0,1,1,3.1,0Z" transform="translate(-45.328 -2.758)"/>
      <path id="Trazado_17382" data-name="Trazado 17382" d="M280.9,372.247h-3.669a6.593,6.593,0,0,1-6.367-4.557,12.56,12.56,0,0,1-.811-4.142V306.24a8.063,8.063,0,0,0-8.305-8.369H218.917a1.55,1.55,0,1,1,0-3.1h42.827a11.186,11.186,0,0,1,11.4,11.468v57.308c0,.225.078,5.6,4.079,5.6H280.9a1.549,1.549,0,1,1,0,3.1Z" transform="translate(-15.829 -7.075)"/>
      <path id="Trazado_17383" data-name="Trazado 17383" d="M423.828,340.971H394.27a1.55,1.55,0,1,1,0-3.1h29.558a8.313,8.313,0,0,0,8.4-8.591v-17.75a1.55,1.55,0,1,1,3.1,0v17.75A11.475,11.475,0,0,1,423.828,340.971Z" transform="translate(-39.332 -9.113)"/>
      <path id="Trazado_17384" data-name="Trazado 17384" d="M213.65,390.02H191.182a1.549,1.549,0,1,1,0-3.1H213.65a1.549,1.549,0,1,1,0,3.1Z" transform="translate(-12.111 -19.426)"/>
      <path id="Trazado_17385" data-name="Trazado 17385" d="M212.876,402.546H191.182a1.55,1.55,0,0,1,0-3.1h21.693a1.55,1.55,0,0,1,0,3.1Z" transform="translate(-12.111 -21.105)"/>
      <path id="Trazado_17386" data-name="Trazado 17386" d="M201.254,415.071H191.182a1.549,1.549,0,1,1,0-3.1h10.072a1.549,1.549,0,1,1,0,3.1Z" transform="translate(-12.111 -22.784)"/>
      <path id="Trazado_17387" data-name="Trazado 17387" d="M444.3,256.717H426.477a1.55,1.55,0,0,1,0-3.1H444.3a1.55,1.55,0,1,1,0,3.1Z" transform="translate(-43.649 -1.559)"/>
      <path id="Trazado_17388" data-name="Trazado 17388" d="M436.789,266.558h-8.522a1.55,1.55,0,1,1,0-3.1h8.522a1.55,1.55,0,0,1,0,3.1Z" transform="translate(-43.889 -2.878)"/>
      <path id="Trazado_17389" data-name="Trazado 17389" d="M185.169,299.038l-7.717-11.317a1.55,1.55,0,0,1,2.561-1.746l5.276,7.738,18.188-24.251a1.55,1.55,0,1,1,2.479,1.86Z" transform="translate(-10.443 -3.6)" fill="#5f3bbf"/>
      <path id="Trazado_17390" data-name="Trazado 17390" d="M198.616,435.27H169.951V408.154a1.549,1.549,0,1,1,3.1,0v24.017h25.567a1.55,1.55,0,0,1,0,3.1Z" transform="translate(-9.473 -22.064)"/>
      <path id="Trazado_17391" data-name="Trazado 17391" d="M289.567,415.071H254.7a1.549,1.549,0,1,1,0-3.1h34.864a1.549,1.549,0,1,1,0,3.1Z" transform="translate(-20.625 -22.784)"/>
      <path id="Trazado_17392" data-name="Trazado 17392" d="M201,515.273H177.763a1.55,1.55,0,1,1,0-3.1H201a1.55,1.55,0,0,1,0,3.1Z" transform="translate(-10.313 -36.214)"/>
      <path id="Trazado_17393" data-name="Trazado 17393" d="M437.117,386.468a1.588,1.588,0,0,1-.332-.036l-23.778-5.22a1.55,1.55,0,0,1-1.181-1.846l2.1-9.55a1.55,1.55,0,0,1,1.845-1.181l4.652,1.022a7.848,7.848,0,0,1,14.314,3.143l4.811,1.057a1.549,1.549,0,0,1,1.181,1.845l-2.1,9.549a1.55,1.55,0,0,1-1.514,1.218Zm-21.931-7.95,20.75,4.555,1.431-6.523-4.429-.972a1.55,1.55,0,0,1-1.217-1.538,4.76,4.76,0,0,0-3.73-4.7,4.827,4.827,0,0,0-1.024-.112,4.74,4.74,0,0,0-4.332,2.821,1.554,1.554,0,0,1-1.749.887l-4.269-.938Z" transform="translate(-41.888 -16.639)" fill="#1a1a1a"/>
      <g id="Grupo_8452" data-name="Grupo 8452" transform="translate(422.341 391.768)">
        <path id="Trazado_17394" data-name="Trazado 17394" d="M549.044,478.849h-75.15a1.549,1.549,0,0,1-1.549-1.549V426.942a1.549,1.549,0,0,1,1.549-1.549H522.7a1.549,1.549,0,1,1,0,3.1h-47.26v47.259H547.5v-27.89a1.55,1.55,0,0,1,3.1,0V477.3A1.55,1.55,0,0,1,549.044,478.849Z" transform="translate(-472.345 -416.35)"/>
        <g id="Grupo_8451" data-name="Grupo 8451" transform="translate(14.483)">
          <path id="Trazado_17395" data-name="Trazado 17395" d="M491.2,463.468l-2.127-2.255,23.258-21.938,11.406,10.37,33.4-30.769,2.1,2.279-35.491,32.69L512.366,443.5Z" transform="translate(-489.07 -415.477)"/>
          <g id="Grupo_8450" data-name="Grupo 8450" transform="translate(64.962)">
            <path id="Trazado_17396" data-name="Trazado 17396" d="M570.368,423.8l2.764-8.848-9.045,2.029Z" transform="translate(-564.087 -414.951)"/>
          </g>
        </g>
      </g>
      <g id="Grupo_8459" data-name="Grupo 8459" transform="translate(205.072 437.223)">
        <path id="Trazado_17397" data-name="Trazado 17397" d="M265.429,538.063H228.8a1.547,1.547,0,0,1-1.6-1.5v-22.08a1.57,1.57,0,0,1,.472-1.09L239.1,501.877l-11.43-11.517a1.565,1.565,0,0,1-.466-1.089V469.726a1.462,1.462,0,0,1,1.6-1.39h36.624a1.218,1.218,0,0,1,1.291,1.39V489.27a1.45,1.45,0,0,1-.3,1.071l-10.987,11.536,10.955,11.537a1.467,1.467,0,0,1,.333,1.071v22.08C266.72,537.42,266.286,538.063,265.429,538.063Zm-35.122-3.1h33.314V515.108L252.1,502.95a1.554,1.554,0,0,1-.065-2.145l11.583-12.157V471.434H230.307v17.2l12.068,12.156a1.551,1.551,0,0,1-.011,2.181l-12.057,12.155Z" transform="translate(-222.219 -467.561)" fill="#1a1a1a"/>
        <path id="Trazado_17398" data-name="Trazado 17398" d="M270.609,470.539H223a1.549,1.549,0,1,1,0-3.1h47.612a1.549,1.549,0,1,1,0,3.1Z" transform="translate(-221.447 -467.441)"/>
        <path id="Trazado_17399" data-name="Trazado 17399" d="M270.609,548.375H223a1.55,1.55,0,1,1,0-3.1h47.612a1.55,1.55,0,0,1,0,3.1Z" transform="translate(-221.447 -477.874)"/>
        <g id="Grupo_8455" data-name="Grupo 8455" transform="translate(16.102 43.355)">
          <g id="Grupo_8454" data-name="Grupo 8454">
            <g id="Grupo_8453" data-name="Grupo 8453">
              <path id="Trazado_17400" data-name="Trazado 17400" d="M244.3,525.726a4.113,4.113,0,1,1,0-8.22A4.113,4.113,0,1,1,244.3,525.726Zm12.774-7.905L245.034,536.2h-3.717l12.067-18.376Zm-12.774,5.5a1.715,1.715,0,0,0,0-3.429A1.715,1.715,0,0,0,244.3,523.318Zm9.946,13.035a4.113,4.113,0,1,1,0-8.22A4.113,4.113,0,1,1,254.248,536.353Zm0-2.382a1.714,1.714,0,0,0,0-3.428A1.714,1.714,0,0,0,254.248,533.971Z" transform="translate(-240.041 -517.506)"/>
            </g>
          </g>
        </g>
        <g id="Grupo_8456" data-name="Grupo 8456" transform="translate(23.583 6.567)">
          <path id="Trazado_17401" data-name="Trazado 17401" d="M250.23,496.436a1.55,1.55,0,0,1-1.55-1.549V476.574a1.55,1.55,0,1,1,3.1,0v18.313A1.549,1.549,0,0,1,250.23,496.436Z" transform="translate(-248.68 -475.024)"/>
        </g>
        <g id="Grupo_8457" data-name="Grupo 8457" transform="translate(16.61 12.06)">
          <path id="Trazado_17402" data-name="Trazado 17402" d="M242.178,489.961a1.55,1.55,0,0,1-1.55-1.549v-5.494a1.55,1.55,0,1,1,3.1,0v5.494A1.549,1.549,0,0,1,242.178,489.961Z" transform="translate(-240.628 -481.368)"/>
        </g>
        <g id="Grupo_8458" data-name="Grupo 8458" transform="translate(31.331 8.398)">
          <path id="Trazado_17403" data-name="Trazado 17403" d="M259.177,489.394a1.549,1.549,0,0,1-1.55-1.549v-9.156a1.55,1.55,0,1,1,3.1,0v9.156A1.55,1.55,0,0,1,259.177,489.394Z" transform="translate(-257.627 -477.139)"/>
        </g>
      </g>
      <path id="Trazado_17404" data-name="Trazado 17404" d="M432.773,405.573a1.6,1.6,0,0,1-.353-.041l-24.828-5.774a1.55,1.55,0,1,1,.7-3.019l24.829,5.774a1.55,1.55,0,0,1-.349,3.059Z" transform="translate(-41.164 -20.737)"/>
      <path id="Trazado_17405" data-name="Trazado 17405" d="M423.771,443.58a1.6,1.6,0,0,1-.353-.041l-24.828-5.774a1.55,1.55,0,0,1,.7-3.02l24.828,5.775a1.55,1.55,0,0,1-.349,3.059Z" transform="translate(-39.958 -25.831)"/>
      <path id="Trazado_17406" data-name="Trazado 17406" d="M430.621,417.8a1.531,1.531,0,0,1-.34-.038l-19.342-4.329a1.549,1.549,0,1,1,.677-3.024l19.342,4.329a1.55,1.55,0,0,1-.337,3.062Z" transform="translate(-41.611 -22.569)"/>
      <path id="Trazado_17407" data-name="Trazado 17407" d="M427.621,430.8a1.59,1.59,0,0,1-.341-.038l-19.342-4.33a1.55,1.55,0,0,1,.677-3.025l19.343,4.33a1.55,1.55,0,0,1-.337,3.063Z" transform="translate(-41.209 -24.312)"/>
      <path id="Trazado_17408" data-name="Trazado 17408" d="M515.943,497.49a1.549,1.549,0,0,1-1.549-1.549V485.094a1.55,1.55,0,0,1,3.1,0V495.94A1.549,1.549,0,0,1,515.943,497.49Z" transform="translate(-55.64 -32.377)"/>
      <path id="Trazado_17409" data-name="Trazado 17409" d="M527.2,505.432H501.629a1.55,1.55,0,1,1,0-3.1H527.2a1.55,1.55,0,0,1,0,3.1Z" transform="translate(-53.722 -34.895)"/>
    </g>
  </g>
</svg>
