<svg xmlns="http://www.w3.org/2000/svg" width="319" height="309.939" viewBox="0 0 319 309.939">
  <g id="Grupo_8641" data-name="Grupo 8641" transform="translate(-1194 -958.061)">
    <text id="Acrecentar_los_ingresos" data-name="Acrecentar los 
ingresos" transform="translate(1194 1197)" fill="#5f3bbf" font-size="18" font-family="OpenSans-Semibold, Open Sans" font-weight="600"><tspan x="97.309" y="19">Acrecentar los </tspan><tspan x="122.946" y="49">ingresos</tspan></text>
    <g id="Grupo_8497" data-name="Grupo 8497" transform="translate(-38.864 756.37)">
      <circle id="Elipse_561" data-name="Elipse 561" cx="36.125" cy="36.125" r="36.125" transform="translate(1367.401 288.918)" fill="#d9f0f8" opacity="0.49"/>
      <path id="Trazado_17484" data-name="Trazado 17484" d="M1499.1,438.371l-5.173-4.979.017-.382c.01-.233,1.052-23.156,1.79-31.073l-1.5-3.059a.845.845,0,0,1,1.516-.745l1.715,3.487-.023.238c-.682,7.1-1.649,27.775-1.789,30.846l3.4,3.273,2.958-3.1-3.053-31.374.058-.172s.647-1.9,1.178-3.491a.844.844,0,1,1,1.6.536c-.437,1.3-.95,2.821-1.122,3.325l3.093,31.782Z" transform="translate(-110.994 -102.847)" fill="#1c428c"/>
      <g id="Grupo_8484" data-name="Grupo 8484" transform="translate(1409.837 238.777)">
        <path id="Trazado_17485" data-name="Trazado 17485" d="M1557.018,314.61a.845.845,0,0,1-.844-.844V282.906a.844.844,0,0,1,1.689,0v30.859A.844.844,0,0,1,1557.018,314.61Z" transform="translate(-1553.564 -281.042)" fill="#33b3ed"/>
        <g id="Grupo_8483" data-name="Grupo 8483" transform="translate(0 0)">
          <path id="Trazado_17486" data-name="Trazado 17486" d="M1550.67,283.626l.619.576,2.835-3.05,2.835,3.05.619-.576-3.454-3.715Z" transform="translate(-1550.67 -279.911)" fill="#33b3ed"/>
        </g>
      </g>
      <path id="Trazado_17487" data-name="Trazado 17487" d="M1407.58,256.667a.844.844,0,0,1-.845-.844V243.966a.845.845,0,0,1,1.689,0v11.856A.844.844,0,0,1,1407.58,256.667Z" transform="translate(-65.141 -21.788)" fill="#33b3ed"/>
      <path id="Trazado_17488" data-name="Trazado 17488" d="M1427.584,608.076a.845.845,0,0,1-.845-.844v-6.166a.845.845,0,0,1,1.689,0v6.166A.845.845,0,0,1,1427.584,608.076Z" transform="translate(-75.66 -209.578)" fill="#1c428c"/>
      <path id="Trazado_17489" data-name="Trazado 17489" d="M1571.624,535.577a.845.845,0,0,1-.845-.845v-5.691a.845.845,0,0,1,1.689,0v5.691A.845.845,0,0,1,1571.624,535.577Z" transform="translate(-151.408 -171.702)" fill="#1c428c"/>
      <path id="Trazado_17490" data-name="Trazado 17490" d="M1408.493,352.111a3.757,3.757,0,1,1,3.757-3.756A3.759,3.759,0,0,1,1408.493,352.111Zm0-6.669a2.912,2.912,0,1,0,2.913,2.913A2.915,2.915,0,0,0,1408.493,345.442Z" transform="translate(-64.091 -75.151)" fill="#1c428c"/>
      <path id="Trazado_17491" data-name="Trazado 17491" d="M1464.339,536.644a.844.844,0,0,0-.826-.862.858.858,0,0,0-.862.826L1461.5,582.76c-.016.466.349.514.816.989h.033a.952.952,0,0,0,.84-.932Z" transform="translate(-93.941 -175.691)" fill="#1c428c"/>
      <path id="Trazado_17492" data-name="Trazado 17492" d="M1481.682,502.218a.813.813,0,0,1-.181-.02l-10.434-2.292-24.589-5.878c-1.528-.229-4.376-1.431-4.489-4.4-.1-2.569.834-11.842.874-12.235a.845.845,0,1,1,1.68.17c-.01.095-.961,9.547-.867,12,.09,2.35,3.049,2.794,3.079,2.8s.052.009.078.015l24.61,5.883,9.826,2.159,1.822-3.036a.847.847,0,0,1,.553-.393l1.344-.277a.845.845,0,0,1,.341,1.655l-.98.2-1.943,3.239A.846.846,0,0,1,1481.682,502.218Z" transform="translate(-83.676 -144.586)" fill="#1c428c"/>
      <path id="Trazado_17493" data-name="Trazado 17493" d="M1447.206,423.389c-.028,0-.056,0-.085,0a.846.846,0,0,1-.757-.924l2.045-20.6a.844.844,0,0,1,.41-.643,72.743,72.743,0,0,1,11.99-6,.845.845,0,0,1,.568,1.591,74.26,74.26,0,0,0-11.33,5.652l-2,20.174A.845.845,0,0,1,1447.206,423.389Z" transform="translate(-85.979 -101.742)" fill="#1c428c"/>
      <path id="Trazado_17494" data-name="Trazado 17494" d="M1513.944,360.132h-.033a.844.844,0,0,1-.812-.876l.277-7.265.467-.218c1.029-.481,3.985-2.221,4.085-3.857.695-11.344-1.418-18.1-1.439-18.168a.845.845,0,0,1,1.609-.515c.091.286,2.23,7.129,1.516,18.786-.152,2.485-3.324,4.389-4.589,5.052l-.239,6.25A.844.844,0,0,1,1513.944,360.132Z" transform="translate(-121.075 -66.762)" fill="#1c428c"/>
      <path id="Trazado_17495" data-name="Trazado 17495" d="M1476.059,329.5a.822.822,0,0,1-.8-.721c-.033-.233-.786-5.722,1.031-9.253,1.459-4.138,7.184-7.713,13.958-6.3,3.813.794,6.247,3,7.891,7.154l.142.359-.169.346c-1.9,3.876-5.677,5.537-8.76,6.55a22.68,22.68,0,0,1-5.785.671.845.845,0,0,1,.007-1.689h.073a20.871,20.871,0,0,0,5.217-.593c2.684-.882,5.944-2.287,7.627-5.366-1.423-3.383-3.4-5.119-6.559-5.776-6.294-1.31-11.09,2.221-12.133,5.274l-.053.123c-1.593,3.028-.888,8.2-.88,8.254a.84.84,0,0,1-.685.958A.788.788,0,0,1,1476.059,329.5Z" transform="translate(-101.08 -58.487)" fill="#1c428c"/>
      <path id="Trazado_17496" data-name="Trazado 17496" d="M1476,381.1a.845.845,0,0,1-.339-1.619l3.271-1.432-.367-12.194a.844.844,0,1,1,1.688-.05l.4,13.335-4.316,1.889A.848.848,0,0,1,1476,381.1Z" transform="translate(-101.12 -85.875)" fill="#1c428c"/>
      <path id="Trazado_17497" data-name="Trazado 17497" d="M1478.827,357.773a.813.813,0,0,1-.107-.007c-2.524-.316-4.133-1.434-4.783-3.322a4.228,4.228,0,0,1,6.389-4.861.844.844,0,1,1-.954,1.393,2.538,2.538,0,0,0-3.837,2.919c.428,1.244,1.539,1.962,3.4,2.195a.845.845,0,0,1-.1,1.683Z" transform="translate(-100.36 -77.385)" fill="#1c428c"/>
      <path id="Trazado_17498" data-name="Trazado 17498" d="M1518.841,551.893H1495.6a.845.845,0,0,1,0-1.689h23.24a.845.845,0,0,1,0,1.689Z" transform="translate(-111.429 -183.275)" fill="#1c428c"/>
      <path id="Trazado_17499" data-name="Trazado 17499" d="M1492.626,468.375h-.037l-3.636-.158a.857.857,0,0,1-.2-.033l-20.393-6.007a.846.846,0,0,1-.6-.9l2.609-25.845a.844.844,0,1,1,1.679.184l-2.531,25.143,19.616,5.778,3.533.154a.845.845,0,0,1-.036,1.688Z" transform="translate(-97.228 -122.521)" fill="#1c428c"/>
      <g id="Grupo_8485" data-name="Grupo 8485" transform="translate(1463.456 381.757)">
        <path id="Trazado_17500" data-name="Trazado 17500" d="M1664.4,586.787a.633.633,0,0,1-.449-1.081l4.032-4.043a.634.634,0,0,1,.9.9l-4.032,4.042A.633.633,0,0,1,1664.4,586.787Z" transform="translate(-1663.766 -581.478)" fill="#1c428c"/>
        <path id="Trazado_17501" data-name="Trazado 17501" d="M1668.436,586.786a.629.629,0,0,1-.447-.185l-4.043-4.031a.634.634,0,0,1,.9-.9l4.042,4.032a.633.633,0,0,1-.448,1.082Z" transform="translate(-1663.76 -581.483)" fill="#1c428c"/>
      </g>
      <g id="Grupo_8486" data-name="Grupo 8486" transform="translate(1462.978 314.369)">
        <path id="Trazado_17502" data-name="Trazado 17502" d="M1668.744,447.027l-1.166-.2.979-5.747-5.8-.557.114-1.178,7.068.68Z" transform="translate(-1662.753 -439.347)" fill="#5f3bbf" style="mix-blend-mode: multiply;isolation: isolate"/>
      </g>
      <path id="Trazado_17503" data-name="Trazado 17503" d="M1500.916,663.921H1283.709a.845.845,0,1,1,0-1.689h217.207a.845.845,0,0,1,0,1.689Z" transform="translate(0 -242.188)" fill="#1c428c"/>
      <g id="Grupo_8488" data-name="Grupo 8488" transform="translate(1350.497 232.138)">
        <path id="Trazado_17504" data-name="Trazado 17504" d="M1437.67,323.795a.844.844,0,0,1-.844-.844V287.882l-5.809-5.1V267.9a.844.844,0,1,1,1.689,0v14.115l5.809,5.1V322.95A.844.844,0,0,1,1437.67,323.795Z" transform="translate(-1428.406 -266.514)" fill="#33b3ed"/>
        <g id="Grupo_8487" data-name="Grupo 8487" transform="translate(0 0)">
          <path id="Trazado_17505" data-name="Trazado 17505" d="M1425.512,269.624l.619.576,2.835-3.05,2.836,3.05.618-.576-3.454-3.714Z" transform="translate(-1425.512 -265.909)" fill="#33b3ed"/>
        </g>
      </g>
      <path id="Trazado_17506" data-name="Trazado 17506" d="M1552.8,367.186l-22.481-5.082-5.818-.75a.844.844,0,0,1,.216-1.675l5.936.768,21.157,4.783,3.168-7.264,7.986-18.72-.949-4.586,2-4.67a.844.844,0,1,1,1.552.665l-1.793,4.182.949,4.584-8.2,19.213Z" transform="translate(-126.685 -67.201)" fill="#1c428c"/>
      <path id="Trazado_17507" data-name="Trazado 17507" d="M1568.3,397.377a6.029,6.029,0,0,1-1.457-.173l-19.8-1.891a.845.845,0,1,1,.161-1.682l19.87,1.9a.854.854,0,0,1,.141.026,3.692,3.692,0,0,0,4.523-2.174c2.086-5.447,8.228-24.21,9.517-28.158l-2.583-1.117a.845.845,0,0,1,.67-1.55l3.289,1.423a.844.844,0,0,1,.468,1.036c-.074.228-7.445,22.862-9.785,28.97A5.1,5.1,0,0,1,1568.3,397.377Z" transform="translate(-138.52 -84.558)" fill="#1c428c"/>
      <path id="Trazado_17508" data-name="Trazado 17508" d="M1615.47,327.629a.845.845,0,0,1-.792-1.139l2.53-6.8a.844.844,0,1,1,1.583.589l-2.529,6.8A.843.843,0,0,1,1615.47,327.629Z" transform="translate(-174.465 -61.765)" fill="#1c428c"/>
      <path id="Trazado_17509" data-name="Trazado 17509" d="M1625.371,344.918a.845.845,0,0,1-.791-1.142l2.793-7.427-2.19-2.464a.845.845,0,0,1,1.263-1.122l2.529,2.846a.843.843,0,0,1,.159.858l-2.973,7.9A.845.845,0,0,1,1625.371,344.918Z" transform="translate(-179.672 -68.778)" fill="#1c428c"/>
      <path id="Trazado_17510" data-name="Trazado 17510" d="M1545.016,438.984h-.025a.845.845,0,0,1-.819-.869l.474-16.124a.844.844,0,0,1,1.688.049l-.474,16.125A.845.845,0,0,1,1545.016,438.984Z" transform="translate(-137.415 -115.419)" fill="#1c428c"/>
      <path id="Trazado_17511" data-name="Trazado 17511" d="M1548.956,567.836a.845.845,0,0,1-.845-.844c0-2.846-.848-14.846-1.6-24.805-.68-9.066-1.269-16.895-1.256-18.6.1-14.62.359-16.452.41-16.67a.844.844,0,0,1,1.652.349c-.018.119-.273,2.043-.373,16.333-.011,1.634.6,9.807,1.252,18.461.786,10.477,1.6,22.022,1.6,24.931A.844.844,0,0,1,1548.956,567.836Z" transform="translate(-137.987 -160.167)" fill="#1c428c"/>
      <path id="Trazado_17512" data-name="Trazado 17512" d="M1485.99,285.692a.845.845,0,0,1-.156-1.675l8.986-1.7a.845.845,0,1,1,.314,1.66l-8.986,1.7A.89.89,0,0,1,1485.99,285.692Z" transform="translate(-106.376 -42.392)" fill="#3bdcf0"/>
      <path id="Trazado_17513" data-name="Trazado 17513" d="M1485.99,294.189a.845.845,0,0,1-.156-1.675l8.986-1.7a.845.845,0,1,1,.314,1.66l-8.986,1.7A.815.815,0,0,1,1485.99,294.189Z" transform="translate(-106.376 -46.86)" fill="#3bdcf0"/>
      <path id="Trazado_17514" data-name="Trazado 17514" d="M1473.871,238.928a.844.844,0,0,1-.844-.844V235.2c0-.025,0-.05,0-.075.006-.1.14-2.581-2.963-5a15.5,15.5,0,0,1-6.263-12.7,15.732,15.732,0,1,1,31.463,0c0,6.281-2.167,10.224-7.479,13.6a6.96,6.96,0,0,0-2.535,5.54.848.848,0,0,1-.727.89l-10.54,1.457A.863.863,0,0,1,1473.871,238.928Zm12.933-9.269" transform="translate(-95.152)" fill="#3bdcf0"/>
      <path id="Trazado_17515" data-name="Trazado 17515" d="M1393.332,455.577c-.076,0-.152,0-.229-.007a3.371,3.371,0,1,1,.229.007Zm0-5.037a1.676,1.676,0,1,0,.115,0C1393.4,450.541,1393.365,450.54,1393.327,450.54Z" transform="translate(-56.323 -129.975)" fill="#03abf2" style="mix-blend-mode: multiply;isolation: isolate"/>
      <g id="Grupo_8490" data-name="Grupo 8490" transform="translate(1320.886 322.135)" style="mix-blend-mode: multiply;isolation: isolate">
        <g id="Grupo_8489" data-name="Grupo 8489" transform="translate(0 0)">
          <path id="Trazado_17516" data-name="Trazado 17516" d="M1401.619,456.008c0,.047.007.092,0,.14a2.5,2.5,0,0,1-.663,1.523l8.387,7.223a3.362,3.362,0,0,1,.766-1.569Z" transform="translate(-1382.99 -455.874)" fill="#03abf2"/>
          <path id="Trazado_17517" data-name="Trazado 17517" d="M1444.627,457.579a.845.845,0,0,0-1.163-.274l-11.593,7.183a3.361,3.361,0,0,1,.436,1.717l12.047-7.465A.844.844,0,0,0,1444.627,457.579Z" transform="translate(-1399.245 -456.49)" fill="#03abf2"/>
          <path id="Trazado_17518" data-name="Trazado 17518" d="M1376.669,455.726l-13.218,8.362a.845.845,0,1,0,.9,1.428l12.854-8.132A2.5,2.5,0,0,1,1376.669,455.726Z" transform="translate(-1363.058 -455.726)" fill="#03abf2"/>
        </g>
        <path id="Trazado_17519" data-name="Trazado 17519" d="M1420.965,475.653q-.144,0-.289-.01a4.232,4.232,0,0,1-3.936-4.507,4.246,4.246,0,0,1,4.506-3.937,4.232,4.232,0,0,1-.282,8.454Zm-.007-6.774a2.543,2.543,0,0,0-1.911,4.216,2.518,2.518,0,0,0,1.742.863,2.542,2.542,0,1,0,.344-5.073C1421.075,468.881,1421.017,468.879,1420.959,468.879Z" transform="translate(-1391.283 -461.755)" fill="#03abf2"/>
      </g>
      <path id="Trazado_17520" data-name="Trazado 17520" d="M1594.5,498.309a3.86,3.86,0,1,1,.41-7.7,3.86,3.86,0,0,1-.41,7.7Zm-.008-6.031a2.188,2.188,0,1,0,.238.013A2.129,2.129,0,0,0,1594.493,492.278Z" transform="translate(-161.852 -151.924)" fill="#5f3bbf" style="mix-blend-mode: multiply;isolation: isolate"/>
      <g id="Grupo_8492" data-name="Grupo 8492" transform="translate(1400.406 314.983)" style="mix-blend-mode: multiply;isolation: isolate">
        <g id="Grupo_8491" data-name="Grupo 8491" transform="translate(0)">
          <path id="Trazado_17521" data-name="Trazado 17521" d="M1581.237,487.061a3,3,0,0,1,.674-1.6l-9.675-8.311a3.014,3.014,0,0,1-1.115,1.27l10.113,8.686C1581.235,487.092,1581.235,487.077,1581.237,487.061Z" transform="translate(-1551.994 -459.842)" fill="#5f3bbf"/>
          <path id="Trazado_17522" data-name="Trazado 17522" d="M1638.687,440.973a.845.845,0,0,0-1.184-.157l-33.51,25.646a2.994,2.994,0,0,1,.541,1.713l34-26.018A.844.844,0,0,0,1638.687,440.973Z" transform="translate(-1569.28 -440.642)" fill="#5f3bbf"/>
          <path id="Trazado_17523" data-name="Trazado 17523" d="M1545.3,475.225l-9.7,4.792-3.375-3.364a.845.845,0,0,0-1.192,1.2l4.232,4.217,10.705-5.286A3.019,3.019,0,0,1,1545.3,475.225Z" transform="translate(-1530.779 -458.828)" fill="#5f3bbf"/>
        </g>
        <path id="Trazado_17524" data-name="Trazado 17524" d="M1563.434,474.044a3.737,3.737,0,0,1-.416-.022,3.86,3.86,0,1,1,.416.022Zm-.006-6.031a2.177,2.177,0,1,0,.236.013A2.347,2.347,0,0,0,1563.428,468.013Z" transform="translate(-1545.921 -454.147)" fill="#5f3bbf"/>
      </g>
      <path id="Trazado_17525" data-name="Trazado 17525" d="M1647.669,518.021a5.01,5.01,0,1,1,5.009-5.011A5.015,5.015,0,0,1,1647.669,518.021Zm0-8.753a3.743,3.743,0,1,0,3.742,3.743A3.746,3.746,0,0,0,1647.669,509.267Z" transform="translate(-189.208 -161.081)" fill="#1c428c"/>
      <path id="Trazado_17526" data-name="Trazado 17526" d="M1505.006,610.159a.916.916,0,0,1-.1-.006.844.844,0,0,1-.739-.938l2.371-19.994a.844.844,0,0,1,.545-.693l3.841-1.424a.844.844,0,1,1,.587,1.584l-3.357,1.245-2.31,19.481A.844.844,0,0,1,1505.006,610.159Z" transform="translate(-116.374 -202.652)" fill="#1c428c"/>
      <g id="Grupo_8493" data-name="Grupo 8493" transform="translate(1317.322 344.514)" style="mix-blend-mode: multiply;isolation: isolate">
        <path id="Trazado_17527" data-name="Trazado 17527" d="M1385.467,546.184a15.148,15.148,0,0,1-13.267-22.458.845.845,0,1,1,1.478.817,13.468,13.468,0,1,0,4.538-4.834.845.845,0,0,1-.911-1.423,15.141,15.141,0,1,1,8.162,27.9Z" transform="translate(-1363.31 -509.75)" fill="#03abf2"/>
        <path id="Trazado_17528" data-name="Trazado 17528" d="M1391.246,546.75a10.051,10.051,0,0,1-1.607-.129,9.955,9.955,0,0,1-7.52-13.817.845.845,0,0,1,1.548.678,8.285,8.285,0,0,0-.589,2,8.249,8.249,0,1,0,4.173-5.919.845.845,0,0,1-.814-1.481,9.945,9.945,0,1,1,4.81,18.663Z" transform="translate(-1369.076 -515.511)" fill="#03abf2"/>
        <path id="Trazado_17529" data-name="Trazado 17529" d="M1396.135,547.291a5.516,5.516,0,0,1-5.451-4.7.844.844,0,1,1,1.671-.247,3.816,3.816,0,1,0,4.385-4.32.845.845,0,0,1,.269-1.668,5.5,5.5,0,0,1-.873,10.938Z" transform="translate(-1374.016 -520.499)" fill="#03abf2"/>
        <path id="Trazado_17530" data-name="Trazado 17530" d="M1387.883,535.238a.841.841,0,0,1-.581-.232l-11.644-11.055a.844.844,0,0,1,1.163-1.225l11.644,11.055a.845.845,0,0,1-.582,1.457Z" transform="translate(-1365.982 -513.217)" fill="#03abf2"/>
        <path id="Trazado_17531" data-name="Trazado 17531" d="M1370.361,514.017a.844.844,0,0,1-.574-.225l-5.861-5.436a.845.845,0,0,1-.216-.917l1.492-3.965a.846.846,0,0,1,1.365-.322l5.86,5.435a.844.844,0,0,1,.216.917l-1.491,3.966a.843.843,0,0,1-.791.547Zm-4.871-6.514,4.523,4.2.849-2.258-4.522-4.195Z" transform="translate(-1359.808 -502.927)" fill="#03abf2"/>
        <path id="Trazado_17532" data-name="Trazado 17532" d="M1362.246,521a.842.842,0,0,1-.575-.225l-5.861-5.436a.844.844,0,0,1,.109-1.323l3.753-2.485a.846.846,0,0,1,1.041.085l5.861,5.435a.845.845,0,0,1-.108,1.324l-3.755,2.486A.841.841,0,0,1,1362.246,521Zm-4.5-6.169,4.586,4.254,2.305-1.526-4.586-4.253Z" transform="translate(-1355.54 -507.377)" fill="#03abf2"/>
        <path id="Trazado_17533" data-name="Trazado 17533" d="M1362.212,510.843a.842.842,0,0,1-.57-.222l-1.589-1.456a.845.845,0,0,1,1.142-1.245l1.588,1.456a.844.844,0,0,1-.571,1.467Z" transform="translate(-1357.769 -505.436)" fill="#03abf2"/>
      </g>
      <g id="Grupo_8495" data-name="Grupo 8495" transform="translate(1428.62 365.506)">
        <path id="Trazado_17534" data-name="Trazado 17534" d="M1609.384,574.5H1595.63a.845.845,0,0,1-.844-.844v-8.571a.846.846,0,0,1,.245-.595l4.148-4.186-4.148-4.185a.846.846,0,0,1-.245-.594v-7.478a.845.845,0,0,1,.844-.844h13.753a.844.844,0,0,1,.844.844v7.478a.843.843,0,0,1-.235.584l-4.02,4.2,4.02,4.2a.843.843,0,0,1,.235.584v8.571A.844.844,0,0,1,1609.384,574.5Zm-12.908-1.689h12.064v-7.387l-4.345-4.535a.845.845,0,0,1,0-1.169l4.345-4.534v-6.294h-12.064v6.286l4.492,4.533a.845.845,0,0,1,0,1.19l-4.492,4.533Z" transform="translate(-1592.652 -547.203)" fill="#3a4a53"/>
        <path id="Trazado_17535" data-name="Trazado 17535" d="M1609.151,548.892H1591.13a.845.845,0,0,1,0-1.689h18.021a.845.845,0,0,1,0,1.689Z" transform="translate(-1590.285 -547.203)" fill="#1c428c"/>
        <path id="Trazado_17536" data-name="Trazado 17536" d="M1609.151,602.907H1591.13a.844.844,0,1,1,0-1.689h18.021a.844.844,0,1,1,0,1.689Z" transform="translate(-1590.285 -575.608)" fill="#1c428c"/>
        <g id="Grupo_8494" data-name="Grupo 8494" transform="translate(9.011 5.928)">
          <path id="Trazado_17537" data-name="Trazado 17537" d="M1610.135,564.716a.845.845,0,0,1-.844-.845v-3.32a.845.845,0,0,1,1.689,0v3.32A.845.845,0,0,1,1610.135,564.716Z" transform="translate(-1609.291 -559.707)" fill="#1c428c"/>
        </g>
        <path id="Trazado_17538" data-name="Trazado 17538" d="M1609.781,587.5a.845.845,0,0,1-.45-.13l-4.3-2.717-4.084,2.706a.845.845,0,0,1-.933-1.408l4.539-3.008a.845.845,0,0,1,.917-.01l4.764,3.008a.844.844,0,0,1-.452,1.558Z" transform="translate(-1595.202 -565.926)" fill="#3a4a53"/>
      </g>
      <path id="Trazado_17539" data-name="Trazado 17539" d="M1528.086,511.343a.868.868,0,0,1-.167-.016l-3.557-.712a.845.845,0,0,1,.332-1.656l3.557.711a.845.845,0,0,1-.165,1.673Z" transform="translate(-126.641 -161.576)" fill="#1c428c"/>
      <path id="Trazado_17540" data-name="Trazado 17540" d="M1503.606,517.652a.858.858,0,0,1-.227-.031.845.845,0,0,1-.587-1.04l1.186-4.268a.845.845,0,0,1,1.628.452l-1.186,4.269A.845.845,0,0,1,1503.606,517.652Z" transform="translate(-115.639 -163.023)" fill="#1c428c"/>
      <g id="Grupo_8496" data-name="Grupo 8496" transform="translate(1379.311 207.261)">
        <path id="Trazado_17541" data-name="Trazado 17541" d="M1491.625,228.576h-1.439c-2.3,0-3.9-1.41-3.9-3.428a4.06,4.06,0,0,1,3.9-4.1h4.935a.779.779,0,0,1,0,1.557h-4.935a2.514,2.514,0,0,0-2.343,2.544c0,1.379,1.21,1.872,2.343,1.872h1.439a.778.778,0,1,1,0,1.557Z" transform="translate(-1486.285 -217.44)" fill="#fff"/>
        <path id="Trazado_17542" data-name="Trazado 17542" d="M1494.141,241.174h-4.9a.779.779,0,0,1,0-1.557h4.9c1.133,0,2.343-.491,2.343-1.87a1.028,1.028,0,0,1,.007-.115,1.955,1.955,0,0,0-.4-1.639,2.578,2.578,0,0,0-1.953-.79h-2.12a.778.778,0,0,1,0-1.557h2.12a4.147,4.147,0,0,1,3.133,1.33,3.481,3.481,0,0,1,.767,2.829C1498.01,239.792,1496.414,241.174,1494.141,241.174Z" transform="translate(-1487.428 -224.065)" fill="#fff"/>
        <path id="Trazado_17543" data-name="Trazado 17543" d="M1495.9,218.231a.779.779,0,0,1-.778-.779v-3.233a.778.778,0,1,1,1.557,0v3.233A.779.779,0,0,1,1495.9,218.231Z" transform="translate(-1490.93 -213.44)" fill="#fff"/>
        <path id="Trazado_17544" data-name="Trazado 17544" d="M1495.9,251.819a.779.779,0,0,1-.778-.779v-3.234a.778.778,0,1,1,1.557,0v3.234A.779.779,0,0,1,1495.9,251.819Z" transform="translate(-1490.93 -231.103)" fill="#fff"/>
      </g>
    </g>
  </g>
</svg>
