<svg xmlns="http://www.w3.org/2000/svg" width="319" height="281.954" viewBox="0 0 319 281.954">
  <g id="Grupo_8643" data-name="Grupo 8643" transform="translate(-801 -1334.046)">
    <text id="Extender_la_participación_en_el_mercado" data-name="Extender la participación en el 
mercado" transform="translate(801 1545)" fill="#5f3bbf" font-size="18" font-family="OpenSans-Semibold, Open Sans" font-weight="600"><tspan x="28.011" y="19">Extender la participación en el </tspan><tspan x="121.048" y="49">mercado</tspan></text>
    <path id="Trazado_17579" data-name="Trazado 17579" d="M359.7,663.944H141.4a.856.856,0,0,1,0-1.712H359.7a.856.856,0,0,1,0,1.712Z" transform="translate(709.45 866.319)" fill="#1c428c"/>
    <g id="Grupo_8538" data-name="Grupo 8538" transform="translate(-391.092 1107.81)">
      <path id="Trazado_17628" data-name="Trazado 17628" d="M1432.719,316.539a41.1,41.1,0,1,1-41.1-41.1A41.1,41.1,0,0,1,1432.719,316.539Z" transform="translate(-56.756 -17.624)" fill="#e6f4fa"/>
      <path id="Trazado_17629" data-name="Trazado 17629" d="M1467.516,344.568a1,1,0,0,1-1-1V303.64a1,1,0,1,1,2,0v39.929A1,1,0,0,1,1467.516,344.568Z" transform="translate(-100.106 -35.179)" fill="#294d92"/>
      <path id="Trazado_17630" data-name="Trazado 17630" d="M1516.355,386.415a1,1,0,0,1-.993-.917l-.279-3.411a1,1,0,0,1,1.99-.162l.279,3.411a1,1,0,0,1-.913,1.077C1516.41,386.414,1516.383,386.415,1516.355,386.415Z" transform="translate(-122.465 -71.259)" fill="#294d92"/>
      <path id="Trazado_17631" data-name="Trazado 17631" d="M1506.928,341.679a1,1,0,0,1-.472-1.879c.354-.193,1.381-.933,1.412-1.743.053-1.393-1.039-5.313-1.465-6.706a.6.6,0,0,1-.018-.068l-3.915-17.048L1491.9,292.711c-.615-.36-2.271-1.324-4.192-2.388a1,1,0,1,1,.967-1.746c2.452,1.358,4.476,2.554,4.5,2.566a1,1,0,0,1,.387.419l10.756,21.9a.956.956,0,0,1,.077.216l3.933,17.126c.209.687,1.614,5.39,1.54,7.332-.081,2.092-2.222,3.3-2.465,3.426A.994.994,0,0,1,1506.928,341.679Z" transform="translate(-109.624 -28.645)" fill="#294d92"/>
      <path id="Trazado_17632" data-name="Trazado 17632" d="M1476.373,279.233a9.352,9.352,0,0,1-2.785-.44l-.672-.232-.029-19.086a1,1,0,0,1,1-1h0a1,1,0,0,1,1,1l.027,17.607a4.8,4.8,0,0,0,3.6-.416c.848-.608,1.279-1.762,1.279-3.431a1,1,0,1,1,2,0c0,2.354-.714,4.057-2.121,5.06A5.624,5.624,0,0,1,1476.373,279.233Z" transform="translate(-103.04 -14.844)" fill="#294d92"/>
      <path id="Trazado_17633" data-name="Trazado 17633" d="M1489.8,315.435a1,1,0,0,1-.869-.506l-2.009-3.547a1,1,0,1,1,1.737-.984l2.009,3.547a1,1,0,0,1-.868,1.49Z" transform="translate(-109.439 -38.516)" fill="#294d92"/>
      <path id="Trazado_17634" data-name="Trazado 17634" d="M1367.826,317.656a1,1,0,0,1-.993-.911c-.34-3.895-.591-6.814-.784-9.057-.583-6.793-.631-7.349-1.028-10l-.019-.13.014-.129a10.432,10.432,0,0,1,.376-1.579c.074-.255.146-.5.2-.712a1,1,0,0,1,1.94.47c-.058.236-.137.513-.22.8-.114.392-.24.829-.292,1.129.388,2.59.444,3.25,1.022,9.98.192,2.242.443,5.161.783,9.054a1,1,0,0,1-.907,1.081C1367.885,317.655,1367.855,317.656,1367.826,317.656Z" transform="translate(-53.367 -31.373)" fill="#294d92"/>
      <path id="Trazado_17635" data-name="Trazado 17635" d="M1357.766,316.383l-.064,0a1,1,0,0,1-.934-1.059c.034-.536.817-12.949,1.2-16.962l-.639-2.018a1,1,0,1,1,1.9-.6l.763,2.408-.02.2c-.369,3.739-1.2,16.963-1.211,17.1A1,1,0,0,1,1357.766,316.383Z" transform="translate(-49.575 -31.68)" fill="#294d92"/>
      <path id="Trazado_17636" data-name="Trazado 17636" d="M1362.041,328.973a7.247,7.247,0,0,1-2.132-.356c-7.541-2.329-20.988-6.751-25.931-8.592a1,1,0,0,1-.631-.741c-.507-2.547-1.3-5.811-2.139-9.268-1.055-4.345-2.146-8.838-2.672-11.985a.927.927,0,0,1-.014-.128c-.239-6.559,3.932-8.375,7.967-10.132.507-.221,1.019-.444,1.53-.679a1,1,0,0,1,.835,1.814c-.524.241-1.048.469-1.568.7-3.871,1.686-6.933,3.019-6.771,8.165.519,3.072,1.594,7.5,2.633,11.779.786,3.236,1.531,6.3,2.046,8.8,5.282,1.93,18.038,6.12,25.3,8.364,2.425.748,3.292-.239,4.031-1.41a1,1,0,0,1,1.688,1.066A4.771,4.771,0,0,1,1362.041,328.973Z" transform="translate(-36.567 -27.977)" fill="#294d92"/>
      <path id="Trazado_17637" data-name="Trazado 17637" d="M1386.982,312.625a1,1,0,0,1-.663-.253L1380.5,307.2a1,1,0,0,1-.272-.4c-.043-.117-4.335-11.623-5.913-15.578-.542-.55-3.6-1.787-6.2-2.621a1,1,0,0,1,.612-1.9c4.512,1.453,7,2.7,7.405,3.7,1.438,3.6,5.25,13.793,5.874,15.467l5.63,5a1,1,0,0,1-.664,1.744Z" transform="translate(-54.486 -27.82)" fill="#294d92"/>
      <path id="Trazado_17638" data-name="Trazado 17638" d="M1363.266,274.679a1,1,0,0,1,0-2,3.268,3.268,0,0,0,1.949-.569c-.011-.715-.014-2.159.1-3.729l.046-.646.609-.222c1.48-.54,2.382-2.656,2.352-5.524-.047-4.565-.115-7.55-.115-7.58a1,1,0,0,1,2-.045c0,.03.068,3.027.116,7.6.036,3.448-1.091,6.054-3.048,7.14-.1,1.832-.047,3.384-.047,3.4l.013.377-.24.292A4.828,4.828,0,0,1,1363.266,274.679Z" transform="translate(-52.108 -12.503)" fill="#294d92"/>
      <path id="Trazado_17639" data-name="Trazado 17639" d="M1353.69,252.733a1,1,0,0,1-.936-.652,1.458,1.458,0,0,1,.2-1.334,3.18,3.18,0,0,1,2.712-.892c2.957.062,5.307.006,6.082-1.242a5.313,5.313,0,0,0-3.881-3.861c-3.168-.675-5.295-.072-6.5,1.848l-.071.1c-1.411,1.736-.818,4.658-.812,4.687a1,1,0,1,1-1.949.429c-.035-.156-.812-3.825,1.173-6.327,1.168-1.825,3.6-3.749,8.576-2.688a7.381,7.381,0,0,1,5.5,5.756l.054.29-.111.273c-1.176,2.878-5.012,2.8-8.1,2.732a9.111,9.111,0,0,0-.947.043,1,1,0,0,1-.985.839Z" transform="translate(-45.702 -7.486)" fill="#294d92"/>
      <path id="Trazado_17640" data-name="Trazado 17640" d="M1344.955,281.553a1,1,0,0,1-.472-1.878l2.4-1.283.985-7.229a1,1,0,0,1,1.978.27l-1.123,8.239-3.294,1.763A.988.988,0,0,1,1344.955,281.553Z" transform="translate(-43.677 -20.288)" fill="#294d92"/>
      <path id="Trazado_17641" data-name="Trazado 17641" d="M1351.263,268.155a1.021,1.021,0,0,1-.2-.019c-2.142-.428-2.838-1.652-3.044-2.6a3.162,3.162,0,0,1,2.309-3.67,3.016,3.016,0,0,1,2.674.572,1,1,0,1,1-1.269,1.542,1,1,0,0,0-.9-.181,1.162,1.162,0,0,0-.86,1.316c.052.241.174.806,1.483,1.068a1,1,0,0,1-.194,1.977Z" transform="translate(-45.519 -16.357)" fill="#294d92"/>
      <path id="Trazado_17642" data-name="Trazado 17642" d="M1353.624,372.639h-15.108a1,1,0,0,1,0-2h15.108a1,1,0,1,1,0,2Z" transform="translate(-40.713 -66.487)" fill="#294d92"/>
      <path id="Trazado_17643" data-name="Trazado 17643" d="M1366.568,330.649a.992.992,0,0,1-.339-.059l-19.238-6.938a1,1,0,0,1-.64-.742l-2.974-14.824a1,1,0,1,1,1.957-.393l2.864,14.273,18.287,6.595,3.651-1.992a1,1,0,0,1,.956,1.753l-4.046,2.206A1,1,0,0,1,1366.568,330.649Z" transform="translate(-43.401 -37.134)" fill="#294d92"/>
      <path id="Trazado_17644" data-name="Trazado 17644" d="M1398.055,354.521a.992.992,0,0,1-.443-.1l-3.058-1.516a1,1,0,0,1,.887-1.789l3.058,1.516a1,1,0,0,1-.444,1.893Z" transform="translate(-66.717 -57.447)" fill="#294d92"/>
      <path id="Trazado_17645" data-name="Trazado 17645" d="M1377.479,355.678a1,1,0,0,1-.938-1.34l1.148-3.15a1,1,0,1,1,1.875.684l-1.148,3.15A1,1,0,0,1,1377.479,355.678Z" transform="translate(-58.652 -57.227)" fill="#294d92"/>
      <path id="Trazado_17646" data-name="Trazado 17646" d="M1516.076,368.159a1,1,0,0,1-.2-1.976l4.122-.862a1,1,0,0,1,.409,1.954l-4.122.862A1.039,1.039,0,0,1,1516.076,368.159Z" transform="translate(-122.465 -64.027)" fill="#294d92"/>
      <path id="Trazado_17647" data-name="Trazado 17647" d="M1363.685,281.722a4.331,4.331,0,0,1-2.483-.757,1,1,0,0,1,1.127-1.648,2.727,2.727,0,0,0,2.492.194,1,1,0,0,1,.835,1.814A5.045,5.045,0,0,1,1363.685,281.722Z" transform="translate(-51.417 -24.359)" fill="#294d92"/>
      <path id="Trazado_17648" data-name="Trazado 17648" d="M1401.617,317.88a1,1,0,0,1-.418-1.906l13.859-6.37,8.644-18.116c.285-.562,1.267-2.372,2.4-2.89,2.237-1.022,8.491-3.025,8.756-3.11a1,1,0,0,1,.608,1.9c-.064.02-6.405,2.052-8.535,3.024a5.893,5.893,0,0,0-1.438,1.955l-8.79,18.421a1,1,0,0,1-.484.477l-14.187,6.521A.993.993,0,0,1,1401.617,317.88Z" transform="translate(-69.765 -27.259)" fill="#294d92"/>
      <path id="Trazado_17649" data-name="Trazado 17649" d="M1491.872,350.608a1,1,0,0,1-1-.961l-.357-9.575v-29l9.414,17.229,4.162,17.186-1.141,4.337a1,1,0,0,1-1.931-.508l1.013-3.849-3.981-16.439-5.54-10.138v21.145l.357,9.538a1,1,0,0,1-.96,1.035Z" transform="translate(-111.156 -39.06)" fill="#294d92"/>
      <path id="Trazado_17650" data-name="Trazado 17650" d="M1447.071,344.2h-.012a1,1,0,0,1-.986-1.011l.358-28.935a1,1,0,1,1,2,.025l-.358,28.935A1,1,0,0,1,1447.071,344.2Z" transform="translate(-90.693 -40.073)" fill="#294d92"/>
      <path id="Trazado_17651" data-name="Trazado 17651" d="M1336.605,376.277a1,1,0,0,1-1-.961l-.765-20.64a1,1,0,0,1,.96-1.034.981.981,0,0,1,1.034.96l.765,20.64a1,1,0,0,1-.961,1.034Z" transform="translate(-39.481 -58.659)" fill="#294d92"/>
      <path id="Trazado_17652" data-name="Trazado 17652" d="M1382.6,368.258a1,1,0,0,1-1-.986l-.078-6.452a1,1,0,0,1,.986-1.01h.012a1,1,0,0,1,1,.986l.077,6.452a1,1,0,0,1-.986,1.01Z" transform="translate(-60.974 -61.499)" fill="#294d92"/>
      <path id="Trazado_17653" data-name="Trazado 17653" d="M1416.842,341.915a1,1,0,0,1-.387-1.919l9.975-4.2,6.108-9.172a1,1,0,1,1,1.662,1.107l-6.274,9.423a1,1,0,0,1-.444.366l-10.252,4.317A.99.99,0,0,1,1416.842,341.915Z" transform="translate(-76.775 -46.015)" fill="#294d92"/>
      <path id="Trazado_17654" data-name="Trazado 17654" d="M1382.516,336.876a1,1,0,0,1-1-1V332.64a1,1,0,1,1,2,0v3.238A1,1,0,0,1,1382.516,336.876Z" transform="translate(-60.971 -48.531)" fill="#294d92"/>
      <path id="Trazado_17655" data-name="Trazado 17655" d="M1473.589,266.428a1,1,0,0,1-.995-.937l-.883-14.243v-.035a8.354,8.354,0,0,0-1.1-4.238c-.958-1.388-3.949-3.2-7.892-2.164a4.884,4.884,0,0,0-3.445,4.357c.757,1.614,5.024,1.853,7.042,1.709a1,1,0,0,1,.144,1.991c-.812.059-7.989.465-9.152-3.261l-.056-.179.013-.187a6.9,6.9,0,0,1,4.946-6.361c4.967-1.308,8.728,1.054,10.043,2.962a10.231,10.231,0,0,1,1.458,5.349l.879,14.176a1,1,0,0,1-.935,1.058Z" transform="translate(-95.838 -7.49)" fill="#294d92"/>
      <path id="Trazado_17656" data-name="Trazado 17656" d="M1467.611,252.206c-3.486,0-5.353-.338-6.918-1.817a1,1,0,0,1,1.371-1.451c1.506,1.422,3.749,1.357,9.742,1.184l1.9-.053a1,1,0,1,1,.053,2l-1.892.053C1470.215,252.166,1468.816,252.206,1467.611,252.206Z" transform="translate(-97.28 -10.327)" fill="#294d92"/>
      <path id="Trazado_17657" data-name="Trazado 17657" d="M1464.516,281.257a1,1,0,0,1-1-1V278.64a1,1,0,1,1,2,0v1.619A1,1,0,0,1,1464.516,281.257Z" transform="translate(-98.725 -23.668)" fill="#294d92"/>
      <path id="Trazado_17658" data-name="Trazado 17658" d="M1466.88,288.625a1.05,1.05,0,0,1-.142-.01,8.19,8.19,0,0,1-3.555-1.383,1,1,0,0,1,1.213-1.586,6.264,6.264,0,0,0,2.624.993,1,1,0,0,1-.14,1.986Z" transform="translate(-98.391 -27.259)" fill="#294d92"/>
      <path id="Trazado_17659" data-name="Trazado 17659" d="M1455.827,285.95c-.031,0-.062,0-.094,0a1,1,0,0,1-.9-1.086l.35-3.769a1,1,0,0,1,1.988.185l-.35,3.768A1,1,0,0,1,1455.827,285.95Z" transform="translate(-94.724 -24.839)" fill="#294d92"/>
      <path id="Trazado_17660" data-name="Trazado 17660" d="M1462.565,269.09a4.726,4.726,0,0,1-2.3-.455,4.393,4.393,0,0,1-2.921-3.836c-.2-2.927-.169-5.554-.138-7.873a1.009,1.009,0,0,1,1.012-1,.984.984,0,0,1,.985.994c-.031,2.313-.066,4.9.133,7.741a2.4,2.4,0,0,0,1.647,2.111l.224.071.063.064a4.378,4.378,0,0,0,2,.157,1,1,0,1,1,.169,1.989C1463.118,269.078,1462.829,269.09,1462.565,269.09Z" transform="translate(-95.807 -13.669)" fill="#294d92"/>
      <path id="Trazado_17661" data-name="Trazado 17661" d="M1512.53,245.256l-5.2-5.576,5.577-5.194,5.2,5.575Zm-2.373-5.476,2.473,2.655,2.656-2.473-2.474-2.654Z" transform="translate(-118.899 -3.798)" fill="#294d92"/>
      <g id="Grupo_8530" data-name="Grupo 8530" transform="translate(1439.401 337.486)">
        <path id="Trazado_17662" data-name="Trazado 17662" d="M1602.786,440.347a1,1,0,0,1,0-2l6.4-.007h0a1,1,0,0,1,0,2l-6.4.009Z" transform="translate(-1601.788 -435.143)" fill="#294d92"/>
        <path id="Trazado_17663" data-name="Trazado 17663" d="M1608.722,440.814a1,1,0,0,1-1-1l-.008-6.4a1,1,0,0,1,1-1h0a1,1,0,0,1,1,1l.008,6.4a1,1,0,0,1-1,1Z" transform="translate(-1604.517 -432.414)" fill="#294d92"/>
      </g>
      <g id="Grupo_8531" data-name="Grupo 8531" transform="translate(1335.686 230.303)">
        <path id="Trazado_17664" data-name="Trazado 17664" d="M1410.573,241.706a1,1,0,0,1,0-2l6.4-.008h0a1,1,0,0,1,0,2l-6.4.008Z" transform="translate(-1409.575 -236.502)" fill="#294d92"/>
        <path id="Trazado_17665" data-name="Trazado 17665" d="M1416.509,242.174a1,1,0,0,1-1-1l-.008-6.4a1,1,0,0,1,1-1h0a1,1,0,0,1,1,1l.008,6.4a1,1,0,0,1-1,1Z" transform="translate(-1412.305 -233.773)" fill="#294d92"/>
      </g>
      <path id="Trazado_17666" data-name="Trazado 17666" d="M1588.157,347.142a3.426,3.426,0,1,1,3.425-3.427A3.431,3.431,0,0,1,1588.157,347.142Zm0-4.856a1.43,1.43,0,1,0,1.429,1.429A1.432,1.432,0,0,0,1588.157,342.285Z" transform="translate(-154.533 -52.512)" fill="#294d92"/>
      <path id="Trazado_17667" data-name="Trazado 17667" d="M1267.78,412.82a4.27,4.27,0,1,1,4.269-4.27A4.274,4.274,0,0,1,1267.78,412.82Zm0-6.544a2.273,2.273,0,1,0,2.273,2.274A2.276,2.276,0,0,0,1267.78,406.276Z" transform="translate(-6.64 -81.974)"/>
      <g id="Grupo_8532" data-name="Grupo 8532" transform="translate(1406.88 246.42)">
        <path id="Trazado_17668" data-name="Trazado 17668" d="M1562.4,287.761h-20.881V263.642H1562.4Zm-18.885-2h16.89V265.638h-16.89Z" transform="translate(-1541.518 -263.642)" fill="#3bdcf0"/>
        <path id="Trazado_17669" data-name="Trazado 17669" d="M1575.082,301.366h-15.567a1,1,0,0,1,0-2h13.571V283.64a1,1,0,1,1,2,0Z" transform="translate(-1549.345 -272.39)" fill="#3bdcf0"/>
        <path id="Trazado_17670" data-name="Trazado 17670" d="M1561.149,280.638h-8.633a1,1,0,0,1,0-2h8.633a1,1,0,0,1,0,2Z" transform="translate(-1546.122 -270.548)" fill="#3bdcf0"/>
        <path id="Trazado_17671" data-name="Trazado 17671" d="M1557.372,289.638h-4.856a1,1,0,0,1,0-2h4.856a1,1,0,1,1,0,2Z" transform="translate(-1546.122 -274.692)" fill="#3bdcf0"/>
      </g>
      <g id="Grupo_8533" data-name="Grupo 8533" transform="translate(1274.143 226.236)">
        <path id="Trazado_17672" data-name="Trazado 17672" d="M1312.083,249.747h-16.565v-17.1h12.329a1,1,0,0,1,0,2h-10.333V247.75h12.573v-6.556a1,1,0,1,1,2,0Z" transform="translate(-1295.518 -229.186)" fill="#294d92"/>
        <path id="Trazado_17673" data-name="Trazado 17673" d="M1308.063,242.4l-4.149-6.085a1,1,0,0,1,1.65-1.124l2.577,3.779,9.252-12.335a1,1,0,1,1,1.6,1.2Z" transform="translate(-1299.304 -226.236)" fill="#294d92"/>
      </g>
      <path id="Trazado_17674" data-name="Trazado 17674" d="M1526.131,523.593l-5.551-5.551,5.551-5.551,5.551,5.551Zm-2.728-5.551,2.728,2.727,2.728-2.727-2.728-2.727Z" transform="translate(-124.997 -131.796)" fill="#294d92"/>
      <path id="Trazado_17675" data-name="Trazado 17675" d="M1553.516,380.776a1,1,0,0,1-1-1V350.64a1,1,0,1,1,2,0v29.138A1,1,0,0,1,1553.516,380.776Z" transform="translate(-139.702 -56.818)" fill="#294d92"/>
      <path id="Trazado_17676" data-name="Trazado 17676" d="M1267.516,286.509a1,1,0,0,1-1-1V273.64a1,1,0,1,1,2,0v11.871A1,1,0,0,1,1267.516,286.509Z" transform="translate(-8.023 -21.366)"/>
      <g id="Grupo_8535" data-name="Grupo 8535" transform="translate(1396.326 273.908)">
        <path id="Trazado_17677" data-name="Trazado 17677" d="M1535.716,350.375a1,1,0,0,1-1-1V337.543l-5.531-6.29V316.142a1,1,0,1,1,2,0V330.5l5.531,6.29v12.586A1,1,0,0,1,1535.716,350.375Z" transform="translate(-1525.287 -314.843)" fill="#294d92"/>
        <g id="Grupo_8534" data-name="Grupo 8534" transform="translate(0)">
          <path id="Trazado_17678" data-name="Trazado 17678" d="M1521.958,319.854l.878.817,4.021-4.326,4.021,4.326.877-.817-4.9-5.268Z" transform="translate(-1521.958 -314.586)" fill="#294d92"/>
        </g>
      </g>
      <g id="Grupo_8536" data-name="Grupo 8536" transform="translate(1363.913 317.08)">
        <path id="Trazado_17679" data-name="Trazado 17679" d="M1471.573,423.356h0a1,1,0,0,1-.876-.519l-7.575-13.831a9.254,9.254,0,0,1-.541-1.154l-.05-.124a.968.968,0,0,1-.055-.195,9.684,9.684,0,1,1,18.19.011,1.019,1.019,0,0,1-.049.173l-.051.132a9.852,9.852,0,0,1-.546,1.174l-7.573,13.814A1,1,0,0,1,1471.573,423.356Zm-7.132-16.231a7.366,7.366,0,0,0,.426.91l6.707,12.245,6.7-12.226a7.849,7.849,0,0,0,.429-.925.83.83,0,0,1,.027-.1,8.085,8.085,0,0,0,.53-2.765,7.689,7.689,0,0,0-15.378-.008,8.125,8.125,0,0,0,.53,2.773A.9.9,0,0,1,1464.44,407.125Z" transform="translate(-1461.887 -394.595)" fill="#5f3bbf"/>
        <path id="Trazado_17680" data-name="Trazado 17680" d="M1476.109,412.918a4.56,4.56,0,1,1,4.558-4.562A4.566,4.566,0,0,1,1476.109,412.918Zm0-7.123a2.563,2.563,0,1,0,2.562,2.561A2.566,2.566,0,0,0,1476.109,405.8Z" transform="translate(-1466.335 -398.832)" fill="#5f3bbf"/>
      </g>
      <g id="Grupo_8537" data-name="Grupo 8537" transform="translate(1267.333 268.225)">
        <path id="Trazado_17681" data-name="Trazado 17681" d="M1292.127,331.381a1,1,0,0,1-.875-.518l-7.178-13.078a9.024,9.024,0,0,1-.458-.907,1.022,1.022,0,0,1-.1-.215l-.014,0a10.372,10.372,0,0,1-.6-3.324,9.228,9.228,0,1,1,18.456-.02,10.068,10.068,0,0,1-.566,3.233,1,1,0,0,1-.19.418c-.106.233-.219.43-.328.622l-.093.163-7.173,13.1a1,1,0,0,1-.875.519Zm-6.791-15.528a.838.838,0,0,1,.079.152,6.376,6.376,0,0,0,.4.81l6.307,11.491,6.409-11.7a4.557,4.557,0,0,0,.3-.591,1.073,1.073,0,0,1,.078-.155,8.093,8.093,0,0,0,.444-2.537,7.232,7.232,0,1,0-14.464.02A8.035,8.035,0,0,0,1285.336,315.853Z" transform="translate(-1282.898 -304.054)" fill="#5f3bbf"/>
        <path id="Trazado_17682" data-name="Trazado 17682" d="M1296.424,321.419a4.373,4.373,0,1,1,4.371-4.374A4.378,4.378,0,0,1,1296.424,321.419Zm0-6.749a2.376,2.376,0,1,0,2.375,2.375A2.379,2.379,0,0,0,1296.424,314.669Z" transform="translate(-1287.113 -308.022)" fill="#5f3bbf"/>
      </g>
      <path id="Trazado_17683" data-name="Trazado 17683" d="M1460.463,438.976l-9.244-3.255-.556-21.086h-10.174l-7.019-7.707,5.851-8.8-1.583-10.214,1.973-.306,1.7,10.98-5.418,8.148,5.376,5.9h11.236l.571,21.656,6.533,2.3,5.054-7.068,1.7-12.467,10.618-10.582-.611-7.868h10.454l.542,6.976,3.168-.844,6.538-4.756,4.385,2.188.932,6.05,2.58-2.221,7.009-5.42.6-8.989h4.422l2.888-3.338,1.126-6.222,4.347-3.754,4.037-1.171,5.979-2.536v-4l-20.752-.549-5.576-6.267-3.845-.727.371-1.962,4.513.854,5.453,6.129,21.831.578V375.9l-7.361,3.115-3.675,1.066-3.483,3.007-1.1,6.065-3.844,4.441h-3.466l-.531,8.022-7.68,5.938-5.268,4.535-1.322-8.586-2.376-1.186-5.858,4.262-5.846,1.557-.585-7.527h-6.449l.515,6.636L1468.354,418l-1.677,12.288Z" transform="translate(-84.891 -62.079)" fill="#294d92"/>
      <path id="Trazado_17684" data-name="Trazado 17684" d="M1562.826,487.34l-6.946-8.681-6.971.871-3.833-9.582,4.734-9.468,8.713.871,3.39-2.888,3.317,2.152.487,3.893,8.7,10.442-.332.6c-.178.32-4.431,7.89-10.518,11.369Zm-6.085-10.8,6.562,8.2c4.318-2.8,7.646-7.866,8.692-9.58l-8.187-9.825-.444-3.551-1.29-.837-2.9,2.475-8.189-.819-3.718,7.434,2.928,7.319Z" transform="translate(-136.276 -106.921)" fill="#294d92"/>
      <path id="Trazado_17685" data-name="Trazado 17685" d="M1367.638,491.987l-5.559-3.174-1.087-20.129-7.618-5.208-6.154-15.97,14.364-5.639,23.334,14.754-.526,5.816-2.6,7.373-5.607,2.5-5.064,7.808-.617,3.643.784,2.744Zm-3.624-4.368,3,1.71,2.1-3.157-.655-2.292.76-4.5,5.612-8.65,5.362-2.4,2.234-6.329.392-4.351L1361.373,444.1,1349.8,448.64l5.217,13.54,7.918,5.413Z" transform="translate(-45.18 -99.28)" fill="#294d92"/>
      <path id="Trazado_17686" data-name="Trazado 17686" d="M1299.657,395.053l-10.16-1.406-11.577-10.993v-7.735l-3-3.757-9.955-13.115-5.854-.5-7.4-.389-2.611-5.655,2.715-8.933,7.079.318,3.283-4.381a1,1,0,0,1,1.6,1.2l-3.917,5.225-6.584-.3-2.044,6.722,1.788,3.871,6.234.328,6.77.58,10.476,13.8,3.426,4.284V381.8l10.491,9.962,7.311,1.012.205-8.026,7.952-2.659,5.217,2.878,2.761-.921,22.683-10.975,2.046-8.153a1,1,0,1,1,1.936.486l-2.272,9.059-23.7,11.458-3.652,1.217-5.216-2.877-5.795,1.938Z" transform="translate(0 -51.507)" fill="#294d92"/>
    </g>
  </g>
</svg>
