<svg xmlns="http://www.w3.org/2000/svg" width="766" height="708" viewBox="0 0 766 708">
  <g id="Grupo_8649" data-name="Grupo 8649" transform="translate(-577 -3446)">
    <g id="Grupo_8561" data-name="Grupo 8561" transform="translate(103)">
      <rect id="Rectángulo_2043" data-name="Rectángulo 2043" width="237" height="83" rx="8" transform="translate(723 3446)" fill="#5f3bbf"/>
      <rect id="Rectángulo_2044" data-name="Rectángulo 2044" width="237" height="83" rx="8" transform="translate(1003 3446)" fill="#5f3bbf"/>
      <text id="Sociedades_Mercantiles" data-name="Sociedades 
Mercantiles" transform="translate(841 3482)" fill="#fff" font-size="22" font-family="OpenSans-Semibold, Open Sans" font-weight="600"><tspan x="-62.256" y="0">Sociedades </tspan><tspan x="-62.192" y="30">Mercantiles</tspan></text>
      <text id="Empresario_Individual" data-name="Empresario
Individual" transform="translate(1122 3482)" fill="#fff" font-size="22" font-family="OpenSans-Semibold, Open Sans" font-weight="600"><tspan x="-60.854" y="0">Empresario</tspan><tspan x="-52.497" y="30">Individual</tspan></text>
      <path id="Trazado_17748" data-name="Trazado 17748" d="M2224,2233v309.078" transform="translate(-1374 1296)" fill="none" stroke="#5f3bbf" stroke-width="2"/>
      <path id="Trazado_17749" data-name="Trazado 17749" d="M2495,2541.667V2328.083H1966.5v213.583" transform="translate(-1374 1296)" fill="none" stroke="#5f3bbf" stroke-width="2"/>
      <rect id="Rectángulo_2048" data-name="Rectángulo 2048" width="237" height="83" rx="8" transform="translate(474 3837)" fill="#3b78bf"/>
      <text id="Sociedad_Corporativa" data-name="Sociedad 
Corporativa" transform="translate(593 3873)" fill="#fff" font-size="22" font-family="OpenSans-Semibold, Open Sans" font-weight="600"><tspan x="-50.563" y="0">Sociedad </tspan><tspan x="-62.788" y="30">Corporativa</tspan></text>
      <rect id="Rectángulo_2045" data-name="Rectángulo 2045" width="237" height="83" rx="8" transform="translate(474 3676)" fill="#a793de"/>
      <text id="De_interes_Social" data-name="De interes
Social" transform="translate(593 3712)" fill="#fff" font-size="22" font-family="OpenSans-Semibold, Open Sans" font-weight="600"><tspan x="-54.415" y="0">De interes</tspan><tspan x="-30.728" y="30">Social</tspan></text>
      <rect id="Rectángulo_2049" data-name="Rectángulo 2049" width="237" height="83" rx="8" transform="translate(474 3936)" fill="#3b78bf"/>
      <text id="Sociedad_Laboral" data-name="Sociedad 
Laboral" transform="translate(593 3972)" fill="#fff" font-size="22" font-family="OpenSans-Semibold, Open Sans" font-weight="600"><tspan x="-50.563" y="0">Sociedad </tspan><tspan x="-40.106" y="30">Laboral</tspan></text>
      <rect id="Rectángulo_2050" data-name="Rectángulo 2050" width="237" height="83" rx="8" transform="translate(732 3837)" fill="#62a273"/>
      <text id="Sociedad_Ilimitada" data-name="Sociedad 
Ilimitada" transform="translate(851 3873)" fill="#fff" font-size="22" font-family="OpenSans-Semibold, Open Sans" font-weight="600"><tspan x="-50.563" y="0">Sociedad </tspan><tspan x="-47.013" y="30">Ilimitada</tspan></text>
      <rect id="Rectángulo_2051" data-name="Rectángulo 2051" width="237" height="83" rx="8" transform="translate(732 3936)" fill="#62a273"/>
      <text id="Sociedad_Anónima" data-name="Sociedad 
Anónima" transform="translate(851 3972)" fill="#fff" font-size="22" font-family="OpenSans-Semibold, Open Sans" font-weight="600"><tspan x="-50.563" y="0">Sociedad </tspan><tspan x="-47.921" y="30">Anónima</tspan></text>
      <rect id="Rectángulo_2052" data-name="Rectángulo 2052" width="237" height="119" rx="8" transform="translate(732 4035)" fill="#62a273"/>
      <text id="Sociedad_Comandita_por_Acciones" data-name="Sociedad
Comandita por
Acciones" transform="translate(851 4071)" fill="#fff" font-size="22" font-family="OpenSans-Semibold, Open Sans" font-weight="600"><tspan x="-47.706" y="0">Sociedad</tspan><tspan x="-79.369" y="30">Comandita por</tspan><tspan x="-46.626" y="60">Acciones</tspan></text>
      <rect id="Rectángulo_2046" data-name="Rectángulo 2046" width="237" height="83" rx="8" transform="translate(734 3676)" fill="#a793de"/>
      <text id="Capitalistas" transform="translate(853 3727)" fill="#fff" font-size="22" font-family="OpenSans-Semibold, Open Sans" font-weight="600"><tspan x="-61.526" y="0">Capitalistas</tspan></text>
      <rect id="Rectángulo_2053" data-name="Rectángulo 2053" width="237" height="83" rx="8" transform="translate(1003 3837)" fill="#62a273"/>
      <text id="Sociedad_Colectiva" data-name="Sociedad
Colectiva" transform="translate(1122 3873)" fill="#fff" font-size="22" font-family="OpenSans-Semibold, Open Sans" font-weight="600"><tspan x="-47.706" y="0">Sociedad</tspan><tspan x="-48.2" y="30">Colectiva</tspan></text>
      <rect id="Rectángulo_2054" data-name="Rectángulo 2054" width="237" height="83" rx="8" transform="translate(1003 3936)" fill="#62a273"/>
      <text id="Sociedad_Comandita_simple" data-name="Sociedad
Comandita simple" transform="translate(1122 3972)" fill="#fff" font-size="22" font-family="OpenSans-Semibold, Open Sans" font-weight="600"><tspan x="-47.706" y="0">Sociedad</tspan><tspan x="-96.25" y="30">Comandita simple</tspan></text>
      <rect id="Rectángulo_2047" data-name="Rectángulo 2047" width="237" height="83" rx="8" transform="translate(1002 3676)" fill="#a793de"/>
      <text id="Personalistas" transform="translate(1121 3727)" fill="#fff" font-size="22" font-family="OpenSans-Semibold, Open Sans" font-weight="600"><tspan x="-70.834" y="0">Personalistas</tspan></text>
    </g>
  </g>
</svg>
