<svg xmlns="http://www.w3.org/2000/svg" width="487.905" height="400.259" viewBox="0 0 487.905 400.259">
  <g id="Grupo_8587" data-name="Grupo 8587" transform="translate(-1306.03 -206.349)">
    <path id="Trazado_17754" data-name="Trazado 17754" d="M1353.236,298.08c75.621-73.631,189.314-109.269,290.314-83.269,200.467,51.6,187.116,277.444,38.922,315.19-57.99,14.771-86.412-14.629-126.249-28.3-54.726-18.789-48.428-3.975-106.991,6.37C1282.06,537.6,1277.236,372.08,1353.236,298.08Z" fill="#abc7db" opacity="0.1" style="mix-blend-mode: multiply;isolation: isolate"/>
    <path id="Trazado_17755" data-name="Trazado 17755" d="M1442.341,305.846l-18.29-.368s-12.833,8-11.5,14c.384,1.726,5,5,5,5l.333,21s7.866,3.735,10.667,2.334,8.432-4.311,8.432-4.311l-.661-8.543s5.039-.84,6.439-7.558C1444.833,317.45,1443.761,317.424,1442.341,305.846Z" fill="#ffd4cd"/>
    <path id="Trazado_17756" data-name="Trazado 17756" d="M1653.159,302.541l25.754,5.6-.84,39.468s-5.6,3.918-8.4,2.52-10.078-3.359-10.078-3.359l-.56-10.358a13.526,13.526,0,0,1-7.278-9.238C1650.359,320.457,1653.159,302.541,1653.159,302.541Z" fill="#ffd4cd"/>
    <path id="Trazado_17757" data-name="Trazado 17757" d="M1682.713,319.811a4.829,4.829,0,1,1-4.83-4.829A4.83,4.83,0,0,1,1682.713,319.811Z" fill="#f9b6b2"/>
    <path id="Trazado_17758" data-name="Trazado 17758" d="M1421.213,320.645a4.829,4.829,0,1,1-4.83-4.829A4.83,4.83,0,0,1,1421.213,320.645Z" fill="#f9b6b2"/>
    <path id="Trazado_17759" data-name="Trazado 17759" d="M1650.253,296.708s7.25-7.6,11.757-7.978c5.039-.419,10.077.42,15.536,5.877,3.674,3.676,3.779,20.577,3.779,20.577l-7.978-1.68s-1.26-8.818-5.879-8.4-13.016.42-15.955-2.1S1650.253,296.708,1650.253,296.708Z" fill="#ffa111"/>
    <path id="Trazado_17760" data-name="Trazado 17760" d="M1440.282,296.746s-7.25-7.6-11.757-7.976c-5.038-.42-10.077.418-15.536,5.876-3.674,3.675-3.837,18.134-2.438,22.332,4.479-2.8,4.994-1.085,7.5-2,1.933-.707.875-7.175,3.675-8.293,4.305-1.722,14.357-1.121,17.3-3.64S1440.282,296.746,1440.282,296.746Z" fill="#7e8192"/>
    <path id="Trazado_17761" data-name="Trazado 17761" d="M1636.551,442.478l59,.5,6,161h-26.5l.834-6.833,6.666-2.667-14.5-127.5-5.5-1-20,136.5-23.333,2.667s-3.333-8-1.333-8,6-4,6-4Z" fill="#4f5e8a"/>
    <path id="Trazado_17762" data-name="Trazado 17762" d="M1462,441.885l-53.752.093-8.029,161.833,28-.333-1.666-5.333-5.305-4.667,14.5-127.5,1.5,2,25.971,135.833,25.334.334s-.639-8-2.639-8-3.361-4.334-3.361-4.334Z" fill="#4f5e8a"/>
    <path id="Trazado_17763" data-name="Trazado 17763" d="M1634.371,351.536l21.681-7.724s2.971,3.838,10.666,3.166c3.373-.293,11.6-3.2,13.333-2.333,16.8,8.4,24,17.333,24,17.333l-9.333,41,.083,40.25-57.75-.25.5-54-8.9,16.278-16.795,8.4-13.139-12.675,22.376-14.2Z" fill="#dde8fb"/>
    <path id="Trazado_17764" data-name="Trazado 17764" d="M1460.551,350.978l-23-10s-1.805,5.671-9.5,5c-3.373-.294-8.624-.494-10.5,0-15.834,4.167-21.5,10-21.5,10l-6.5,61.5,16,4.667-.666,20.667,62.833,1.166-.5-50,8.9,16.278,16.8,8.4,13.139-12.675-22.376-14.2Z" fill="#dde8fb"/>
    <path id="Trazado_17765" data-name="Trazado 17765" d="M1446.047,463.759l-8.081,3.494,26.784,129.5s1.309-.58,6.75-1.25c-4.5-23.5-26.3-122.578-26.136-124.232C1445.784,467.07,1446.047,463.759,1446.047,463.759Z" fill="#3a4a7c"/>
    <path id="Trazado_17766" data-name="Trazado 17766" d="M1655.667,465.334l9.714.5L1643,596.667s.108-1-5.333-1.667c4.5-23.5,17.832-118.346,17.666-120A49.544,49.544,0,0,1,1655.667,465.334Z" fill="#3a4a7c"/>
    <path id="Trazado_17767" data-name="Trazado 17767" d="M1400.629,596.987l-.281,5.232,22.949.434,2.17-3.925-7.838-3.408S1407.057,596.552,1400.629,596.987Z" fill="#a4a1a5"/>
    <path id="Trazado_17768" data-name="Trazado 17768" d="M1464.379,596.237l2.838,6.991,22.75-.5-.75-4.75-5.75-3.25S1470.807,595.8,1464.379,596.237Z" fill="#a4a1a5"/>
    <path id="Trazado_17769" data-name="Trazado 17769" d="M1700.352,596.987l.281,5.232-22.949.434-2.17-3.925,7.838-3.408S1693.924,596.552,1700.352,596.987Z" fill="#a4a1a5"/>
    <path id="Trazado_17770" data-name="Trazado 17770" d="M1645.269,596.9l-2.838,6.992-22.75-.5.75-4.75,5.75-3.25S1638.841,596.468,1645.269,596.9Z" fill="#a4a1a5"/>
    <path id="Trazado_17771" data-name="Trazado 17771" d="M1656.3,351.728s5.222-1.318,7-1c1.191.216,6,3.5,6,3.5l-4,6.75-3.75,40.5-9.75,5-4.75-11,10.25-37.5Z" fill="#419edd"/>
    <path id="Trazado_17772" data-name="Trazado 17772" d="M1424.885,349.812a26.8,26.8,0,0,1,5.666-2.667c2.167-.5,5.667,2.333,5.667,2.333l-1.667,6,6,45.667s-2-1.667-7.333,2.667c-3.915,3.18-8.667-1.334-8.667-1.334l5-47.333Z" fill="#419edd"/>
    <path id="Trazado_17773" data-name="Trazado 17773" d="M1539.77,494.618a2.984,2.984,0,1,1-2.984-2.984A2.983,2.983,0,0,1,1539.77,494.618Z" fill="#17202e"/>
    <path id="Trazado_17774" data-name="Trazado 17774" d="M1505.77,335.618a2.984,2.984,0,1,1-2.984-2.984A2.983,2.983,0,0,1,1505.77,335.618Z" fill="#17202e"/>
    <path id="Trazado_17775" data-name="Trazado 17775" d="M1448.588,430.228S1416.75,428.75,1405,421.5c-3.5-9.25-.5,10.5-.5,10.5l43.838,4.728Z" fill="#b4c9ea"/>
    <path id="Trazado_17776" data-name="Trazado 17776" d="M1744.664,403.619a2.878,2.878,0,1,1-2.878-2.88A2.877,2.877,0,0,1,1744.664,403.619Z" fill="#17202e"/>
    <path id="Trazado_17777" data-name="Trazado 17777" d="M1478.826,389.608h-13a1.8,1.8,0,1,1,0-3.6h13a1.8,1.8,0,1,1,0,3.6Z" fill="#17202e"/>
    <path id="Trazado_17778" data-name="Trazado 17778" d="M1730.826,462.608h-15a1.8,1.8,0,1,1,0-3.6h15a1.8,1.8,0,1,1,0,3.6Z" fill="#17202e"/>
    <path id="Trazado_17779" data-name="Trazado 17779" d="M1406.332,465.947a1.8,1.8,0,0,1-1.8-1.775l-.448-33a1.8,1.8,0,0,1,1.775-1.824h.026a1.8,1.8,0,0,1,1.8,1.775l.448,33a1.8,1.8,0,0,1-1.776,1.824Z" fill="#17202e"/>
    <path id="Trazado_17780" data-name="Trazado 17780" d="M1447.5,346.615a1.793,1.793,0,0,1-.6-.1l-11.333-4a1.8,1.8,0,0,1,1.2-3.395l11.333,4a1.8,1.8,0,0,1-.6,3.5Z" fill="#17202e"/>
    <path id="Trazado_17781" data-name="Trazado 17781" d="M1651.052,406.279a1.8,1.8,0,0,1-1.669-1.123l-3.477-8.558,9.83-36.965c-.063-.982-.28-4.264-.534-6.812a1.8,1.8,0,0,1,3.582-.357c.308,3.085.553,7.07.564,7.239l.017.291-.075.281-9.6,36.084,3.024,7.442a1.8,1.8,0,0,1-1.667,2.478Z" fill="#17202e"/>
    <path id="Trazado_17782" data-name="Trazado 17782" d="M1662.8,405.029c-.039,0-.077,0-.116,0a1.8,1.8,0,0,1-1.682-1.911l2.77-43.419,2.641-5.721a1.8,1.8,0,0,1,3.27,1.509l-2.36,5.111-2.729,42.749A1.8,1.8,0,0,1,1662.8,405.029Z" fill="#17202e"/>
    <path id="Trazado_17783" data-name="Trazado 17783" d="M1486.8,605.947c-4.359,0-22.3-.164-22.479-.166l-1.5-.013-.256-1.479c-.165-.945-16.367-94.017-27.174-135.833-.1,0-.213,0-.322,0h-.01c-1.065,9.568-2.624,25.573-4.575,45.6-2.237,22.972-5.014,51.482-7.98,79.715.46.24.884.452,1.3.659.825.412,1.6.8,2.418,1.3a5.952,5.952,0,0,1,2.377,6.294,4.153,4.153,0,0,1-3.589,3.416c-3.654.506-24.031-.032-24.9-.055l-1.833-.05.083-1.831c.042-.944,4.259-94.987,6.01-142.422a1.774,1.774,0,0,1,1.865-1.732,1.8,1.8,0,0,1,1.733,1.865c-1.616,43.77-5.33,127.2-5.93,140.617,6.759.162,19.96.39,22.551.033.343-.034.478-.555.5-.659a2.377,2.377,0,0,0-.771-2.417c-.672-.417-1.345-.753-2.126-1.142-.715-.356-1.524-.76-2.493-1.3l-1.031-.58.124-1.177c3.012-28.607,5.835-57.593,8.1-80.883,2.044-20.982,3.659-37.556,4.728-46.962l.1-.844.714-.463a6.115,6.115,0,0,1,3.593-.557c.228.01.422.021.553.014l1.592-.233.351,1.564c10.1,38.458,25.172,123.7,27.325,135.975,4.3.038,16.645.146,20.629.153a1.979,1.979,0,0,0,.331-1.156,2.825,2.825,0,0,0-1.18-2.355,11.752,11.752,0,0,0-2.94-1.647c-.439-.2-.966-.441-1.616-.745l-.868-.4-.149-.946c-4.349-27.617-11.416-78.4-15.638-108.735-1.233-8.864-2.226-15.993-2.839-20.3a1.8,1.8,0,0,1,3.565-.508c.613,4.316,1.605,11.449,2.839,20.317,4.173,29.984,11.125,79.936,15.48,107.721l.723.331a15.119,15.119,0,0,1,3.6,2.041,6.44,6.44,0,0,1,2.456,6.611,4.144,4.144,0,0,1-3.089,3.35l-.322.029Z" fill="#17202e"/>
    <path id="Trazado_17784" data-name="Trazado 17784" d="M1431.553,343.945a1.8,1.8,0,0,1-.71-3.455l3.7-1.588.866-7.189.875-.431c1.654-.818,5.16-3.131,5.43-5.052,1.589-11.34-1.442-23.866-1.473-23.991a1.8,1.8,0,0,1,3.5-.862c.132.538,3.23,13.31,1.541,25.353-.493,3.517-4.627,6.237-6.524,7.313l-.885,7.35-5.612,2.406A1.8,1.8,0,0,1,1431.553,343.945Z" fill="#17202e"/>
    <path id="Trazado_17785" data-name="Trazado 17785" d="M1784.826,606.608h-458a1.8,1.8,0,1,1,0-3.6h458a1.8,1.8,0,1,1,0,3.6Z" fill="#17202e"/>
    <path id="Trazado_17786" data-name="Trazado 17786" d="M1433.155,468.686a1.8,1.8,0,0,1-.511-3.526l9.471-2.815a1.8,1.8,0,0,1,1.026,3.451l-9.472,2.815A1.8,1.8,0,0,1,1433.155,468.686Z" fill="#17202e"/>
    <path id="Trazado_17787" data-name="Trazado 17787" d="M1431.826,446.608h-24a1.8,1.8,0,1,1,0-3.6h24a1.8,1.8,0,1,1,0,3.6Z" fill="#17202e"/>
    <path id="Trazado_17788" data-name="Trazado 17788" d="M1629.832,360.615a1.8,1.8,0,0,1-1.428-2.9l7.667-10a1.805,1.805,0,0,1,.93-.634l17.333-5a1.8,1.8,0,1,1,1,3.459l-16.764,4.836-7.306,9.53A1.8,1.8,0,0,1,1629.832,360.615Z" fill="#17202e"/>
    <path id="Trazado_17789" data-name="Trazado 17789" d="M1621.1,605.947h-.57l-.319-.028a4.362,4.362,0,0,1-3.23-3.487,6.215,6.215,0,0,1,2.227-6.454,14.329,14.329,0,0,1,3.522-2.055l.646-.3c2.731-25.767,6.193-66.22,8.494-93.107.935-10.921,1.673-19.547,2.159-24.868a1.8,1.8,0,0,1,3.586.328c-.486,5.31-1.224,13.932-2.158,24.847-2.332,27.253-5.856,68.438-8.608,94.186l-.108,1-.906.434c-.635.3-1.149.543-1.579.745a10.9,10.9,0,0,0-2.834,1.632,2.6,2.6,0,0,0-1.018,2.294,2.066,2.066,0,0,0,.451,1.238h.246c5.759,0,7.672-.021,12.531-.073,1.969-.021,4.417-.047,7.8-.079,1.571-12.592,12.3-97.523,20.435-135.893l.35-1.65,1.669.242c.084,0,.271-.01.5-.02a6.252,6.252,0,0,1,3.585.543l.711.445.116.83c3.008,21.6,6.692,56.546,9.943,87.38,1.6,15.117,3.1,29.4,4.358,40.5l.133,1.171-1.02.59c-.943.547-1.734.951-2.432,1.308-.758.387-1.413.722-2.059,1.136a2.216,2.216,0,0,0-.616,2.258c.019.081.2.787.577.823,2.649.362,14.48.14,20.639-.02-.454-13.149-3.281-94.445-5.285-140.609a1.8,1.8,0,0,1,3.6-.157c2.176,50.1,5.318,141.535,5.35,142.453l.062,1.808-1.808.053c-.783.025-19.216.562-22.971.048a4.335,4.335,0,0,1-3.659-3.553,5.7,5.7,0,0,1,2.173-6.135c.793-.508,1.555-.9,2.362-1.31.4-.2.807-.413,1.247-.649-1.232-10.934-2.688-24.744-4.227-39.334-3.185-30.212-6.788-64.376-9.755-86-.1,0-.209,0-.309,0-8.69,41.856-20.168,134.8-20.284,135.746l-.193,1.566-1.577.014c-4.214.039-7.108.07-9.369.094C1628.8,605.927,1626.883,605.947,1621.1,605.947Z" fill="#17202e"/>
    <path id="Trazado_17790" data-name="Trazado 17790" d="M1661.3,348.529a1.785,1.785,0,0,1-1-.3c-.287-.191-1.206-.711-1.945-1.129a13.517,13.517,0,0,1-2.58-1.6l-.534-.534.007-.755c0-.033.025-3.232-.18-7.722-3.989-3.7-6.243-9.037-6.7-15.89-1.1-16.434.957-20.846,1.194-21.3a1.8,1.8,0,0,1,3.182,1.685h0s-1.8,4.13-.784,19.37c.412,6.18,2.443,10.862,6.036,13.916l.593.5.039.778c.174,3.485.213,6.263.22,7.675.4.232.9.513,1.281.731,1.1.624,1.8,1.021,2.167,1.267a1.8,1.8,0,0,1-1,3.3Z" fill="#17202e"/>
    <path id="Trazado_17791" data-name="Trazado 17791" d="M1666.5,468.614c-.055,0-.109,0-.165-.007L1659,467.94a1.8,1.8,0,1,1,.326-3.585l7.334.666a1.8,1.8,0,0,1-.161,3.593Z" fill="#17202e"/>
    <path id="Trazado_17792" data-name="Trazado 17792" d="M1685.165,349.281a1.786,1.786,0,0,1-.959-.279l-7.11-4.49-1.208-19a1.8,1.8,0,0,1,1.681-1.911,1.818,1.818,0,0,1,1.911,1.682l1.092,17.166,5.556,3.509a1.8,1.8,0,0,1-.963,3.323Z" fill="#17202e"/>
    <path id="Trazado_17793" data-name="Trazado 17793" d="M1693.826,446.608h-36a1.8,1.8,0,1,1,0-3.6h36a1.8,1.8,0,1,1,0,3.6Z" fill="#17202e"/>
    <path id="Trazado_17794" data-name="Trazado 17794" d="M1563.632,383.371a22.516,22.516,0,0,0-13.886-5.217c-6.832-.174-12.961,5.567-17.293,7.393-5.92,2.492-13.107-.819-13.24-7.158l.458-20.784-70.718-1.033-.794,51.9-.5,30-.141,5.533,70.309,1.029s.384-17.359.6-21.476c.447-8.446,8.431-10.215,14.7-7.438,3.987,1.768,9.182,7.082,15.479,7.24a22.613,22.613,0,0,0,15.028-39.992Z" fill="#3fa9f5"/>
    <path id="Trazado_17795" data-name="Trazado 17795" d="M1447.827,403.608h-.031a1.8,1.8,0,0,1-1.77-1.83l.794-46.9a1.8,1.8,0,0,1,1.8-1.77h.027l70.718,1.034a1.8,1.8,0,0,1,1.774,1.839l-.458,20.783a8,8,0,0,0,2.495,5.946,6.021,6.021,0,0,0,4.677,1.482,1.8,1.8,0,0,1,.4,3.579,9.69,9.69,0,0,1-7.447-2.354,11.6,11.6,0,0,1-3.723-8.655l.418-19.047-67.108-.981-.764,45.108A1.8,1.8,0,0,1,1447.827,403.608Z" fill="#17202e"/>
    <path id="Trazado_17796" data-name="Trazado 17796" d="M1517.495,445.171h-.027l-70.31-1.029a1.8,1.8,0,0,1-1.773-1.846l.141-5.533a1.78,1.78,0,0,1,1.846-1.754,1.8,1.8,0,0,1,1.754,1.845l-.1,3.715,66.7.976c.1-4.558.385-16.389.562-19.746.263-4.962,2.743-7.49,4.776-8.738,3.367-2.065,8.135-2.161,12.449-.25a32.342,32.342,0,0,1,4.433,2.629c3.086,2.045,6.585,4.362,10.36,4.457a20.81,20.81,0,0,0,21.331-20.278,1.756,1.756,0,0,1,1.844-1.754,1.8,1.8,0,0,1,1.755,1.844,24.411,24.411,0,0,1-25.019,23.787c-4.812-.121-8.941-2.857-12.259-5.055a30.035,30.035,0,0,0-3.9-2.338c-3.2-1.417-6.77-1.408-9.107.026-1.889,1.159-2.919,3.13-3.063,5.86-.213,4.042-.595,21.248-.6,21.422A1.8,1.8,0,0,1,1517.495,445.171Z" fill="#17202e"/>
    <g id="Grupo_8583" data-name="Grupo 8583">
      <g id="Grupo_8582" data-name="Grupo 8582">
        <path id="Trazado_17797" data-name="Trazado 17797" d="M1541.128,365.637l-.4,22.586c.183,6.888,8,10.444,14.416,7.7,4.7-2.011,11.315-8.284,18.739-8.14a24.572,24.572,0,0,1-.974,49.134c-6.84-.136-12.518-5.876-16.861-7.772-6.827-2.982-15.491-1.012-15.927,8.17-.21,4.475-.463,23.341-.463,23.341l91.22,1.567.17-19.255.27-37.166.4-39.409Z" fill="#4acad2"/>
        <path id="Trazado_17798" data-name="Trazado 17798" d="M1630.877,464.02h-.031l-91.22-1.566a1.8,1.8,0,0,1-1.769-1.823c.011-.773.256-18.948.465-23.4.253-5.328,2.894-8.054,5.065-9.4,3.6-2.237,8.729-2.365,13.381-.334a35.03,35.03,0,0,1,4.809,2.817c3.385,2.213,7.22,4.723,11.367,4.8.151,0,.3.005.453.005a22.772,22.772,0,0,0,.45-45.539c-4.638-.113-9.027,2.679-12.921,5.123a39.806,39.806,0,0,1-5.075,2.872,13.127,13.127,0,0,1-12.1-.876,10.231,10.231,0,0,1-4.824-8.43l.4-22.665a1.8,1.8,0,0,1,1.8-1.768h.015l90.592.754a1.8,1.8,0,0,1,1.786,1.818l-.4,39.409a1.8,1.8,0,0,1-1.8,1.782h-.018a1.8,1.8,0,0,1-1.781-1.819l.384-37.605-87.006-.724-.37,20.8a6.571,6.571,0,0,0,3.166,5.414,9.489,9.489,0,0,0,8.743.6,37.611,37.611,0,0,0,4.578-2.611c4.037-2.533,9.047-5.676,14.617-5.676.1,0,.19,0,.287,0a26.372,26.372,0,0,1-1.044,52.734c-5.182-.1-9.664-3.036-13.266-5.393a32.813,32.813,0,0,0-4.281-2.53c-3.581-1.564-7.429-1.529-10.039.093-2.092,1.3-3.225,3.491-3.369,6.514-.168,3.581-.366,16.67-.436,21.486l87.611,1.505.154-17.44a1.8,1.8,0,0,1,1.8-1.784h.016a1.8,1.8,0,0,1,1.784,1.816l-.17,19.254a1.8,1.8,0,0,1-1.8,1.784Z" fill="#17202e"/>
      </g>
    </g>
    <path id="Trazado_17799" data-name="Trazado 17799" d="M1623.492,419.464l-.941-6.986,3-1,10.391,7.321s5.04,10.077,4.2,10.917-11.7,3.61-15.591,3.262c-1.636-.144-2.571-3.757-5-6.5-1.919-2.167-3.4-2.833-4.5-4.5C1613.745,419.994,1623.492,419.464,1623.492,419.464Z" fill="#ffd4cd"/>
    <path id="Trazado_17800" data-name="Trazado 17800" d="M1453.507,417.464l.877-3.986-2.936-4-11.73,5.167s-3.7,12.231-2.86,13.071,11.7,3.61,15.59,3.262c1.637-.144,2.175-1.923,4.6-4.666,4.167-3.334,5-4.167,4.9-6.334C1461.836,417.605,1453.507,417.464,1453.507,417.464Z" fill="#ffd4cd"/>
    <path id="Trazado_17801" data-name="Trazado 17801" d="M1615.834,424.115a1.8,1.8,0,0,1-.683-3.467l7.334-3a1.8,1.8,0,0,1,1.364,3.332l-7.334,3A1.786,1.786,0,0,1,1615.834,424.115Z" fill="#17202e"/>
    <path id="Trazado_17802" data-name="Trazado 17802" d="M1460.828,420.609a1.788,1.788,0,0,1-.3-.025l-7.5-1.25a1.8,1.8,0,0,1,.592-3.551l7.5,1.25a1.8,1.8,0,0,1-.294,3.576Z" fill="#17202e"/>
    <path id="Trazado_17803" data-name="Trazado 17803" d="M1640.158,431.609a1.8,1.8,0,0,1-1.75-1.388l-1.333-5.667a1.8,1.8,0,0,1,3.5-.825l1.333,5.667a1.8,1.8,0,0,1-1.34,2.165A1.835,1.835,0,0,1,1640.158,431.609Z" fill="#17202e"/>
    <path id="Trazado_17804" data-name="Trazado 17804" d="M1436.495,428.942a1.8,1.8,0,0,1-1.767-2.153l1.334-6.667a1.8,1.8,0,1,1,3.53.706l-1.334,6.667A1.8,1.8,0,0,1,1436.495,428.942Z" fill="#17202e"/>
    <path id="Trazado_17805" data-name="Trazado 17805" d="M1660.314,337.92a14.3,14.3,0,0,1-4.032-.559,1.8,1.8,0,1,1,1.1-3.427c.033.01,3.979,1.209,7.209-.674a1.8,1.8,0,1,1,1.814,3.109A12.033,12.033,0,0,1,1660.314,337.92Z" fill="#17202e"/>
    <path id="Trazado_17806" data-name="Trazado 17806" d="M1442.326,416.108a1.809,1.809,0,0,1-.495-.069l-35.493-10.161a1.8,1.8,0,0,1-1.287-1.985l4-28a1.8,1.8,0,0,1,3.564.509l-3.778,26.447,33.449,9.576,8.471-2.824a1.8,1.8,0,1,1,1.138,3.415l-9,3A1.779,1.779,0,0,1,1442.326,416.108Z" fill="#17202e"/>
    <g id="Grupo_8584" data-name="Grupo 8584">
      <path id="Trazado_17807" data-name="Trazado 17807" d="M1583.778,341.241a1.8,1.8,0,0,1-1.274-3.071l6.691-6.709a1.8,1.8,0,0,1,2.549,2.542l-6.691,6.709A1.793,1.793,0,0,1,1583.778,341.241Z" fill="#17202e"/>
      <path id="Trazado_17808" data-name="Trazado 17808" d="M1590.478,341.231a1.794,1.794,0,0,1-1.272-.525l-6.707-6.69a1.8,1.8,0,1,1,2.543-2.549l6.707,6.69a1.8,1.8,0,0,1-1.271,3.074Z" fill="#17202e"/>
    </g>
    <g id="Grupo_8585" data-name="Grupo 8585">
      <path id="Trazado_17809" data-name="Trazado 17809" d="M1533.063,310.556a1.8,1.8,0,0,1-1.275-3.071l11.69-11.721a1.8,1.8,0,0,1,2.548,2.542l-11.689,11.721A1.8,1.8,0,0,1,1533.063,310.556Z" fill="#17202e"/>
      <path id="Trazado_17810" data-name="Trazado 17810" d="M1544.767,310.54a1.8,1.8,0,0,1-1.272-.525l-11.719-11.69a1.8,1.8,0,0,1,2.543-2.549l11.719,11.69a1.8,1.8,0,0,1-1.271,3.074Z" fill="#17202e"/>
    </g>
    <g id="Grupo_8586" data-name="Grupo 8586">
      <path id="Trazado_17811" data-name="Trazado 17811" d="M1486.32,482.741a1.8,1.8,0,0,1-1.274-3.071l8.5-8.525a1.8,1.8,0,0,1,2.549,2.543l-8.5,8.525A1.8,1.8,0,0,1,1486.32,482.741Z" fill="#17202e"/>
      <path id="Trazado_17812" data-name="Trazado 17812" d="M1494.833,482.729a1.79,1.79,0,0,1-1.271-.525l-8.524-8.5a1.8,1.8,0,0,1,2.543-2.549l8.524,8.5a1.8,1.8,0,0,1-1.272,3.074Z" fill="#17202e"/>
    </g>
    <path id="Trazado_17813" data-name="Trazado 17813" d="M1440.049,405.779a1.8,1.8,0,0,1-1.788-1.611l-4.833-45.5a1.8,1.8,0,1,1,3.58-.379l4.833,45.5a1.8,1.8,0,0,1-1.6,1.98C1440.177,405.775,1440.112,405.779,1440.049,405.779Z" fill="#17202e"/>
    <path id="Trazado_17814" data-name="Trazado 17814" d="M1425.22,402.613c-.037,0-.074,0-.111,0a1.8,1.8,0,0,1-1.688-1.9l2.638-43.853-2.452-4.9a1.8,1.8,0,0,1,3.221-1.611l2.667,5.334a1.816,1.816,0,0,1,.187.913l-2.667,44.334A1.8,1.8,0,0,1,1425.22,402.613Z" fill="#17202e"/>
    <path id="Trazado_17815" data-name="Trazado 17815" d="M1676.218,303.812c-4.2-7.556-14.1-.208-17.667-5.667-.276-.548-2.2-5.444-2.655-5.9a52.447,52.447,0,0,0-3.853,3.572s-3.1,5.143-.159,7.662,12.048,2.921,16.667,2.5,5.667,8.834,5.667,8.834l4.333-1.334C1677.519,311.01,1677.9,307.592,1676.218,303.812Z" fill="#f8690a"/>
    <path id="Trazado_17816" data-name="Trazado 17816" d="M1416.218,305.812c4.2-7.556,13.876-1.556,17.446-7.015,3.333-2.666.875-6.043,1.332-6.5,3.168,1.5,5.231,5.369,5.231,5.369s1.679,3.781-1.259,6.3-9.353,3.919-13.972,3.5-6.695,7.263-6.695,7.263l-3.75-.75C1413.994,311.978,1414.538,309.592,1416.218,305.812Z" fill="#525468" opacity="0.72"/>
    <path id="Trazado_17817" data-name="Trazado 17817" d="M1636.8,430.728s39-4,50.75-11.25c3.5-9.25,8.5-29.75,8.5-29.75s.179,7.248-.25,11.75c-.84,8.818-1.25,27.5-1.25,27.5l-57.5,8.25Z" fill="#b4c9ea"/>
    <path id="Trazado_17818" data-name="Trazado 17818" d="M1626.081,434.447c-4.1,0-5.605-1.918-6.559-5.118a9.241,9.241,0,0,0-.609-1.666,1.8,1.8,0,1,1,3.174-1.7,12.244,12.244,0,0,1,.885,2.334c.641,2.153,1.031,3.453,7.785,1.877,11.264-2.628,31.146-6.894,45.664-10.009,4.07-.873,7.627-1.636,10.3-2.215,1.519-5.433,3.537-12,5.665-18.923,3.074-10,6.252-20.338,8.023-27.645.01-.043.022-.085.035-.127,2.7-8.409.95-10.944-3.4-14.369a55.317,55.317,0,0,0-7.095-4.454c-1.751-.987-3.735-2.105-5.855-3.43a1.8,1.8,0,1,1,1.908-3.053c2.05,1.281,3.913,2.331,5.715,3.347a57.606,57.606,0,0,1,7.553,4.762c5.414,4.263,7.755,8.436,4.622,18.235-1.8,7.409-4.986,17.771-8.066,27.792-2.26,7.352-4.393,14.3-5.927,19.87a1.8,1.8,0,0,1-1.353,1.282c-2.763.6-6.734,1.453-11.373,2.448-13.686,2.937-34.368,7.374-45.6,10A24.806,24.806,0,0,1,1626.081,434.447Z" fill="#17202e"/>
    <path id="Trazado_17819" data-name="Trazado 17819" d="M1635.493,418.608a1.805,1.805,0,0,1-.8-.189l-9.328-4.661a1.8,1.8,0,0,1,1.61-3.221l8.691,4.343,37.051-11.019,9.728-32.562a1.8,1.8,0,0,1,3.45,1.031l-10.007,33.494a1.8,1.8,0,0,1-1.212,1.21l-38.666,11.5A1.8,1.8,0,0,1,1635.493,418.608Z" fill="#17202e"/>
    <path id="Trazado_17820" data-name="Trazado 17820" d="M1694.824,465.944a1.8,1.8,0,0,1-1.8-1.708l-1-19.663,0-17.764a1.8,1.8,0,1,1,3.6,0v17.672l1,19.572a1.8,1.8,0,0,1-1.706,1.889Z" fill="#17202e"/>
    <path id="Trazado_17821" data-name="Trazado 17821" d="M1452.471,432.308a5.455,5.455,0,0,1-.71-.048c-5.1-.665-12.64-1.887-12.715-1.9l-52.158-11.336,5.765-59.575a11.91,11.91,0,0,1,8.991-10.729l9.724-3.6,3.578-1.419-1.159-18.19a1.8,1.8,0,1,1,3.592-.229l1.327,20.8-6.05,2.4-9.971,3.685a8.288,8.288,0,0,0-6.434,7.436l-.008.129-5.465,56.455,48.939,10.638h0c.015,0,7.475,1.209,12.51,1.866,1.995.247,2.82-3.817,2.827-3.858a1.8,1.8,0,0,1,3.548.614C1458.179,427.909,1456.367,432.308,1452.471,432.308Z" fill="#17202e"/>
    <path id="Trazado_17822" data-name="Trazado 17822" d="M1410.331,313.448a1.8,1.8,0,0,1-1.75-1.387,25.79,25.79,0,0,1,1.026-13.289c1.523-5.408,10.442-11.853,21.073-9.729,5.826,1.166,10.027,4.783,12.484,10.752l.255.62-.211.635c-1.442,4.326-5.61,5.078-10.437,5.949a56.877,56.877,0,0,0-7.641,1.772,4.465,4.465,0,0,0-2.918,2.265,1.8,1.8,0,0,1-3.424-1.111,7.782,7.782,0,0,1,5.234-4.579,59.718,59.718,0,0,1,8.111-1.89c4.217-.761,6.476-1.244,7.41-2.966-2.015-4.44-5.151-7.033-9.569-7.916-8.805-1.762-15.951,3.664-16.911,7.2l-.038.124a22.291,22.291,0,0,0-.94,11.33,1.8,1.8,0,0,1-1.754,2.215Z" fill="#17202e"/>
    <path id="Trazado_17823" data-name="Trazado 17823" d="M1416.835,326.615a1.95,1.95,0,0,1-.226-.014c-4.729-.593-6.537-3.086-7.22-5.074a6.55,6.55,0,0,1,9.9-7.531,1.8,1.8,0,1,1-2.035,2.969,2.924,2.924,0,0,0-2.629-.357,2.953,2.953,0,0,0-1.831,3.748c.33.959,1.131,2.28,4.264,2.672a1.8,1.8,0,0,1-.222,3.587Z" fill="#17202e"/>
    <path id="Trazado_17824" data-name="Trazado 17824" d="M1681.835,311.948a1.806,1.806,0,0,1-1.78-2.076h0a23.405,23.405,0,0,0-2.142-12.2c-2.162-3.524-7.708-6.6-16.855-4.756a11.572,11.572,0,0,0-8.333,8.309c1.75,3.35,7.423,3.627,14.608,3.627,5.576,0,7.212,3.41,7.3,5.213a1.8,1.8,0,0,1-1.712,1.884,1.779,1.779,0,0,1-1.884-1.712c-.032-.253-.379-1.786-3.7-1.786-7,0-15.721,0-18.181-6.4l-.19-.5.109-.519c1.213-5.76,5.849-10.548,11.274-11.644,11.041-2.234,17.934,1.9,20.7,6.506l.081.151a26.627,26.627,0,0,1,2.486,14.388A1.8,1.8,0,0,1,1681.835,311.948Z" fill="#17202e"/>
    <path id="Trazado_17825" data-name="Trazado 17825" d="M1676.4,326.615a1.8,1.8,0,0,1-.223-3.586c3.056-.385,3.771-1.665,4.044-2.594a3.183,3.183,0,0,0-2.1-3.824,2.852,2.852,0,0,0-2.586.338,1.8,1.8,0,0,1-2.084-2.937,6.49,6.49,0,0,1,5.822-.811,6.815,6.815,0,0,1,4.4,8.247c-.593,2.02-2.3,4.553-7.048,5.152A1.761,1.761,0,0,1,1676.4,326.615Z" fill="#17202e"/>
  </g>
</svg>
