<svg xmlns="http://www.w3.org/2000/svg" width="1140" height="638.516" viewBox="0 0 1140 638.516">
  <g id="Grupo_8631" data-name="Grupo 8631" transform="translate(-390 -1676.484)">
    <g id="Trazado_17187" data-name="Trazado 17187" transform="translate(390 2122)" fill="#e2daf5">
      <path d="M 1139.5 64.5 L 0.5 64.5 L 0.5 0.5 L 1139.5 0.5 L 1139.5 64.5 Z" stroke="none"/>
      <path d="M 1 1 L 1 64 L 1139 64 L 1139 1 L 1 1 M 0 0 L 1140 0 L 1140 65 L 0 65 L 0 0 Z" stroke="none" fill="#3a1b8d"/>
    </g>
    <g id="Trazado_17186" data-name="Trazado 17186" transform="translate(390 2058)" fill="#d0c5ef">
      <path d="M 1139.5 64.5 L 0.5 64.5 L 0.5 0.5 L 1139.5 0.5 L 1139.5 64.5 Z" stroke="none"/>
      <path d="M 1 1 L 1 64 L 1139 64 L 1139 1 L 1 1 M 0 0 L 1140 0 L 1140 65 L 0 65 L 0 0 Z" stroke="none" fill="#3a1b8d"/>
    </g>
    <g id="Trazado_17185" data-name="Trazado 17185" transform="translate(390 1995)" fill="#e2daf5">
      <path d="M 1139.5 64.5 L 0.5 64.5 L 0.5 0.5 L 1139.5 0.5 L 1139.5 64.5 Z" stroke="none"/>
      <path d="M 1 1 L 1 64 L 1139 64 L 1139 1 L 1 1 M 0 0 L 1140 0 L 1140 65 L 0 65 L 0 0 Z" stroke="none" fill="#3a1b8d"/>
    </g>
    <g id="Trazado_17168" data-name="Trazado 17168" transform="translate(390 1676.484)" fill="#fff">
      <path d="M 1139.5 255.0156555175781 L 0.5 255.0156555175781 L 0.5 0.499947726726532 L 1139.5 0.499947726726532 L 1139.5 255.0156555175781 Z" stroke="none"/>
      <path d="M 1 0.9999542236328125 L 1 254.5156555175781 L 1139 254.5156555175781 L 1139 0.9999542236328125 L 1 0.9999542236328125 M 0 -4.57763671875e-05 L 1140 -4.57763671875e-05 L 1140 255.5156555175781 L 0 255.5156555175781 L 0 -4.57763671875e-05 Z" stroke="none" fill="#3a1b8d"/>
    </g>
    <g id="Trazado_17169" data-name="Trazado 17169" transform="translate(390 1676.484)" fill="#5f3bbf">
      <path d="M 1139.5 63.01567077636719 L 0.5 63.01567077636719 L 0.5 0.499957263469696 L 1139.5 0.499957263469696 L 1139.5 63.01567077636719 Z" stroke="none"/>
      <path d="M 1 0.9999580383300781 L 1 62.51567077636719 L 1139 62.51567077636719 L 1139 0.9999580383300781 L 1 0.9999580383300781 M 0 -4.1961669921875e-05 L 1140 -4.1961669921875e-05 L 1140 63.51567077636719 L 0 63.51567077636719 L 0 -4.1961669921875e-05 Z" stroke="none" fill="#3a1b8d"/>
    </g>
    <g id="Trazado_17172" data-name="Trazado 17172" transform="translate(390 1739)" fill="#e2daf5">
      <path d="M 1139.5 64.5 L 0.5 64.5 L 0.5 0.5 L 1139.5 0.5 L 1139.5 64.5 Z" stroke="none"/>
      <path d="M 1 1 L 1 64 L 1139 64 L 1139 1 L 1 1 M 0 0 L 1140 0 L 1140 65 L 0 65 L 0 0 Z" stroke="none" fill="#3a1b8d"/>
    </g>
    <g id="Trazado_17176" data-name="Trazado 17176" transform="translate(390 1803)" fill="#d0c5ef">
      <path d="M 1139.5 64.5 L 0.5 64.5 L 0.5 0.5 L 1139.5 0.5 L 1139.5 64.5 Z" stroke="none"/>
      <path d="M 1 1 L 1 64 L 1139 64 L 1139 1 L 1 1 M 0 0 L 1140 0 L 1140 65 L 0 65 L 0 0 Z" stroke="none" fill="#3a1b8d"/>
    </g>
    <g id="Trazado_17183" data-name="Trazado 17183" transform="translate(390 1867)" fill="#e2daf5">
      <path d="M 1139.5 64.5 L 0.5 64.5 L 0.5 0.5 L 1139.5 0.5 L 1139.5 64.5 Z" stroke="none"/>
      <path d="M 1 1 L 1 64 L 1139 64 L 1139 1 L 1 1 M 0 0 L 1140 0 L 1140 65 L 0 65 L 0 0 Z" stroke="none" fill="#3a1b8d"/>
    </g>
    <text id="Artículo" transform="translate(410 1715)" fill="#fff" font-size="21" font-family="OpenSans-Bold, Open Sans" font-weight="700"><tspan x="0" y="0">Artículo</tspan></text>
    <text id="Descripción" transform="translate(547 1715)" fill="#fff" font-size="21" font-family="OpenSans-Bold, Open Sans" font-weight="700"><tspan x="0" y="0">Descripción</tspan></text>
    <text id="Comerciantes._Concepto._Calidad" data-name="Comerciantes. Concepto. Calidad" transform="translate(547 1779)" fill="#3a1b8d" font-size="19" font-family="OpenSans-Bold, Open Sans" font-weight="700"><tspan x="0" y="0">Comerciantes. Concepto. Calidad</tspan></text>
    <text id="_10" data-name="10" transform="translate(432 1779)" fill="#3a1b8d" font-size="21" font-family="OpenSans-Bold, Open Sans" font-weight="700"><tspan x="0" y="0">10</tspan></text>
    <text id="Aplicación_de_las_normas_comerciales_a_operaciones_mercantiles_de_no_comerciantes" data-name="Aplicación de las normas comerciales a operaciones mercantiles de no comerciantes" transform="translate(547 1844)" fill="#3a1b8d" font-size="19" font-family="OpenSans-Bold, Open Sans" font-weight="700"><tspan x="0" y="0">Aplicación de las normas comerciales a operaciones mercantiles de no comerciantes</tspan></text>
    <text id="_11" data-name="11" transform="translate(432 1844)" fill="#3a1b8d" font-size="21" font-family="OpenSans-Bold, Open Sans" font-weight="700"><tspan x="0" y="0">11</tspan></text>
    <text id="Personas_habilitadas_e_inhabilitadas_para_ejercer_el_comercio." data-name="Personas habilitadas e inhabilitadas para ejercer el comercio." transform="translate(547 1906)" fill="#3a1b8d" font-size="19" font-family="OpenSans-Bold, Open Sans" font-weight="700"><tspan x="0" y="0">Personas habilitadas e inhabilitadas para ejercer el comercio.</tspan></text>
    <text id="_12" data-name="12" transform="translate(432 1908)" fill="#3a1b8d" font-size="21" font-family="OpenSans-Bold, Open Sans" font-weight="700"><tspan x="0" y="0">12</tspan></text>
    <g id="Trazado_17184" data-name="Trazado 17184" transform="translate(390 1931)" fill="#d0c5ef">
      <path d="M 1139.5 64.5 L 0.5 64.5 L 0.5 0.5 L 1139.5 0.5 L 1139.5 64.5 Z" stroke="none"/>
      <path d="M 1 1 L 1 64 L 1139 64 L 1139 1 L 1 1 M 0 0 L 1140 0 L 1140 65 L 0 65 L 0 0 Z" stroke="none" fill="#3a1b8d"/>
    </g>
    <text id="Presunciones_de_estar_ejerciendo_el_comercio." data-name="Presunciones de estar ejerciendo el comercio." transform="translate(547 1969)" fill="#3a1b8d" font-size="19" font-family="OpenSans-Bold, Open Sans" font-weight="700"><tspan x="0" y="0">Presunciones de estar ejerciendo el comercio.</tspan></text>
    <text id="_13" data-name="13" transform="translate(432 1971)" fill="#3a1b8d" font-size="21" font-family="OpenSans-Bold, Open Sans" font-weight="700"><tspan x="0" y="0">13</tspan></text>
    <text id="Personas_inhábiles_para_ejercer_el_comercio." data-name="Personas inhábiles para ejercer el comercio." transform="translate(547 2033)" fill="#3a1b8d" font-size="19" font-family="OpenSans-Bold, Open Sans" font-weight="700"><tspan x="0" y="0">Personas inhábiles para ejercer el comercio.</tspan></text>
    <text id="_14" data-name="14" transform="translate(432 2035)" fill="#3a1b8d" font-size="21" font-family="OpenSans-Bold, Open Sans" font-weight="700"><tspan x="0" y="0">14</tspan></text>
    <text id="Inhabilidades_sobrevinientes_por_posesión_en_un_cargo_-_comunicación_a_la_Cámara_de_Comercio." data-name="Inhabilidades sobrevinientes por posesión en un cargo - comunicación a la Cámara de Comercio." transform="translate(547 2098)" fill="#3a1b8d" font-size="19" font-family="OpenSans-Bold, Open Sans" font-weight="700"><tspan x="0" y="0">Inhabilidades sobrevinientes por posesión en un cargo - comunicación a la Cámara de Comercio.</tspan></text>
    <text id="_15" data-name="15" transform="translate(432 2100)" fill="#3a1b8d" font-size="21" font-family="OpenSans-Bold, Open Sans" font-weight="700"><tspan x="0" y="0">15</tspan></text>
    <text id="Delitos_que_implican_prohibición_del_ejercicio_del_comercio_como_pena_accesoria._" data-name="Delitos que implican prohibición del ejercicio del comercio como pena accesoria. " transform="translate(547 2161)" fill="#3a1b8d" font-size="19" font-family="OpenSans-Bold, Open Sans" font-weight="700"><tspan x="0" y="0">Delitos que implican prohibición del ejercicio del comercio como pena accesoria. </tspan></text>
    <text id="_16" data-name="16" transform="translate(432 2163)" fill="#3a1b8d" font-size="21" font-family="OpenSans-Bold, Open Sans" font-weight="700"><tspan x="0" y="0">16</tspan></text>
    <g id="Trazado_17188" data-name="Trazado 17188" transform="translate(390 2186)" fill="#d0c5ef">
      <path d="M 1139.5 64.5 L 0.5 64.5 L 0.5 0.5 L 1139.5 0.5 L 1139.5 64.5 Z" stroke="none"/>
      <path d="M 1 1 L 1 64 L 1139 64 L 1139 1 L 1 1 M 0 0 L 1140 0 L 1140 65 L 0 65 L 0 0 Z" stroke="none" fill="#3a1b8d"/>
    </g>
    <text id="Pérdida_de_la_calidad_de_comerciante_por_inhabilidades_sobrevinientes." data-name="Pérdida de la calidad de comerciante por inhabilidades sobrevinientes." transform="translate(547 2226)" fill="#3a1b8d" font-size="19" font-family="OpenSans-Bold, Open Sans" font-weight="700"><tspan x="0" y="0">Pérdida de la calidad de comerciante por inhabilidades sobrevinientes.</tspan></text>
    <text id="_17" data-name="17" transform="translate(432 2228)" fill="#3a1b8d" font-size="21" font-family="OpenSans-Bold, Open Sans" font-weight="700"><tspan x="0" y="0">17</tspan></text>
    <g id="Trazado_17189" data-name="Trazado 17189" transform="translate(390 2250)" fill="#e2daf5">
      <path d="M 1139.5 64.5 L 0.5 64.5 L 0.5 0.5 L 1139.5 0.5 L 1139.5 64.5 Z" stroke="none"/>
      <path d="M 1 1 L 1 64 L 1139 64 L 1139 1 L 1 1 M 0 0 L 1140 0 L 1140 65 L 0 65 L 0 0 Z" stroke="none" fill="#3a1b8d"/>
    </g>
    <text id="Nulidades_por_incapacidad." data-name="Nulidades por incapacidad." transform="translate(547 2289)" fill="#3a1b8d" font-size="19" font-family="OpenSans-Bold, Open Sans" font-weight="700"><tspan x="0" y="0">Nulidades por incapacidad.</tspan></text>
    <text id="_18" data-name="18" transform="translate(432 2291)" fill="#3a1b8d" font-size="21" font-family="OpenSans-Bold, Open Sans" font-weight="700"><tspan x="0" y="0">18</tspan></text>
    <path id="Trazado_16961" data-name="Trazado 16961" d="M4152.938,699v638.515" transform="translate(-3640 977.484)" fill="#fff" stroke="#3a1b8d" stroke-width="1"/>
  </g>
</svg>
