<svg xmlns="http://www.w3.org/2000/svg" width="278.086" height="291.678" viewBox="0 0 278.086 291.678">
  <g id="Grupo_8661" data-name="Grupo 8661" transform="translate(-821 -1084.322)">
    <text id="Honestidad_Respeto_y_Lealtad" data-name="Honestidad, Respeto y 
Lealtad" transform="translate(960 1340)" fill="#5f3bbf" font-size="22" font-family="OpenSans-Bold, Open Sans" font-weight="700"><tspan x="-125.415" y="0">Honestidad, Respeto y </tspan><tspan x="-41.094" y="30">Lealtad</tspan></text>
    <g id="Grupo_8611" data-name="Grupo 8611" transform="translate(15.518 860.847)">
      <path id="Trazado_17903" data-name="Trazado 17903" d="M1165.054,464.768l6.845,11.793-44.074,34.8-5.084-6.065-4.459-5.441Z" transform="translate(-130.061 -112.162)" fill="#03abf2" opacity="0.46"/>
      <path id="Trazado_17904" data-name="Trazado 17904" d="M1057.821,402a52.193,52.193,0,1,1-52.193-52.193A52.194,52.194,0,0,1,1057.821,402Z" transform="translate(-53.435 -58.724)" fill="#f1f7f8" opacity="0.85"/>
      <path id="Trazado_17905" data-name="Trazado 17905" d="M1218.541,533.468l-6.215-6.214,6.215-6.213,6.214,6.213Zm-3.939-6.214,3.939,3.939,3.938-3.939-3.938-3.937Z" transform="translate(-173.777 -138.32)" fill="#243640"/>
      <path id="Trazado_17906" data-name="Trazado 17906" d="M844.7,394.415l-6.214-6.213,6.214-6.213,6.215,6.213Zm-3.938-6.213,3.938,3.938,3.939-3.938-3.939-3.938Z" transform="translate(0 -73.683)" fill="#243640"/>
      <g id="Grupo_8598" data-name="Grupo 8598" transform="translate(866.991 274.583)">
        <path id="Trazado_17907" data-name="Trazado 17907" d="M897.114,337.852a.8.8,0,0,1-.8-.8v-15.69a.8.8,0,0,1,1.609,0v15.69A.8.8,0,0,1,897.114,337.852Z" transform="translate(-893.872 -319.709)" fill="#3a4a53"/>
        <g id="Grupo_8597" data-name="Grupo 8597" transform="translate(0 0)">
          <path id="Trazado_17908" data-name="Trazado 17908" d="M891.754,322.514l.589.549,2.7-2.906,2.7,2.906.589-.549-3.291-3.539Z" transform="translate(-891.754 -318.976)" fill="#3a4a53"/>
        </g>
      </g>
      <g id="Grupo_8599" data-name="Grupo 8599" transform="translate(841.777 387.671)">
        <path id="Trazado_17909" data-name="Trazado 17909" d="M845.242,540.519a.6.6,0,1,1,0-1.2l9.493-.006h0a.6.6,0,1,1,0,1.2l-9.493.008Z" transform="translate(-844.639 -534.485)" fill="#243640"/>
        <path id="Trazado_17910" data-name="Trazado 17910" d="M854.112,541.153a.641.641,0,0,1-.6-.646l-.012-9.553a.657.657,0,0,1,.6-.664h0a.636.636,0,0,1,.6.641l.012,9.556a.659.659,0,0,1-.6.666Z" transform="translate(-848.756 -530.291)" fill="#243640"/>
      </g>
      <g id="Grupo_8601" data-name="Grupo 8601" transform="translate(853.447 340.637)">
        <path id="Trazado_17911" data-name="Trazado 17911" d="M881.1,504.99a.8.8,0,0,1-.8-.8V470.548l-8.046-6.558V444.645a.8.8,0,1,1,1.609,0v18.581l8.046,6.556v34.4A.8.8,0,0,1,881.1,504.99Z" transform="translate(-869.145 -443.071)" fill="#03abf2"/>
        <g id="Grupo_8600" data-name="Grupo 8600">
          <path id="Trazado_17912" data-name="Trazado 17912" d="M866.445,446.648l.707.659,3.241-3.487,3.242,3.487.707-.659-3.949-4.246Z" transform="translate(-866.445 -442.402)" fill="#03abf2"/>
        </g>
      </g>
      <g id="Grupo_8603" data-name="Grupo 8603" transform="translate(1036.046 285.11)">
        <path id="Trazado_17913" data-name="Trazado 17913" d="M1208.454,381.222a.805.805,0,0,1-.8-.8V365.531l8.047-6.558V340.589a.8.8,0,1,1,1.609,0v19.149l-8.046,6.558v14.122A.8.8,0,0,1,1208.454,381.222Z" transform="translate(-1207.649 -339.175)" fill="#3a4a53"/>
        <g id="Grupo_8602" data-name="Grupo 8602" transform="translate(4.888 0)">
          <path id="Trazado_17914" data-name="Trazado 17914" d="M1216.782,342.892l.707.659,3.241-3.487,3.242,3.487.707-.659-3.949-4.246Z" transform="translate(-1216.782 -338.646)" fill="#3a4a53"/>
        </g>
      </g>
      <g id="Grupo_8604" data-name="Grupo 8604" transform="translate(1016.97 278.165)">
        <path id="Trazado_17915" data-name="Trazado 17915" d="M1172.607,335.9a.549.549,0,0,1-.6-.534.628.628,0,0,1,.6-.633l9.913-.041h0a.66.66,0,0,1,.6.666.572.572,0,0,1-.6.567l-9.914-.026Z" transform="translate(-1172.003 -329.861)" fill="#03abf2"/>
        <path id="Trazado_17916" data-name="Trazado 17916" d="M1181.871,336.933a.668.668,0,0,1-.6-.674l-.012-9.95a.635.635,0,0,1,.6-.641h0a.6.6,0,0,1,.6.6l.011,9.986a.668.668,0,0,1-.6.675Z" transform="translate(-1176.304 -325.668)" fill="#03abf2"/>
      </g>
      <g id="Grupo_8605" data-name="Grupo 8605" transform="translate(862.424 296.453)">
        <path id="Trazado_17917" data-name="Trazado 17917" d="M917.847,407.137l-.109,0a3.09,3.09,0,0,1,.1-6.178l.108,0a3.09,3.09,0,0,1-.1,6.178Zm0-5.2a2.109,2.109,0,0,0-.071,4.217l.075,0a2.109,2.109,0,0,0,.07-4.218Z" transform="translate(-897.879 -378.954)" fill="#243640"/>
        <path id="Trazado_17918" data-name="Trazado 17918" d="M1135.753,415.528l-.108,0a3.089,3.089,0,0,1,.1-6.177l.108,0a3.089,3.089,0,0,1-.1,6.177Zm0-5.2a2.109,2.109,0,0,0-.071,4.216h.074a2.108,2.108,0,0,0,.071-4.215Z" transform="translate(-999.17 -382.855)" fill="#243640"/>
        <path id="Trazado_17919" data-name="Trazado 17919" d="M1000,390.6c-2.644,0-5.227-2.4-5.364-2.533l-6.33-6.42a.8.8,0,0,1,1.146-1.13l6.31,6.4c.011.011,3.359,3.064,5.444,1.731a8.5,8.5,0,0,1,8.569-.456.8.8,0,1,1-.769,1.413,6.893,6.893,0,0,0-6.935.4A3.773,3.773,0,0,1,1000,390.6Z" transform="translate(-931.96 -369.341)" fill="#243640"/>
        <path id="Trazado_17920" data-name="Trazado 17920" d="M947.687,449.547a.8.8,0,0,1-.571-.238l-17.483-17.653a.8.8,0,0,1,1.143-1.132l17.484,17.652a.8.8,0,0,1-.572,1.371Z" transform="translate(-904.685 -392.587)" fill="#243640"/>
        <path id="Trazado_17921" data-name="Trazado 17921" d="M1001.074,423.957a9.051,9.051,0,0,1-6.3-2.426c-.121-.128-.284-.286-.468-.466-1.253-1.224-3.146-3.074-2.467-4.652a.845.845,0,0,1,.107-.18l6.748-8.577a.968.968,0,0,1,.074-.082c.556-.535,13.635-13.125,14.548-13.99a.8.8,0,0,1,.106-.084c5.627-3.758,9.382-5.113,18.02-3.754a7.213,7.213,0,0,0,3.394-.884c.066-.048.309-.272.506-.453,1.326-1.221,2.2-2.026,2.925-1.266a.8.8,0,0,1-.56,1.358,15.616,15.616,0,0,0-1.275,1.092,7.194,7.194,0,0,1-.7.6,8.786,8.786,0,0,1-4.349,1.158.692.692,0,0,1-.125-.011c-8.009-1.27-11.4-.2-16.886,3.454-1.224,1.163-13.643,13.118-14.449,13.895l-6.624,8.42c-.041.3.332,1.039,2.132,2.8.2.2.378.369.511.509a7.575,7.575,0,0,0,7.119,1.61c2.2-.8,6.176-3.5,11.187-7.606l.156-.127c2.945-2.783,4.691-1.894,5.749-.984l.079.068a.8.8,0,0,1-1.038,1.229l-.091-.078c-.545-.469-1.368-1.178-3.615.952a.55.55,0,0,1-.045.04l-.175.143c-3.642,2.987-8.621,6.778-11.66,7.876A7.48,7.48,0,0,1,1001.074,423.957Z" transform="translate(-933.641 -372.395)" fill="#243640"/>
        <path id="Trazado_17922" data-name="Trazado 17922" d="M1089.785,463.164a.8.8,0,0,1-.553-1.388c1.615-1.53,18.58-17.622,18.58-17.622l1.107,1.168-18.579,17.622A.806.806,0,0,1,1089.785,463.164Z" transform="translate(-978.865 -399.033)" fill="#243640"/>
        <path id="Trazado_17923" data-name="Trazado 17923" d="M985.447,500.136h0a6.438,6.438,0,0,1-4.623-2.049,6.575,6.575,0,0,1-1.589-5.842,5.519,5.519,0,0,1-1.163.122,6.526,6.526,0,0,1-6.261-7.879,5.545,5.545,0,0,1-1.115.112,6.532,6.532,0,0,1-6.262-7.88,5.565,5.565,0,0,1-1.113.112,6.437,6.437,0,0,1-4.623-2.049c-2.268-2.541-2.336-6.272-.169-8.334l3.942-3.745c0-.006,0-.013,0-.02a.8.8,0,0,1,.3-.569c.691-.549,1.325-1.147,1.995-1.78s1.351-1.277,2.1-1.868a.856.856,0,0,1,.133-.087,5.7,5.7,0,0,1,2.584-.607,6.438,6.438,0,0,1,4.639,2.021,6.547,6.547,0,0,1,1.657,5.824,5.618,5.618,0,0,1,1.093-.106,6.436,6.436,0,0,1,4.624,2.05,6.56,6.56,0,0,1,1.592,5.84,5.515,5.515,0,0,1,1.16-.121,6.461,6.461,0,0,1,6.208,7.889,5.564,5.564,0,0,1,1.168-.123,6.446,6.446,0,0,1,4.626,2.05,6.177,6.177,0,0,1,.986,7.3.776.776,0,0,1-.1.134c-.368.388-.742.768-1.123,1.146-.014.014-.03.028-.045.042-.169.143-.34.284-.512.426a6.1,6.1,0,0,0-1.995,2.248.822.822,0,0,1-.191.281l-4.228,4.017A5.334,5.334,0,0,1,985.447,500.136Zm-4.239-10.6a.8.8,0,0,1,.554,1.388c-1.546,1.467-1.436,4.195.245,6.078a4.809,4.809,0,0,0,3.439,1.529,3.677,3.677,0,0,0,2.584-1.006l4.108-3.9a7.693,7.693,0,0,1,2.394-2.722c.156-.127.313-.256.467-.388.34-.337.675-.676,1.005-1.022a4.592,4.592,0,0,0-.841-5.3,4.816,4.816,0,0,0-3.44-1.528,3.675,3.675,0,0,0-2.582,1.005.8.8,0,0,1-1.128-1.146,4.439,4.439,0,0,0-.226-6.1,4.817,4.817,0,0,0-3.44-1.527,3.679,3.679,0,0,0-2.584,1.006h0a.805.805,0,0,1-1.107-1.169h0c1.548-1.468,1.437-4.192-.245-6.074a4.807,4.807,0,0,0-3.441-1.531,3.691,3.691,0,0,0-2.494.923c-.022.022-.065.062-.109.1a.8.8,0,0,1-1.088-1.186c.042-.04.085-.079.128-.117,1.491-1.42,1.337-4.046-.372-5.958a4.811,4.811,0,0,0-3.456-1.5,4.09,4.09,0,0,0-1.782.4c-.666.535-1.279,1.114-1.927,1.726-.53.5-1.074,1.015-1.651,1.5a.8.8,0,0,1-.244.484l-4.341,4.126c-1.545,1.47-1.435,4.2.244,6.078a4.812,4.812,0,0,0,3.439,1.53,3.677,3.677,0,0,0,2.583-1.007.8.8,0,0,1,1.108,1.167c-1.6,1.519-1.492,4.131.247,6.079a4.809,4.809,0,0,0,3.438,1.529,3.668,3.668,0,0,0,2.582-1.007.8.8,0,1,1,1.109,1.165c-1.623,1.546-1.52,4.1.246,6.083a4.812,4.812,0,0,0,3.439,1.527,3.68,3.68,0,0,0,2.582-1h0A.8.8,0,0,1,981.208,489.532Z" transform="translate(-917.491 -405.364)" fill="#243640"/>
        <path id="Trazado_17924" data-name="Trazado 17924" d="M1056.2,442.1c-6.719,0-12.634-4.035-12.977-4.273a.8.8,0,0,1,.917-1.322c.109.075,11,7.489,19.326,1.808a.8.8,0,1,1,.907,1.329A14.218,14.218,0,0,1,1056.2,442.1Z" transform="translate(-957.436 -395.412)" fill="#243640"/>
        <path id="Trazado_17925" data-name="Trazado 17925" d="M1036.926,529.111a8.323,8.323,0,0,1-5.774-3.051.8.8,0,0,1,1.28-.976c.409.538,3.715,3.679,6.284,1.83a4.186,4.186,0,0,0,1.791-2.818,5.536,5.536,0,0,0-1.308-4.111c-1.585-2.047-1.947-2.472-2.028-2.559l-.038.025c-.5-.735-.106-1.143.087-1.283.636-.465,1.084.088,1.516.622.362.446.945,1.189,1.734,2.208a7.122,7.122,0,0,1,1.629,5.328,5.761,5.761,0,0,1-2.444,3.893A4.578,4.578,0,0,1,1036.926,529.111Zm.245-11.686a.8.8,0,0,0,1.281-.875Z" transform="translate(-951.907 -432.427)" fill="#243640"/>
        <path id="Trazado_17926" data-name="Trazado 17926" d="M1050.466,515.963a6.844,6.844,0,0,1-4.385-1.709c-1.164-1.113-1.993-1.939-2.461-2.453-.4-.439-.813-.894-.49-1.454a.824.824,0,0,1,.935-.374.8.8,0,0,1,.533.5c.167.206.732.833,2.594,2.614.528.5,3.142,2.192,5.371.584a4.774,4.774,0,0,0,1.986-3.187,5.207,5.207,0,0,0-1.173-3.971c-1.876-2.421-2.426-3.055-2.576-3.217a.807.807,0,0,1,.088-1.38c.6-.314.983.141,1.425.668.474.566,1.26,1.555,2.336,2.944a6.865,6.865,0,0,1,1.494,5.185,6.363,6.363,0,0,1-2.637,4.262A5.1,5.1,0,0,1,1050.466,515.963Z" transform="translate(-957.498 -425.837)" fill="#243640"/>
        <path id="Trazado_17927" data-name="Trazado 17927" d="M1066.05,503.576a6.838,6.838,0,0,1-4.381-1.706c-3.126-2.992-3.663-3.932-3.739-4.091a.8.8,0,0,1,1.438-.721,23.817,23.817,0,0,0,3.413,3.649c.527.5,3.142,2.188,5.371.58a4.77,4.77,0,0,0,1.984-3.183,5.21,5.21,0,0,0-1.172-3.973,37.885,37.885,0,0,0-2.634-3.209.807.807,0,0,1,.2-1.5c.549-.123.7-.158,3.7,3.723a6.871,6.871,0,0,1,1.491,5.189,6.363,6.363,0,0,1-2.636,4.257A5.116,5.116,0,0,1,1066.05,503.576Z" transform="translate(-964.394 -420.059)" fill="#243640"/>
        <path id="Trazado_17928" data-name="Trazado 17928" d="M1081.581,487.854a5.816,5.816,0,0,1-3.854-1.382c-1.49-1.467-2.567-2.744-2.612-2.8a.8.8,0,0,1,1.231-1.036c.011.013,1.077,1.275,2.51,2.689a4.382,4.382,0,0,0,5.26.087,4.922,4.922,0,0,0,2.122-3.33,4.43,4.43,0,0,0-1.209-3.445c-3.156-3.626-4.911-5.427-4.929-5.445a.8.8,0,1,1,1.151-1.125c.072.073,1.8,1.847,4.992,5.513a6,6,0,0,1,1.593,4.687,6.527,6.527,0,0,1-2.781,4.451A5.86,5.86,0,0,1,1081.581,487.854Z" transform="translate(-972.332 -411.896)" fill="#243640"/>
        <path id="Trazado_17929" data-name="Trazado 17929" d="M986.316,497.828a.8.8,0,0,1-.561-1.381l8.234-8.01a.8.8,0,1,1,1.122,1.154l-8.233,8.009A.8.8,0,0,1,986.316,497.828Z" transform="translate(-930.768 -419.512)" fill="#243640"/>
        <path id="Trazado_17930" data-name="Trazado 17930" d="M971.908,484.32a.8.8,0,0,1-.561-1.381l8.233-8.012a.8.8,0,1,1,1.122,1.154l-8.234,8.011A.8.8,0,0,1,971.908,484.32Z" transform="translate(-924.071 -413.232)" fill="#243640"/>
        <path id="Trazado_17931" data-name="Trazado 17931" d="M1000.66,513.191a.8.8,0,0,1-.56-1.382l8.235-8.009a.8.8,0,1,1,1.122,1.154l-8.235,8.009A.8.8,0,0,1,1000.66,513.191Z" transform="translate(-937.436 -426.653)" fill="#243640"/>
        <path id="Trazado_17932" data-name="Trazado 17932" d="M1080.587,468.723a.8.8,0,0,1-.578-.246l-9.557-9.9a.8.8,0,0,1,1.158-1.117l9.556,9.894a.8.8,0,0,1-.578,1.364Z" transform="translate(-970.147 -405.106)" fill="#243640"/>
        <path id="Trazado_17933" data-name="Trazado 17933" d="M925.914,401.966a.8.8,0,0,1-.576-1.365l30.337-31.189-4.168-5.036a.8.8,0,1,1,1.239-1.026l4.629,5.592a.8.8,0,0,1-.043,1.074l-30.841,31.707A.8.8,0,0,1,925.914,401.966Z" transform="translate(-902.692 -361.337)" fill="#243640"/>
        <path id="Trazado_17934" data-name="Trazado 17934" d="M1113.875,404.794h-.02a.724.724,0,0,1-.569-.184l-30.131-32.331a.783.783,0,0,1,.036-1.114l11.739-11.105a.807.807,0,0,1,1.106,1.175L1084.877,371.8l29.027,31.181,18.5-18.008a.8.8,0,0,1,1.123,1.153l-19.089,18.51A.752.752,0,0,1,1113.875,404.794Z" transform="translate(-976.057 -359.842)" fill="#243640"/>
        <path id="Trazado_17935" data-name="Trazado 17935" d="M906.312,414.874a.805.805,0,0,1-.577-.243L883.447,391.7a.8.8,0,1,1,1.154-1.122l22.288,22.925a.8.8,0,0,1-.577,1.365Z" transform="translate(-883.219 -374.018)" fill="#243640"/>
      </g>
      <g id="Grupo_8607" data-name="Grupo 8607" transform="translate(911.618 228.898)">
        <path id="Trazado_17936" data-name="Trazado 17936" d="M980.558,254.456a.8.8,0,0,1-.8-.8V235.658a.8.8,0,1,1,1.609,0v17.993A.8.8,0,0,1,980.558,254.456Z" transform="translate(-977.286 -234.187)" fill="#03abf2"/>
        <g id="Grupo_8606" data-name="Grupo 8606">
          <path id="Trazado_17937" data-name="Trazado 17937" d="M975.143,237.147l.589.549,2.7-2.906,2.7,2.906.59-.549-3.291-3.539Z" transform="translate(-975.143 -233.608)" fill="#03abf2"/>
        </g>
      </g>
      <g id="Grupo_8609" data-name="Grupo 8609" transform="translate(963.568 223.475)">
        <path id="Trazado_17938" data-name="Trazado 17938" d="M1077.533,242.031a.8.8,0,0,1-.8-.8V225.133a.8.8,0,0,1,1.609,0v16.092A.805.805,0,0,1,1077.533,242.031Z" transform="translate(-1074.314 -223.872)" fill="#3a4a53"/>
        <g id="Grupo_8608" data-name="Grupo 8608">
          <path id="Trazado_17939" data-name="Trazado 17939" d="M1072.216,227.014l.59.549,2.7-2.906,2.7,2.906.589-.549-3.291-3.539Z" transform="translate(-1072.216 -223.475)" fill="#3a4a53"/>
        </g>
      </g>
      <path id="Trazado_17940" data-name="Trazado 17940" d="M1030.724,270.2a.6.6,0,0,1-.6-.6v-10.46a.6.6,0,1,1,1.207,0V269.6A.6.6,0,0,1,1030.724,270.2Z" transform="translate(-89.081 -16.296)" fill="#243640"/>
      <g id="Grupo_8610" data-name="Grupo 8610" transform="translate(984.555 350.478)">
        <path id="Trazado_17941" data-name="Trazado 17941" d="M1181.923,514.455a.805.805,0,0,1-.493-1.441l15.729-12.174-1.045-6.075a.8.8,0,0,1,1.586-.273l1.208,7.028-16.493,12.767A.81.81,0,0,1,1181.923,514.455Z" transform="translate(-1143.825 -476.146)" fill="#03abf2"/>
        <path id="Trazado_17942" data-name="Trazado 17942" d="M1212.147,473.725a.8.8,0,0,1-.484-1.448l3.7-2.778-4.849-6.456-3.7,2.779a.8.8,0,1,1-.967-1.287l4.986-3.745,6.783,9.029-4.99,3.744A.8.8,0,0,1,1212.147,473.725Z" transform="translate(-1155.172 -460.791)" fill="#03abf2"/>
        <path id="Trazado_17943" data-name="Trazado 17943" d="M1112.238,512.831a.849.849,0,0,1-.791-1l2.178-11.629a.81.81,0,0,1,.319-.507l17.111-12.382,29.68-22.981a.8.8,0,0,1,1.136.153l8.615,11.471a.806.806,0,0,1-.161,1.128l-40.808,30.549-5.98,4.81a.838.838,0,0,1-.493.2l-10.795.179Zm2.909-12.019-1.937,10.34,9.534-.133,5.786-4.654,40.185-30.083-7.642-10.174-29.055,22.5Z" transform="translate(-1111.434 -462.36)" fill="#03abf2"/>
        <path id="Trazado_17944" data-name="Trazado 17944" d="M1122.371,536.736a.8.8,0,0,1-.6-.273l-4.508-5.126a.8.8,0,1,1,1.208-1.063l4.508,5.126a.8.8,0,0,1-.6,1.336Z" transform="translate(-1114.048 -492.962)" fill="#03abf2"/>
      </g>
      <path id="Trazado_17945" data-name="Trazado 17945" d="M1081.212,557.4a1.078,1.078,0,0,1-.781-.31.8.8,0,0,1-.256-.445,25.74,25.74,0,0,1-.249-2.63c-.1-1.511-.349-5.188-.915-6.457-.7.907-1.974,2.9-2.954,4.438a43.2,43.2,0,0,1-3.4,4.919.774.774,0,0,1-.573.206h0c-1.245,0-1.4-1.357-1.5-2.183a5.01,5.01,0,0,0-.157-.911c-.663.02-2.075,1.229-3.011,2.387a.8.8,0,1,1-1.252-1.006c.455-.562,2.821-3.344,4.715-2.929,1.069.233,1.205,1.434,1.3,2.311l.018.151c.685-.962,1.634-2.45,2.5-3.811,2.536-3.974,3.367-5.172,3.989-5.453a.805.805,0,0,1,.621-.018c1.589.613,1.924,3.805,2.223,8.249.044.664.085,1.272.131,1.741a23.727,23.727,0,0,0,4.549-3.955.8.8,0,0,1,1.174,1.1C1083.8,556.614,1082.08,557.4,1081.212,557.4Z" transform="translate(-105.75 -149.74)" fill="#03abf2"/>
      <path id="Trazado_17946" data-name="Trazado 17946" d="M1113.6,262.863c-.138,0-.276,0-.416-.013a6.717,6.717,0,1,1,.416.013Zm-.013-11.844a5.13,5.13,0,1,0,.317.01C1113.794,251.022,1113.689,251.019,1113.584,251.019Z" transform="translate(-124.753 -12.055)" fill="#243640"/>
      <path id="Trazado_17947" data-name="Trazado 17947" d="M924.981,338.649h-1.609V322.594L943.05,299.5h88.979c4.615,0,8.817,3.91,8.817,8.2v15.936h-1.609V307.706c0-3.39-3.5-6.594-7.208-6.594H943.793l-18.812,22.074Z" transform="translate(-39.46 -35.341)" fill="#3a4a53"/>
      <path id="Trazado_17948" data-name="Trazado 17948" d="M1063.076,581.366H984.264v-1.609h78.812c3.39,0,6.478-3.394,6.478-7.119V566.6h1.61v6.036C1071.163,577.287,1067.383,581.366,1063.076,581.366Z" transform="translate(-67.765 -159.498)" fill="#3a4a53"/>
      <path id="Trazado_17949" data-name="Trazado 17949" d="M1000.615,582.309H931.969c-4.418,0-8.6-4.242-8.6-8.728v-4.95h1.609v4.95c0,3.593,3.461,7.119,6.987,7.119h68.646Z" transform="translate(-39.46 -160.441)" fill="#3a4a53"/>
      <path id="Trazado_17950" data-name="Trazado 17950" d="M952.3,331.436H936.2a.8.8,0,1,1,0-1.609h14.483V315.343a.8.8,0,0,1,1.609,0Z" transform="translate(-45.051 -42.33)" fill="#3a4a53"/>
      <rect id="Rectángulo_2072" data-name="Rectángulo 2072" width="24.541" height="1.609" transform="translate(924.948 294.738)" fill="#03abf2"/>
      <rect id="Rectángulo_2073" data-name="Rectángulo 2073" width="12.874" height="1.609" transform="translate(924.948 286.29)" fill="#03abf2"/>
      <rect id="Rectángulo_2074" data-name="Rectángulo 2074" width="25.345" height="1.609" transform="translate(940.638 286.29)" fill="#03abf2"/>
      <rect id="Rectángulo_2075" data-name="Rectángulo 2075" width="1.609" height="56.726" transform="translate(883.913 352.064)" fill="#3a4a53"/>
      <path id="Trazado_17951" data-name="Trazado 17951" d="M1208.03,466.31l4.549-2.81,5.485,7.225-4.95,3.479Z" transform="translate(-171.78 -111.573)" fill="#03abf2" opacity="0.73"/>
    </g>
    <path id="Trazado_17952" data-name="Trazado 17952" d="M412.936,577.216H136.742a.946.946,0,1,1,0-1.892H412.936a.946.946,0,1,1,0,1.892Z" transform="translate(685.204 726.35)" fill="#3a4a53"/>
  </g>
</svg>
