<svg xmlns="http://www.w3.org/2000/svg" width="118" height="118" viewBox="0 0 118 118">
  <g id="Grupo_8634" data-name="Grupo 8634" transform="translate(-396 -3007)">
    <g id="Elipse_556" data-name="Elipse 556" transform="translate(396 3007)" fill="#f0f0f0" stroke="#3bdcf0" stroke-width="2">
      <circle cx="59" cy="59" r="59" stroke="none"/>
      <circle cx="59" cy="59" r="58" fill="none"/>
    </g>
    <path id="Trazado_17324" data-name="Trazado 17324" d="M133.9,363.123H93.139a3.9,3.9,0,0,1-3.891-3.891V297.21a3.9,3.9,0,0,1,3.891-3.892H133.9a3.9,3.9,0,0,1,3.891,3.892v62.022A3.9,3.9,0,0,1,133.9,363.123Zm-40.761-68.2a2.289,2.289,0,0,0-2.286,2.287v62.022a2.289,2.289,0,0,0,2.286,2.287H133.9a2.29,2.29,0,0,0,2.286-2.287V297.21a2.289,2.289,0,0,0-2.286-2.287Z" transform="translate(340.753 2737.75)" fill="#5f3bbf"/>
    <path id="Trazado_17328" data-name="Trazado 17328" d="M138.446,387.361H102.34V350.052h36.106Zm-34.5-1.6h32.9v-34.1h-32.9Z" transform="translate(333.678 2707.093)" fill="#5f3bbf"/>
    <path id="Trazado_17329" data-name="Trazado 17329" d="M140.348,387.361H125.906V350.052h14.442Zm-12.837-1.6h11.233v-34.1H127.511Z" transform="translate(320.944 2707.093)" fill="#5f3bbf"/>
    <path id="Trazado_17330" data-name="Trazado 17330" d="M137.242,375.224h-34.1a.8.8,0,1,1,0-1.6h34.1a.8.8,0,1,1,0,1.6Z" transform="translate(333.678 2694.357)" fill="#5f3bbf"/>
    <path id="Trazado_17331" data-name="Trazado 17331" d="M126.411,402.281H103.143a.8.8,0,0,1,0-1.605h23.268a.8.8,0,0,1,0,1.605Z" transform="translate(333.678 2679.737)" fill="#5f3bbf"/>
    <path id="Trazado_17332" data-name="Trazado 17332" d="M138.847,321.255H102.34V306.411h36.507Zm-34.9-1.605h33.3V308.016h-33.3Z" transform="translate(333.678 2730.675)" fill="#5f3bbf"/>
    <rect id="Rectángulo_2013" data-name="Rectángulo 2013" width="35.391" height="11.95" transform="translate(436.572 3038.585)" fill="#5f3bbf"/>
    <path id="Trazado_17325" data-name="Trazado 17325" d="M152.894,321.888a.8.8,0,0,1-.8-.8v-6.017a.8.8,0,0,1,1.605,0v6.017A.8.8,0,0,1,152.894,321.888Z" transform="translate(306.794 2726.43)" fill="#f0f0f0"/>
    <path id="Trazado_17326" data-name="Trazado 17326" d="M138.929,321.888a.8.8,0,0,1-.8-.8v-6.017a.8.8,0,1,1,1.6,0v6.017A.8.8,0,0,1,138.929,321.888Z" transform="translate(314.34 2726.43)" fill="#f0f0f0"/>
    <path id="Trazado_17327" data-name="Trazado 17327" d="M166.859,321.888a.8.8,0,0,1-.8-.8v-6.017a.8.8,0,1,1,1.6,0v6.017A.8.8,0,0,1,166.859,321.888Z" transform="translate(299.247 2726.43)" fill="#f0f0f0"/>
  </g>
</svg>
