<svg xmlns="http://www.w3.org/2000/svg" width="390.32" height="337.639" viewBox="0 0 390.32 337.639">
  <g id="Grupo_8382" data-name="Grupo 8382" transform="translate(-133.538 -213.99)">
    <path id="Trazado_12269" data-name="Trazado 12269" d="M317.345,239.884c61.252,57.756,130.818-1.284,185.961,90.277C585.474,466.6,405.971,541.489,310.978,522.488c-77.07-15.417-115.591-41.571-160.711-115.924C85.97,300.608,226.218,153.959,317.345,239.884Z" transform="translate(-0.405 0)" fill="rgba(58,27,141,0.15)" style="mix-blend-mode: multiply;isolation: isolate"/>
    <rect id="Rectángulo_1862" data-name="Rectángulo 1862" width="15.806" height="50.053" transform="translate(414.827 301.222)" fill="#5cd1c2"/>
    <rect id="Rectángulo_1863" data-name="Rectángulo 1863" width="16.684" height="44.784" transform="translate(391.996 308.247)" fill="#5cd1c2"/>
    <rect id="Rectángulo_1864" data-name="Rectángulo 1864" width="16.684" height="36.881" transform="translate(369.165 314.394)" fill="#5cd1c2"/>
    <path id="Trazado_12270" data-name="Trazado 12270" d="M308.157,434.77l-.413-6.44H295.691l-18.357,19.739-12.326-.124-2.342,7.025,22.246,1.171,15.513-19.319Z" transform="translate(-16.094 -26.124)" fill="#70ccf0"/>
    <g id="Grupo_8368" data-name="Grupo 8368" transform="translate(236.4 272.868)">
      <g id="Grupo_8367" data-name="Grupo 8367" transform="translate(0 0)">
        <path id="Trazado_12271" data-name="Trazado 12271" d="M252.882,305.851a2.016,2.016,0,0,0,2.017,2.015H290.44l12.733,9.609-1.611-9.609h6.049a2.017,2.017,0,0,0,2.017-2.015V284.857a2.018,2.018,0,0,0-2.017-2.017H254.9a2.017,2.017,0,0,0-2.017,2.017Z" transform="translate(-251.301 -281.259)" fill="#ffcc61"/>
        <path id="Trazado_12272" data-name="Trazado 12272" d="M302.953,318.837a1.581,1.581,0,0,1-.952-.319l-12.31-9.29H254.68a3.6,3.6,0,0,1-3.6-3.6V284.638a3.6,3.6,0,0,1,3.6-3.6h52.713a3.6,3.6,0,0,1,3.6,3.6v20.994a3.6,3.6,0,0,1-3.6,3.6h-4.182l1.3,7.768a1.581,1.581,0,0,1-1.559,1.841ZM254.68,284.2a.437.437,0,0,0-.436.436v20.994a.436.436,0,0,0,.436.435h35.541a1.582,1.582,0,0,1,.953.319l9.565,7.219-.955-5.7a1.58,1.58,0,0,1,1.559-1.841h6.049a.436.436,0,0,0,.436-.435V284.638a.437.437,0,0,0-.436-.436Z" transform="translate(-251.082 -281.04)" fill="#2e3643"/>
      </g>
    </g>
    <path id="Trazado_12273" data-name="Trazado 12273" d="M341.234,428.146l-4.683,8.2,149.964-.611,6.142-6.517Z" transform="translate(-25.099 -26.102)" fill="#70ccf0"/>
    <path id="Trazado_12274" data-name="Trazado 12274" d="M328.356,450.146l-3.805,6.439,63.326-.127,5.562-5.269Z" transform="translate(-23.637 -28.783)" fill="#70ccf0"/>
    <path id="Trazado_12275" data-name="Trazado 12275" d="M252.884,392.678l11.123,11.707,15.806-16.391,28.1-18.734-6.338,66.9,46.833.878,6.338-51.388,15.806,19.9,30.442-5.854-3.513-14.05-22.831,4.1-19.02-32.375-12.007-7.432-9.659.877-7.025-2.341-17.27,3.806-38.052,21.66Z" transform="translate(-14.902 -16.392)" fill="#dde8fb"/>
    <path id="Trazado_12276" data-name="Trazado 12276" d="M366.572,312.145s-18.658,6.589-26.929,3.512c-6.33,5.579-3.512,28.1-3.512,28.1s4.921,6.421,7.611,5.854,10.537-4.684,10.537-4.684l1.756-7.61s3.755,1.883,6.439-3.513S366.572,312.145,366.572,312.145Z" transform="translate(-24.972 -11.963)" fill="#ffd4cd"/>
    <path id="Trazado_12277" data-name="Trazado 12277" d="M344.85,448.292,297.724,448l-5.078,12.421-24.587,38.052-49.175,15.806,1.756,20.489,5.854-2.927,5.854-7.025,48.589-9.365,36.881-43.906,7.611,8.195,28.685,38.051,36.881,60.883,19.9-9.952s-1.171-4.683-2.927-4.683-8.2-8.781-8.2-8.781l-28.246-50.344L346.5,462.764Z" transform="translate(-10.758 -28.522)" fill="#4f5e8a"/>
    <path id="Trazado_12278" data-name="Trazado 12278" d="M428.634,389.683l-2.472-3.329-8.944,3.329,4.391,14.342s9.952-1.463,12.294-2.927c1.3-.81.912-2,1.757-4.391.638-1.8,1.38-2.186-1.756-5.854C433.366,389.408,428.634,389.683,428.634,389.683Z" transform="translate(-34.931 -21.008)" fill="#ffd4cd"/>
    <path id="Trazado_12279" data-name="Trazado 12279" d="M259.026,415.492l3.073-.292,4.683-4.83-11.708-10.392s-6.792,9.519-7.025,12c-.129,1.374,1.092,2.622,2.342,4.537a5.872,5.872,0,0,0,5.269,2.2C256.993,419.118,259.026,415.492,259.026,415.492Z" transform="translate(-14.312 -22.669)" fill="#ffd4cd"/>
    <path id="Trazado_12280" data-name="Trazado 12280" d="M363.9,302.6s-5.65-6.97-9.461-7.6c-4.26-.705-8.607-.336-13.629,3.935-3.38,2.878-4.629,17.257-4.629,17.257l6.906-.882s.563-4.731,4.466-4.058,15.157,3.41,17.341-2.108C366.117,306.069,363.9,302.6,363.9,302.6Z" transform="translate(-25.055 -9.839)" fill="#7e8192"/>
    <path id="Trazado_12281" data-name="Trazado 12281" d="M337.929,309.385c5.236-6.888,16.718,1.467,21.032-3.433,3.683-2.166,1.729-5.861,2.246-6.25,2.925,1.937,4.417,6.064,4.417,6.064s1.125,3.986-2.144,6.063-9.793,2.4-14.341,1.474c-5.513-1.124-6.207,3.321-6.207,3.321l-7.051-1.352C335.613,313.212,335.727,312.891,337.929,309.385Z" transform="translate(-25.005 -10.447)" fill="#525468" opacity="0.72"/>
    <path id="Trazado_12282" data-name="Trazado 12282" d="M343.374,322.39a4.24,4.24,0,1,1-4.24-4.24A4.241,4.241,0,0,1,343.374,322.39Z" transform="translate(-24.897 -12.695)" fill="#f9b6b2"/>
    <path id="Trazado_12283" data-name="Trazado 12283" d="M340.665,361.315s3.8-2.946,5.276-2.352c.985.4,3.89,5.179,3.89,5.179l-4.564,5.557-7.5,40.346-9.367,3.8-3.513-9.952,15.769-34.091Z" transform="translate(-23.677 -17.66)" fill="#419edd"/>
    <path id="Trazado_12284" data-name="Trazado 12284" d="M226.488,520.519l-5.943,2.929,1.888,19.894,4.112-.96,2.481-5.242S227.278,526.121,226.488,520.519Z" transform="translate(-10.96 -37.361)" fill="#a4a1a5"/>
    <path id="Trazado_12285" data-name="Trazado 12285" d="M460.042,460.785a6.2,6.2,0,1,1,6.2-6.2A6.211,6.211,0,0,1,460.042,460.785Zm0-9.247a3.043,3.043,0,1,0,3.042,3.042A3.046,3.046,0,0,0,460.042,451.538Z" transform="translate(-39.395 -28.568)" fill="#17202e"/>
    <path id="Trazado_12286" data-name="Trazado 12286" d="M308,438.664h28.685c-26.929-1.171-22.775-26.865-16.977-39.515,3.219-7.025,2.517-26.115,1.024-30.148a23.821,23.821,0,0,0-4.536,2.049L312.976,393Z" transform="translate(-21.62 -18.893)" fill="#b4c9ea"/>
    <path id="Trazado_12287" data-name="Trazado 12287" d="M340.6,465l-10.054,6.861,36.3,46.246,36.1,59.586,7.9-7.318s-15.806-29.271-25.465-42.15c-14.88-19.839-22.022-28.756-33.368-40.1C347.337,483.441,340.02,469.1,340.6,465Z" transform="translate(-24.368 -30.594)" fill="#3a4a7c"/>
    <path id="Trazado_12288" data-name="Trazado 12288" d="M294.1,294.669h-32.49a1.58,1.58,0,1,1,0-3.16H294.1a1.58,1.58,0,1,1,0,3.16Z" transform="translate(-15.772 -9.448)" fill="#17202e"/>
    <path id="Trazado_12289" data-name="Trazado 12289" d="M281.8,301.669h-20.2a1.58,1.58,0,1,1,0-3.16h20.2a1.58,1.58,0,1,1,0,3.16Z" transform="translate(-15.772 -10.301)" fill="#17202e"/>
    <path id="Trazado_12290" data-name="Trazado 12290" d="M310.783,415.01a1.69,1.69,0,0,1-.176-.01,1.58,1.58,0,0,1-1.4-1.744l4.239-38.553a1.58,1.58,0,0,1,3.142.345L312.352,413.6A1.58,1.58,0,0,1,310.783,415.01Z" transform="translate(-21.766 -19.417)" fill="#17202e"/>
    <path id="Trazado_12291" data-name="Trazado 12291" d="M363.833,406.623a1.658,1.658,0,0,1-.207-.014,1.58,1.58,0,0,1-1.362-1.772l3.513-26.783a1.581,1.581,0,0,1,3.135.41L365.4,405.247A1.582,1.582,0,0,1,363.833,406.623Z" transform="translate(-28.232 -19.829)" fill="#17202e"/>
    <path id="Trazado_12292" data-name="Trazado 12292" d="M382.139,411.61a1.58,1.58,0,0,1-1.308-.693l-15.806-23.27a1.581,1.581,0,0,1,2.615-1.776l15.806,23.27a1.582,1.582,0,0,1-1.307,2.469Z" transform="translate(-28.537 -20.865)" fill="#17202e"/>
    <path id="Trazado_12293" data-name="Trazado 12293" d="M251.9,411.761c-.23-.095-5.626-2.389-5.364-7.252a1.563,1.563,0,0,1,.2-.682l5.123-9.221a1.568,1.568,0,0,1,.184-.264l18.7-21.684a1.6,1.6,0,0,1,.352-.3l31.977-20.228a1.613,1.613,0,0,1,.357-.168,114.194,114.194,0,0,1,15.908-3.82l.469,3.126a112.4,112.4,0,0,0-15.215,3.642L272.976,374.9l-18.437,21.384L249.692,405c.15,2.414,3.382,3.822,3.417,3.837Z" transform="translate(-14.127 -16.35)" fill="#17202e"/>
    <path id="Trazado_12294" data-name="Trazado 12294" d="M411.79,588.881l4.907,4.452,17.812-9.057-2.4-3.473-5.788-.383S416.71,586.089,411.79,588.881Z" transform="translate(-34.27 -44.662)" fill="#a4a1a5"/>
    <path id="Trazado_12295" data-name="Trazado 12295" d="M367.282,358.528a18.438,18.438,0,0,0-4.863-4.111l-6.944-4.1,1.607-2.721,6.9,4.076a21.562,21.562,0,0,1,5.777,4.9Z" transform="translate(-27.406 -16.284)" fill="#17202e"/>
    <path id="Trazado_12296" data-name="Trazado 12296" d="M405.924,581.737l-31.55-53.217-37.7-50.939a1.581,1.581,0,0,1,2.541-1.882l37.842,51.139L407.146,577.6c3.5-1.739,12.987-6.442,16.091-7.9l.132-.054a.959.959,0,0,0,.187-.711,2.328,2.328,0,0,0-1.446-1.943,4.193,4.193,0,0,0-1.708-.469,18.305,18.305,0,0,1-2.344-.428l-.639-.16-.337-.567c-7.7-12.966-27.981-51.19-28.835-52.8-.97-1.557-24.263-38.921-29.977-49.206a1.58,1.58,0,0,1,2.763-1.535c5.768,10.383,29.686,48.729,29.926,49.114l.055.1c.206.389,20.4,38.481,28.442,52.133.544.112.963.165,1.346.214a7.268,7.268,0,0,1,2.75.792,5.415,5.415,0,0,1,3.157,5.118,3.647,3.647,0,0,1-2.179,3.289c-3.855,1.817-17.156,8.433-17.291,8.5Z" transform="translate(-25.076 -30.108)" fill="#17202e"/>
    <path id="Trazado_12297" data-name="Trazado 12297" d="M222.529,537.394a8.5,8.5,0,0,1-2.1-.248l-.762-.2-.3-.726c-1.18-2.83-2.526-18.513-2.785-21.628l-.111-1.334,51.653-13.1,21.494-33.981a1.581,1.581,0,1,1,2.671,1.69l-22.166,35.046L219.84,515.668c.552,6.368,1.5,15.51,2.209,18.553,1.757.133,3.88-.513,4.407-1.742l.143-.333a30.865,30.865,0,0,0,1.614-4.528l.256-.941,51.617-10.414,37.968-48.588,7.622-3.964a1.581,1.581,0,0,1,1.459,2.806l-7.013,3.647-38.266,48.967-50.865,10.262A33.815,33.815,0,0,1,229.5,533.4l-.139.322C228.242,536.338,225.167,537.394,222.529,537.394Z" transform="translate(-10.463 -30.415)" fill="#17202e"/>
    <path id="Trazado_12298" data-name="Trazado 12298" d="M348.666,348.26a1.581,1.581,0,0,1-.683-3.008l6.109-2.921,1.735-5.935,1.349.184c.168.021,4.286.509,5.306-2.651,3.29-10.2,3-24.87,3-25.018a1.58,1.58,0,1,1,3.159-.071c.014.623.3,15.36-3.149,26.059-1.222,3.788-4.816,4.83-7.361,4.885l-1.4,4.789-7.382,3.531A1.585,1.585,0,0,1,348.666,348.26Z" transform="translate(-26.383 -11.372)" fill="#17202e"/>
    <path id="Trazado_12299" data-name="Trazado 12299" d="M351.935,314.746c-1.286,0-6.186-.638-7.171-.767a1.581,1.581,0,0,1,.413-3.135c2.357.311,5.96.741,6.726.741h.033c6.367-.128,9.895-1.508,11.97-4.729-1-4.392-3.02-6.882-6.871-8.52-8.369-3.558-15.013.482-17.271,3.894a21.279,21.279,0,0,0-2.41,8.456,1.581,1.581,0,0,1-3.16-.1,24.37,24.37,0,0,1,2.828-9.931l.061-.1c2.785-4.282,11-9.459,21.19-5.128,4.977,2.117,7.71,5.634,8.86,11.4l.115.577-.291.512c-2.625,4.628-7.1,6.67-14.956,6.827Z" transform="translate(-24.812 -9.727)" fill="#17202e"/>
    <path id="Trazado_12300" data-name="Trazado 12300" d="M329.379,348.813l-.493-3.122,4.386-.693,2.121-17.04,3.137.39-2.415,19.4Z" transform="translate(-24.165 -13.891)" fill="#17202e"/>
    <path id="Trazado_12301" data-name="Trazado 12301" d="M337.517,328.874a1.576,1.576,0,0,1-.846-.247,7.023,7.023,0,0,1-3.712-5.519,5.926,5.926,0,0,1,5.058-6.679,5.949,5.949,0,0,1,5.041,1.721,1.581,1.581,0,0,1-2.256,2.215,2.763,2.763,0,0,0-4.712,2.311,3.969,3.969,0,0,0,2.277,3.283,1.581,1.581,0,0,1-.85,2.914Z" transform="translate(-24.655 -12.479)" fill="#17202e"/>
    <path id="Trazado_12302" data-name="Trazado 12302" d="M449.316,484.169H425.607a1.58,1.58,0,1,1,0-3.16h23.709a1.58,1.58,0,1,1,0,3.16Z" transform="translate(-35.761 -32.545)" fill="#17202e"/>
    <path id="Trazado_12303" data-name="Trazado 12303" d="M214.316,474.169H190.607a1.58,1.58,0,1,1,0-3.16h23.709a1.58,1.58,0,1,1,0,3.16Z" transform="translate(-7.119 -31.326)" fill="#17202e"/>
    <path id="Trazado_12304" data-name="Trazado 12304" d="M265.331,409.394a1.58,1.58,0,0,1-1.179-2.632l17.518-19.655a1.579,1.579,0,0,1,.41-.328L315.008,368.4a1.581,1.581,0,0,1,1.541,2.761l-32.7,18.248-17.34,19.456A1.579,1.579,0,0,1,265.331,409.394Z" transform="translate(-16.226 -18.796)" fill="#17202e"/>
    <path id="Trazado_12305" data-name="Trazado 12305" d="M389.831,391.842a1.581,1.581,0,0,1-1.34-.743l-20.05-32.051a1.581,1.581,0,0,1,2.68-1.676l19.49,31.155,20.617-3.482,3.028-.561a41.01,41.01,0,0,0,4.214-2.316,1.581,1.581,0,0,1,1.666,2.687,40.671,40.671,0,0,1-4.777,2.6,1.591,1.591,0,0,1-.339.1l-3.24.6-21.685,3.663A1.584,1.584,0,0,1,389.831,391.842Z" transform="translate(-28.957 -17.385)" fill="#17202e"/>
    <g id="Grupo_8371" data-name="Grupo 8371" transform="translate(318.894 392.823)">
      <g id="Grupo_8370" data-name="Grupo 8370">
        <path id="Trazado_12306" data-name="Trazado 12306" d="M492.374,430.169H346.607a1.58,1.58,0,1,1,0-3.16H492.374a1.58,1.58,0,1,1,0,3.16Z" transform="translate(-345.026 -418.786)" fill="#17202e"/>
        <g id="Grupo_8369" data-name="Grupo 8369" transform="translate(137.669)">
          <path id="Trazado_12307" data-name="Trazado 12307" d="M503.481,437.754l-1.677-1.8,8.881-8.252-8.881-8.256,1.677-1.8L514.295,427.7Z" transform="translate(-501.804 -417.645)" fill="#17202e"/>
        </g>
      </g>
    </g>
    <g id="Grupo_8374" data-name="Grupo 8374" transform="translate(308.356 416.304)">
      <g id="Grupo_8373" data-name="Grupo 8373" transform="translate(0 0)">
        <path id="Trazado_12308" data-name="Trazado 12308" d="M394.319,452.169H334.607a1.58,1.58,0,1,1,0-3.16h59.712a1.58,1.58,0,1,1,0,3.16Z" transform="translate(-333.026 -444.948)" fill="#17202e"/>
        <g id="Grupo_8372" data-name="Grupo 8372" transform="translate(55.508)">
          <path id="Trazado_12309" data-name="Trazado 12309" d="M397.2,455.876l-.958-1.029,5.074-4.716-5.074-4.716.958-1.029,6.179,5.745Z" transform="translate(-396.238 -444.385)" fill="#17202e"/>
        </g>
      </g>
    </g>
    <path id="Trazado_12310" data-name="Trazado 12310" d="M277.763,449.366H261.607a1.58,1.58,0,1,1,0-3.16h14.655l16.465-20.2h20.689a1.58,1.58,0,1,1,0,3.16H294.228Z" transform="translate(-15.772 -25.842)" fill="#17202e"/>
    <path id="Trazado_12311" data-name="Trazado 12311" d="M416.778,360.147a1.58,1.58,0,0,1-1.581-1.58v-27.4H405.187v27.4a1.581,1.581,0,0,1-3.161,0V328.009h16.333v30.559A1.58,1.58,0,0,1,416.778,360.147Z" transform="translate(-33.08 -13.897)" fill="#17202e"/>
    <path id="Trazado_12312" data-name="Trazado 12312" d="M468.778,358.319a1.58,1.58,0,0,1-1.581-1.58v-40.57h-10.01v40.57a1.581,1.581,0,0,1-3.161,0v-43.73h16.333v43.73A1.58,1.58,0,0,1,468.778,358.319Z" transform="translate(-39.418 -12.069)" fill="#17202e"/>
    <path id="Trazado_12313" data-name="Trazado 12313" d="M443.656,359.172a1.58,1.58,0,0,1-1.581-1.58V323.169H431.187v34.423a1.581,1.581,0,0,1-3.161,0V320.009h17.211v37.583A1.58,1.58,0,0,1,443.656,359.172Z" transform="translate(-36.249 -12.922)" fill="#17202e"/>
    <path id="Trazado_12314" data-name="Trazado 12314" d="M474.247,372.169h-74.64a1.58,1.58,0,1,1,0-3.16h74.64a1.58,1.58,0,1,1,0,3.16Z" transform="translate(-32.592 -18.894)" fill="#17202e"/>
    <g id="Grupo_8377" data-name="Grupo 8377" transform="translate(353.175 272.387)">
      <g id="Grupo_8376" data-name="Grupo 8376">
        <path id="Trazado_12315" data-name="Trazado 12315" d="M385.647,322.293a1.581,1.581,0,0,1-.917-2.87l20.352-14.451,11.251,3.281,26.392-21.843a1.58,1.58,0,1,1,2.015,2.435l-27.683,22.912-11.393-3.322L386.561,322A1.57,1.57,0,0,1,385.647,322.293Z" transform="translate(-384.065 -281.169)" fill="#17202e"/>
        <g id="Grupo_8375" data-name="Grupo 8375" transform="translate(53.598)">
          <path id="Trazado_12316" data-name="Trazado 12316" d="M454.036,293.624l4.881-13.131L445.1,282.831Z" transform="translate(-445.103 -280.492)" fill="#17202e"/>
        </g>
      </g>
    </g>
    <g id="Grupo_8380" data-name="Grupo 8380" transform="translate(189.022 306.999)">
      <g id="Grupo_8379" data-name="Grupo 8379" transform="translate(0 6.242)">
        <g id="Grupo_8378" data-name="Grupo 8378">
          <path id="Trazado_12317" data-name="Trazado 12317" d="M238.748,348.726a19.91,19.91,0,1,1-19.909-19.91A19.91,19.91,0,0,1,238.748,348.726Z" transform="translate(-197.347 -327.236)" fill="#f08c70"/>
          <path id="Trazado_12318" data-name="Trazado 12318" d="M218.62,370a21.491,21.491,0,1,1,21.489-21.491A21.516,21.516,0,0,1,218.62,370Zm0-39.821a18.33,18.33,0,1,0,18.329,18.33A18.351,18.351,0,0,0,218.62,330.177Z" transform="translate(-197.128 -327.017)" fill="#17202e"/>
        </g>
      </g>
      <path id="Trazado_12319" data-name="Trazado 12319" d="M218.925,356.378l-9.677-7.831a1.581,1.581,0,0,1,1.988-2.458l7.189,5.818,9.913-12.568a1.581,1.581,0,0,1,2.482,1.958Z" transform="translate(-198.534 -322.204)" fill="#17202e"/>
      <path id="Trazado_12320" data-name="Trazado 12320" d="M222.052,323.07h-6.147a1.581,1.581,0,1,1,0-3.161h6.147a1.581,1.581,0,1,1,0,3.161Z" transform="translate(-199.224 -319.909)" fill="#17202e"/>
    </g>
    <g id="Grupo_8381" data-name="Grupo 8381" transform="translate(186.748 383.65)">
      <path id="Trazado_12321" data-name="Trazado 12321" d="M259.536,436.713l-39.219-26.672a6.047,6.047,0,0,0-8.4,1.6l-14.532,21.372a6.043,6.043,0,0,0,1.6,8.4L238.2,468.08a6.045,6.045,0,0,0,8.4-1.6l10.154-14.931,5.32-10.971A6.024,6.024,0,0,0,259.536,436.713Z" transform="translate(-194.758 -407.417)" fill="#c6824d"/>
      <path id="Trazado_12322" data-name="Trazado 12322" d="M241.372,470.486a7.584,7.584,0,0,1-4.276-1.317L197.877,442.5A7.624,7.624,0,0,1,195.86,431.9l14.532-21.371a7.637,7.637,0,0,1,10.594-2.018l39.219,26.671a7.578,7.578,0,0,1,3.2,4.877,1.581,1.581,0,1,1-3.105.593,4.429,4.429,0,0,0-1.876-2.856l-39.219-26.671a4.47,4.47,0,0,0-6.2,1.181l-14.531,21.372a4.464,4.464,0,0,0,1.181,6.2l39.218,26.671a4.471,4.471,0,0,0,6.2-1.181l10.153-14.931a1.581,1.581,0,0,1,2.614,1.777l-10.154,14.931A7.623,7.623,0,0,1,241.372,470.486Z" transform="translate(-194.538 -407.199)" fill="#17202e"/>
    </g>
    <path id="Trazado_12323" data-name="Trazado 12323" d="M248.509,447.952a1.57,1.57,0,0,1-.93-.3l-10.563-7.7-2.149.642-4.564-2.644-.226-3.489L218.038,426a1.581,1.581,0,0,1,1.818-2.587l13.279,9.327.215,3.316,1.921,1.113,2.341-.7,11.829,8.62a1.581,1.581,0,0,1-.932,2.858Z" transform="translate(-10.573 -25.491)" fill="#17202e"/>
    <path id="Trazado_12324" data-name="Trazado 12324" d="M251.614,274.429a1.58,1.58,0,1,1,0-3.16l57.635,0a1.58,1.58,0,1,1,0,3.16Z" transform="translate(-14.554 -6.981)" fill="#17202e"/>
    <path id="Trazado_12325" data-name="Trazado 12325" d="M234.781,417.655a1.564,1.564,0,0,1-.513-.086,1.581,1.581,0,0,1-.983-2.007c.75-2.188,3.5-6.173,8.553-5.6a20.538,20.538,0,0,1,5.463,1.6,1.581,1.581,0,0,1-1.329,2.868,17.5,17.5,0,0,0-4.492-1.328c-3.809-.434-5.149,3.32-5.2,3.48A1.582,1.582,0,0,1,234.781,417.655Z" transform="translate(-12.503 -23.879)" fill="#17202e"/>
    <path id="Trazado_12326" data-name="Trazado 12326" d="M259.195,406.244a1.574,1.574,0,0,1-1.079-.426l-4.583-4.288a1.581,1.581,0,0,1,2.16-2.309l4.583,4.288a1.581,1.581,0,0,1-1.081,2.734Z" transform="translate(-14.92 -22.525)" fill="#17202e"/>
    <path id="Trazado_12327" data-name="Trazado 12327" d="M421.122,400.8a1.581,1.581,0,0,1-1.521-1.154l-2.342-8.342a1.581,1.581,0,0,1,3.044-.854l2.342,8.342a1.581,1.581,0,0,1-1.1,1.949A1.6,1.6,0,0,1,421.122,400.8Z" transform="translate(-34.929 -21.367)" fill="#17202e"/>
    <path id="Trazado_12328" data-name="Trazado 12328" d="M436.684,398.863a1.58,1.58,0,0,1-1.565-1.372l-.7-5.238-4.448-.079a1.581,1.581,0,0,1-1.553-1.608,1.558,1.558,0,0,1,1.609-1.552l5.808.1a1.58,1.58,0,0,1,1.538,1.372l.878,6.586a1.582,1.582,0,0,1-1.568,1.79Z" transform="translate(-36.297 -21.332)" fill="#17202e"/>
    <path id="Trazado_12329" data-name="Trazado 12329" d="M326.552,414.086a1.58,1.58,0,0,1-1.415-.875,58.051,58.051,0,0,1-3.322-8.75,1.579,1.579,0,0,1,.2-1.316c8.317-12.609,15.713-31.07,16.68-33.52l.011-8.194a1.58,1.58,0,0,1,1.581-1.578h0a1.58,1.58,0,0,1,1.579,1.582l-.012,8.491a1.574,1.574,0,0,1-.106.568c-.078.2-7.8,20.043-16.689,33.77a55.215,55.215,0,0,0,2.908,7.533,1.583,1.583,0,0,1-1.414,2.288Z" transform="translate(-23.296 -17.778)" fill="#17202e"/>
    <path id="Trazado_12330" data-name="Trazado 12330" d="M341.781,401.244a1.582,1.582,0,0,1-1.526-2c3.462-12.692,6.87-28.321,6.9-28.477a1.57,1.57,0,0,1,.279-.613l2.634-3.512a1.581,1.581,0,0,1,2.529,1.9l-2.428,3.238c-.519,2.358-3.67,16.568-6.869,28.3A1.583,1.583,0,0,1,341.781,401.244Z" transform="translate(-25.544 -18.529)" fill="#17202e"/>
  </g>
</svg>
